%
M48
M72
T01C0.0236
T02C0.0320
T03C0.0354
T04C0.0394
T05C0.0400
T06C0.1181
%
T01
X6305Y8805
X6805Y8805
X9680Y10680
X14180Y17680
X16180Y19680
X17180Y19680
X18180Y20180
X18680Y18180
X20180Y16180
X22930Y18805
X25680Y18180
X22180Y22680
X21680Y23680
X19180Y25680
X20180Y27180
X16680Y24180
X14180Y25680
T02
X13180Y24430
X13180Y22680
X13180Y21680
X12180Y21680
X12180Y22680
X11180Y22680
X11180Y21680
X11180Y20680
X11180Y19680
X11180Y18680
X11180Y17680
X11180Y16680
X11180Y15680
X11180Y14680
X11180Y13680
X11180Y12680
X11180Y11680
X11180Y10680
X12180Y10680
X12180Y11680
X13180Y11680
X13180Y10680
X14180Y10680
X14180Y11680
X15180Y11680
X15180Y10680
X16180Y10680
X16180Y11680
X17180Y11680
X17180Y10680
X18180Y10680
X18180Y11680
X19180Y11680
X19180Y10680
X20180Y10680
X20180Y11680
X21180Y11680
X21180Y10680
X22180Y11680
X22180Y12680
X22180Y13680
X22180Y14680
X22180Y15680
X22180Y16680
X22180Y17680
X22180Y18680
X22180Y19680
X22180Y20680
X22180Y21680
X21180Y21680
X21180Y20680
X21180Y19680
X21180Y18680
X21180Y17680
X21180Y16680
X21180Y15680
X21180Y14680
X21180Y13680
X21180Y12680
X21180Y8930
X19180Y8930
X16180Y8930
X14180Y8930
X13180Y8930
X11180Y8930
X10180Y11680
X10180Y12680
X10180Y13680
X10180Y14680
X10180Y15680
X10180Y16680
X10180Y17680
X10180Y18680
X10180Y19680
X10180Y20680
X10180Y21680
X8430Y21180
X8430Y19180
X8680Y14680
X8680Y12680
X14180Y21680
X14180Y22680
X15180Y22680
X15180Y21680
X16180Y21680
X16180Y22680
X17180Y22680
X17180Y21680
X18180Y21680
X18180Y22680
X19180Y22680
X19180Y21680
X20180Y21680
X20180Y22680
X21180Y22680
X20180Y24680
X20180Y25680
X18180Y24680
X15180Y24430
X20180Y28680
X25180Y26680
X25180Y25680
X25180Y24680
X25180Y23680
X25680Y22430
X27680Y22430
X28180Y23680
X28180Y24680
X28180Y25680
X28180Y26680
X23930Y19680
X23930Y17680
T03
X4180Y10546
X4180Y8814
T04
X13180Y27180
X13180Y28180
X14180Y28180
X14180Y27180
X15180Y27180
X15180Y28180
X16180Y28180
X16180Y27180
X17180Y27180
X17180Y28180
T05
X21290Y28460
X23070Y28460
X23070Y25900
X21290Y25900
X27180Y20180
X27180Y19180
X27180Y18180
X27180Y17180
X27180Y16180
X27180Y15180
X27180Y14180
X27180Y13180
X28180Y13180
X28180Y14180
X28180Y15180
X28180Y16180
X28180Y17180
X28180Y18180
X28180Y19180
X28180Y20180
X28180Y10180
X28180Y9180
X28180Y8180
X27180Y8180
X27180Y9180
X27180Y10180
X25180Y7180
X25180Y6180
X24180Y6180
X24180Y7180
X23180Y7180
X23180Y6180
X22180Y6180
X22180Y7180
X21180Y7180
X21180Y6180
X20180Y6180
X20180Y7180
X19180Y7180
X19180Y6180
X18180Y6180
X18180Y7180
X15180Y7180
X15180Y6180
X14180Y6180
X14180Y7180
X13180Y7180
X13180Y6180
X12180Y6180
X12180Y7180
X11180Y7180
X11180Y6180
X10180Y6180
X10180Y7180
X9180Y7180
X9180Y6180
X8180Y6180
X8180Y7180
X5680Y18680
X5680Y19680
X5680Y20680
X5680Y21680
X5680Y22680
X5680Y23680
X5680Y24680
X5680Y25680
X4680Y25680
X4680Y24680
X4680Y23680
X4680Y22680
X4680Y21680
X4680Y20680
X4680Y19680
X4680Y18680
T06
X3680Y4680
X3680Y28680
X29680Y28680
X29680Y4680
M30
