G75*
G70*
%OFA0B0*%
%FSLAX24Y24*%
%IPPOS*%
%LPD*%
%AMOC8*
5,1,8,0,0,1.08239X$1,22.5*
%
%ADD10C,0.0000*%
%ADD11R,0.0094X0.0031*%
%ADD12R,0.0031X0.0031*%
%ADD13R,0.0189X0.0031*%
%ADD14R,0.0126X0.0031*%
%ADD15R,0.0409X0.0031*%
%ADD16R,0.0283X0.0031*%
%ADD17R,0.0441X0.0031*%
%ADD18R,0.0157X0.0031*%
%ADD19R,0.0315X0.0031*%
%ADD20R,0.0063X0.0031*%
%ADD21R,0.0504X0.0031*%
%ADD22R,0.0346X0.0031*%
%ADD23R,0.0535X0.0031*%
%ADD24R,0.0252X0.0031*%
%ADD25R,0.0378X0.0031*%
%ADD26R,0.0220X0.0031*%
%ADD27R,0.0913X0.0031*%
%ADD28R,0.0819X0.0031*%
%ADD29R,0.0787X0.0031*%
%ADD30R,0.0661X0.0031*%
D10*
X003261Y002680D02*
X030099Y002680D01*
X030177Y002682D01*
X030254Y002688D01*
X030331Y002697D01*
X030407Y002710D01*
X030483Y002727D01*
X030558Y002748D01*
X030632Y002772D01*
X030704Y002800D01*
X030775Y002832D01*
X030844Y002867D01*
X030912Y002905D01*
X030977Y002946D01*
X031041Y002991D01*
X031102Y003039D01*
X031161Y003090D01*
X031217Y003143D01*
X031270Y003199D01*
X031321Y003258D01*
X031369Y003319D01*
X031414Y003383D01*
X031455Y003448D01*
X031493Y003516D01*
X031528Y003585D01*
X031560Y003656D01*
X031588Y003728D01*
X031612Y003802D01*
X031633Y003877D01*
X031650Y003953D01*
X031663Y004029D01*
X031672Y004106D01*
X031678Y004183D01*
X031680Y004261D01*
X031680Y029266D01*
X031678Y029340D01*
X031672Y029414D01*
X031663Y029487D01*
X031649Y029560D01*
X031632Y029632D01*
X031611Y029703D01*
X031586Y029773D01*
X031558Y029841D01*
X031526Y029908D01*
X031491Y029973D01*
X031452Y030036D01*
X031410Y030097D01*
X031365Y030156D01*
X031317Y030212D01*
X031266Y030266D01*
X031212Y030317D01*
X031156Y030365D01*
X031097Y030410D01*
X031036Y030452D01*
X030973Y030491D01*
X030908Y030526D01*
X030841Y030558D01*
X030773Y030586D01*
X030703Y030611D01*
X030632Y030632D01*
X030560Y030649D01*
X030487Y030663D01*
X030414Y030672D01*
X030340Y030678D01*
X030266Y030680D01*
X003261Y030680D01*
X003183Y030678D01*
X003106Y030672D01*
X003029Y030663D01*
X002953Y030650D01*
X002877Y030633D01*
X002802Y030612D01*
X002728Y030588D01*
X002656Y030560D01*
X002585Y030528D01*
X002516Y030493D01*
X002448Y030455D01*
X002383Y030414D01*
X002319Y030369D01*
X002258Y030321D01*
X002199Y030270D01*
X002143Y030217D01*
X002090Y030161D01*
X002039Y030102D01*
X001991Y030041D01*
X001946Y029977D01*
X001905Y029912D01*
X001867Y029844D01*
X001832Y029775D01*
X001800Y029704D01*
X001772Y029632D01*
X001748Y029558D01*
X001727Y029483D01*
X001710Y029407D01*
X001697Y029331D01*
X001688Y029254D01*
X001682Y029177D01*
X001680Y029099D01*
X001680Y004261D01*
X001682Y004183D01*
X001688Y004106D01*
X001697Y004029D01*
X001710Y003953D01*
X001727Y003877D01*
X001748Y003802D01*
X001772Y003728D01*
X001800Y003656D01*
X001832Y003585D01*
X001867Y003516D01*
X001905Y003448D01*
X001946Y003383D01*
X001991Y003319D01*
X002039Y003258D01*
X002090Y003199D01*
X002143Y003143D01*
X002199Y003090D01*
X002258Y003039D01*
X002319Y002991D01*
X002383Y002946D01*
X002448Y002905D01*
X002516Y002867D01*
X002585Y002832D01*
X002656Y002800D01*
X002728Y002772D01*
X002802Y002748D01*
X002877Y002727D01*
X002953Y002710D01*
X003029Y002697D01*
X003106Y002688D01*
X003183Y002682D01*
X003261Y002680D01*
X003089Y004680D02*
X003091Y004728D01*
X003097Y004776D01*
X003107Y004823D01*
X003120Y004869D01*
X003138Y004914D01*
X003158Y004958D01*
X003183Y005000D01*
X003211Y005039D01*
X003241Y005076D01*
X003275Y005110D01*
X003312Y005142D01*
X003350Y005171D01*
X003391Y005196D01*
X003434Y005218D01*
X003479Y005236D01*
X003525Y005250D01*
X003572Y005261D01*
X003620Y005268D01*
X003668Y005271D01*
X003716Y005270D01*
X003764Y005265D01*
X003812Y005256D01*
X003858Y005244D01*
X003903Y005227D01*
X003947Y005207D01*
X003989Y005184D01*
X004029Y005157D01*
X004067Y005127D01*
X004102Y005094D01*
X004134Y005058D01*
X004164Y005020D01*
X004190Y004979D01*
X004212Y004936D01*
X004232Y004892D01*
X004247Y004847D01*
X004259Y004800D01*
X004267Y004752D01*
X004271Y004704D01*
X004271Y004656D01*
X004267Y004608D01*
X004259Y004560D01*
X004247Y004513D01*
X004232Y004468D01*
X004212Y004424D01*
X004190Y004381D01*
X004164Y004340D01*
X004134Y004302D01*
X004102Y004266D01*
X004067Y004233D01*
X004029Y004203D01*
X003989Y004176D01*
X003947Y004153D01*
X003903Y004133D01*
X003858Y004116D01*
X003812Y004104D01*
X003764Y004095D01*
X003716Y004090D01*
X003668Y004089D01*
X003620Y004092D01*
X003572Y004099D01*
X003525Y004110D01*
X003479Y004124D01*
X003434Y004142D01*
X003391Y004164D01*
X003350Y004189D01*
X003312Y004218D01*
X003275Y004250D01*
X003241Y004284D01*
X003211Y004321D01*
X003183Y004360D01*
X003158Y004402D01*
X003138Y004446D01*
X003120Y004491D01*
X003107Y004537D01*
X003097Y004584D01*
X003091Y004632D01*
X003089Y004680D01*
X004003Y008814D02*
X004005Y008840D01*
X004011Y008866D01*
X004021Y008891D01*
X004034Y008914D01*
X004050Y008934D01*
X004070Y008952D01*
X004092Y008967D01*
X004115Y008979D01*
X004141Y008987D01*
X004167Y008991D01*
X004193Y008991D01*
X004219Y008987D01*
X004245Y008979D01*
X004269Y008967D01*
X004290Y008952D01*
X004310Y008934D01*
X004326Y008914D01*
X004339Y008891D01*
X004349Y008866D01*
X004355Y008840D01*
X004357Y008814D01*
X004355Y008788D01*
X004349Y008762D01*
X004339Y008737D01*
X004326Y008714D01*
X004310Y008694D01*
X004290Y008676D01*
X004268Y008661D01*
X004245Y008649D01*
X004219Y008641D01*
X004193Y008637D01*
X004167Y008637D01*
X004141Y008641D01*
X004115Y008649D01*
X004091Y008661D01*
X004070Y008676D01*
X004050Y008694D01*
X004034Y008714D01*
X004021Y008737D01*
X004011Y008762D01*
X004005Y008788D01*
X004003Y008814D01*
X004003Y010546D02*
X004005Y010572D01*
X004011Y010598D01*
X004021Y010623D01*
X004034Y010646D01*
X004050Y010666D01*
X004070Y010684D01*
X004092Y010699D01*
X004115Y010711D01*
X004141Y010719D01*
X004167Y010723D01*
X004193Y010723D01*
X004219Y010719D01*
X004245Y010711D01*
X004269Y010699D01*
X004290Y010684D01*
X004310Y010666D01*
X004326Y010646D01*
X004339Y010623D01*
X004349Y010598D01*
X004355Y010572D01*
X004357Y010546D01*
X004355Y010520D01*
X004349Y010494D01*
X004339Y010469D01*
X004326Y010446D01*
X004310Y010426D01*
X004290Y010408D01*
X004268Y010393D01*
X004245Y010381D01*
X004219Y010373D01*
X004193Y010369D01*
X004167Y010369D01*
X004141Y010373D01*
X004115Y010381D01*
X004091Y010393D01*
X004070Y010408D01*
X004050Y010426D01*
X004034Y010446D01*
X004021Y010469D01*
X004011Y010494D01*
X004005Y010520D01*
X004003Y010546D01*
X003089Y028680D02*
X003091Y028728D01*
X003097Y028776D01*
X003107Y028823D01*
X003120Y028869D01*
X003138Y028914D01*
X003158Y028958D01*
X003183Y029000D01*
X003211Y029039D01*
X003241Y029076D01*
X003275Y029110D01*
X003312Y029142D01*
X003350Y029171D01*
X003391Y029196D01*
X003434Y029218D01*
X003479Y029236D01*
X003525Y029250D01*
X003572Y029261D01*
X003620Y029268D01*
X003668Y029271D01*
X003716Y029270D01*
X003764Y029265D01*
X003812Y029256D01*
X003858Y029244D01*
X003903Y029227D01*
X003947Y029207D01*
X003989Y029184D01*
X004029Y029157D01*
X004067Y029127D01*
X004102Y029094D01*
X004134Y029058D01*
X004164Y029020D01*
X004190Y028979D01*
X004212Y028936D01*
X004232Y028892D01*
X004247Y028847D01*
X004259Y028800D01*
X004267Y028752D01*
X004271Y028704D01*
X004271Y028656D01*
X004267Y028608D01*
X004259Y028560D01*
X004247Y028513D01*
X004232Y028468D01*
X004212Y028424D01*
X004190Y028381D01*
X004164Y028340D01*
X004134Y028302D01*
X004102Y028266D01*
X004067Y028233D01*
X004029Y028203D01*
X003989Y028176D01*
X003947Y028153D01*
X003903Y028133D01*
X003858Y028116D01*
X003812Y028104D01*
X003764Y028095D01*
X003716Y028090D01*
X003668Y028089D01*
X003620Y028092D01*
X003572Y028099D01*
X003525Y028110D01*
X003479Y028124D01*
X003434Y028142D01*
X003391Y028164D01*
X003350Y028189D01*
X003312Y028218D01*
X003275Y028250D01*
X003241Y028284D01*
X003211Y028321D01*
X003183Y028360D01*
X003158Y028402D01*
X003138Y028446D01*
X003120Y028491D01*
X003107Y028537D01*
X003097Y028584D01*
X003091Y028632D01*
X003089Y028680D01*
X029089Y028680D02*
X029091Y028728D01*
X029097Y028776D01*
X029107Y028823D01*
X029120Y028869D01*
X029138Y028914D01*
X029158Y028958D01*
X029183Y029000D01*
X029211Y029039D01*
X029241Y029076D01*
X029275Y029110D01*
X029312Y029142D01*
X029350Y029171D01*
X029391Y029196D01*
X029434Y029218D01*
X029479Y029236D01*
X029525Y029250D01*
X029572Y029261D01*
X029620Y029268D01*
X029668Y029271D01*
X029716Y029270D01*
X029764Y029265D01*
X029812Y029256D01*
X029858Y029244D01*
X029903Y029227D01*
X029947Y029207D01*
X029989Y029184D01*
X030029Y029157D01*
X030067Y029127D01*
X030102Y029094D01*
X030134Y029058D01*
X030164Y029020D01*
X030190Y028979D01*
X030212Y028936D01*
X030232Y028892D01*
X030247Y028847D01*
X030259Y028800D01*
X030267Y028752D01*
X030271Y028704D01*
X030271Y028656D01*
X030267Y028608D01*
X030259Y028560D01*
X030247Y028513D01*
X030232Y028468D01*
X030212Y028424D01*
X030190Y028381D01*
X030164Y028340D01*
X030134Y028302D01*
X030102Y028266D01*
X030067Y028233D01*
X030029Y028203D01*
X029989Y028176D01*
X029947Y028153D01*
X029903Y028133D01*
X029858Y028116D01*
X029812Y028104D01*
X029764Y028095D01*
X029716Y028090D01*
X029668Y028089D01*
X029620Y028092D01*
X029572Y028099D01*
X029525Y028110D01*
X029479Y028124D01*
X029434Y028142D01*
X029391Y028164D01*
X029350Y028189D01*
X029312Y028218D01*
X029275Y028250D01*
X029241Y028284D01*
X029211Y028321D01*
X029183Y028360D01*
X029158Y028402D01*
X029138Y028446D01*
X029120Y028491D01*
X029107Y028537D01*
X029097Y028584D01*
X029091Y028632D01*
X029089Y028680D01*
X029089Y004680D02*
X029091Y004728D01*
X029097Y004776D01*
X029107Y004823D01*
X029120Y004869D01*
X029138Y004914D01*
X029158Y004958D01*
X029183Y005000D01*
X029211Y005039D01*
X029241Y005076D01*
X029275Y005110D01*
X029312Y005142D01*
X029350Y005171D01*
X029391Y005196D01*
X029434Y005218D01*
X029479Y005236D01*
X029525Y005250D01*
X029572Y005261D01*
X029620Y005268D01*
X029668Y005271D01*
X029716Y005270D01*
X029764Y005265D01*
X029812Y005256D01*
X029858Y005244D01*
X029903Y005227D01*
X029947Y005207D01*
X029989Y005184D01*
X030029Y005157D01*
X030067Y005127D01*
X030102Y005094D01*
X030134Y005058D01*
X030164Y005020D01*
X030190Y004979D01*
X030212Y004936D01*
X030232Y004892D01*
X030247Y004847D01*
X030259Y004800D01*
X030267Y004752D01*
X030271Y004704D01*
X030271Y004656D01*
X030267Y004608D01*
X030259Y004560D01*
X030247Y004513D01*
X030232Y004468D01*
X030212Y004424D01*
X030190Y004381D01*
X030164Y004340D01*
X030134Y004302D01*
X030102Y004266D01*
X030067Y004233D01*
X030029Y004203D01*
X029989Y004176D01*
X029947Y004153D01*
X029903Y004133D01*
X029858Y004116D01*
X029812Y004104D01*
X029764Y004095D01*
X029716Y004090D01*
X029668Y004089D01*
X029620Y004092D01*
X029572Y004099D01*
X029525Y004110D01*
X029479Y004124D01*
X029434Y004142D01*
X029391Y004164D01*
X029350Y004189D01*
X029312Y004218D01*
X029275Y004250D01*
X029241Y004284D01*
X029211Y004321D01*
X029183Y004360D01*
X029158Y004402D01*
X029138Y004446D01*
X029120Y004491D01*
X029107Y004537D01*
X029097Y004584D01*
X029091Y004632D01*
X029089Y004680D01*
D11*
X016916Y003932D03*
X016916Y003900D03*
X016916Y003869D03*
X016034Y004247D03*
X016034Y004278D03*
X015656Y004688D03*
X015058Y004499D03*
X014995Y004814D03*
X014837Y005034D03*
X014711Y003995D03*
X014176Y004089D03*
X013893Y004278D03*
X013767Y003995D03*
X013137Y004121D03*
X013452Y004656D03*
X012034Y004215D03*
X011562Y004278D03*
X011184Y004215D03*
X010680Y004278D03*
X010649Y004310D03*
X010554Y003995D03*
X009515Y004089D03*
X009263Y004247D03*
X009357Y004530D03*
X009326Y004562D03*
X009294Y004593D03*
X011499Y005412D03*
X011782Y005097D03*
X016790Y005160D03*
D12*
X016790Y005129D03*
X016759Y005129D03*
X016727Y005160D03*
X016696Y005160D03*
X016664Y005160D03*
X016633Y005129D03*
X016664Y005097D03*
X016696Y005097D03*
X016696Y005066D03*
X016727Y005034D03*
X016727Y005003D03*
X016822Y005129D03*
X016853Y005129D03*
X016853Y005160D03*
X016853Y005192D03*
X016853Y005223D03*
X016790Y005255D03*
X016759Y005286D03*
X016727Y005318D03*
X016696Y005318D03*
X016664Y005318D03*
X016601Y005349D03*
X016570Y005349D03*
X016601Y005192D03*
X016601Y005160D03*
X016633Y005192D03*
X016475Y005129D03*
X016444Y005160D03*
X016444Y005192D03*
X016412Y005192D03*
X016318Y005192D03*
X016286Y005192D03*
X016255Y005192D03*
X016223Y005160D03*
X016192Y005160D03*
X016160Y005129D03*
X016160Y005097D03*
X016160Y005066D03*
X016129Y005097D03*
X016192Y005034D03*
X016223Y005003D03*
X016255Y004971D03*
X016286Y004971D03*
X016286Y004940D03*
X016318Y004940D03*
X016349Y004908D03*
X016381Y004877D03*
X016412Y004877D03*
X016475Y004845D03*
X016507Y004814D03*
X016538Y004814D03*
X016570Y004845D03*
X016538Y004877D03*
X016538Y004908D03*
X016538Y004940D03*
X016538Y004971D03*
X016507Y004971D03*
X016507Y005003D03*
X016570Y004782D03*
X016538Y004688D03*
X016507Y004688D03*
X016475Y004719D03*
X016381Y004751D03*
X016349Y004782D03*
X016318Y004782D03*
X016318Y004814D03*
X016286Y004814D03*
X016255Y004845D03*
X016192Y004877D03*
X016160Y004877D03*
X016160Y004908D03*
X016129Y004908D03*
X016097Y004940D03*
X016066Y004971D03*
X016003Y005003D03*
X015971Y005034D03*
X015971Y005066D03*
X015940Y005097D03*
X015940Y005129D03*
X015908Y005160D03*
X015908Y005192D03*
X015908Y005223D03*
X015940Y005255D03*
X015940Y005286D03*
X015971Y005318D03*
X016003Y005349D03*
X016034Y005349D03*
X016192Y005381D03*
X016759Y004845D03*
X016759Y004814D03*
X016790Y004782D03*
X016790Y004751D03*
X016822Y004719D03*
X016822Y004688D03*
X016853Y004688D03*
X016885Y004656D03*
X016885Y004625D03*
X016916Y004625D03*
X016948Y004593D03*
X016916Y004562D03*
X016916Y004530D03*
X016885Y004530D03*
X016885Y004341D03*
X016885Y004310D03*
X016916Y004247D03*
X016916Y004215D03*
X016916Y004184D03*
X016916Y004152D03*
X016948Y004121D03*
X016979Y004089D03*
X017011Y004058D03*
X017042Y004026D03*
X017074Y003995D03*
X017105Y003995D03*
X017105Y003963D03*
X017074Y003963D03*
X017074Y003932D03*
X017042Y003932D03*
X017011Y003932D03*
X016979Y003932D03*
X016979Y003900D03*
X016853Y003932D03*
X016853Y003963D03*
X016822Y003963D03*
X016790Y003963D03*
X016790Y004121D03*
X016759Y004121D03*
X016759Y004152D03*
X016759Y004184D03*
X016759Y004215D03*
X016727Y004121D03*
X016696Y004121D03*
X016664Y004152D03*
X016633Y004152D03*
X016601Y004184D03*
X016570Y004184D03*
X016538Y004215D03*
X016507Y004215D03*
X016444Y004247D03*
X016412Y004247D03*
X016381Y004247D03*
X016381Y004278D03*
X016381Y004341D03*
X016444Y004373D03*
X016475Y004373D03*
X016507Y004404D03*
X016538Y004404D03*
X016570Y004436D03*
X016601Y004436D03*
X016633Y004467D03*
X016664Y004467D03*
X016696Y004467D03*
X016696Y004436D03*
X016696Y004404D03*
X016727Y004373D03*
X016727Y004341D03*
X016570Y004593D03*
X016538Y004593D03*
X016507Y004593D03*
X016475Y004562D03*
X016444Y004530D03*
X016412Y004530D03*
X016381Y004530D03*
X016349Y004499D03*
X016255Y004467D03*
X016223Y004436D03*
X016192Y004404D03*
X016160Y004373D03*
X016129Y004341D03*
X016129Y004310D03*
X016129Y004278D03*
X016097Y004278D03*
X016097Y004310D03*
X016066Y004341D03*
X016003Y004373D03*
X015971Y004404D03*
X015940Y004436D03*
X015908Y004467D03*
X015845Y004530D03*
X015845Y004562D03*
X015845Y004593D03*
X015814Y004625D03*
X015782Y004625D03*
X015782Y004656D03*
X015751Y004656D03*
X015719Y004688D03*
X015688Y004719D03*
X015656Y004719D03*
X015625Y004719D03*
X015593Y004688D03*
X015593Y004656D03*
X015562Y004625D03*
X015530Y004625D03*
X015499Y004593D03*
X015499Y004562D03*
X015499Y004530D03*
X015499Y004467D03*
X015499Y004436D03*
X015499Y004404D03*
X015499Y004373D03*
X015530Y004341D03*
X015530Y004310D03*
X015562Y004310D03*
X015562Y004278D03*
X015593Y004247D03*
X015593Y004215D03*
X015562Y004215D03*
X015499Y004247D03*
X015467Y004278D03*
X015436Y004278D03*
X015404Y004278D03*
X015404Y004247D03*
X015373Y004215D03*
X015341Y004215D03*
X015310Y004215D03*
X015278Y004247D03*
X015247Y004247D03*
X015215Y004247D03*
X015184Y004215D03*
X015184Y004184D03*
X015184Y004152D03*
X015152Y004089D03*
X015121Y004089D03*
X014963Y004089D03*
X014932Y004089D03*
X014869Y004121D03*
X014837Y004152D03*
X014806Y004184D03*
X014774Y004184D03*
X014743Y004184D03*
X014743Y004152D03*
X014774Y004152D03*
X014774Y004121D03*
X014806Y004089D03*
X014806Y004058D03*
X014806Y004026D03*
X014806Y003995D03*
X014774Y003995D03*
X014649Y003995D03*
X014617Y003995D03*
X014586Y004026D03*
X014586Y004058D03*
X014554Y004058D03*
X014523Y004089D03*
X014491Y004089D03*
X014460Y004121D03*
X014428Y004152D03*
X014397Y004184D03*
X014365Y004184D03*
X014365Y004215D03*
X014334Y004215D03*
X014334Y004184D03*
X014334Y004152D03*
X014302Y004121D03*
X014271Y004089D03*
X014239Y004089D03*
X014113Y004089D03*
X014050Y004121D03*
X014019Y004121D03*
X014019Y004152D03*
X013987Y004152D03*
X013956Y004215D03*
X013924Y004215D03*
X013893Y004215D03*
X013861Y004215D03*
X013830Y004247D03*
X013830Y004278D03*
X013798Y004278D03*
X013767Y004310D03*
X013735Y004341D03*
X013704Y004341D03*
X013704Y004310D03*
X013704Y004373D03*
X013672Y004373D03*
X013704Y004499D03*
X013704Y004530D03*
X013672Y004530D03*
X013672Y004562D03*
X013641Y004562D03*
X013641Y004593D03*
X013609Y004593D03*
X013578Y004625D03*
X013546Y004656D03*
X013515Y004656D03*
X013483Y004688D03*
X013452Y004688D03*
X013420Y004688D03*
X013389Y004656D03*
X013389Y004625D03*
X013389Y004593D03*
X013389Y004562D03*
X013389Y004530D03*
X013420Y004499D03*
X013452Y004467D03*
X013452Y004436D03*
X013420Y004373D03*
X013389Y004404D03*
X013357Y004404D03*
X013357Y004436D03*
X013326Y004467D03*
X013263Y004499D03*
X013231Y004499D03*
X013137Y004499D03*
X013105Y004499D03*
X013074Y004341D03*
X013074Y004310D03*
X013042Y004278D03*
X013011Y004278D03*
X012979Y004278D03*
X012979Y004310D03*
X012979Y004184D03*
X013011Y004152D03*
X013042Y004121D03*
X013074Y004121D03*
X013200Y004121D03*
X013231Y004184D03*
X013231Y004215D03*
X013263Y004247D03*
X013294Y004278D03*
X013294Y004310D03*
X013326Y004310D03*
X013357Y004278D03*
X013357Y004247D03*
X013389Y004247D03*
X013452Y004215D03*
X013483Y004184D03*
X013483Y004152D03*
X013515Y004152D03*
X013515Y004121D03*
X013546Y004121D03*
X013609Y004058D03*
X013641Y004026D03*
X013672Y003995D03*
X013704Y003995D03*
X013830Y003995D03*
X013830Y004026D03*
X013830Y004058D03*
X013830Y004089D03*
X013798Y004089D03*
X013798Y004121D03*
X013767Y004121D03*
X013767Y004152D03*
X013767Y004184D03*
X013735Y004215D03*
X013924Y004247D03*
X013956Y004278D03*
X013987Y004278D03*
X014019Y004278D03*
X014050Y004247D03*
X014113Y004247D03*
X014113Y004278D03*
X014113Y004310D03*
X014113Y004341D03*
X014113Y004467D03*
X014208Y004467D03*
X014239Y004436D03*
X014271Y004467D03*
X014302Y004467D03*
X014334Y004436D03*
X014334Y004404D03*
X014334Y004373D03*
X014365Y004373D03*
X014365Y004341D03*
X014397Y004341D03*
X014428Y004341D03*
X014428Y004310D03*
X014460Y004310D03*
X014460Y004278D03*
X014491Y004278D03*
X014491Y004247D03*
X014523Y004247D03*
X014617Y004373D03*
X014617Y004404D03*
X014649Y004373D03*
X014586Y004436D03*
X014586Y004467D03*
X014554Y004467D03*
X014491Y004499D03*
X014460Y004530D03*
X014428Y004562D03*
X014397Y004562D03*
X014397Y004593D03*
X014365Y004593D03*
X014334Y004625D03*
X014302Y004656D03*
X014271Y004656D03*
X014239Y004688D03*
X014208Y004719D03*
X014082Y004751D03*
X014050Y004751D03*
X014019Y004719D03*
X014019Y004688D03*
X014050Y004656D03*
X014050Y004625D03*
X014082Y004625D03*
X014113Y004593D03*
X014145Y004593D03*
X014145Y004562D03*
X014176Y004562D03*
X014208Y004530D03*
X014239Y004499D03*
X014271Y004404D03*
X014302Y004404D03*
X014302Y004373D03*
X013924Y004341D03*
X013924Y004310D03*
X013893Y004341D03*
X013830Y004404D03*
X013798Y004436D03*
X013767Y004467D03*
X013546Y004278D03*
X013515Y004278D03*
X013483Y004341D03*
X012381Y004058D03*
X012381Y004026D03*
X012381Y003995D03*
X012349Y003963D03*
X012318Y003932D03*
X012286Y003932D03*
X012255Y003932D03*
X012223Y003932D03*
X012192Y003963D03*
X012160Y003963D03*
X012066Y003995D03*
X012034Y004026D03*
X012003Y004026D03*
X011971Y004058D03*
X011940Y004089D03*
X011877Y004121D03*
X011845Y004121D03*
X011845Y004152D03*
X011814Y004152D03*
X011782Y004152D03*
X011719Y004184D03*
X011688Y004184D03*
X011656Y004184D03*
X011656Y004247D03*
X011593Y004247D03*
X011562Y004247D03*
X011562Y004215D03*
X011593Y004215D03*
X011530Y004247D03*
X011467Y004247D03*
X011530Y004373D03*
X011530Y004404D03*
X011499Y004404D03*
X011499Y004436D03*
X011467Y004436D03*
X011467Y004467D03*
X011436Y004499D03*
X011404Y004499D03*
X011404Y004530D03*
X011373Y004530D03*
X011373Y004562D03*
X011341Y004562D03*
X011341Y004593D03*
X011310Y004625D03*
X011278Y004656D03*
X011247Y004656D03*
X011215Y004688D03*
X011184Y004688D03*
X011152Y004688D03*
X011152Y004656D03*
X011152Y004625D03*
X011184Y004593D03*
X011184Y004562D03*
X011215Y004467D03*
X011247Y004436D03*
X011247Y004404D03*
X011247Y004373D03*
X011278Y004341D03*
X011278Y004310D03*
X011310Y004278D03*
X011310Y004247D03*
X011310Y004215D03*
X011278Y004215D03*
X011247Y004215D03*
X011184Y004152D03*
X011152Y004184D03*
X011121Y004215D03*
X011058Y004215D03*
X011058Y004184D03*
X011026Y004152D03*
X010995Y004121D03*
X010963Y004121D03*
X010932Y004121D03*
X010900Y004121D03*
X010869Y004121D03*
X010837Y004152D03*
X010806Y004184D03*
X010774Y004184D03*
X010774Y004215D03*
X010774Y004247D03*
X010743Y004247D03*
X010743Y004278D03*
X010774Y004278D03*
X010743Y004310D03*
X010711Y004310D03*
X010711Y004341D03*
X010680Y004373D03*
X010649Y004373D03*
X010617Y004404D03*
X010586Y004436D03*
X010523Y004499D03*
X010491Y004530D03*
X010460Y004562D03*
X010428Y004593D03*
X010397Y004625D03*
X010365Y004625D03*
X010365Y004656D03*
X010334Y004656D03*
X010302Y004688D03*
X010208Y004688D03*
X010208Y004530D03*
X010208Y004499D03*
X010239Y004467D03*
X010239Y004436D03*
X010271Y004436D03*
X010271Y004404D03*
X010271Y004373D03*
X010302Y004373D03*
X010302Y004341D03*
X010302Y004310D03*
X010271Y004341D03*
X010208Y004373D03*
X010176Y004436D03*
X010145Y004467D03*
X010113Y004467D03*
X010050Y004499D03*
X010019Y004499D03*
X009924Y004499D03*
X009893Y004467D03*
X009893Y004436D03*
X009893Y004404D03*
X009893Y004373D03*
X009861Y004341D03*
X009861Y004310D03*
X009861Y004278D03*
X009830Y004278D03*
X009798Y004278D03*
X009798Y004310D03*
X009735Y004310D03*
X009735Y004278D03*
X009735Y004247D03*
X009704Y004215D03*
X009672Y004215D03*
X009641Y004184D03*
X009641Y004152D03*
X009641Y004121D03*
X009578Y004089D03*
X009452Y004089D03*
X009420Y004089D03*
X009389Y004089D03*
X009294Y004121D03*
X009263Y004152D03*
X009231Y004184D03*
X009200Y004184D03*
X009200Y004215D03*
X009200Y004247D03*
X009231Y004278D03*
X009263Y004278D03*
X009294Y004278D03*
X009326Y004247D03*
X009357Y004247D03*
X009452Y004247D03*
X009483Y004278D03*
X009483Y004310D03*
X009483Y004341D03*
X009420Y004373D03*
X009420Y004404D03*
X009389Y004404D03*
X009389Y004436D03*
X009357Y004436D03*
X009357Y004467D03*
X009326Y004467D03*
X009294Y004499D03*
X009294Y004530D03*
X009263Y004530D03*
X009263Y004562D03*
X009231Y004593D03*
X009200Y004625D03*
X009200Y004656D03*
X009200Y004782D03*
X009200Y004814D03*
X009231Y004814D03*
X009326Y004814D03*
X009357Y004782D03*
X009389Y004782D03*
X009420Y004751D03*
X009452Y004719D03*
X009483Y004688D03*
X009515Y004656D03*
X009546Y004625D03*
X009578Y004562D03*
X009578Y004530D03*
X009609Y004499D03*
X009641Y004467D03*
X009641Y004436D03*
X009641Y004404D03*
X009672Y004373D03*
X009704Y004341D03*
X009767Y004215D03*
X009767Y004184D03*
X009798Y004184D03*
X009830Y004152D03*
X009830Y004121D03*
X009861Y004121D03*
X010019Y004121D03*
X010019Y004152D03*
X010050Y004152D03*
X010050Y004184D03*
X010050Y004215D03*
X010082Y004278D03*
X010082Y004310D03*
X010113Y004310D03*
X010145Y004278D03*
X010176Y004278D03*
X010176Y004247D03*
X010239Y004215D03*
X010271Y004215D03*
X010302Y004184D03*
X010334Y004121D03*
X010397Y004089D03*
X010428Y004058D03*
X010460Y004026D03*
X010460Y003995D03*
X010491Y003995D03*
X010617Y003995D03*
X010617Y004026D03*
X010617Y004058D03*
X010617Y004089D03*
X010586Y004121D03*
X010554Y004215D03*
X010523Y004247D03*
X010523Y004278D03*
X010491Y004310D03*
X010491Y004341D03*
X010554Y004341D03*
X010586Y004310D03*
X010586Y004278D03*
X010617Y004278D03*
X010617Y004247D03*
X010649Y004247D03*
X010711Y004215D03*
X010806Y004310D03*
X010837Y004310D03*
X010869Y004310D03*
X010869Y004341D03*
X010869Y004373D03*
X010869Y004404D03*
X010869Y004499D03*
X010900Y004499D03*
X010932Y004499D03*
X010963Y004499D03*
X011026Y004467D03*
X011058Y004436D03*
X011058Y004404D03*
X011089Y004373D03*
X011121Y004341D03*
X011152Y004310D03*
X011184Y004278D03*
X011247Y004089D03*
X011278Y004058D03*
X011310Y004058D03*
X011341Y004026D03*
X011436Y004026D03*
X011467Y004058D03*
X011467Y004089D03*
X011593Y004310D03*
X011593Y004341D03*
X011625Y004310D03*
X011688Y004310D03*
X011562Y004373D03*
X011719Y004530D03*
X011751Y004562D03*
X011751Y004593D03*
X011814Y004625D03*
X011814Y004656D03*
X011845Y004719D03*
X011877Y004751D03*
X011908Y004782D03*
X011908Y004814D03*
X011940Y004845D03*
X011940Y005003D03*
X011940Y005034D03*
X011908Y005034D03*
X011908Y005066D03*
X011877Y005066D03*
X011877Y005097D03*
X011845Y005097D03*
X011814Y005129D03*
X011782Y005160D03*
X011751Y005160D03*
X011751Y005192D03*
X011719Y005097D03*
X011719Y005066D03*
X011751Y005066D03*
X011625Y005129D03*
X011593Y005129D03*
X011593Y005160D03*
X011562Y005192D03*
X011530Y005192D03*
X011530Y005223D03*
X011499Y005223D03*
X011436Y005318D03*
X011436Y005349D03*
X011436Y005381D03*
X011436Y005412D03*
X011467Y005444D03*
X011499Y005444D03*
X011530Y005444D03*
X011562Y005412D03*
X011593Y005412D03*
X011593Y005381D03*
X011625Y005381D03*
X011656Y005381D03*
X011719Y005349D03*
X011751Y005349D03*
X011782Y005318D03*
X011814Y005318D03*
X011845Y005286D03*
X011877Y005255D03*
X011971Y005192D03*
X012003Y005192D03*
X012003Y005160D03*
X012034Y005160D03*
X012034Y005129D03*
X012066Y005129D03*
X012097Y005066D03*
X012097Y005034D03*
X012129Y005034D03*
X012129Y005003D03*
X012160Y004971D03*
X012192Y004940D03*
X012192Y004908D03*
X012192Y004877D03*
X012192Y004845D03*
X012192Y004814D03*
X012192Y004782D03*
X012192Y004751D03*
X012129Y004719D03*
X012129Y004688D03*
X012097Y004656D03*
X012097Y004625D03*
X012066Y004593D03*
X012034Y004562D03*
X012003Y004530D03*
X012003Y004499D03*
X011971Y004499D03*
X011940Y004436D03*
X011940Y004404D03*
X011908Y004373D03*
X011908Y004341D03*
X011908Y004310D03*
X011908Y004278D03*
X011940Y004278D03*
X011940Y004247D03*
X011971Y004215D03*
X012097Y004215D03*
X012129Y004184D03*
X012160Y004184D03*
X012192Y004152D03*
X012223Y004152D03*
X012223Y004121D03*
X012255Y004121D03*
X012286Y004121D03*
X012349Y004089D03*
X012349Y004058D03*
X010334Y004278D03*
X009452Y004499D03*
X009420Y004530D03*
X009420Y004562D03*
X009389Y004562D03*
X009389Y004593D03*
X009420Y004593D03*
X009357Y004593D03*
X009231Y004310D03*
X014743Y004310D03*
X014743Y004278D03*
X014806Y004278D03*
X014837Y004278D03*
X014806Y004310D03*
X014869Y004247D03*
X014774Y004215D03*
X014995Y004467D03*
X014995Y004499D03*
X015026Y004530D03*
X015058Y004530D03*
X015089Y004530D03*
X015121Y004530D03*
X015121Y004499D03*
X015152Y004499D03*
X015184Y004467D03*
X015215Y004467D03*
X015215Y004436D03*
X015247Y004404D03*
X015278Y004373D03*
X015310Y004373D03*
X015341Y004341D03*
X015404Y004310D03*
X015436Y004310D03*
X015436Y004184D03*
X015436Y004152D03*
X015467Y004152D03*
X015499Y004121D03*
X015562Y004089D03*
X015593Y004089D03*
X015625Y004058D03*
X015625Y004026D03*
X015656Y004026D03*
X015688Y004026D03*
X015688Y003995D03*
X015719Y003995D03*
X015751Y003995D03*
X015782Y003995D03*
X015814Y003995D03*
X015845Y004026D03*
X015845Y004058D03*
X015814Y004089D03*
X015782Y004121D03*
X015782Y004152D03*
X015751Y004152D03*
X015751Y004184D03*
X015751Y004215D03*
X015719Y004278D03*
X015719Y004310D03*
X015688Y004373D03*
X015688Y004404D03*
X015688Y004436D03*
X015688Y004467D03*
X015719Y004467D03*
X015751Y004467D03*
X015751Y004436D03*
X015782Y004436D03*
X015814Y004404D03*
X015845Y004373D03*
X015877Y004341D03*
X015908Y004310D03*
X015940Y004310D03*
X015940Y004278D03*
X015971Y004278D03*
X015971Y004247D03*
X016034Y004215D03*
X016066Y004215D03*
X016160Y004215D03*
X016192Y004215D03*
X016192Y004184D03*
X016223Y004184D03*
X016255Y004121D03*
X016286Y004121D03*
X016381Y004089D03*
X016412Y004089D03*
X016444Y004058D03*
X016475Y004058D03*
X016507Y004026D03*
X016538Y004026D03*
X016570Y004026D03*
X016601Y003995D03*
X016633Y003995D03*
X016601Y004625D03*
X016601Y004656D03*
X016570Y004656D03*
X015404Y004184D03*
X015058Y004814D03*
X015058Y004877D03*
X015058Y004908D03*
X015058Y004940D03*
X015026Y004940D03*
X015026Y004971D03*
X014995Y004971D03*
X014963Y005003D03*
X014932Y005003D03*
X014932Y005034D03*
X014900Y005034D03*
X014900Y005066D03*
X014869Y005066D03*
X014774Y005066D03*
X014774Y005034D03*
X014774Y005003D03*
X014806Y004971D03*
X014806Y004940D03*
X014837Y004908D03*
X014837Y004877D03*
X014869Y004845D03*
X014900Y004845D03*
X014900Y004814D03*
X014932Y004814D03*
X014963Y004782D03*
X014995Y004782D03*
D13*
X014948Y004877D03*
X014948Y004908D03*
X014916Y004940D03*
X014286Y004562D03*
X014255Y004593D03*
X014160Y004656D03*
X014129Y004688D03*
X014192Y004373D03*
X014633Y004247D03*
X014696Y004058D03*
X014696Y004026D03*
X015672Y004625D03*
X015704Y004089D03*
X015735Y004058D03*
X016365Y004845D03*
X016460Y004782D03*
X016649Y004877D03*
X016649Y004908D03*
X016649Y004940D03*
X016649Y004971D03*
X016617Y005003D03*
X016586Y005066D03*
X016743Y005192D03*
X016680Y004782D03*
X016113Y005003D03*
X016082Y005034D03*
X016050Y005129D03*
X016302Y005381D03*
X016963Y003963D03*
X013719Y004058D03*
X013688Y004089D03*
X013656Y004121D03*
X013593Y004341D03*
X013562Y004373D03*
X013499Y004593D03*
X013184Y004310D03*
X013121Y004152D03*
X012050Y004971D03*
X011987Y005097D03*
X011924Y005129D03*
X011893Y005160D03*
X011861Y005192D03*
X011798Y004373D03*
X011798Y004341D03*
X011798Y004310D03*
X011357Y004436D03*
X011294Y004499D03*
X010979Y004373D03*
X010948Y004436D03*
X010507Y004089D03*
X009971Y004278D03*
X009971Y004310D03*
X010003Y004467D03*
X009593Y004341D03*
X009530Y004404D03*
X011357Y004089D03*
D14*
X011389Y004058D03*
X011389Y004247D03*
X011389Y004278D03*
X011263Y004562D03*
X011263Y004593D03*
X011231Y004625D03*
X011672Y005160D03*
X011515Y005381D03*
X012019Y005034D03*
X012271Y003963D03*
X013404Y004310D03*
X013436Y004278D03*
X013782Y004373D03*
X013814Y004341D03*
X013845Y004310D03*
X014160Y004436D03*
X014853Y005003D03*
X015672Y004656D03*
X015830Y004467D03*
X015861Y004436D03*
X015893Y004404D03*
X015924Y004373D03*
X016019Y004310D03*
X015767Y004026D03*
X015672Y004215D03*
X015672Y004247D03*
X015641Y004278D03*
X015641Y004310D03*
X015042Y004089D03*
X015042Y004058D03*
X016523Y005160D03*
X016523Y005192D03*
X016554Y005129D03*
X016806Y004373D03*
X016806Y004341D03*
X016806Y004310D03*
X016837Y004215D03*
X016837Y004184D03*
X016837Y004152D03*
X016869Y004121D03*
X010633Y004341D03*
X010570Y004373D03*
X010381Y004373D03*
X010255Y004278D03*
X009940Y004121D03*
X009530Y004499D03*
X009499Y004530D03*
X009499Y004562D03*
X009499Y004593D03*
X009373Y004499D03*
X009278Y004782D03*
X010255Y004656D03*
X010538Y004026D03*
D15*
X010995Y004247D03*
X011656Y005255D03*
X011751Y005223D03*
X016664Y004530D03*
X016696Y004562D03*
X016853Y003995D03*
D16*
X016349Y004215D03*
X016349Y004404D03*
X015593Y004184D03*
X015121Y004373D03*
X015026Y004121D03*
X014617Y004121D03*
X014586Y004152D03*
X014586Y004341D03*
X014271Y004310D03*
X014176Y004152D03*
X013609Y004467D03*
X013105Y004247D03*
X012223Y003995D03*
X011908Y004593D03*
X011971Y004688D03*
X012034Y004751D03*
X011436Y004341D03*
X011436Y004310D03*
X011341Y004152D03*
X011341Y004121D03*
X010428Y004436D03*
X010365Y004499D03*
X010050Y004404D03*
X010050Y004373D03*
X009924Y004247D03*
X009357Y004656D03*
X009326Y004688D03*
D17*
X009436Y004215D03*
X016806Y004026D03*
D18*
X016822Y004247D03*
X016822Y004278D03*
X016790Y004404D03*
X016790Y004436D03*
X016790Y004467D03*
X016664Y004814D03*
X016664Y004845D03*
X016412Y004814D03*
X016286Y004877D03*
X016255Y004908D03*
X016192Y004940D03*
X016160Y004971D03*
X016066Y005066D03*
X016034Y005097D03*
X016570Y005097D03*
X015971Y004341D03*
X015625Y004341D03*
X015593Y004373D03*
X015593Y004404D03*
X015593Y004436D03*
X015593Y004467D03*
X015467Y004215D03*
X015089Y004467D03*
X014995Y004845D03*
X014900Y004971D03*
X014113Y004719D03*
X014176Y004404D03*
X013735Y004026D03*
X013641Y004278D03*
X013609Y004310D03*
X013483Y004625D03*
X012034Y005003D03*
X012003Y005066D03*
X011719Y005129D03*
X011656Y005192D03*
X011278Y004530D03*
X010963Y004404D03*
X010932Y004467D03*
X010932Y004152D03*
X010523Y004058D03*
X010428Y004278D03*
X010397Y004310D03*
X010397Y004341D03*
X010208Y004310D03*
X010271Y004625D03*
X009924Y004152D03*
X011404Y004215D03*
D19*
X011326Y004184D03*
X011798Y004215D03*
X012019Y004152D03*
X012050Y004121D03*
X012208Y004026D03*
X013247Y004373D03*
X013562Y004247D03*
X013625Y004436D03*
X014286Y004278D03*
X014570Y004184D03*
X015011Y004152D03*
X015672Y004530D03*
X015672Y004562D03*
X015672Y004593D03*
X016082Y005192D03*
X016649Y004719D03*
X016397Y004436D03*
X016397Y004184D03*
X011609Y005318D03*
X010412Y004467D03*
X010444Y004404D03*
X010349Y004247D03*
X009467Y004121D03*
X009373Y004625D03*
D20*
X009278Y004814D03*
X009404Y004247D03*
X009971Y004499D03*
X010255Y004688D03*
X010475Y004373D03*
X010696Y004247D03*
X011200Y004656D03*
X011483Y004278D03*
X011641Y004278D03*
X011389Y004026D03*
X011798Y005066D03*
X013184Y004499D03*
X013499Y004310D03*
X013877Y004247D03*
X013971Y004310D03*
X014003Y004247D03*
X014192Y004058D03*
X014286Y004436D03*
X014160Y004467D03*
X014759Y004247D03*
X014822Y004247D03*
X015326Y004247D03*
X015452Y004247D03*
X016113Y004247D03*
X016365Y005192D03*
X014822Y005097D03*
X014822Y005066D03*
D21*
X016302Y005349D03*
X016617Y004499D03*
X016743Y004058D03*
D22*
X016444Y004467D03*
X016759Y004593D03*
X015152Y004341D03*
X014995Y004184D03*
X014554Y004215D03*
X014302Y004247D03*
X014145Y004215D03*
X014145Y004184D03*
X013641Y004404D03*
X012160Y004058D03*
X009452Y004152D03*
D23*
X016696Y004089D03*
D24*
X016302Y004373D03*
X016680Y004688D03*
X016743Y004656D03*
X016743Y004625D03*
X016050Y005160D03*
X015609Y004152D03*
X015641Y004121D03*
X015105Y004404D03*
X014601Y004310D03*
X014475Y004404D03*
X014664Y004089D03*
X013625Y004184D03*
X013593Y004215D03*
X013562Y004499D03*
X013530Y004530D03*
X013215Y004436D03*
X013215Y004404D03*
X013089Y004215D03*
X012050Y004782D03*
X012050Y004814D03*
X011987Y004719D03*
X011956Y004656D03*
X011956Y004625D03*
X011893Y004562D03*
X011861Y004530D03*
X011830Y004499D03*
X011830Y004467D03*
X011798Y004247D03*
X011389Y004373D03*
X011011Y004310D03*
X010916Y004215D03*
X010444Y004184D03*
X010444Y004152D03*
X010412Y004215D03*
X010349Y004530D03*
X010318Y004562D03*
X010034Y004436D03*
X009908Y004215D03*
X009593Y004247D03*
X009499Y004467D03*
X009310Y004719D03*
X011578Y005349D03*
D25*
X011641Y005286D03*
X011924Y004184D03*
X012145Y004089D03*
X013278Y004341D03*
X014979Y004215D03*
X015168Y004278D03*
X015168Y004310D03*
X015672Y004499D03*
X016428Y004152D03*
X016491Y004121D03*
X016586Y004751D03*
X010979Y004278D03*
X010066Y004341D03*
X009436Y004184D03*
D26*
X009609Y004278D03*
X009609Y004310D03*
X009546Y004373D03*
X009515Y004436D03*
X009294Y004751D03*
X009924Y004184D03*
X010302Y004593D03*
X010460Y004121D03*
X010932Y004184D03*
X010995Y004341D03*
X011341Y004467D03*
X011373Y004404D03*
X011782Y004278D03*
X011814Y004404D03*
X011814Y004436D03*
X012066Y004845D03*
X012066Y004877D03*
X012066Y004908D03*
X012066Y004940D03*
X013200Y004467D03*
X013168Y004278D03*
X013105Y004184D03*
X013641Y004152D03*
X013515Y004562D03*
X014208Y004625D03*
X014334Y004530D03*
X014365Y004499D03*
X014428Y004467D03*
X014460Y004436D03*
X014491Y004373D03*
X014617Y004278D03*
X014239Y004341D03*
X014176Y004121D03*
X015089Y004247D03*
X015089Y004436D03*
X016255Y004341D03*
X016255Y004310D03*
X016255Y004278D03*
X016255Y004247D03*
X016601Y005034D03*
D27*
X016381Y005223D03*
D28*
X016365Y005255D03*
D29*
X016349Y005286D03*
D30*
X016318Y005318D03*
M02*
