G75*
G70*
%OFA0B0*%
%FSLAX24Y24*%
%IPPOS*%
%LPD*%
%AMOC8*
5,1,8,0,0,1.08239X$1,22.5*
%
%ADD10C,0.0000*%
D10*
X003261Y002680D02*
X030099Y002680D01*
X030177Y002682D01*
X030254Y002688D01*
X030331Y002697D01*
X030407Y002710D01*
X030483Y002727D01*
X030558Y002748D01*
X030632Y002772D01*
X030704Y002800D01*
X030775Y002832D01*
X030844Y002867D01*
X030912Y002905D01*
X030977Y002946D01*
X031041Y002991D01*
X031102Y003039D01*
X031161Y003090D01*
X031217Y003143D01*
X031270Y003199D01*
X031321Y003258D01*
X031369Y003319D01*
X031414Y003383D01*
X031455Y003448D01*
X031493Y003516D01*
X031528Y003585D01*
X031560Y003656D01*
X031588Y003728D01*
X031612Y003802D01*
X031633Y003877D01*
X031650Y003953D01*
X031663Y004029D01*
X031672Y004106D01*
X031678Y004183D01*
X031680Y004261D01*
X031680Y029266D01*
X031678Y029340D01*
X031672Y029414D01*
X031663Y029487D01*
X031649Y029560D01*
X031632Y029632D01*
X031611Y029703D01*
X031586Y029773D01*
X031558Y029841D01*
X031526Y029908D01*
X031491Y029973D01*
X031452Y030036D01*
X031410Y030097D01*
X031365Y030156D01*
X031317Y030212D01*
X031266Y030266D01*
X031212Y030317D01*
X031156Y030365D01*
X031097Y030410D01*
X031036Y030452D01*
X030973Y030491D01*
X030908Y030526D01*
X030841Y030558D01*
X030773Y030586D01*
X030703Y030611D01*
X030632Y030632D01*
X030560Y030649D01*
X030487Y030663D01*
X030414Y030672D01*
X030340Y030678D01*
X030266Y030680D01*
X003261Y030680D01*
X003183Y030678D01*
X003106Y030672D01*
X003029Y030663D01*
X002953Y030650D01*
X002877Y030633D01*
X002802Y030612D01*
X002728Y030588D01*
X002656Y030560D01*
X002585Y030528D01*
X002516Y030493D01*
X002448Y030455D01*
X002383Y030414D01*
X002319Y030369D01*
X002258Y030321D01*
X002199Y030270D01*
X002143Y030217D01*
X002090Y030161D01*
X002039Y030102D01*
X001991Y030041D01*
X001946Y029977D01*
X001905Y029912D01*
X001867Y029844D01*
X001832Y029775D01*
X001800Y029704D01*
X001772Y029632D01*
X001748Y029558D01*
X001727Y029483D01*
X001710Y029407D01*
X001697Y029331D01*
X001688Y029254D01*
X001682Y029177D01*
X001680Y029099D01*
X001680Y004261D01*
X001682Y004183D01*
X001688Y004106D01*
X001697Y004029D01*
X001710Y003953D01*
X001727Y003877D01*
X001748Y003802D01*
X001772Y003728D01*
X001800Y003656D01*
X001832Y003585D01*
X001867Y003516D01*
X001905Y003448D01*
X001946Y003383D01*
X001991Y003319D01*
X002039Y003258D01*
X002090Y003199D01*
X002143Y003143D01*
X002199Y003090D01*
X002258Y003039D01*
X002319Y002991D01*
X002383Y002946D01*
X002448Y002905D01*
X002516Y002867D01*
X002585Y002832D01*
X002656Y002800D01*
X002728Y002772D01*
X002802Y002748D01*
X002877Y002727D01*
X002953Y002710D01*
X003029Y002697D01*
X003106Y002688D01*
X003183Y002682D01*
X003261Y002680D01*
X003089Y004680D02*
X003091Y004728D01*
X003097Y004776D01*
X003107Y004823D01*
X003120Y004869D01*
X003138Y004914D01*
X003158Y004958D01*
X003183Y005000D01*
X003211Y005039D01*
X003241Y005076D01*
X003275Y005110D01*
X003312Y005142D01*
X003350Y005171D01*
X003391Y005196D01*
X003434Y005218D01*
X003479Y005236D01*
X003525Y005250D01*
X003572Y005261D01*
X003620Y005268D01*
X003668Y005271D01*
X003716Y005270D01*
X003764Y005265D01*
X003812Y005256D01*
X003858Y005244D01*
X003903Y005227D01*
X003947Y005207D01*
X003989Y005184D01*
X004029Y005157D01*
X004067Y005127D01*
X004102Y005094D01*
X004134Y005058D01*
X004164Y005020D01*
X004190Y004979D01*
X004212Y004936D01*
X004232Y004892D01*
X004247Y004847D01*
X004259Y004800D01*
X004267Y004752D01*
X004271Y004704D01*
X004271Y004656D01*
X004267Y004608D01*
X004259Y004560D01*
X004247Y004513D01*
X004232Y004468D01*
X004212Y004424D01*
X004190Y004381D01*
X004164Y004340D01*
X004134Y004302D01*
X004102Y004266D01*
X004067Y004233D01*
X004029Y004203D01*
X003989Y004176D01*
X003947Y004153D01*
X003903Y004133D01*
X003858Y004116D01*
X003812Y004104D01*
X003764Y004095D01*
X003716Y004090D01*
X003668Y004089D01*
X003620Y004092D01*
X003572Y004099D01*
X003525Y004110D01*
X003479Y004124D01*
X003434Y004142D01*
X003391Y004164D01*
X003350Y004189D01*
X003312Y004218D01*
X003275Y004250D01*
X003241Y004284D01*
X003211Y004321D01*
X003183Y004360D01*
X003158Y004402D01*
X003138Y004446D01*
X003120Y004491D01*
X003107Y004537D01*
X003097Y004584D01*
X003091Y004632D01*
X003089Y004680D01*
X004003Y008814D02*
X004005Y008840D01*
X004011Y008866D01*
X004021Y008891D01*
X004034Y008914D01*
X004050Y008934D01*
X004070Y008952D01*
X004092Y008967D01*
X004115Y008979D01*
X004141Y008987D01*
X004167Y008991D01*
X004193Y008991D01*
X004219Y008987D01*
X004245Y008979D01*
X004269Y008967D01*
X004290Y008952D01*
X004310Y008934D01*
X004326Y008914D01*
X004339Y008891D01*
X004349Y008866D01*
X004355Y008840D01*
X004357Y008814D01*
X004355Y008788D01*
X004349Y008762D01*
X004339Y008737D01*
X004326Y008714D01*
X004310Y008694D01*
X004290Y008676D01*
X004268Y008661D01*
X004245Y008649D01*
X004219Y008641D01*
X004193Y008637D01*
X004167Y008637D01*
X004141Y008641D01*
X004115Y008649D01*
X004091Y008661D01*
X004070Y008676D01*
X004050Y008694D01*
X004034Y008714D01*
X004021Y008737D01*
X004011Y008762D01*
X004005Y008788D01*
X004003Y008814D01*
X004003Y010546D02*
X004005Y010572D01*
X004011Y010598D01*
X004021Y010623D01*
X004034Y010646D01*
X004050Y010666D01*
X004070Y010684D01*
X004092Y010699D01*
X004115Y010711D01*
X004141Y010719D01*
X004167Y010723D01*
X004193Y010723D01*
X004219Y010719D01*
X004245Y010711D01*
X004269Y010699D01*
X004290Y010684D01*
X004310Y010666D01*
X004326Y010646D01*
X004339Y010623D01*
X004349Y010598D01*
X004355Y010572D01*
X004357Y010546D01*
X004355Y010520D01*
X004349Y010494D01*
X004339Y010469D01*
X004326Y010446D01*
X004310Y010426D01*
X004290Y010408D01*
X004268Y010393D01*
X004245Y010381D01*
X004219Y010373D01*
X004193Y010369D01*
X004167Y010369D01*
X004141Y010373D01*
X004115Y010381D01*
X004091Y010393D01*
X004070Y010408D01*
X004050Y010426D01*
X004034Y010446D01*
X004021Y010469D01*
X004011Y010494D01*
X004005Y010520D01*
X004003Y010546D01*
X003089Y028680D02*
X003091Y028728D01*
X003097Y028776D01*
X003107Y028823D01*
X003120Y028869D01*
X003138Y028914D01*
X003158Y028958D01*
X003183Y029000D01*
X003211Y029039D01*
X003241Y029076D01*
X003275Y029110D01*
X003312Y029142D01*
X003350Y029171D01*
X003391Y029196D01*
X003434Y029218D01*
X003479Y029236D01*
X003525Y029250D01*
X003572Y029261D01*
X003620Y029268D01*
X003668Y029271D01*
X003716Y029270D01*
X003764Y029265D01*
X003812Y029256D01*
X003858Y029244D01*
X003903Y029227D01*
X003947Y029207D01*
X003989Y029184D01*
X004029Y029157D01*
X004067Y029127D01*
X004102Y029094D01*
X004134Y029058D01*
X004164Y029020D01*
X004190Y028979D01*
X004212Y028936D01*
X004232Y028892D01*
X004247Y028847D01*
X004259Y028800D01*
X004267Y028752D01*
X004271Y028704D01*
X004271Y028656D01*
X004267Y028608D01*
X004259Y028560D01*
X004247Y028513D01*
X004232Y028468D01*
X004212Y028424D01*
X004190Y028381D01*
X004164Y028340D01*
X004134Y028302D01*
X004102Y028266D01*
X004067Y028233D01*
X004029Y028203D01*
X003989Y028176D01*
X003947Y028153D01*
X003903Y028133D01*
X003858Y028116D01*
X003812Y028104D01*
X003764Y028095D01*
X003716Y028090D01*
X003668Y028089D01*
X003620Y028092D01*
X003572Y028099D01*
X003525Y028110D01*
X003479Y028124D01*
X003434Y028142D01*
X003391Y028164D01*
X003350Y028189D01*
X003312Y028218D01*
X003275Y028250D01*
X003241Y028284D01*
X003211Y028321D01*
X003183Y028360D01*
X003158Y028402D01*
X003138Y028446D01*
X003120Y028491D01*
X003107Y028537D01*
X003097Y028584D01*
X003091Y028632D01*
X003089Y028680D01*
X029089Y028680D02*
X029091Y028728D01*
X029097Y028776D01*
X029107Y028823D01*
X029120Y028869D01*
X029138Y028914D01*
X029158Y028958D01*
X029183Y029000D01*
X029211Y029039D01*
X029241Y029076D01*
X029275Y029110D01*
X029312Y029142D01*
X029350Y029171D01*
X029391Y029196D01*
X029434Y029218D01*
X029479Y029236D01*
X029525Y029250D01*
X029572Y029261D01*
X029620Y029268D01*
X029668Y029271D01*
X029716Y029270D01*
X029764Y029265D01*
X029812Y029256D01*
X029858Y029244D01*
X029903Y029227D01*
X029947Y029207D01*
X029989Y029184D01*
X030029Y029157D01*
X030067Y029127D01*
X030102Y029094D01*
X030134Y029058D01*
X030164Y029020D01*
X030190Y028979D01*
X030212Y028936D01*
X030232Y028892D01*
X030247Y028847D01*
X030259Y028800D01*
X030267Y028752D01*
X030271Y028704D01*
X030271Y028656D01*
X030267Y028608D01*
X030259Y028560D01*
X030247Y028513D01*
X030232Y028468D01*
X030212Y028424D01*
X030190Y028381D01*
X030164Y028340D01*
X030134Y028302D01*
X030102Y028266D01*
X030067Y028233D01*
X030029Y028203D01*
X029989Y028176D01*
X029947Y028153D01*
X029903Y028133D01*
X029858Y028116D01*
X029812Y028104D01*
X029764Y028095D01*
X029716Y028090D01*
X029668Y028089D01*
X029620Y028092D01*
X029572Y028099D01*
X029525Y028110D01*
X029479Y028124D01*
X029434Y028142D01*
X029391Y028164D01*
X029350Y028189D01*
X029312Y028218D01*
X029275Y028250D01*
X029241Y028284D01*
X029211Y028321D01*
X029183Y028360D01*
X029158Y028402D01*
X029138Y028446D01*
X029120Y028491D01*
X029107Y028537D01*
X029097Y028584D01*
X029091Y028632D01*
X029089Y028680D01*
X029089Y004680D02*
X029091Y004728D01*
X029097Y004776D01*
X029107Y004823D01*
X029120Y004869D01*
X029138Y004914D01*
X029158Y004958D01*
X029183Y005000D01*
X029211Y005039D01*
X029241Y005076D01*
X029275Y005110D01*
X029312Y005142D01*
X029350Y005171D01*
X029391Y005196D01*
X029434Y005218D01*
X029479Y005236D01*
X029525Y005250D01*
X029572Y005261D01*
X029620Y005268D01*
X029668Y005271D01*
X029716Y005270D01*
X029764Y005265D01*
X029812Y005256D01*
X029858Y005244D01*
X029903Y005227D01*
X029947Y005207D01*
X029989Y005184D01*
X030029Y005157D01*
X030067Y005127D01*
X030102Y005094D01*
X030134Y005058D01*
X030164Y005020D01*
X030190Y004979D01*
X030212Y004936D01*
X030232Y004892D01*
X030247Y004847D01*
X030259Y004800D01*
X030267Y004752D01*
X030271Y004704D01*
X030271Y004656D01*
X030267Y004608D01*
X030259Y004560D01*
X030247Y004513D01*
X030232Y004468D01*
X030212Y004424D01*
X030190Y004381D01*
X030164Y004340D01*
X030134Y004302D01*
X030102Y004266D01*
X030067Y004233D01*
X030029Y004203D01*
X029989Y004176D01*
X029947Y004153D01*
X029903Y004133D01*
X029858Y004116D01*
X029812Y004104D01*
X029764Y004095D01*
X029716Y004090D01*
X029668Y004089D01*
X029620Y004092D01*
X029572Y004099D01*
X029525Y004110D01*
X029479Y004124D01*
X029434Y004142D01*
X029391Y004164D01*
X029350Y004189D01*
X029312Y004218D01*
X029275Y004250D01*
X029241Y004284D01*
X029211Y004321D01*
X029183Y004360D01*
X029158Y004402D01*
X029138Y004446D01*
X029120Y004491D01*
X029107Y004537D01*
X029097Y004584D01*
X029091Y004632D01*
X029089Y004680D01*
M02*
