G75*
G70*
%OFA0B0*%
%FSLAX24Y24*%
%IPPOS*%
%LPD*%
%AMOC8*
5,1,8,0,0,1.08239X$1,22.5*
%
%ADD10C,0.0000*%
%ADD11C,0.0040*%
%ADD12R,0.0094X0.0031*%
%ADD13R,0.0031X0.0031*%
%ADD14R,0.0189X0.0031*%
%ADD15R,0.0126X0.0031*%
%ADD16R,0.0409X0.0031*%
%ADD17R,0.0283X0.0031*%
%ADD18R,0.0441X0.0031*%
%ADD19R,0.0157X0.0031*%
%ADD20R,0.0315X0.0031*%
%ADD21R,0.0063X0.0031*%
%ADD22R,0.0504X0.0031*%
%ADD23R,0.0346X0.0031*%
%ADD24R,0.0535X0.0031*%
%ADD25R,0.0252X0.0031*%
%ADD26R,0.0378X0.0031*%
%ADD27R,0.0220X0.0031*%
%ADD28R,0.0913X0.0031*%
%ADD29R,0.0819X0.0031*%
%ADD30R,0.0787X0.0031*%
%ADD31R,0.0661X0.0031*%
%ADD32C,0.0080*%
%ADD33C,0.0060*%
%ADD34C,0.0020*%
%ADD35C,0.0050*%
%ADD36C,0.0200*%
%ADD37R,0.0200X0.0150*%
%ADD38C,0.0120*%
%ADD39R,0.0150X0.0300*%
%ADD40R,0.0300X0.0150*%
%ADD41R,0.0200X0.0200*%
D10*
X003261Y002680D02*
X030099Y002680D01*
X030177Y002682D01*
X030254Y002688D01*
X030331Y002697D01*
X030407Y002710D01*
X030483Y002727D01*
X030558Y002748D01*
X030632Y002772D01*
X030704Y002800D01*
X030775Y002832D01*
X030844Y002867D01*
X030912Y002905D01*
X030977Y002946D01*
X031041Y002991D01*
X031102Y003039D01*
X031161Y003090D01*
X031217Y003143D01*
X031270Y003199D01*
X031321Y003258D01*
X031369Y003319D01*
X031414Y003383D01*
X031455Y003448D01*
X031493Y003516D01*
X031528Y003585D01*
X031560Y003656D01*
X031588Y003728D01*
X031612Y003802D01*
X031633Y003877D01*
X031650Y003953D01*
X031663Y004029D01*
X031672Y004106D01*
X031678Y004183D01*
X031680Y004261D01*
X031680Y029266D01*
X031678Y029340D01*
X031672Y029414D01*
X031663Y029487D01*
X031649Y029560D01*
X031632Y029632D01*
X031611Y029703D01*
X031586Y029773D01*
X031558Y029841D01*
X031526Y029908D01*
X031491Y029973D01*
X031452Y030036D01*
X031410Y030097D01*
X031365Y030156D01*
X031317Y030212D01*
X031266Y030266D01*
X031212Y030317D01*
X031156Y030365D01*
X031097Y030410D01*
X031036Y030452D01*
X030973Y030491D01*
X030908Y030526D01*
X030841Y030558D01*
X030773Y030586D01*
X030703Y030611D01*
X030632Y030632D01*
X030560Y030649D01*
X030487Y030663D01*
X030414Y030672D01*
X030340Y030678D01*
X030266Y030680D01*
X003261Y030680D01*
X003183Y030678D01*
X003106Y030672D01*
X003029Y030663D01*
X002953Y030650D01*
X002877Y030633D01*
X002802Y030612D01*
X002728Y030588D01*
X002656Y030560D01*
X002585Y030528D01*
X002516Y030493D01*
X002448Y030455D01*
X002383Y030414D01*
X002319Y030369D01*
X002258Y030321D01*
X002199Y030270D01*
X002143Y030217D01*
X002090Y030161D01*
X002039Y030102D01*
X001991Y030041D01*
X001946Y029977D01*
X001905Y029912D01*
X001867Y029844D01*
X001832Y029775D01*
X001800Y029704D01*
X001772Y029632D01*
X001748Y029558D01*
X001727Y029483D01*
X001710Y029407D01*
X001697Y029331D01*
X001688Y029254D01*
X001682Y029177D01*
X001680Y029099D01*
X001680Y004261D01*
X001682Y004183D01*
X001688Y004106D01*
X001697Y004029D01*
X001710Y003953D01*
X001727Y003877D01*
X001748Y003802D01*
X001772Y003728D01*
X001800Y003656D01*
X001832Y003585D01*
X001867Y003516D01*
X001905Y003448D01*
X001946Y003383D01*
X001991Y003319D01*
X002039Y003258D01*
X002090Y003199D01*
X002143Y003143D01*
X002199Y003090D01*
X002258Y003039D01*
X002319Y002991D01*
X002383Y002946D01*
X002448Y002905D01*
X002516Y002867D01*
X002585Y002832D01*
X002656Y002800D01*
X002728Y002772D01*
X002802Y002748D01*
X002877Y002727D01*
X002953Y002710D01*
X003029Y002697D01*
X003106Y002688D01*
X003183Y002682D01*
X003261Y002680D01*
X003089Y004680D02*
X003091Y004728D01*
X003097Y004776D01*
X003107Y004823D01*
X003120Y004869D01*
X003138Y004914D01*
X003158Y004958D01*
X003183Y005000D01*
X003211Y005039D01*
X003241Y005076D01*
X003275Y005110D01*
X003312Y005142D01*
X003350Y005171D01*
X003391Y005196D01*
X003434Y005218D01*
X003479Y005236D01*
X003525Y005250D01*
X003572Y005261D01*
X003620Y005268D01*
X003668Y005271D01*
X003716Y005270D01*
X003764Y005265D01*
X003812Y005256D01*
X003858Y005244D01*
X003903Y005227D01*
X003947Y005207D01*
X003989Y005184D01*
X004029Y005157D01*
X004067Y005127D01*
X004102Y005094D01*
X004134Y005058D01*
X004164Y005020D01*
X004190Y004979D01*
X004212Y004936D01*
X004232Y004892D01*
X004247Y004847D01*
X004259Y004800D01*
X004267Y004752D01*
X004271Y004704D01*
X004271Y004656D01*
X004267Y004608D01*
X004259Y004560D01*
X004247Y004513D01*
X004232Y004468D01*
X004212Y004424D01*
X004190Y004381D01*
X004164Y004340D01*
X004134Y004302D01*
X004102Y004266D01*
X004067Y004233D01*
X004029Y004203D01*
X003989Y004176D01*
X003947Y004153D01*
X003903Y004133D01*
X003858Y004116D01*
X003812Y004104D01*
X003764Y004095D01*
X003716Y004090D01*
X003668Y004089D01*
X003620Y004092D01*
X003572Y004099D01*
X003525Y004110D01*
X003479Y004124D01*
X003434Y004142D01*
X003391Y004164D01*
X003350Y004189D01*
X003312Y004218D01*
X003275Y004250D01*
X003241Y004284D01*
X003211Y004321D01*
X003183Y004360D01*
X003158Y004402D01*
X003138Y004446D01*
X003120Y004491D01*
X003107Y004537D01*
X003097Y004584D01*
X003091Y004632D01*
X003089Y004680D01*
X004003Y008814D02*
X004005Y008840D01*
X004011Y008866D01*
X004021Y008891D01*
X004034Y008914D01*
X004050Y008934D01*
X004070Y008952D01*
X004092Y008967D01*
X004115Y008979D01*
X004141Y008987D01*
X004167Y008991D01*
X004193Y008991D01*
X004219Y008987D01*
X004245Y008979D01*
X004269Y008967D01*
X004290Y008952D01*
X004310Y008934D01*
X004326Y008914D01*
X004339Y008891D01*
X004349Y008866D01*
X004355Y008840D01*
X004357Y008814D01*
X004355Y008788D01*
X004349Y008762D01*
X004339Y008737D01*
X004326Y008714D01*
X004310Y008694D01*
X004290Y008676D01*
X004268Y008661D01*
X004245Y008649D01*
X004219Y008641D01*
X004193Y008637D01*
X004167Y008637D01*
X004141Y008641D01*
X004115Y008649D01*
X004091Y008661D01*
X004070Y008676D01*
X004050Y008694D01*
X004034Y008714D01*
X004021Y008737D01*
X004011Y008762D01*
X004005Y008788D01*
X004003Y008814D01*
X004003Y010546D02*
X004005Y010572D01*
X004011Y010598D01*
X004021Y010623D01*
X004034Y010646D01*
X004050Y010666D01*
X004070Y010684D01*
X004092Y010699D01*
X004115Y010711D01*
X004141Y010719D01*
X004167Y010723D01*
X004193Y010723D01*
X004219Y010719D01*
X004245Y010711D01*
X004269Y010699D01*
X004290Y010684D01*
X004310Y010666D01*
X004326Y010646D01*
X004339Y010623D01*
X004349Y010598D01*
X004355Y010572D01*
X004357Y010546D01*
X004355Y010520D01*
X004349Y010494D01*
X004339Y010469D01*
X004326Y010446D01*
X004310Y010426D01*
X004290Y010408D01*
X004268Y010393D01*
X004245Y010381D01*
X004219Y010373D01*
X004193Y010369D01*
X004167Y010369D01*
X004141Y010373D01*
X004115Y010381D01*
X004091Y010393D01*
X004070Y010408D01*
X004050Y010426D01*
X004034Y010446D01*
X004021Y010469D01*
X004011Y010494D01*
X004005Y010520D01*
X004003Y010546D01*
X003089Y028680D02*
X003091Y028728D01*
X003097Y028776D01*
X003107Y028823D01*
X003120Y028869D01*
X003138Y028914D01*
X003158Y028958D01*
X003183Y029000D01*
X003211Y029039D01*
X003241Y029076D01*
X003275Y029110D01*
X003312Y029142D01*
X003350Y029171D01*
X003391Y029196D01*
X003434Y029218D01*
X003479Y029236D01*
X003525Y029250D01*
X003572Y029261D01*
X003620Y029268D01*
X003668Y029271D01*
X003716Y029270D01*
X003764Y029265D01*
X003812Y029256D01*
X003858Y029244D01*
X003903Y029227D01*
X003947Y029207D01*
X003989Y029184D01*
X004029Y029157D01*
X004067Y029127D01*
X004102Y029094D01*
X004134Y029058D01*
X004164Y029020D01*
X004190Y028979D01*
X004212Y028936D01*
X004232Y028892D01*
X004247Y028847D01*
X004259Y028800D01*
X004267Y028752D01*
X004271Y028704D01*
X004271Y028656D01*
X004267Y028608D01*
X004259Y028560D01*
X004247Y028513D01*
X004232Y028468D01*
X004212Y028424D01*
X004190Y028381D01*
X004164Y028340D01*
X004134Y028302D01*
X004102Y028266D01*
X004067Y028233D01*
X004029Y028203D01*
X003989Y028176D01*
X003947Y028153D01*
X003903Y028133D01*
X003858Y028116D01*
X003812Y028104D01*
X003764Y028095D01*
X003716Y028090D01*
X003668Y028089D01*
X003620Y028092D01*
X003572Y028099D01*
X003525Y028110D01*
X003479Y028124D01*
X003434Y028142D01*
X003391Y028164D01*
X003350Y028189D01*
X003312Y028218D01*
X003275Y028250D01*
X003241Y028284D01*
X003211Y028321D01*
X003183Y028360D01*
X003158Y028402D01*
X003138Y028446D01*
X003120Y028491D01*
X003107Y028537D01*
X003097Y028584D01*
X003091Y028632D01*
X003089Y028680D01*
X029089Y028680D02*
X029091Y028728D01*
X029097Y028776D01*
X029107Y028823D01*
X029120Y028869D01*
X029138Y028914D01*
X029158Y028958D01*
X029183Y029000D01*
X029211Y029039D01*
X029241Y029076D01*
X029275Y029110D01*
X029312Y029142D01*
X029350Y029171D01*
X029391Y029196D01*
X029434Y029218D01*
X029479Y029236D01*
X029525Y029250D01*
X029572Y029261D01*
X029620Y029268D01*
X029668Y029271D01*
X029716Y029270D01*
X029764Y029265D01*
X029812Y029256D01*
X029858Y029244D01*
X029903Y029227D01*
X029947Y029207D01*
X029989Y029184D01*
X030029Y029157D01*
X030067Y029127D01*
X030102Y029094D01*
X030134Y029058D01*
X030164Y029020D01*
X030190Y028979D01*
X030212Y028936D01*
X030232Y028892D01*
X030247Y028847D01*
X030259Y028800D01*
X030267Y028752D01*
X030271Y028704D01*
X030271Y028656D01*
X030267Y028608D01*
X030259Y028560D01*
X030247Y028513D01*
X030232Y028468D01*
X030212Y028424D01*
X030190Y028381D01*
X030164Y028340D01*
X030134Y028302D01*
X030102Y028266D01*
X030067Y028233D01*
X030029Y028203D01*
X029989Y028176D01*
X029947Y028153D01*
X029903Y028133D01*
X029858Y028116D01*
X029812Y028104D01*
X029764Y028095D01*
X029716Y028090D01*
X029668Y028089D01*
X029620Y028092D01*
X029572Y028099D01*
X029525Y028110D01*
X029479Y028124D01*
X029434Y028142D01*
X029391Y028164D01*
X029350Y028189D01*
X029312Y028218D01*
X029275Y028250D01*
X029241Y028284D01*
X029211Y028321D01*
X029183Y028360D01*
X029158Y028402D01*
X029138Y028446D01*
X029120Y028491D01*
X029107Y028537D01*
X029097Y028584D01*
X029091Y028632D01*
X029089Y028680D01*
X029089Y004680D02*
X029091Y004728D01*
X029097Y004776D01*
X029107Y004823D01*
X029120Y004869D01*
X029138Y004914D01*
X029158Y004958D01*
X029183Y005000D01*
X029211Y005039D01*
X029241Y005076D01*
X029275Y005110D01*
X029312Y005142D01*
X029350Y005171D01*
X029391Y005196D01*
X029434Y005218D01*
X029479Y005236D01*
X029525Y005250D01*
X029572Y005261D01*
X029620Y005268D01*
X029668Y005271D01*
X029716Y005270D01*
X029764Y005265D01*
X029812Y005256D01*
X029858Y005244D01*
X029903Y005227D01*
X029947Y005207D01*
X029989Y005184D01*
X030029Y005157D01*
X030067Y005127D01*
X030102Y005094D01*
X030134Y005058D01*
X030164Y005020D01*
X030190Y004979D01*
X030212Y004936D01*
X030232Y004892D01*
X030247Y004847D01*
X030259Y004800D01*
X030267Y004752D01*
X030271Y004704D01*
X030271Y004656D01*
X030267Y004608D01*
X030259Y004560D01*
X030247Y004513D01*
X030232Y004468D01*
X030212Y004424D01*
X030190Y004381D01*
X030164Y004340D01*
X030134Y004302D01*
X030102Y004266D01*
X030067Y004233D01*
X030029Y004203D01*
X029989Y004176D01*
X029947Y004153D01*
X029903Y004133D01*
X029858Y004116D01*
X029812Y004104D01*
X029764Y004095D01*
X029716Y004090D01*
X029668Y004089D01*
X029620Y004092D01*
X029572Y004099D01*
X029525Y004110D01*
X029479Y004124D01*
X029434Y004142D01*
X029391Y004164D01*
X029350Y004189D01*
X029312Y004218D01*
X029275Y004250D01*
X029241Y004284D01*
X029211Y004321D01*
X029183Y004360D01*
X029158Y004402D01*
X029138Y004446D01*
X029120Y004491D01*
X029107Y004537D01*
X029097Y004584D01*
X029091Y004632D01*
X029089Y004680D01*
D11*
X029067Y008825D02*
X028880Y008825D01*
X029067Y008825D02*
X029160Y008918D01*
X029067Y009012D01*
X028880Y009012D01*
X028880Y009120D02*
X028880Y009260D01*
X028926Y009306D01*
X029113Y009306D01*
X029160Y009260D01*
X029160Y009120D01*
X028880Y009120D01*
X028880Y009414D02*
X028880Y009554D01*
X028926Y009601D01*
X029113Y009601D01*
X029160Y009554D01*
X029160Y009414D01*
X028880Y009414D01*
X026535Y009414D02*
X026535Y009554D01*
X026488Y009601D01*
X026301Y009601D01*
X026255Y009554D01*
X026255Y009414D01*
X026535Y009414D01*
X026535Y009306D02*
X026255Y009306D01*
X026255Y009120D02*
X026535Y009306D01*
X026535Y009120D02*
X026255Y009120D01*
X026301Y009012D02*
X026255Y008965D01*
X026255Y008872D01*
X026301Y008825D01*
X026488Y008825D01*
X026535Y008872D01*
X026535Y008965D01*
X026488Y009012D01*
X026395Y009012D01*
X026395Y008918D01*
X020942Y008360D02*
X020755Y008360D01*
X020755Y008220D01*
X020849Y008267D01*
X020895Y008267D01*
X020942Y008220D01*
X020942Y008127D01*
X020895Y008080D01*
X020802Y008080D01*
X020755Y008127D01*
X020648Y008127D02*
X020601Y008080D01*
X020507Y008080D01*
X020461Y008127D01*
X020461Y008314D01*
X020507Y008360D01*
X020601Y008360D01*
X020648Y008314D01*
X016442Y008314D02*
X016395Y008360D01*
X016302Y008360D01*
X016255Y008314D01*
X016148Y008314D02*
X016101Y008360D01*
X016007Y008360D01*
X015961Y008314D01*
X015961Y008127D01*
X016007Y008080D01*
X016101Y008080D01*
X016148Y008127D01*
X016255Y008080D02*
X016442Y008267D01*
X016442Y008314D01*
X016442Y008080D02*
X016255Y008080D01*
X012942Y008127D02*
X012942Y008173D01*
X012895Y008220D01*
X012755Y008220D01*
X012755Y008127D01*
X012802Y008080D01*
X012895Y008080D01*
X012942Y008127D01*
X012849Y008314D02*
X012755Y008220D01*
X012849Y008314D02*
X012942Y008360D01*
X012648Y008314D02*
X012601Y008360D01*
X012507Y008360D01*
X012461Y008314D01*
X012461Y008127D01*
X012507Y008080D01*
X012601Y008080D01*
X012648Y008127D01*
X006976Y008122D02*
X006929Y008075D01*
X006789Y008075D01*
X006789Y008355D01*
X006929Y008355D01*
X006976Y008309D01*
X006976Y008262D01*
X006929Y008215D01*
X006789Y008215D01*
X006681Y008168D02*
X006681Y008122D01*
X006635Y008075D01*
X006541Y008075D01*
X006495Y008122D01*
X006541Y008215D02*
X006635Y008215D01*
X006681Y008168D01*
X006681Y008309D02*
X006635Y008355D01*
X006541Y008355D01*
X006495Y008309D01*
X006495Y008262D01*
X006541Y008215D01*
X006387Y008122D02*
X006387Y008355D01*
X006200Y008355D02*
X006200Y008122D01*
X006247Y008075D01*
X006340Y008075D01*
X006387Y008122D01*
X006929Y008215D02*
X006976Y008168D01*
X006976Y008122D01*
X005425Y008164D02*
X005425Y007759D01*
X005222Y007759D01*
X005222Y007922D01*
X005018Y007922D01*
X005018Y007759D01*
X004854Y007759D01*
X004854Y008150D01*
X004893Y008165D02*
X004893Y011168D01*
X004854Y011210D02*
X004854Y011601D01*
X005018Y011601D01*
X005018Y011438D01*
X005222Y011438D01*
X005222Y011601D01*
X005426Y011601D01*
X005426Y011196D01*
X005424Y011195D02*
X001848Y011195D01*
X001848Y008165D01*
X005424Y008165D01*
X005344Y008175D02*
X005344Y008617D01*
X005344Y008368D01*
X005344Y008617D02*
X004893Y008617D01*
X004893Y008371D01*
X004607Y008165D02*
X003549Y008165D01*
X003271Y008168D02*
X003271Y007759D01*
X003116Y007759D01*
X003116Y007922D01*
X002871Y007922D01*
X002871Y007759D01*
X002728Y007759D01*
X002728Y008168D01*
X001850Y008168D01*
X002442Y008168D01*
X002381Y008597D02*
X003465Y008515D01*
X003465Y008597D01*
X002524Y008699D01*
X002524Y008903D01*
X003465Y009006D01*
X003465Y009087D01*
X002381Y008985D01*
X002362Y008981D01*
X002343Y008975D01*
X002326Y008965D01*
X002310Y008953D01*
X002297Y008938D01*
X002286Y008921D01*
X002279Y008903D01*
X002279Y008679D02*
X002286Y008661D01*
X002297Y008644D01*
X002310Y008629D01*
X002326Y008617D01*
X002343Y008607D01*
X002362Y008601D01*
X002381Y008597D01*
X002280Y008679D02*
X002271Y008716D01*
X002265Y008753D01*
X002263Y008791D01*
X002265Y008829D01*
X002271Y008866D01*
X002280Y008903D01*
X002381Y009190D02*
X003976Y009271D01*
X003994Y009274D01*
X004011Y009281D01*
X004026Y009290D01*
X004039Y009303D01*
X004048Y009318D01*
X004055Y009335D01*
X004058Y009353D01*
X004057Y009353D02*
X004057Y010007D01*
X004058Y010007D02*
X004055Y010025D01*
X004048Y010042D01*
X004039Y010057D01*
X004026Y010070D01*
X004011Y010079D01*
X003994Y010086D01*
X003976Y010089D01*
X002381Y010171D01*
X002365Y010169D01*
X002350Y010165D01*
X002335Y010157D01*
X002323Y010147D01*
X002313Y010135D01*
X002305Y010120D01*
X002301Y010105D01*
X002299Y010089D01*
X002300Y010089D02*
X002300Y010089D01*
X002299Y010089D02*
X002301Y010073D01*
X002305Y010058D01*
X002313Y010043D01*
X002323Y010031D01*
X002335Y010021D01*
X002350Y010013D01*
X002365Y010009D01*
X002381Y010007D01*
X003730Y009925D01*
X003730Y009435D01*
X002381Y009353D01*
X002365Y009351D01*
X002350Y009347D01*
X002335Y009339D01*
X002323Y009329D01*
X002313Y009317D01*
X002305Y009302D01*
X002301Y009287D01*
X002299Y009271D01*
X002301Y009255D01*
X002305Y009240D01*
X002313Y009225D01*
X002323Y009213D01*
X002335Y009203D01*
X002350Y009195D01*
X002365Y009191D01*
X002381Y009189D01*
X001850Y008168D02*
X001850Y011192D01*
X002442Y011192D01*
X002728Y011192D02*
X002728Y011601D01*
X002871Y011601D01*
X002871Y011438D01*
X003116Y011438D01*
X003116Y011601D01*
X003271Y011601D01*
X003271Y011192D01*
X003569Y011195D02*
X004567Y011195D01*
X004893Y010989D02*
X004893Y010703D01*
X005338Y010703D01*
X005338Y010989D01*
X005338Y011175D02*
X005338Y010703D01*
X003465Y010763D02*
X003465Y010845D01*
X002381Y010763D01*
X002381Y010764D02*
X002362Y010760D01*
X002343Y010754D01*
X002326Y010744D01*
X002310Y010732D01*
X002297Y010717D01*
X002286Y010700D01*
X002279Y010682D01*
X002279Y010457D02*
X002286Y010439D01*
X002297Y010422D01*
X002310Y010407D01*
X002326Y010395D01*
X002343Y010385D01*
X002362Y010379D01*
X002381Y010375D01*
X003465Y010273D01*
X003465Y010354D01*
X002524Y010457D01*
X002524Y010661D01*
X003465Y010763D01*
X002728Y011192D02*
X001850Y011192D01*
X002280Y010681D02*
X002271Y010644D01*
X002265Y010607D01*
X002263Y010569D01*
X002265Y010531D01*
X002271Y010494D01*
X002280Y010457D01*
X001850Y008168D02*
X001850Y008168D01*
X007647Y014250D02*
X007740Y014250D01*
X007787Y014297D01*
X007895Y014297D02*
X007941Y014250D01*
X008035Y014250D01*
X008081Y014297D01*
X008081Y014343D01*
X008035Y014390D01*
X007988Y014390D01*
X008035Y014390D02*
X008081Y014437D01*
X008081Y014484D01*
X008035Y014530D01*
X007941Y014530D01*
X007895Y014484D01*
X007787Y014484D02*
X007740Y014530D01*
X007647Y014530D01*
X007600Y014484D01*
X007600Y014297D01*
X007647Y014250D01*
X008257Y018455D02*
X008351Y018455D01*
X008398Y018502D01*
X008505Y018502D02*
X008552Y018455D01*
X008645Y018455D01*
X008692Y018502D01*
X008692Y018689D01*
X008645Y018735D01*
X008552Y018735D01*
X008505Y018689D01*
X008505Y018642D01*
X008552Y018595D01*
X008692Y018595D01*
X008398Y018689D02*
X008351Y018735D01*
X008257Y018735D01*
X008211Y018689D01*
X008211Y018502D01*
X008257Y018455D01*
X009700Y023850D02*
X009793Y023850D01*
X009747Y023850D02*
X009747Y024130D01*
X009793Y024130D02*
X009700Y024130D01*
X009896Y024084D02*
X009896Y023897D01*
X009943Y023850D01*
X010037Y023850D01*
X010083Y023897D01*
X010191Y023850D02*
X010378Y023850D01*
X010284Y023850D02*
X010284Y024130D01*
X010191Y024037D01*
X010083Y024084D02*
X010037Y024130D01*
X009943Y024130D01*
X009896Y024084D01*
X011247Y025500D02*
X011293Y025500D01*
X011340Y025547D01*
X011340Y025780D01*
X011293Y025780D02*
X011387Y025780D01*
X011495Y025780D02*
X011681Y025780D01*
X011588Y025780D02*
X011588Y025500D01*
X011789Y025500D02*
X011789Y025687D01*
X011883Y025780D01*
X011976Y025687D01*
X011976Y025500D01*
X012084Y025547D02*
X012131Y025500D01*
X012224Y025500D01*
X012271Y025547D01*
X012271Y025640D01*
X012177Y025640D01*
X012084Y025547D02*
X012084Y025734D01*
X012131Y025780D01*
X012224Y025780D01*
X012271Y025734D01*
X011976Y025640D02*
X011789Y025640D01*
X011247Y025500D02*
X011200Y025547D01*
X013100Y025359D02*
X013100Y025172D01*
X013147Y025125D01*
X013240Y025125D01*
X013287Y025172D01*
X013395Y025125D02*
X013581Y025125D01*
X013488Y025125D02*
X013488Y025405D01*
X013395Y025312D01*
X013287Y025359D02*
X013240Y025405D01*
X013147Y025405D01*
X013100Y025359D01*
X017975Y025297D02*
X018022Y025250D01*
X018115Y025250D01*
X018162Y025297D01*
X018270Y025297D02*
X018270Y025343D01*
X018316Y025390D01*
X018410Y025390D01*
X018456Y025343D01*
X018456Y025297D01*
X018410Y025250D01*
X018316Y025250D01*
X018270Y025297D01*
X018316Y025390D02*
X018270Y025437D01*
X018270Y025484D01*
X018316Y025530D01*
X018410Y025530D01*
X018456Y025484D01*
X018456Y025437D01*
X018410Y025390D01*
X018162Y025484D02*
X018115Y025530D01*
X018022Y025530D01*
X017975Y025484D01*
X017975Y025297D01*
X019111Y026870D02*
X019111Y027150D01*
X019251Y027150D01*
X019298Y027104D01*
X019298Y027010D01*
X019251Y026963D01*
X019111Y026963D01*
X019204Y026963D02*
X019298Y026870D01*
X019405Y026870D02*
X019592Y026870D01*
X019499Y026870D02*
X019499Y027150D01*
X019405Y027057D01*
X021500Y025055D02*
X021687Y024775D01*
X021687Y025055D01*
X021795Y025055D02*
X021935Y025055D01*
X021981Y025009D01*
X021981Y024915D01*
X021935Y024868D01*
X021795Y024868D01*
X021795Y024775D02*
X021795Y025055D01*
X021888Y024868D02*
X021981Y024775D01*
X022089Y024822D02*
X022136Y024775D01*
X022229Y024775D01*
X022276Y024822D01*
X022276Y024868D01*
X022229Y024915D01*
X022136Y024915D01*
X022089Y024962D01*
X022089Y025009D01*
X022136Y025055D01*
X022229Y025055D01*
X022276Y025009D01*
X022384Y025055D02*
X022571Y025055D01*
X022477Y025055D02*
X022477Y024775D01*
X021500Y024775D02*
X021500Y025055D01*
X024650Y027397D02*
X024697Y027350D01*
X024790Y027350D01*
X024837Y027397D01*
X024837Y027584D01*
X024790Y027630D01*
X024697Y027630D01*
X024650Y027584D01*
X024650Y027397D01*
X024945Y027397D02*
X024991Y027350D01*
X025085Y027350D01*
X025131Y027397D01*
X025131Y027443D01*
X025085Y027490D01*
X024991Y027490D01*
X024945Y027537D01*
X024945Y027584D01*
X024991Y027630D01*
X025085Y027630D01*
X025131Y027584D01*
X025239Y027584D02*
X025239Y027397D01*
X025286Y027350D01*
X025379Y027350D01*
X025426Y027397D01*
X025426Y027584D02*
X025379Y027630D01*
X025286Y027630D01*
X025239Y027584D01*
X025522Y021780D02*
X025475Y021734D01*
X025475Y021547D01*
X025522Y021500D01*
X025615Y021500D01*
X025662Y021547D01*
X025770Y021640D02*
X025956Y021640D01*
X025910Y021500D02*
X025910Y021780D01*
X025770Y021640D01*
X025662Y021734D02*
X025615Y021780D01*
X025522Y021780D01*
X024706Y017405D02*
X024520Y017405D01*
X024412Y017359D02*
X024365Y017405D01*
X024272Y017405D01*
X024225Y017359D01*
X024225Y017172D01*
X024272Y017125D01*
X024365Y017125D01*
X024412Y017172D01*
X024520Y017172D02*
X024520Y017125D01*
X024520Y017172D02*
X024706Y017359D01*
X024706Y017405D01*
D12*
X014900Y005381D03*
X014617Y005066D03*
X014837Y004247D03*
X015215Y004184D03*
X015719Y004247D03*
X015751Y004278D03*
X015845Y003963D03*
X016885Y004058D03*
X017137Y004215D03*
X017042Y004499D03*
X017074Y004530D03*
X017105Y004562D03*
X014365Y004184D03*
X013263Y004089D03*
X012948Y004625D03*
X012507Y004247D03*
X012633Y003963D03*
X012223Y004058D03*
X011688Y003963D03*
X011341Y004467D03*
X011404Y004782D03*
X011562Y005003D03*
X010743Y004656D03*
X010365Y004247D03*
X010365Y004215D03*
X009483Y003900D03*
X009483Y003869D03*
X009483Y003837D03*
X009609Y005129D03*
D13*
X009609Y005097D03*
X009578Y005097D03*
X009546Y005097D03*
X009546Y005129D03*
X009546Y005160D03*
X009546Y005192D03*
X009609Y005223D03*
X009641Y005255D03*
X009672Y005286D03*
X009704Y005286D03*
X009735Y005286D03*
X009798Y005318D03*
X009830Y005318D03*
X009798Y005160D03*
X009798Y005129D03*
X009767Y005160D03*
X009735Y005129D03*
X009704Y005129D03*
X009672Y005129D03*
X009641Y005097D03*
X009704Y005066D03*
X009735Y005066D03*
X009767Y005097D03*
X009704Y005034D03*
X009672Y005003D03*
X009672Y004971D03*
X009641Y004814D03*
X009641Y004782D03*
X009609Y004751D03*
X009609Y004719D03*
X009578Y004688D03*
X009578Y004656D03*
X009546Y004656D03*
X009515Y004625D03*
X009515Y004593D03*
X009483Y004593D03*
X009452Y004562D03*
X009483Y004530D03*
X009483Y004499D03*
X009515Y004499D03*
X009515Y004310D03*
X009515Y004278D03*
X009483Y004215D03*
X009483Y004184D03*
X009483Y004152D03*
X009483Y004121D03*
X009452Y004089D03*
X009420Y004058D03*
X009389Y004026D03*
X009357Y003995D03*
X009326Y003963D03*
X009326Y003932D03*
X009326Y003900D03*
X009357Y003900D03*
X009389Y003900D03*
X009420Y003900D03*
X009420Y003869D03*
X009546Y003900D03*
X009546Y003932D03*
X009578Y003932D03*
X009609Y003932D03*
X009609Y004089D03*
X009641Y004089D03*
X009672Y004089D03*
X009704Y004089D03*
X009735Y004121D03*
X009767Y004121D03*
X009798Y004152D03*
X009830Y004152D03*
X009861Y004184D03*
X009893Y004184D03*
X009956Y004215D03*
X009987Y004215D03*
X010019Y004215D03*
X010019Y004247D03*
X010019Y004310D03*
X009956Y004341D03*
X009924Y004341D03*
X009893Y004373D03*
X009861Y004373D03*
X009830Y004404D03*
X009798Y004404D03*
X009767Y004436D03*
X009735Y004436D03*
X009704Y004436D03*
X009704Y004404D03*
X009704Y004373D03*
X009672Y004341D03*
X009672Y004310D03*
X009641Y004184D03*
X009641Y004152D03*
X009641Y004121D03*
X009767Y003963D03*
X009798Y003963D03*
X009830Y003995D03*
X009861Y003995D03*
X009893Y003995D03*
X009924Y004026D03*
X009956Y004026D03*
X009987Y004058D03*
X010019Y004058D03*
X010113Y004089D03*
X010145Y004089D03*
X010176Y004152D03*
X010208Y004152D03*
X010208Y004184D03*
X010239Y004184D03*
X010271Y004247D03*
X010302Y004247D03*
X010302Y004278D03*
X010271Y004278D03*
X010271Y004310D03*
X010239Y004341D03*
X010208Y004373D03*
X010176Y004404D03*
X010145Y004436D03*
X010050Y004467D03*
X010019Y004499D03*
X009987Y004499D03*
X009956Y004499D03*
X009924Y004530D03*
X009893Y004562D03*
X009861Y004562D03*
X009830Y004562D03*
X009798Y004593D03*
X009798Y004625D03*
X009830Y004625D03*
X009861Y004656D03*
X009893Y004656D03*
X009924Y004688D03*
X009893Y004782D03*
X009861Y004782D03*
X009830Y004751D03*
X009830Y004814D03*
X009861Y004845D03*
X009861Y004877D03*
X009861Y004908D03*
X009861Y004940D03*
X009893Y004940D03*
X009893Y004971D03*
X009924Y005097D03*
X009956Y005129D03*
X009956Y005160D03*
X009987Y005160D03*
X010082Y005160D03*
X010113Y005160D03*
X010145Y005160D03*
X010176Y005129D03*
X010208Y005129D03*
X010239Y005097D03*
X010239Y005066D03*
X010271Y005066D03*
X010239Y005034D03*
X010208Y005003D03*
X010176Y004971D03*
X010145Y004940D03*
X010113Y004940D03*
X010113Y004908D03*
X010082Y004908D03*
X010050Y004877D03*
X010019Y004845D03*
X009987Y004845D03*
X009924Y004814D03*
X010019Y004719D03*
X010050Y004751D03*
X010082Y004751D03*
X010082Y004782D03*
X010113Y004782D03*
X010145Y004814D03*
X010208Y004845D03*
X010239Y004845D03*
X010239Y004877D03*
X010271Y004877D03*
X010302Y004908D03*
X010334Y004940D03*
X010397Y004971D03*
X010428Y005003D03*
X010428Y005034D03*
X010460Y005066D03*
X010460Y005097D03*
X010491Y005129D03*
X010491Y005160D03*
X010491Y005192D03*
X010460Y005223D03*
X010460Y005255D03*
X010428Y005286D03*
X010397Y005318D03*
X010365Y005318D03*
X010208Y005349D03*
X010711Y004688D03*
X010743Y004688D03*
X010774Y004688D03*
X010806Y004656D03*
X010806Y004625D03*
X010837Y004593D03*
X010869Y004593D03*
X010900Y004562D03*
X010900Y004530D03*
X010900Y004499D03*
X010900Y004436D03*
X010900Y004404D03*
X010900Y004373D03*
X010900Y004341D03*
X010869Y004310D03*
X010869Y004278D03*
X010837Y004278D03*
X010837Y004247D03*
X010806Y004215D03*
X010806Y004184D03*
X010837Y004184D03*
X010900Y004215D03*
X010932Y004247D03*
X010963Y004247D03*
X010963Y004278D03*
X010995Y004278D03*
X010995Y004247D03*
X010995Y004215D03*
X011026Y004184D03*
X011058Y004184D03*
X011089Y004184D03*
X011121Y004215D03*
X011152Y004215D03*
X011184Y004215D03*
X011215Y004184D03*
X011215Y004152D03*
X011215Y004121D03*
X011247Y004058D03*
X011278Y004058D03*
X011436Y004058D03*
X011467Y004058D03*
X011530Y004089D03*
X011562Y004121D03*
X011593Y004152D03*
X011625Y004152D03*
X011625Y004121D03*
X011656Y004121D03*
X011656Y004152D03*
X011625Y004184D03*
X011656Y004247D03*
X011656Y004278D03*
X011593Y004278D03*
X011593Y004247D03*
X011562Y004247D03*
X011530Y004215D03*
X011625Y004089D03*
X011593Y004058D03*
X011593Y004026D03*
X011593Y003995D03*
X011593Y003963D03*
X011625Y003963D03*
X011751Y003963D03*
X011782Y003963D03*
X011814Y003995D03*
X011814Y004026D03*
X011845Y004026D03*
X011877Y004058D03*
X011908Y004058D03*
X011940Y004089D03*
X011971Y004121D03*
X012003Y004152D03*
X012034Y004152D03*
X012066Y004152D03*
X012066Y004121D03*
X012097Y004089D03*
X012129Y004058D03*
X012160Y004058D03*
X012286Y004058D03*
X012349Y004089D03*
X012381Y004089D03*
X012381Y004121D03*
X012412Y004121D03*
X012444Y004184D03*
X012475Y004184D03*
X012475Y004215D03*
X012507Y004184D03*
X012538Y004184D03*
X012570Y004215D03*
X012570Y004247D03*
X012601Y004247D03*
X012633Y004278D03*
X012664Y004310D03*
X012696Y004310D03*
X012696Y004341D03*
X012727Y004341D03*
X012696Y004278D03*
X012664Y004184D03*
X012633Y004152D03*
X012633Y004121D03*
X012633Y004089D03*
X012601Y004089D03*
X012601Y004058D03*
X012570Y004058D03*
X012570Y004026D03*
X012570Y003995D03*
X012570Y003963D03*
X012696Y003963D03*
X012727Y003963D03*
X012759Y003995D03*
X012790Y004026D03*
X012853Y004089D03*
X012885Y004089D03*
X012885Y004121D03*
X012916Y004121D03*
X012916Y004152D03*
X012948Y004184D03*
X013011Y004215D03*
X013042Y004215D03*
X013042Y004247D03*
X013074Y004278D03*
X013105Y004278D03*
X013105Y004247D03*
X013137Y004215D03*
X013168Y004184D03*
X013168Y004152D03*
X013200Y004089D03*
X013326Y004089D03*
X013357Y004089D03*
X013389Y004121D03*
X013420Y004152D03*
X013420Y004247D03*
X013389Y004247D03*
X013357Y004247D03*
X013326Y004278D03*
X013326Y004310D03*
X013420Y004278D03*
X013294Y004467D03*
X013263Y004467D03*
X013168Y004467D03*
X013137Y004467D03*
X013074Y004436D03*
X013042Y004404D03*
X013042Y004373D03*
X013011Y004373D03*
X012979Y004341D03*
X012916Y004310D03*
X012885Y004247D03*
X012853Y004247D03*
X012948Y004404D03*
X012948Y004436D03*
X012979Y004467D03*
X013011Y004499D03*
X013011Y004530D03*
X013011Y004562D03*
X013011Y004593D03*
X013011Y004625D03*
X012979Y004656D03*
X012948Y004656D03*
X012916Y004656D03*
X012885Y004625D03*
X012853Y004625D03*
X012822Y004593D03*
X012790Y004562D03*
X012759Y004562D03*
X012759Y004530D03*
X012727Y004530D03*
X012727Y004499D03*
X012696Y004499D03*
X012696Y004467D03*
X012633Y004436D03*
X012601Y004404D03*
X012570Y004373D03*
X012507Y004310D03*
X012475Y004310D03*
X012475Y004278D03*
X012444Y004247D03*
X012412Y004247D03*
X012381Y004247D03*
X012349Y004215D03*
X012286Y004215D03*
X012286Y004247D03*
X012286Y004278D03*
X012286Y004310D03*
X012286Y004436D03*
X012192Y004436D03*
X012160Y004467D03*
X012129Y004436D03*
X012097Y004436D03*
X012066Y004404D03*
X012066Y004373D03*
X012097Y004373D03*
X012097Y004341D03*
X012066Y004341D03*
X012034Y004341D03*
X012034Y004310D03*
X012003Y004310D03*
X011971Y004310D03*
X011971Y004278D03*
X011940Y004278D03*
X011940Y004247D03*
X011908Y004247D03*
X011908Y004215D03*
X011877Y004215D03*
X011782Y004341D03*
X011751Y004341D03*
X011782Y004373D03*
X011814Y004404D03*
X011814Y004436D03*
X011845Y004436D03*
X011908Y004467D03*
X011940Y004499D03*
X011971Y004530D03*
X012003Y004530D03*
X012003Y004562D03*
X012034Y004562D03*
X012066Y004593D03*
X012097Y004625D03*
X012129Y004625D03*
X012160Y004656D03*
X012192Y004688D03*
X012318Y004719D03*
X012349Y004719D03*
X012381Y004688D03*
X012381Y004656D03*
X012349Y004625D03*
X012349Y004593D03*
X012318Y004593D03*
X012286Y004562D03*
X012255Y004562D03*
X012255Y004530D03*
X012223Y004530D03*
X012192Y004499D03*
X012160Y004404D03*
X012129Y004373D03*
X012066Y004184D03*
X012034Y004184D03*
X011404Y004436D03*
X011404Y004467D03*
X011373Y004499D03*
X011341Y004499D03*
X011310Y004499D03*
X011278Y004499D03*
X011278Y004467D03*
X011247Y004467D03*
X011215Y004436D03*
X011184Y004436D03*
X011184Y004404D03*
X011152Y004373D03*
X011121Y004341D03*
X011089Y004341D03*
X011058Y004310D03*
X010995Y004152D03*
X010963Y004152D03*
X010963Y004121D03*
X010932Y004121D03*
X010900Y004089D03*
X010837Y004058D03*
X010806Y004058D03*
X010774Y004026D03*
X010774Y003995D03*
X010743Y003995D03*
X010711Y003995D03*
X010711Y003963D03*
X010680Y003963D03*
X010649Y003963D03*
X010617Y003963D03*
X010586Y003963D03*
X010554Y003995D03*
X010554Y004026D03*
X010586Y004058D03*
X010617Y004089D03*
X010617Y004121D03*
X010649Y004121D03*
X010649Y004152D03*
X010649Y004184D03*
X010680Y004247D03*
X010680Y004278D03*
X010711Y004341D03*
X010711Y004373D03*
X010711Y004404D03*
X010711Y004436D03*
X010680Y004436D03*
X010649Y004436D03*
X010649Y004404D03*
X010617Y004404D03*
X010586Y004373D03*
X010554Y004341D03*
X010523Y004310D03*
X010491Y004278D03*
X010460Y004278D03*
X010460Y004247D03*
X010428Y004247D03*
X010428Y004215D03*
X010365Y004184D03*
X010334Y004184D03*
X010334Y004310D03*
X010397Y004341D03*
X010428Y004373D03*
X010460Y004404D03*
X010491Y004436D03*
X010554Y004499D03*
X010554Y004530D03*
X010554Y004562D03*
X010586Y004593D03*
X010617Y004593D03*
X010617Y004625D03*
X010649Y004625D03*
X010680Y004656D03*
X011341Y004782D03*
X011341Y004845D03*
X011341Y004877D03*
X011341Y004908D03*
X011373Y004908D03*
X011373Y004940D03*
X011404Y004940D03*
X011436Y004971D03*
X011467Y004971D03*
X011467Y005003D03*
X011499Y005003D03*
X011499Y005034D03*
X011530Y005034D03*
X011625Y005034D03*
X011625Y005003D03*
X011625Y004971D03*
X011593Y004940D03*
X011593Y004908D03*
X011562Y004877D03*
X011562Y004845D03*
X011530Y004814D03*
X011499Y004814D03*
X011499Y004782D03*
X011467Y004782D03*
X011436Y004751D03*
X011404Y004751D03*
X009294Y003963D03*
X009294Y003932D03*
X014019Y003963D03*
X014019Y003995D03*
X014019Y004026D03*
X014050Y004026D03*
X014050Y004058D03*
X014113Y004089D03*
X014145Y004089D03*
X014176Y004089D03*
X014176Y004121D03*
X014208Y004121D03*
X014239Y004152D03*
X014271Y004152D03*
X014302Y004184D03*
X014428Y004184D03*
X014460Y004215D03*
X014460Y004247D03*
X014491Y004247D03*
X014491Y004278D03*
X014491Y004310D03*
X014491Y004341D03*
X014460Y004373D03*
X014460Y004404D03*
X014428Y004467D03*
X014397Y004467D03*
X014397Y004499D03*
X014365Y004530D03*
X014334Y004562D03*
X014302Y004593D03*
X014302Y004625D03*
X014271Y004656D03*
X014271Y004688D03*
X014208Y004719D03*
X014208Y004751D03*
X014208Y004782D03*
X014208Y004814D03*
X014208Y004845D03*
X014208Y004877D03*
X014208Y004908D03*
X014239Y004940D03*
X014271Y004971D03*
X014271Y005003D03*
X014302Y005003D03*
X014302Y005034D03*
X014334Y005097D03*
X014365Y005097D03*
X014365Y005129D03*
X014397Y005129D03*
X014397Y005160D03*
X014428Y005160D03*
X014523Y005223D03*
X014554Y005255D03*
X014586Y005286D03*
X014617Y005286D03*
X014649Y005318D03*
X014680Y005318D03*
X014743Y005349D03*
X014774Y005349D03*
X014806Y005349D03*
X014806Y005381D03*
X014837Y005381D03*
X014869Y005412D03*
X014900Y005412D03*
X014932Y005412D03*
X014963Y005381D03*
X014963Y005349D03*
X014963Y005318D03*
X014963Y005286D03*
X014900Y005192D03*
X014869Y005192D03*
X014869Y005160D03*
X014837Y005160D03*
X014806Y005129D03*
X014806Y005097D03*
X014774Y005097D03*
X014680Y005066D03*
X014680Y005034D03*
X014649Y005034D03*
X014586Y005097D03*
X014617Y005129D03*
X014649Y005129D03*
X014649Y005160D03*
X014554Y005066D03*
X014523Y005066D03*
X014523Y005034D03*
X014491Y005034D03*
X014491Y005003D03*
X014460Y005003D03*
X014460Y004971D03*
X014460Y004814D03*
X014491Y004782D03*
X014491Y004751D03*
X014523Y004719D03*
X014554Y004688D03*
X014586Y004625D03*
X014586Y004593D03*
X014649Y004562D03*
X014649Y004530D03*
X014680Y004499D03*
X014837Y004341D03*
X014869Y004341D03*
X014869Y004373D03*
X014900Y004373D03*
X014900Y004404D03*
X014932Y004404D03*
X014932Y004436D03*
X014963Y004467D03*
X014995Y004467D03*
X014995Y004499D03*
X015026Y004499D03*
X015026Y004530D03*
X015058Y004530D03*
X015058Y004562D03*
X015089Y004593D03*
X015121Y004625D03*
X015152Y004625D03*
X015184Y004656D03*
X015215Y004656D03*
X015247Y004656D03*
X015247Y004625D03*
X015247Y004593D03*
X015215Y004562D03*
X015215Y004530D03*
X015184Y004436D03*
X015152Y004404D03*
X015152Y004373D03*
X015152Y004341D03*
X015121Y004310D03*
X015121Y004278D03*
X015089Y004247D03*
X015089Y004215D03*
X015089Y004184D03*
X015121Y004184D03*
X015152Y004184D03*
X015215Y004247D03*
X015247Y004278D03*
X015278Y004310D03*
X015310Y004341D03*
X015341Y004373D03*
X015341Y004404D03*
X015373Y004436D03*
X015436Y004467D03*
X015467Y004467D03*
X015499Y004467D03*
X015530Y004467D03*
X015530Y004373D03*
X015530Y004341D03*
X015530Y004310D03*
X015530Y004278D03*
X015562Y004278D03*
X015593Y004278D03*
X015625Y004247D03*
X015656Y004247D03*
X015656Y004278D03*
X015688Y004278D03*
X015688Y004310D03*
X015719Y004341D03*
X015751Y004341D03*
X015782Y004373D03*
X015814Y004404D03*
X015877Y004467D03*
X015908Y004499D03*
X015940Y004530D03*
X015971Y004562D03*
X016003Y004593D03*
X016034Y004593D03*
X016034Y004625D03*
X016066Y004625D03*
X016097Y004656D03*
X016192Y004656D03*
X016192Y004499D03*
X016192Y004467D03*
X016160Y004436D03*
X016160Y004404D03*
X016129Y004404D03*
X016129Y004373D03*
X016129Y004341D03*
X016129Y004310D03*
X016097Y004310D03*
X016097Y004341D03*
X016097Y004278D03*
X016066Y004247D03*
X016129Y004184D03*
X016160Y004184D03*
X016097Y004152D03*
X016066Y004089D03*
X016003Y004058D03*
X015971Y004026D03*
X015940Y003995D03*
X015940Y003963D03*
X015908Y003963D03*
X015782Y003963D03*
X015782Y003995D03*
X015782Y004026D03*
X015782Y004058D03*
X015814Y004089D03*
X015845Y004184D03*
X015877Y004215D03*
X015877Y004247D03*
X015908Y004278D03*
X015908Y004310D03*
X015845Y004310D03*
X015814Y004278D03*
X015814Y004247D03*
X015782Y004247D03*
X015782Y004215D03*
X015751Y004215D03*
X015688Y004184D03*
X015656Y004215D03*
X015625Y004215D03*
X015625Y004184D03*
X015625Y004152D03*
X015593Y004152D03*
X015562Y004121D03*
X015530Y004089D03*
X015499Y004089D03*
X015467Y004089D03*
X015436Y004089D03*
X015404Y004089D03*
X015373Y004121D03*
X015341Y004152D03*
X015341Y004184D03*
X015278Y004184D03*
X015247Y004152D03*
X015215Y004121D03*
X015152Y004058D03*
X015121Y004026D03*
X015089Y004026D03*
X015058Y003995D03*
X014963Y003995D03*
X014932Y004026D03*
X014932Y004058D03*
X014932Y004215D03*
X014869Y004215D03*
X014837Y004215D03*
X014806Y004215D03*
X014806Y004184D03*
X014837Y004184D03*
X014743Y004215D03*
X014743Y004152D03*
X014711Y004152D03*
X014680Y004152D03*
X014617Y004121D03*
X014586Y004121D03*
X014554Y004121D03*
X014554Y004089D03*
X014523Y004089D03*
X014460Y004058D03*
X014428Y004026D03*
X014397Y003995D03*
X014365Y003995D03*
X014334Y003963D03*
X014239Y003932D03*
X014208Y003932D03*
X014176Y003900D03*
X014145Y003900D03*
X014113Y003900D03*
X014082Y003900D03*
X014050Y003932D03*
X014711Y004278D03*
X014774Y004278D03*
X014806Y004278D03*
X014806Y004310D03*
X016192Y004341D03*
X016223Y004404D03*
X016255Y004436D03*
X016286Y004436D03*
X016349Y004467D03*
X016381Y004467D03*
X016475Y004467D03*
X016507Y004436D03*
X016507Y004404D03*
X016507Y004373D03*
X016507Y004341D03*
X016538Y004310D03*
X016538Y004278D03*
X016538Y004247D03*
X016570Y004247D03*
X016601Y004247D03*
X016601Y004278D03*
X016664Y004278D03*
X016664Y004247D03*
X016664Y004215D03*
X016633Y004184D03*
X016633Y004152D03*
X016601Y004152D03*
X016570Y004121D03*
X016570Y004089D03*
X016538Y004089D03*
X016381Y004089D03*
X016381Y004121D03*
X016349Y004121D03*
X016349Y004152D03*
X016349Y004184D03*
X016318Y004247D03*
X016318Y004278D03*
X016286Y004278D03*
X016255Y004247D03*
X016223Y004247D03*
X016223Y004215D03*
X016696Y004184D03*
X016727Y004184D03*
X016759Y004152D03*
X016759Y004121D03*
X016759Y004089D03*
X016822Y004058D03*
X016948Y004058D03*
X016979Y004058D03*
X017011Y004058D03*
X017105Y004089D03*
X017137Y004121D03*
X017168Y004152D03*
X017200Y004152D03*
X017200Y004184D03*
X017200Y004215D03*
X017168Y004247D03*
X017137Y004247D03*
X017105Y004247D03*
X017074Y004215D03*
X017042Y004215D03*
X016948Y004215D03*
X016916Y004247D03*
X016916Y004278D03*
X016916Y004310D03*
X016979Y004341D03*
X016979Y004373D03*
X017011Y004373D03*
X017011Y004404D03*
X017042Y004404D03*
X017042Y004436D03*
X017074Y004436D03*
X017105Y004467D03*
X017105Y004499D03*
X017137Y004499D03*
X017137Y004530D03*
X017168Y004562D03*
X017200Y004593D03*
X017200Y004625D03*
X017200Y004751D03*
X017200Y004782D03*
X017168Y004782D03*
X017074Y004782D03*
X017042Y004751D03*
X017011Y004751D03*
X016979Y004719D03*
X016948Y004688D03*
X016916Y004656D03*
X016885Y004625D03*
X016853Y004593D03*
X016822Y004530D03*
X016822Y004499D03*
X016790Y004467D03*
X016759Y004436D03*
X016759Y004404D03*
X016759Y004373D03*
X016727Y004341D03*
X016696Y004310D03*
X016948Y004467D03*
X016979Y004499D03*
X016979Y004530D03*
X017011Y004530D03*
X017011Y004562D03*
X017042Y004562D03*
X016979Y004562D03*
X017168Y004278D03*
D14*
X016869Y004373D03*
X016806Y004310D03*
X016428Y004278D03*
X016428Y004247D03*
X016397Y004436D03*
X015893Y004058D03*
X015420Y004341D03*
X015452Y004404D03*
X015105Y004467D03*
X015042Y004404D03*
X015042Y004058D03*
X014601Y004278D03*
X014601Y004310D03*
X014601Y004341D03*
X014349Y004940D03*
X014412Y005066D03*
X014475Y005097D03*
X014507Y005129D03*
X014538Y005160D03*
X013215Y004278D03*
X013278Y004121D03*
X012837Y004341D03*
X012806Y004310D03*
X012743Y004089D03*
X012711Y004058D03*
X012680Y004026D03*
X012208Y004341D03*
X012113Y004530D03*
X012145Y004562D03*
X012239Y004625D03*
X012271Y004656D03*
X011767Y004215D03*
X011704Y004026D03*
X011704Y003995D03*
X011452Y004845D03*
X011452Y004877D03*
X011483Y004908D03*
X010727Y004593D03*
X010349Y005097D03*
X010318Y005003D03*
X010286Y004971D03*
X010034Y004814D03*
X009940Y004751D03*
X009751Y004845D03*
X009751Y004877D03*
X009751Y004908D03*
X009751Y004940D03*
X009782Y004971D03*
X009814Y005034D03*
X009656Y005160D03*
X009719Y004751D03*
X010097Y005349D03*
X010696Y004058D03*
X010664Y004026D03*
X009436Y003932D03*
X012900Y004562D03*
D15*
X012995Y004278D03*
X012963Y004247D03*
X012617Y004341D03*
X012586Y004310D03*
X012554Y004278D03*
X012239Y004404D03*
X011546Y004971D03*
X010727Y004625D03*
X010570Y004436D03*
X010538Y004404D03*
X010507Y004373D03*
X010475Y004341D03*
X010381Y004278D03*
X010727Y004215D03*
X010727Y004184D03*
X010759Y004247D03*
X010759Y004278D03*
X010633Y003995D03*
X011357Y004026D03*
X011357Y004058D03*
X009877Y005129D03*
X009877Y005160D03*
X009845Y005097D03*
X009593Y004341D03*
X009593Y004310D03*
X009593Y004278D03*
X009562Y004184D03*
X009562Y004152D03*
X009562Y004121D03*
X009530Y004089D03*
X014129Y003932D03*
X015011Y004026D03*
X015011Y004215D03*
X015011Y004247D03*
X015137Y004530D03*
X015137Y004562D03*
X015168Y004593D03*
X014727Y005129D03*
X014885Y005349D03*
X014381Y005003D03*
X015767Y004310D03*
X015830Y004341D03*
X016019Y004341D03*
X016145Y004247D03*
X016460Y004089D03*
X016869Y004467D03*
X016900Y004499D03*
X016900Y004530D03*
X016900Y004562D03*
X017026Y004467D03*
X017121Y004751D03*
X016145Y004625D03*
X015861Y003995D03*
D16*
X015404Y004215D03*
X014743Y005223D03*
X014649Y005192D03*
X009735Y004499D03*
X009704Y004530D03*
X009546Y003963D03*
D17*
X010050Y004184D03*
X010050Y004373D03*
X010806Y004152D03*
X011278Y004341D03*
X011373Y004089D03*
X011782Y004089D03*
X011814Y004121D03*
X011814Y004310D03*
X012129Y004278D03*
X012223Y004121D03*
X012790Y004436D03*
X013294Y004215D03*
X014176Y003963D03*
X014491Y004562D03*
X014428Y004656D03*
X014365Y004719D03*
X014963Y004310D03*
X014963Y004278D03*
X015058Y004121D03*
X015058Y004089D03*
X015971Y004404D03*
X016034Y004467D03*
X016349Y004373D03*
X016349Y004341D03*
X016475Y004215D03*
X017042Y004625D03*
X017074Y004656D03*
D18*
X016963Y004184D03*
X009593Y003995D03*
D19*
X009578Y004215D03*
X009578Y004247D03*
X009609Y004373D03*
X009609Y004404D03*
X009609Y004436D03*
X009735Y004782D03*
X009735Y004814D03*
X009987Y004782D03*
X010113Y004845D03*
X010145Y004877D03*
X010208Y004908D03*
X010239Y004940D03*
X010334Y005034D03*
X010365Y005066D03*
X009830Y005066D03*
X010428Y004310D03*
X010774Y004310D03*
X010806Y004341D03*
X010806Y004373D03*
X010806Y004404D03*
X010806Y004436D03*
X010932Y004184D03*
X011310Y004436D03*
X011404Y004814D03*
X011499Y004940D03*
X012286Y004688D03*
X012223Y004373D03*
X012664Y003995D03*
X012759Y004247D03*
X012790Y004278D03*
X012916Y004593D03*
X014365Y004971D03*
X014397Y005034D03*
X014680Y005097D03*
X014743Y005160D03*
X015121Y004499D03*
X015436Y004373D03*
X015467Y004436D03*
X015467Y004121D03*
X015877Y004026D03*
X015971Y004247D03*
X016003Y004278D03*
X016003Y004310D03*
X016192Y004278D03*
X016129Y004593D03*
X016475Y004121D03*
X014995Y004184D03*
D20*
X015074Y004152D03*
X014601Y004184D03*
X014381Y004121D03*
X014349Y004089D03*
X014192Y003995D03*
X013152Y004341D03*
X012837Y004215D03*
X012774Y004404D03*
X012113Y004247D03*
X011830Y004152D03*
X011389Y004121D03*
X010727Y004499D03*
X010727Y004530D03*
X010727Y004562D03*
X010318Y005160D03*
X009751Y004688D03*
X010003Y004404D03*
X010003Y004152D03*
X014790Y005286D03*
X015987Y004436D03*
X015956Y004373D03*
X016050Y004215D03*
X016932Y004089D03*
X017026Y004593D03*
D21*
X017121Y004782D03*
X016995Y004215D03*
X016428Y004467D03*
X016145Y004656D03*
X015924Y004341D03*
X015704Y004215D03*
X015200Y004625D03*
X014916Y004247D03*
X014759Y004247D03*
X015011Y003995D03*
X014601Y005034D03*
X013215Y004467D03*
X012900Y004278D03*
X012523Y004215D03*
X012428Y004278D03*
X012397Y004215D03*
X012208Y004026D03*
X012113Y004404D03*
X012239Y004436D03*
X011641Y004215D03*
X011578Y004215D03*
X011074Y004215D03*
X010948Y004215D03*
X010286Y004215D03*
X010034Y005160D03*
X011578Y005066D03*
X011578Y005034D03*
D22*
X010097Y005318D03*
X009782Y004467D03*
X009656Y004026D03*
D23*
X009956Y004436D03*
X009641Y004562D03*
X011247Y004310D03*
X011404Y004152D03*
X011845Y004184D03*
X012097Y004215D03*
X012255Y004184D03*
X012255Y004152D03*
X012759Y004373D03*
X014239Y004026D03*
X016948Y004121D03*
D24*
X009704Y004058D03*
D25*
X010097Y004341D03*
X009719Y004656D03*
X009656Y004625D03*
X009656Y004593D03*
X010349Y005129D03*
X011294Y004373D03*
X010790Y004121D03*
X010759Y004089D03*
X011735Y004058D03*
X011798Y004278D03*
X011924Y004373D03*
X012774Y004152D03*
X012806Y004184D03*
X012837Y004467D03*
X012869Y004499D03*
X013184Y004404D03*
X013184Y004373D03*
X013310Y004184D03*
X014349Y004751D03*
X014349Y004782D03*
X014412Y004688D03*
X014444Y004625D03*
X014444Y004593D03*
X014507Y004530D03*
X014538Y004499D03*
X014570Y004467D03*
X014570Y004436D03*
X014601Y004215D03*
X015011Y004341D03*
X015389Y004278D03*
X015483Y004184D03*
X015956Y004152D03*
X015956Y004121D03*
X015987Y004184D03*
X016050Y004499D03*
X016082Y004530D03*
X016365Y004404D03*
X016491Y004184D03*
X016806Y004215D03*
X016900Y004436D03*
X017089Y004688D03*
X014822Y005318D03*
D26*
X014759Y005255D03*
X015420Y004247D03*
X016334Y004310D03*
X016963Y004152D03*
X014475Y004152D03*
X014255Y004058D03*
X013121Y004310D03*
X011420Y004184D03*
X011231Y004247D03*
X011231Y004278D03*
X010727Y004467D03*
X009971Y004121D03*
X009908Y004089D03*
X009814Y004719D03*
D27*
X009798Y005003D03*
X010145Y004310D03*
X010145Y004278D03*
X010145Y004247D03*
X010145Y004215D03*
X011310Y004215D03*
X011310Y004404D03*
X011782Y004247D03*
X011908Y004341D03*
X011940Y004404D03*
X011971Y004436D03*
X012034Y004467D03*
X012066Y004499D03*
X012192Y004593D03*
X012160Y004310D03*
X012223Y004089D03*
X012759Y004121D03*
X012885Y004530D03*
X013200Y004436D03*
X013231Y004247D03*
X013294Y004152D03*
X014334Y004814D03*
X014334Y004845D03*
X014334Y004877D03*
X014334Y004908D03*
X014586Y004404D03*
X014586Y004373D03*
X014617Y004247D03*
X015026Y004373D03*
X015058Y004436D03*
X015404Y004310D03*
X015467Y004152D03*
X015940Y004089D03*
X016097Y004562D03*
X016475Y004152D03*
X016790Y004247D03*
X016790Y004278D03*
X016853Y004341D03*
X016885Y004404D03*
X017105Y004719D03*
D28*
X010019Y005192D03*
D29*
X010034Y005223D03*
D30*
X010050Y005255D03*
D31*
X010082Y005286D03*
D32*
X011243Y026026D02*
X011243Y029334D01*
X012842Y029334D01*
X012842Y029215D01*
X013424Y029215D01*
X013424Y029334D01*
X014439Y029334D01*
X015921Y029334D01*
X019117Y029334D01*
X019117Y026026D01*
X011243Y026026D01*
X011686Y026391D02*
X011686Y028969D01*
X014439Y028969D01*
X014439Y028723D02*
X015921Y028723D01*
X015921Y029334D01*
X015921Y028969D02*
X018674Y028969D01*
X018674Y026391D01*
X011686Y026391D01*
X014439Y028723D02*
X014439Y029334D01*
D33*
X018530Y025130D02*
X019830Y025130D01*
X019856Y025128D01*
X019882Y025123D01*
X019907Y025115D01*
X019930Y025103D01*
X019952Y025089D01*
X019971Y025071D01*
X019989Y025052D01*
X020003Y025030D01*
X020015Y025007D01*
X020023Y024982D01*
X020028Y024956D01*
X020030Y024930D01*
X020030Y024430D01*
X020028Y024404D01*
X020023Y024378D01*
X020015Y024353D01*
X020003Y024330D01*
X019989Y024308D01*
X019971Y024289D01*
X019952Y024271D01*
X019930Y024257D01*
X019907Y024245D01*
X019882Y024237D01*
X019856Y024232D01*
X019830Y024230D01*
X018530Y024230D01*
X018504Y024232D01*
X018478Y024237D01*
X018453Y024245D01*
X018430Y024257D01*
X018408Y024271D01*
X018389Y024289D01*
X018371Y024308D01*
X018357Y024330D01*
X018345Y024353D01*
X018337Y024378D01*
X018332Y024404D01*
X018330Y024430D01*
X018330Y024930D01*
X018332Y024956D01*
X018337Y024982D01*
X018345Y025007D01*
X018357Y025030D01*
X018371Y025052D01*
X018389Y025071D01*
X018408Y025089D01*
X018430Y025103D01*
X018453Y025115D01*
X018478Y025123D01*
X018504Y025128D01*
X018530Y025130D01*
X018680Y024680D02*
X019050Y024680D01*
X019300Y024680D02*
X019680Y024680D01*
X019530Y023280D02*
X019530Y022430D01*
X019330Y022430D01*
X019330Y023280D01*
X019030Y023280D01*
X019030Y022430D01*
X018830Y022430D01*
X018830Y023280D01*
X018530Y023280D01*
X018530Y022430D01*
X018330Y022430D01*
X018330Y023280D01*
X018030Y023280D01*
X018030Y022430D01*
X017830Y022430D01*
X017830Y023280D01*
X017530Y023280D01*
X017530Y022430D01*
X017330Y022430D01*
X017330Y023280D01*
X017030Y023280D01*
X017030Y022430D01*
X016830Y022430D01*
X016830Y023280D01*
X016530Y023280D01*
X016530Y022430D01*
X016330Y022430D01*
X016330Y023280D01*
X016030Y023280D01*
X016030Y022430D01*
X015830Y022430D01*
X015830Y023280D01*
X015530Y023280D01*
X015530Y022430D01*
X015330Y022430D01*
X015330Y023280D01*
X015030Y023280D01*
X015030Y022430D01*
X014830Y022430D01*
X014830Y023280D01*
X014530Y023280D01*
X014530Y022430D01*
X014330Y022430D01*
X014330Y023280D01*
X014030Y023280D01*
X014030Y022430D01*
X013830Y022430D01*
X013830Y023280D01*
X013530Y023280D01*
X013530Y022430D01*
X013330Y022430D01*
X013330Y023280D01*
X013030Y023280D01*
X013030Y022430D01*
X012830Y022430D01*
X012830Y023280D01*
X012530Y023280D01*
X012530Y022430D01*
X012330Y022430D01*
X012330Y023280D01*
X012030Y023280D01*
X012030Y022430D01*
X011830Y022430D01*
X011830Y023280D01*
X011530Y023280D01*
X011530Y022430D01*
X011330Y022430D01*
X011330Y023280D01*
X011030Y023280D01*
X011030Y022430D01*
X010930Y022430D01*
X010430Y021930D01*
X010430Y021830D01*
X009580Y021830D01*
X009580Y021530D01*
X010430Y021530D01*
X010430Y021330D01*
X009580Y021330D01*
X009580Y021030D01*
X010430Y021030D01*
X010430Y020830D01*
X009580Y020830D01*
X009580Y020530D01*
X010430Y020530D01*
X010430Y020330D01*
X009580Y020330D01*
X009580Y020030D01*
X010430Y020030D01*
X010430Y019830D01*
X009580Y019830D01*
X009580Y019530D01*
X010430Y019530D01*
X010430Y019330D01*
X009580Y019330D01*
X009580Y019030D01*
X010430Y019030D01*
X010430Y018830D01*
X009580Y018830D01*
X009580Y018530D01*
X010430Y018530D01*
X010430Y018330D01*
X009580Y018330D01*
X009580Y018030D01*
X010430Y018030D01*
X010430Y017830D01*
X009580Y017830D01*
X009580Y017530D01*
X010430Y017530D01*
X010430Y017330D01*
X009580Y017330D01*
X009580Y017030D01*
X010430Y017030D01*
X010430Y016830D01*
X009580Y016830D01*
X009580Y016530D01*
X010430Y016530D01*
X010430Y016330D01*
X009580Y016330D01*
X009580Y016030D01*
X010430Y016030D01*
X010430Y015830D01*
X009580Y015830D01*
X009580Y015530D01*
X010430Y015530D01*
X010430Y015330D01*
X009580Y015330D01*
X009580Y015030D01*
X010430Y015030D01*
X010430Y014830D01*
X009580Y014830D01*
X009580Y014530D01*
X010430Y014530D01*
X010430Y014330D01*
X009580Y014330D01*
X009580Y014030D01*
X010430Y014030D01*
X010430Y013830D01*
X009580Y013830D01*
X009580Y013530D01*
X010430Y013530D01*
X010430Y013330D01*
X009580Y013330D01*
X009580Y013030D01*
X010430Y013030D01*
X010430Y012830D01*
X009580Y012830D01*
X009580Y012530D01*
X010430Y012530D01*
X010430Y012330D01*
X009580Y012330D01*
X009580Y012030D01*
X010430Y012030D01*
X010430Y011830D01*
X009580Y011830D01*
X009580Y011530D01*
X010430Y011530D01*
X010430Y011330D01*
X009580Y010480D01*
X009980Y010080D01*
X010830Y010930D01*
X011030Y010930D01*
X011030Y010080D01*
X011330Y010080D01*
X011330Y010930D01*
X011530Y010930D01*
X011530Y010080D01*
X011830Y010080D01*
X011830Y010930D01*
X012030Y010930D01*
X012030Y010080D01*
X012330Y010080D01*
X012330Y010930D01*
X012530Y010930D01*
X012530Y010080D01*
X012830Y010080D01*
X012830Y010930D01*
X013030Y010930D01*
X013030Y010080D01*
X013330Y010080D01*
X013330Y010930D01*
X013530Y010930D01*
X013530Y010080D01*
X013830Y010080D01*
X013830Y010930D01*
X014030Y010930D01*
X014030Y010080D01*
X014330Y010080D01*
X014330Y010930D01*
X014530Y010930D01*
X014530Y010080D01*
X014830Y010080D01*
X014830Y010930D01*
X015030Y010930D01*
X015030Y010080D01*
X015330Y010080D01*
X015330Y010930D01*
X015530Y010930D01*
X015530Y010080D01*
X015830Y010080D01*
X015830Y010930D01*
X016030Y010930D01*
X016030Y010080D01*
X016330Y010080D01*
X016330Y010930D01*
X016530Y010930D01*
X016530Y010080D01*
X016830Y010080D01*
X016830Y010930D01*
X017030Y010930D01*
X017030Y010080D01*
X017330Y010080D01*
X017330Y010930D01*
X017530Y010930D01*
X017530Y010080D01*
X017830Y010080D01*
X017830Y010930D01*
X018030Y010930D01*
X018030Y010080D01*
X018330Y010080D01*
X018330Y010930D01*
X018530Y010930D01*
X018530Y010080D01*
X018830Y010080D01*
X018830Y010930D01*
X019030Y010930D01*
X019030Y010080D01*
X019330Y010080D01*
X019330Y010930D01*
X019530Y010930D01*
X019530Y010080D01*
X019830Y010080D01*
X019830Y010930D01*
X020030Y010930D01*
X020030Y010080D01*
X020330Y010080D01*
X020330Y010930D01*
X020530Y010930D01*
X020530Y010080D01*
X020830Y010080D01*
X020830Y010930D01*
X021030Y010930D01*
X021030Y010080D01*
X021330Y010080D01*
X021330Y010930D01*
X021930Y010930D01*
X021930Y011530D01*
X022780Y011530D01*
X022780Y011830D01*
X021930Y011830D01*
X021930Y012030D01*
X022780Y012030D01*
X022780Y012330D01*
X021930Y012330D01*
X021930Y012530D01*
X022780Y012530D01*
X022780Y012830D01*
X021930Y012830D01*
X021930Y013030D01*
X022780Y013030D01*
X022780Y013330D01*
X021930Y013330D01*
X021930Y013530D01*
X022780Y013530D01*
X022780Y013830D01*
X021930Y013830D01*
X021930Y014030D01*
X022780Y014030D01*
X022780Y014330D01*
X021930Y014330D01*
X021930Y014530D01*
X022780Y014530D01*
X022780Y014830D01*
X021930Y014830D01*
X021930Y015030D01*
X022780Y015030D01*
X022780Y015330D01*
X021930Y015330D01*
X021930Y015530D01*
X022780Y015530D01*
X022780Y015830D01*
X021930Y015830D01*
X021930Y016030D01*
X022780Y016030D01*
X022780Y016330D01*
X021930Y016330D01*
X021930Y016530D01*
X022780Y016530D01*
X022780Y016830D01*
X021930Y016830D01*
X021930Y017030D01*
X022780Y017030D01*
X022780Y017330D01*
X021930Y017330D01*
X021930Y017530D01*
X022780Y017530D01*
X022780Y017830D01*
X021930Y017830D01*
X021930Y018030D01*
X022780Y018030D01*
X022780Y018330D01*
X021930Y018330D01*
X021930Y018530D01*
X022780Y018530D01*
X022780Y018830D01*
X021930Y018830D01*
X021930Y019030D01*
X022780Y019030D01*
X022780Y019330D01*
X021930Y019330D01*
X021930Y019530D01*
X022780Y019530D01*
X022780Y019830D01*
X021930Y019830D01*
X021930Y020030D01*
X022780Y020030D01*
X022780Y020330D01*
X021930Y020330D01*
X021930Y020530D01*
X022780Y020530D01*
X022780Y020830D01*
X021930Y020830D01*
X021930Y021030D01*
X022780Y021030D01*
X022780Y021330D01*
X021930Y021330D01*
X021930Y021530D01*
X022780Y021530D01*
X022780Y021830D01*
X021930Y021830D01*
X021930Y022030D01*
X022780Y022880D01*
X022380Y023280D01*
X021530Y022430D01*
X021330Y022430D01*
X021330Y023280D01*
X021030Y023280D01*
X021030Y022430D01*
X020830Y022430D01*
X020830Y023280D01*
X020530Y023280D01*
X020530Y022430D01*
X020330Y022430D01*
X020330Y023280D01*
X020030Y023280D01*
X020030Y022430D01*
X019830Y022430D01*
X019830Y023280D01*
X019530Y023280D01*
X021180Y025980D02*
X021780Y025980D01*
X021880Y025980D01*
X021880Y025880D01*
X022480Y025880D01*
X022480Y025980D01*
X022580Y025980D01*
X023180Y025980D01*
X023380Y026180D01*
X023380Y026330D01*
X023380Y026680D01*
X023380Y027630D01*
X023380Y028030D01*
X023380Y028180D01*
X023180Y028380D01*
X022580Y028380D01*
X022480Y028380D01*
X022480Y028480D01*
X021880Y028480D01*
X021880Y028380D01*
X021780Y028380D01*
X021180Y028380D01*
X020980Y028180D01*
X020980Y028030D01*
X020980Y027680D01*
X020980Y026680D01*
X020980Y026330D01*
X020980Y026180D01*
X021180Y025980D01*
X021130Y026330D02*
X021132Y026358D01*
X021138Y026385D01*
X021147Y026411D01*
X021160Y026436D01*
X021177Y026459D01*
X021196Y026479D01*
X021218Y026496D01*
X021242Y026510D01*
X021268Y026520D01*
X021295Y026527D01*
X021323Y026530D01*
X021351Y026529D01*
X021378Y026524D01*
X021405Y026515D01*
X021430Y026503D01*
X021453Y026488D01*
X021474Y026469D01*
X021492Y026448D01*
X021507Y026424D01*
X021518Y026398D01*
X021526Y026372D01*
X021530Y026344D01*
X021530Y026316D01*
X021526Y026288D01*
X021518Y026262D01*
X021507Y026236D01*
X021492Y026212D01*
X021474Y026191D01*
X021453Y026172D01*
X021430Y026157D01*
X021405Y026145D01*
X021378Y026136D01*
X021351Y026131D01*
X021323Y026130D01*
X021295Y026133D01*
X021268Y026140D01*
X021242Y026150D01*
X021218Y026164D01*
X021196Y026181D01*
X021177Y026201D01*
X021160Y026224D01*
X021147Y026249D01*
X021138Y026275D01*
X021132Y026302D01*
X021130Y026330D01*
X021280Y026680D02*
X021280Y027680D01*
X021130Y028030D02*
X021132Y028058D01*
X021138Y028085D01*
X021147Y028111D01*
X021160Y028136D01*
X021177Y028159D01*
X021196Y028179D01*
X021218Y028196D01*
X021242Y028210D01*
X021268Y028220D01*
X021295Y028227D01*
X021323Y028230D01*
X021351Y028229D01*
X021378Y028224D01*
X021405Y028215D01*
X021430Y028203D01*
X021453Y028188D01*
X021474Y028169D01*
X021492Y028148D01*
X021507Y028124D01*
X021518Y028098D01*
X021526Y028072D01*
X021530Y028044D01*
X021530Y028016D01*
X021526Y027988D01*
X021518Y027962D01*
X021507Y027936D01*
X021492Y027912D01*
X021474Y027891D01*
X021453Y027872D01*
X021430Y027857D01*
X021405Y027845D01*
X021378Y027836D01*
X021351Y027831D01*
X021323Y027830D01*
X021295Y027833D01*
X021268Y027840D01*
X021242Y027850D01*
X021218Y027864D01*
X021196Y027881D01*
X021177Y027901D01*
X021160Y027924D01*
X021147Y027949D01*
X021138Y027975D01*
X021132Y028002D01*
X021130Y028030D01*
X020580Y028080D02*
X020580Y027930D01*
X020530Y027880D01*
X020530Y026480D01*
X020580Y026430D01*
X020580Y026280D01*
X020578Y026263D01*
X020574Y026246D01*
X020567Y026230D01*
X020557Y026216D01*
X020544Y026203D01*
X020530Y026193D01*
X020514Y026186D01*
X020497Y026182D01*
X020480Y026180D01*
X019880Y026180D01*
X019863Y026182D01*
X019846Y026186D01*
X019830Y026193D01*
X019816Y026203D01*
X019803Y026216D01*
X019793Y026230D01*
X019786Y026246D01*
X019782Y026263D01*
X019780Y026280D01*
X019780Y026430D01*
X019830Y026480D01*
X019830Y027880D01*
X019780Y027930D01*
X019780Y028080D01*
X019782Y028097D01*
X019786Y028114D01*
X019793Y028130D01*
X019803Y028144D01*
X019816Y028157D01*
X019830Y028167D01*
X019846Y028174D01*
X019863Y028178D01*
X019880Y028180D01*
X020480Y028180D01*
X020497Y028178D01*
X020514Y028174D01*
X020530Y028167D01*
X020544Y028157D01*
X020557Y028144D01*
X020567Y028130D01*
X020574Y028114D01*
X020578Y028097D01*
X020580Y028080D01*
X022080Y027180D02*
X022082Y027200D01*
X022088Y027218D01*
X022097Y027236D01*
X022109Y027251D01*
X022124Y027263D01*
X022142Y027272D01*
X022160Y027278D01*
X022180Y027280D01*
X022200Y027278D01*
X022218Y027272D01*
X022236Y027263D01*
X022251Y027251D01*
X022263Y027236D01*
X022272Y027218D01*
X022278Y027200D01*
X022280Y027180D01*
X022278Y027160D01*
X022272Y027142D01*
X022263Y027124D01*
X022251Y027109D01*
X022236Y027097D01*
X022218Y027088D01*
X022200Y027082D01*
X022180Y027080D01*
X022160Y027082D01*
X022142Y027088D01*
X022124Y027097D01*
X022109Y027109D01*
X022097Y027124D01*
X022088Y027142D01*
X022082Y027160D01*
X022080Y027180D01*
X021480Y027180D02*
X021482Y027232D01*
X021488Y027284D01*
X021498Y027336D01*
X021511Y027386D01*
X021528Y027436D01*
X021549Y027484D01*
X021574Y027530D01*
X021602Y027574D01*
X021633Y027616D01*
X021667Y027656D01*
X021704Y027693D01*
X021744Y027727D01*
X021786Y027758D01*
X021830Y027786D01*
X021876Y027811D01*
X021924Y027832D01*
X021974Y027849D01*
X022024Y027862D01*
X022076Y027872D01*
X022128Y027878D01*
X022180Y027880D01*
X022232Y027878D01*
X022284Y027872D01*
X022336Y027862D01*
X022386Y027849D01*
X022436Y027832D01*
X022484Y027811D01*
X022530Y027786D01*
X022574Y027758D01*
X022616Y027727D01*
X022656Y027693D01*
X022693Y027656D01*
X022727Y027616D01*
X022758Y027574D01*
X022786Y027530D01*
X022811Y027484D01*
X022832Y027436D01*
X022849Y027386D01*
X022862Y027336D01*
X022872Y027284D01*
X022878Y027232D01*
X022880Y027180D01*
X022878Y027128D01*
X022872Y027076D01*
X022862Y027024D01*
X022849Y026974D01*
X022832Y026924D01*
X022811Y026876D01*
X022786Y026830D01*
X022758Y026786D01*
X022727Y026744D01*
X022693Y026704D01*
X022656Y026667D01*
X022616Y026633D01*
X022574Y026602D01*
X022530Y026574D01*
X022484Y026549D01*
X022436Y026528D01*
X022386Y026511D01*
X022336Y026498D01*
X022284Y026488D01*
X022232Y026482D01*
X022180Y026480D01*
X022128Y026482D01*
X022076Y026488D01*
X022024Y026498D01*
X021974Y026511D01*
X021924Y026528D01*
X021876Y026549D01*
X021830Y026574D01*
X021786Y026602D01*
X021744Y026633D01*
X021704Y026667D01*
X021667Y026704D01*
X021633Y026744D01*
X021602Y026786D01*
X021574Y026830D01*
X021549Y026876D01*
X021528Y026924D01*
X021511Y026974D01*
X021498Y027024D01*
X021488Y027076D01*
X021482Y027128D01*
X021480Y027180D01*
X021680Y026230D02*
X021980Y026230D01*
X022330Y026330D01*
X022380Y026230D02*
X022680Y026230D01*
X022830Y026330D02*
X022832Y026358D01*
X022838Y026385D01*
X022847Y026411D01*
X022860Y026436D01*
X022877Y026459D01*
X022896Y026479D01*
X022918Y026496D01*
X022942Y026510D01*
X022968Y026520D01*
X022995Y026527D01*
X023023Y026530D01*
X023051Y026529D01*
X023078Y026524D01*
X023105Y026515D01*
X023130Y026503D01*
X023153Y026488D01*
X023174Y026469D01*
X023192Y026448D01*
X023207Y026424D01*
X023218Y026398D01*
X023226Y026372D01*
X023230Y026344D01*
X023230Y026316D01*
X023226Y026288D01*
X023218Y026262D01*
X023207Y026236D01*
X023192Y026212D01*
X023174Y026191D01*
X023153Y026172D01*
X023130Y026157D01*
X023105Y026145D01*
X023078Y026136D01*
X023051Y026131D01*
X023023Y026130D01*
X022995Y026133D01*
X022968Y026140D01*
X022942Y026150D01*
X022918Y026164D01*
X022896Y026181D01*
X022877Y026201D01*
X022860Y026224D01*
X022847Y026249D01*
X022838Y026275D01*
X022832Y026302D01*
X022830Y026330D01*
X023030Y026680D02*
X023030Y027680D01*
X022780Y028030D02*
X022782Y028058D01*
X022788Y028085D01*
X022797Y028111D01*
X022810Y028136D01*
X022827Y028159D01*
X022846Y028179D01*
X022868Y028196D01*
X022892Y028210D01*
X022918Y028220D01*
X022945Y028227D01*
X022973Y028230D01*
X023001Y028229D01*
X023028Y028224D01*
X023055Y028215D01*
X023080Y028203D01*
X023103Y028188D01*
X023124Y028169D01*
X023142Y028148D01*
X023157Y028124D01*
X023168Y028098D01*
X023176Y028072D01*
X023180Y028044D01*
X023180Y028016D01*
X023176Y027988D01*
X023168Y027962D01*
X023157Y027936D01*
X023142Y027912D01*
X023124Y027891D01*
X023103Y027872D01*
X023080Y027857D01*
X023055Y027845D01*
X023028Y027836D01*
X023001Y027831D01*
X022973Y027830D01*
X022945Y027833D01*
X022918Y027840D01*
X022892Y027850D01*
X022868Y027864D01*
X022846Y027881D01*
X022827Y027901D01*
X022810Y027924D01*
X022797Y027949D01*
X022788Y027975D01*
X022782Y028002D01*
X022780Y028030D01*
X024680Y027180D02*
X025680Y027180D01*
X027680Y027180D01*
X028680Y027180D01*
X028680Y023180D01*
X027680Y023180D01*
X027080Y023180D01*
X027330Y022880D02*
X026030Y022880D01*
X026004Y022878D01*
X025978Y022873D01*
X025953Y022865D01*
X025930Y022853D01*
X025908Y022839D01*
X025889Y022821D01*
X025871Y022802D01*
X025857Y022780D01*
X025845Y022757D01*
X025837Y022732D01*
X025832Y022706D01*
X025830Y022680D01*
X025830Y022180D01*
X025832Y022154D01*
X025837Y022128D01*
X025845Y022103D01*
X025857Y022080D01*
X025871Y022058D01*
X025889Y022039D01*
X025908Y022021D01*
X025930Y022007D01*
X025953Y021995D01*
X025978Y021987D01*
X026004Y021982D01*
X026030Y021980D01*
X027330Y021980D01*
X027356Y021982D01*
X027382Y021987D01*
X027407Y021995D01*
X027430Y022007D01*
X027452Y022021D01*
X027471Y022039D01*
X027489Y022058D01*
X027503Y022080D01*
X027515Y022103D01*
X027523Y022128D01*
X027528Y022154D01*
X027530Y022180D01*
X027530Y022680D01*
X027528Y022706D01*
X027523Y022732D01*
X027515Y022757D01*
X027503Y022780D01*
X027489Y022802D01*
X027471Y022821D01*
X027452Y022839D01*
X027430Y022853D01*
X027407Y022865D01*
X027382Y022873D01*
X027356Y022878D01*
X027330Y022880D01*
X027680Y023180D02*
X027680Y027180D01*
X025680Y027180D02*
X025680Y023180D01*
X026280Y023180D01*
X026282Y023219D01*
X026288Y023258D01*
X026297Y023296D01*
X026310Y023333D01*
X026327Y023369D01*
X026347Y023402D01*
X026371Y023434D01*
X026397Y023463D01*
X026426Y023489D01*
X026458Y023513D01*
X026491Y023533D01*
X026527Y023550D01*
X026564Y023563D01*
X026602Y023572D01*
X026641Y023578D01*
X026680Y023580D01*
X026719Y023578D01*
X026758Y023572D01*
X026796Y023563D01*
X026833Y023550D01*
X026869Y023533D01*
X026902Y023513D01*
X026934Y023489D01*
X026963Y023463D01*
X026989Y023434D01*
X027013Y023402D01*
X027033Y023369D01*
X027050Y023333D01*
X027063Y023296D01*
X027072Y023258D01*
X027078Y023219D01*
X027080Y023180D01*
X027180Y022430D02*
X026810Y022430D01*
X026560Y022430D02*
X026180Y022430D01*
X025680Y023180D02*
X024680Y023180D01*
X024680Y027180D01*
X023180Y023680D02*
X023180Y009680D01*
X009180Y009680D01*
X009180Y023180D01*
X009680Y023680D01*
X023180Y023680D01*
X026680Y020430D02*
X026680Y019930D01*
X026930Y019680D01*
X026680Y019430D01*
X026680Y018930D01*
X026930Y018680D01*
X026680Y018430D01*
X026680Y017930D01*
X026930Y017680D01*
X026680Y017430D01*
X026680Y016930D01*
X026930Y016680D01*
X026680Y016430D01*
X026680Y015930D01*
X026930Y015680D01*
X026680Y015430D01*
X026680Y014930D01*
X026930Y014680D01*
X026680Y014430D01*
X026680Y013930D01*
X026930Y013680D01*
X026680Y013430D01*
X026680Y012930D01*
X026930Y012680D01*
X028430Y012680D01*
X028680Y012930D01*
X028680Y013430D01*
X028430Y013680D01*
X028680Y013930D01*
X028680Y014430D01*
X028430Y014680D01*
X028680Y014930D01*
X028680Y015430D01*
X028430Y015680D01*
X028680Y015930D01*
X028680Y016430D01*
X028430Y016680D01*
X028680Y016930D01*
X028680Y017430D01*
X028430Y017680D01*
X028680Y017930D01*
X028680Y018430D01*
X028430Y018680D01*
X028680Y018930D01*
X028680Y019430D01*
X028430Y019680D01*
X028680Y019930D01*
X028680Y020430D01*
X028430Y020680D01*
X026930Y020680D01*
X026680Y020430D01*
X024380Y019330D02*
X024380Y018030D01*
X024378Y018004D01*
X024373Y017978D01*
X024365Y017953D01*
X024353Y017930D01*
X024339Y017908D01*
X024321Y017889D01*
X024302Y017871D01*
X024280Y017857D01*
X024257Y017845D01*
X024232Y017837D01*
X024206Y017832D01*
X024180Y017830D01*
X023680Y017830D01*
X023654Y017832D01*
X023628Y017837D01*
X023603Y017845D01*
X023580Y017857D01*
X023558Y017871D01*
X023539Y017889D01*
X023521Y017908D01*
X023507Y017930D01*
X023495Y017953D01*
X023487Y017978D01*
X023482Y018004D01*
X023480Y018030D01*
X023480Y019330D01*
X023482Y019356D01*
X023487Y019382D01*
X023495Y019407D01*
X023507Y019430D01*
X023521Y019452D01*
X023539Y019471D01*
X023558Y019489D01*
X023580Y019503D01*
X023603Y019515D01*
X023628Y019523D01*
X023654Y019528D01*
X023680Y019530D01*
X024180Y019530D01*
X024206Y019528D01*
X024232Y019523D01*
X024257Y019515D01*
X024280Y019503D01*
X024302Y019489D01*
X024321Y019471D01*
X024339Y019452D01*
X024353Y019430D01*
X024365Y019407D01*
X024373Y019382D01*
X024378Y019356D01*
X024380Y019330D01*
X023930Y019180D02*
X023930Y018810D01*
X023930Y018560D02*
X023930Y018180D01*
X018680Y019430D02*
X018682Y019461D01*
X018688Y019492D01*
X018698Y019522D01*
X018711Y019550D01*
X018728Y019577D01*
X018748Y019601D01*
X018771Y019623D01*
X018796Y019641D01*
X018824Y019656D01*
X018853Y019668D01*
X018883Y019676D01*
X018914Y019680D01*
X018946Y019680D01*
X018977Y019676D01*
X019007Y019668D01*
X019036Y019656D01*
X019064Y019641D01*
X019089Y019623D01*
X019112Y019601D01*
X019132Y019577D01*
X019149Y019550D01*
X019162Y019522D01*
X019172Y019492D01*
X019178Y019461D01*
X019180Y019430D01*
X019178Y019399D01*
X019172Y019368D01*
X019162Y019338D01*
X019149Y019310D01*
X019132Y019283D01*
X019112Y019259D01*
X019089Y019237D01*
X019064Y019219D01*
X019036Y019204D01*
X019007Y019192D01*
X018977Y019184D01*
X018946Y019180D01*
X018914Y019180D01*
X018883Y019184D01*
X018853Y019192D01*
X018824Y019204D01*
X018796Y019219D01*
X018771Y019237D01*
X018748Y019259D01*
X018728Y019283D01*
X018711Y019310D01*
X018698Y019338D01*
X018688Y019368D01*
X018682Y019399D01*
X018680Y019430D01*
X016970Y018180D02*
X016972Y018233D01*
X016978Y018286D01*
X016988Y018338D01*
X017002Y018389D01*
X017019Y018439D01*
X017040Y018488D01*
X017065Y018535D01*
X017093Y018580D01*
X017125Y018623D01*
X017160Y018663D01*
X017197Y018700D01*
X017237Y018735D01*
X017280Y018767D01*
X017325Y018795D01*
X017372Y018820D01*
X017421Y018841D01*
X017471Y018858D01*
X017522Y018872D01*
X017574Y018882D01*
X017627Y018888D01*
X017680Y018890D01*
X017733Y018888D01*
X017786Y018882D01*
X017838Y018872D01*
X017889Y018858D01*
X017939Y018841D01*
X017988Y018820D01*
X018035Y018795D01*
X018080Y018767D01*
X018123Y018735D01*
X018163Y018700D01*
X018200Y018663D01*
X018235Y018623D01*
X018267Y018580D01*
X018295Y018535D01*
X018320Y018488D01*
X018341Y018439D01*
X018358Y018389D01*
X018372Y018338D01*
X018382Y018286D01*
X018388Y018233D01*
X018390Y018180D01*
X018388Y018127D01*
X018382Y018074D01*
X018372Y018022D01*
X018358Y017971D01*
X018341Y017921D01*
X018320Y017872D01*
X018295Y017825D01*
X018267Y017780D01*
X018235Y017737D01*
X018200Y017697D01*
X018163Y017660D01*
X018123Y017625D01*
X018080Y017593D01*
X018035Y017565D01*
X017988Y017540D01*
X017939Y017519D01*
X017889Y017502D01*
X017838Y017488D01*
X017786Y017478D01*
X017733Y017472D01*
X017680Y017470D01*
X017627Y017472D01*
X017574Y017478D01*
X017522Y017488D01*
X017471Y017502D01*
X017421Y017519D01*
X017372Y017540D01*
X017325Y017565D01*
X017280Y017593D01*
X017237Y017625D01*
X017197Y017660D01*
X017160Y017697D01*
X017125Y017737D01*
X017093Y017780D01*
X017065Y017825D01*
X017040Y017872D01*
X017019Y017921D01*
X017002Y017971D01*
X016988Y018022D01*
X016978Y018074D01*
X016972Y018127D01*
X016970Y018180D01*
X013970Y018180D02*
X013972Y018233D01*
X013978Y018286D01*
X013988Y018338D01*
X014002Y018389D01*
X014019Y018439D01*
X014040Y018488D01*
X014065Y018535D01*
X014093Y018580D01*
X014125Y018623D01*
X014160Y018663D01*
X014197Y018700D01*
X014237Y018735D01*
X014280Y018767D01*
X014325Y018795D01*
X014372Y018820D01*
X014421Y018841D01*
X014471Y018858D01*
X014522Y018872D01*
X014574Y018882D01*
X014627Y018888D01*
X014680Y018890D01*
X014733Y018888D01*
X014786Y018882D01*
X014838Y018872D01*
X014889Y018858D01*
X014939Y018841D01*
X014988Y018820D01*
X015035Y018795D01*
X015080Y018767D01*
X015123Y018735D01*
X015163Y018700D01*
X015200Y018663D01*
X015235Y018623D01*
X015267Y018580D01*
X015295Y018535D01*
X015320Y018488D01*
X015341Y018439D01*
X015358Y018389D01*
X015372Y018338D01*
X015382Y018286D01*
X015388Y018233D01*
X015390Y018180D01*
X015388Y018127D01*
X015382Y018074D01*
X015372Y018022D01*
X015358Y017971D01*
X015341Y017921D01*
X015320Y017872D01*
X015295Y017825D01*
X015267Y017780D01*
X015235Y017737D01*
X015200Y017697D01*
X015163Y017660D01*
X015123Y017625D01*
X015080Y017593D01*
X015035Y017565D01*
X014988Y017540D01*
X014939Y017519D01*
X014889Y017502D01*
X014838Y017488D01*
X014786Y017478D01*
X014733Y017472D01*
X014680Y017470D01*
X014627Y017472D01*
X014574Y017478D01*
X014522Y017488D01*
X014471Y017502D01*
X014421Y017519D01*
X014372Y017540D01*
X014325Y017565D01*
X014280Y017593D01*
X014237Y017625D01*
X014197Y017660D01*
X014160Y017697D01*
X014125Y017737D01*
X014093Y017780D01*
X014065Y017825D01*
X014040Y017872D01*
X014019Y017921D01*
X014002Y017971D01*
X013988Y018022D01*
X013978Y018074D01*
X013972Y018127D01*
X013970Y018180D01*
X013180Y019430D02*
X013182Y019461D01*
X013188Y019492D01*
X013198Y019522D01*
X013211Y019550D01*
X013228Y019577D01*
X013248Y019601D01*
X013271Y019623D01*
X013296Y019641D01*
X013324Y019656D01*
X013353Y019668D01*
X013383Y019676D01*
X013414Y019680D01*
X013446Y019680D01*
X013477Y019676D01*
X013507Y019668D01*
X013536Y019656D01*
X013564Y019641D01*
X013589Y019623D01*
X013612Y019601D01*
X013632Y019577D01*
X013649Y019550D01*
X013662Y019522D01*
X013672Y019492D01*
X013678Y019461D01*
X013680Y019430D01*
X013678Y019399D01*
X013672Y019368D01*
X013662Y019338D01*
X013649Y019310D01*
X013632Y019283D01*
X013612Y019259D01*
X013589Y019237D01*
X013564Y019219D01*
X013536Y019204D01*
X013507Y019192D01*
X013477Y019184D01*
X013446Y019180D01*
X013414Y019180D01*
X013383Y019184D01*
X013353Y019192D01*
X013324Y019204D01*
X013296Y019219D01*
X013271Y019237D01*
X013248Y019259D01*
X013228Y019283D01*
X013211Y019310D01*
X013198Y019338D01*
X013188Y019368D01*
X013182Y019399D01*
X013180Y019430D01*
X013970Y015180D02*
X013972Y015233D01*
X013978Y015286D01*
X013988Y015338D01*
X014002Y015389D01*
X014019Y015439D01*
X014040Y015488D01*
X014065Y015535D01*
X014093Y015580D01*
X014125Y015623D01*
X014160Y015663D01*
X014197Y015700D01*
X014237Y015735D01*
X014280Y015767D01*
X014325Y015795D01*
X014372Y015820D01*
X014421Y015841D01*
X014471Y015858D01*
X014522Y015872D01*
X014574Y015882D01*
X014627Y015888D01*
X014680Y015890D01*
X014733Y015888D01*
X014786Y015882D01*
X014838Y015872D01*
X014889Y015858D01*
X014939Y015841D01*
X014988Y015820D01*
X015035Y015795D01*
X015080Y015767D01*
X015123Y015735D01*
X015163Y015700D01*
X015200Y015663D01*
X015235Y015623D01*
X015267Y015580D01*
X015295Y015535D01*
X015320Y015488D01*
X015341Y015439D01*
X015358Y015389D01*
X015372Y015338D01*
X015382Y015286D01*
X015388Y015233D01*
X015390Y015180D01*
X015388Y015127D01*
X015382Y015074D01*
X015372Y015022D01*
X015358Y014971D01*
X015341Y014921D01*
X015320Y014872D01*
X015295Y014825D01*
X015267Y014780D01*
X015235Y014737D01*
X015200Y014697D01*
X015163Y014660D01*
X015123Y014625D01*
X015080Y014593D01*
X015035Y014565D01*
X014988Y014540D01*
X014939Y014519D01*
X014889Y014502D01*
X014838Y014488D01*
X014786Y014478D01*
X014733Y014472D01*
X014680Y014470D01*
X014627Y014472D01*
X014574Y014478D01*
X014522Y014488D01*
X014471Y014502D01*
X014421Y014519D01*
X014372Y014540D01*
X014325Y014565D01*
X014280Y014593D01*
X014237Y014625D01*
X014197Y014660D01*
X014160Y014697D01*
X014125Y014737D01*
X014093Y014780D01*
X014065Y014825D01*
X014040Y014872D01*
X014019Y014921D01*
X014002Y014971D01*
X013988Y015022D01*
X013978Y015074D01*
X013972Y015127D01*
X013970Y015180D01*
X013180Y013930D02*
X013182Y013961D01*
X013188Y013992D01*
X013198Y014022D01*
X013211Y014050D01*
X013228Y014077D01*
X013248Y014101D01*
X013271Y014123D01*
X013296Y014141D01*
X013324Y014156D01*
X013353Y014168D01*
X013383Y014176D01*
X013414Y014180D01*
X013446Y014180D01*
X013477Y014176D01*
X013507Y014168D01*
X013536Y014156D01*
X013564Y014141D01*
X013589Y014123D01*
X013612Y014101D01*
X013632Y014077D01*
X013649Y014050D01*
X013662Y014022D01*
X013672Y013992D01*
X013678Y013961D01*
X013680Y013930D01*
X013678Y013899D01*
X013672Y013868D01*
X013662Y013838D01*
X013649Y013810D01*
X013632Y013783D01*
X013612Y013759D01*
X013589Y013737D01*
X013564Y013719D01*
X013536Y013704D01*
X013507Y013692D01*
X013477Y013684D01*
X013446Y013680D01*
X013414Y013680D01*
X013383Y013684D01*
X013353Y013692D01*
X013324Y013704D01*
X013296Y013719D01*
X013271Y013737D01*
X013248Y013759D01*
X013228Y013783D01*
X013211Y013810D01*
X013198Y013838D01*
X013188Y013868D01*
X013182Y013899D01*
X013180Y013930D01*
X009130Y014330D02*
X009130Y013030D01*
X009128Y013004D01*
X009123Y012978D01*
X009115Y012953D01*
X009103Y012930D01*
X009089Y012908D01*
X009071Y012889D01*
X009052Y012871D01*
X009030Y012857D01*
X009007Y012845D01*
X008982Y012837D01*
X008956Y012832D01*
X008930Y012830D01*
X008430Y012830D01*
X008404Y012832D01*
X008378Y012837D01*
X008353Y012845D01*
X008330Y012857D01*
X008308Y012871D01*
X008289Y012889D01*
X008271Y012908D01*
X008257Y012930D01*
X008245Y012953D01*
X008237Y012978D01*
X008232Y013004D01*
X008230Y013030D01*
X008230Y014330D01*
X008232Y014356D01*
X008237Y014382D01*
X008245Y014407D01*
X008257Y014430D01*
X008271Y014452D01*
X008289Y014471D01*
X008308Y014489D01*
X008330Y014503D01*
X008353Y014515D01*
X008378Y014523D01*
X008404Y014528D01*
X008430Y014530D01*
X008930Y014530D01*
X008956Y014528D01*
X008982Y014523D01*
X009007Y014515D01*
X009030Y014503D01*
X009052Y014489D01*
X009071Y014471D01*
X009089Y014452D01*
X009103Y014430D01*
X009115Y014407D01*
X009123Y014382D01*
X009128Y014356D01*
X009130Y014330D01*
X008680Y014180D02*
X008680Y013800D01*
X008680Y013550D02*
X008680Y013180D01*
X011530Y009380D02*
X012830Y009380D01*
X012856Y009378D01*
X012882Y009373D01*
X012907Y009365D01*
X012930Y009353D01*
X012952Y009339D01*
X012971Y009321D01*
X012989Y009302D01*
X013003Y009280D01*
X013015Y009257D01*
X013023Y009232D01*
X013028Y009206D01*
X013030Y009180D01*
X013030Y008680D01*
X013028Y008654D01*
X013023Y008628D01*
X013015Y008603D01*
X013003Y008580D01*
X012989Y008558D01*
X012971Y008539D01*
X012952Y008521D01*
X012930Y008507D01*
X012907Y008495D01*
X012882Y008487D01*
X012856Y008482D01*
X012830Y008480D01*
X011530Y008480D01*
X011504Y008482D01*
X011478Y008487D01*
X011453Y008495D01*
X011430Y008507D01*
X011408Y008521D01*
X011389Y008539D01*
X011371Y008558D01*
X011357Y008580D01*
X011345Y008603D01*
X011337Y008628D01*
X011332Y008654D01*
X011330Y008680D01*
X011330Y009180D01*
X011332Y009206D01*
X011337Y009232D01*
X011345Y009257D01*
X011357Y009280D01*
X011371Y009302D01*
X011389Y009321D01*
X011408Y009339D01*
X011430Y009353D01*
X011453Y009365D01*
X011478Y009373D01*
X011504Y009378D01*
X011530Y009380D01*
X011680Y008930D02*
X012050Y008930D01*
X012300Y008930D02*
X012680Y008930D01*
X012430Y007680D02*
X011930Y007680D01*
X011680Y007430D01*
X011430Y007680D01*
X010930Y007680D01*
X010680Y007430D01*
X010430Y007680D01*
X009930Y007680D01*
X009680Y007430D01*
X009430Y007680D01*
X008930Y007680D01*
X008680Y007430D01*
X008430Y007680D01*
X007930Y007680D01*
X007680Y007430D01*
X007680Y005930D01*
X007930Y005680D01*
X008430Y005680D01*
X008680Y005930D01*
X008930Y005680D01*
X009430Y005680D01*
X009680Y005930D01*
X009930Y005680D01*
X010430Y005680D01*
X010680Y005930D01*
X010930Y005680D01*
X011430Y005680D01*
X011680Y005930D01*
X011930Y005680D01*
X012430Y005680D01*
X012680Y005930D01*
X012930Y005680D01*
X013430Y005680D01*
X013680Y005930D01*
X013930Y005680D01*
X014430Y005680D01*
X014680Y005930D01*
X014930Y005680D01*
X015430Y005680D01*
X015680Y005930D01*
X015680Y007430D01*
X015430Y007680D01*
X014930Y007680D01*
X014680Y007430D01*
X014430Y007680D01*
X013930Y007680D01*
X013680Y007430D01*
X013430Y007680D01*
X012930Y007680D01*
X012680Y007430D01*
X012430Y007680D01*
X014330Y008680D02*
X014330Y009180D01*
X014332Y009206D01*
X014337Y009232D01*
X014345Y009257D01*
X014357Y009280D01*
X014371Y009302D01*
X014389Y009321D01*
X014408Y009339D01*
X014430Y009353D01*
X014453Y009365D01*
X014478Y009373D01*
X014504Y009378D01*
X014530Y009380D01*
X015830Y009380D01*
X015856Y009378D01*
X015882Y009373D01*
X015907Y009365D01*
X015930Y009353D01*
X015952Y009339D01*
X015971Y009321D01*
X015989Y009302D01*
X016003Y009280D01*
X016015Y009257D01*
X016023Y009232D01*
X016028Y009206D01*
X016030Y009180D01*
X016030Y008680D01*
X016028Y008654D01*
X016023Y008628D01*
X016015Y008603D01*
X016003Y008580D01*
X015989Y008558D01*
X015971Y008539D01*
X015952Y008521D01*
X015930Y008507D01*
X015907Y008495D01*
X015882Y008487D01*
X015856Y008482D01*
X015830Y008480D01*
X014530Y008480D01*
X014504Y008482D01*
X014478Y008487D01*
X014453Y008495D01*
X014430Y008507D01*
X014408Y008521D01*
X014389Y008539D01*
X014371Y008558D01*
X014357Y008580D01*
X014345Y008603D01*
X014337Y008628D01*
X014332Y008654D01*
X014330Y008680D01*
X014680Y008930D02*
X015050Y008930D01*
X015300Y008930D02*
X015680Y008930D01*
X017680Y007430D02*
X017680Y005930D01*
X017930Y005680D01*
X018430Y005680D01*
X018680Y005930D01*
X018930Y005680D01*
X019430Y005680D01*
X019680Y005930D01*
X019930Y005680D01*
X020430Y005680D01*
X020680Y005930D01*
X020930Y005680D01*
X021430Y005680D01*
X021680Y005930D01*
X021930Y005680D01*
X022430Y005680D01*
X022680Y005930D01*
X022930Y005680D01*
X023430Y005680D01*
X023680Y005930D01*
X023930Y005680D01*
X024430Y005680D01*
X024680Y005930D01*
X024930Y005680D01*
X025430Y005680D01*
X025680Y005930D01*
X025680Y007430D01*
X025430Y007680D01*
X024930Y007680D01*
X024680Y007430D01*
X024430Y007680D01*
X023930Y007680D01*
X023680Y007430D01*
X023430Y007680D01*
X022930Y007680D01*
X022680Y007430D01*
X022430Y007680D01*
X021930Y007680D01*
X021680Y007430D01*
X021430Y007680D01*
X020930Y007680D01*
X020680Y007430D01*
X020430Y007680D01*
X019930Y007680D01*
X019680Y007430D01*
X019430Y007680D01*
X018930Y007680D01*
X018680Y007430D01*
X018430Y007680D01*
X017930Y007680D01*
X017680Y007430D01*
X019330Y008680D02*
X019330Y009180D01*
X019332Y009206D01*
X019337Y009232D01*
X019345Y009257D01*
X019357Y009280D01*
X019371Y009302D01*
X019389Y009321D01*
X019408Y009339D01*
X019430Y009353D01*
X019453Y009365D01*
X019478Y009373D01*
X019504Y009378D01*
X019530Y009380D01*
X020830Y009380D01*
X020856Y009378D01*
X020882Y009373D01*
X020907Y009365D01*
X020930Y009353D01*
X020952Y009339D01*
X020971Y009321D01*
X020989Y009302D01*
X021003Y009280D01*
X021015Y009257D01*
X021023Y009232D01*
X021028Y009206D01*
X021030Y009180D01*
X021030Y008680D01*
X021028Y008654D01*
X021023Y008628D01*
X021015Y008603D01*
X021003Y008580D01*
X020989Y008558D01*
X020971Y008539D01*
X020952Y008521D01*
X020930Y008507D01*
X020907Y008495D01*
X020882Y008487D01*
X020856Y008482D01*
X020830Y008480D01*
X019530Y008480D01*
X019504Y008482D01*
X019478Y008487D01*
X019453Y008495D01*
X019430Y008507D01*
X019408Y008521D01*
X019389Y008539D01*
X019371Y008558D01*
X019357Y008580D01*
X019345Y008603D01*
X019337Y008628D01*
X019332Y008654D01*
X019330Y008680D01*
X019680Y008930D02*
X020050Y008930D01*
X020300Y008930D02*
X020680Y008930D01*
X018680Y013930D02*
X018682Y013961D01*
X018688Y013992D01*
X018698Y014022D01*
X018711Y014050D01*
X018728Y014077D01*
X018748Y014101D01*
X018771Y014123D01*
X018796Y014141D01*
X018824Y014156D01*
X018853Y014168D01*
X018883Y014176D01*
X018914Y014180D01*
X018946Y014180D01*
X018977Y014176D01*
X019007Y014168D01*
X019036Y014156D01*
X019064Y014141D01*
X019089Y014123D01*
X019112Y014101D01*
X019132Y014077D01*
X019149Y014050D01*
X019162Y014022D01*
X019172Y013992D01*
X019178Y013961D01*
X019180Y013930D01*
X019178Y013899D01*
X019172Y013868D01*
X019162Y013838D01*
X019149Y013810D01*
X019132Y013783D01*
X019112Y013759D01*
X019089Y013737D01*
X019064Y013719D01*
X019036Y013704D01*
X019007Y013692D01*
X018977Y013684D01*
X018946Y013680D01*
X018914Y013680D01*
X018883Y013684D01*
X018853Y013692D01*
X018824Y013704D01*
X018796Y013719D01*
X018771Y013737D01*
X018748Y013759D01*
X018728Y013783D01*
X018711Y013810D01*
X018698Y013838D01*
X018688Y013868D01*
X018682Y013899D01*
X018680Y013930D01*
X016970Y015180D02*
X016972Y015233D01*
X016978Y015286D01*
X016988Y015338D01*
X017002Y015389D01*
X017019Y015439D01*
X017040Y015488D01*
X017065Y015535D01*
X017093Y015580D01*
X017125Y015623D01*
X017160Y015663D01*
X017197Y015700D01*
X017237Y015735D01*
X017280Y015767D01*
X017325Y015795D01*
X017372Y015820D01*
X017421Y015841D01*
X017471Y015858D01*
X017522Y015872D01*
X017574Y015882D01*
X017627Y015888D01*
X017680Y015890D01*
X017733Y015888D01*
X017786Y015882D01*
X017838Y015872D01*
X017889Y015858D01*
X017939Y015841D01*
X017988Y015820D01*
X018035Y015795D01*
X018080Y015767D01*
X018123Y015735D01*
X018163Y015700D01*
X018200Y015663D01*
X018235Y015623D01*
X018267Y015580D01*
X018295Y015535D01*
X018320Y015488D01*
X018341Y015439D01*
X018358Y015389D01*
X018372Y015338D01*
X018382Y015286D01*
X018388Y015233D01*
X018390Y015180D01*
X018388Y015127D01*
X018382Y015074D01*
X018372Y015022D01*
X018358Y014971D01*
X018341Y014921D01*
X018320Y014872D01*
X018295Y014825D01*
X018267Y014780D01*
X018235Y014737D01*
X018200Y014697D01*
X018163Y014660D01*
X018123Y014625D01*
X018080Y014593D01*
X018035Y014565D01*
X017988Y014540D01*
X017939Y014519D01*
X017889Y014502D01*
X017838Y014488D01*
X017786Y014478D01*
X017733Y014472D01*
X017680Y014470D01*
X017627Y014472D01*
X017574Y014478D01*
X017522Y014488D01*
X017471Y014502D01*
X017421Y014519D01*
X017372Y014540D01*
X017325Y014565D01*
X017280Y014593D01*
X017237Y014625D01*
X017197Y014660D01*
X017160Y014697D01*
X017125Y014737D01*
X017093Y014780D01*
X017065Y014825D01*
X017040Y014872D01*
X017019Y014921D01*
X017002Y014971D01*
X016988Y015022D01*
X016978Y015074D01*
X016972Y015127D01*
X016970Y015180D01*
X008880Y019530D02*
X008880Y020830D01*
X008878Y020856D01*
X008873Y020882D01*
X008865Y020907D01*
X008853Y020930D01*
X008839Y020952D01*
X008821Y020971D01*
X008802Y020989D01*
X008780Y021003D01*
X008757Y021015D01*
X008732Y021023D01*
X008706Y021028D01*
X008680Y021030D01*
X008180Y021030D01*
X008154Y021028D01*
X008128Y021023D01*
X008103Y021015D01*
X008080Y021003D01*
X008058Y020989D01*
X008039Y020971D01*
X008021Y020952D01*
X008007Y020930D01*
X007995Y020907D01*
X007987Y020882D01*
X007982Y020856D01*
X007980Y020830D01*
X007980Y019530D01*
X007982Y019504D01*
X007987Y019478D01*
X007995Y019453D01*
X008007Y019430D01*
X008021Y019408D01*
X008039Y019389D01*
X008058Y019371D01*
X008080Y019357D01*
X008103Y019345D01*
X008128Y019337D01*
X008154Y019332D01*
X008180Y019330D01*
X008680Y019330D01*
X008706Y019332D01*
X008732Y019337D01*
X008757Y019345D01*
X008780Y019357D01*
X008802Y019371D01*
X008821Y019389D01*
X008839Y019408D01*
X008853Y019430D01*
X008865Y019453D01*
X008873Y019478D01*
X008878Y019504D01*
X008880Y019530D01*
X008430Y019680D02*
X008430Y020050D01*
X008430Y020300D02*
X008430Y020680D01*
X006180Y020430D02*
X005930Y020180D01*
X006180Y019930D01*
X006180Y019430D01*
X005930Y019180D01*
X006180Y018930D01*
X006180Y018430D01*
X005930Y018180D01*
X004430Y018180D01*
X004180Y018430D01*
X004180Y018930D01*
X004430Y019180D01*
X004180Y019430D01*
X004180Y019930D01*
X004430Y020180D01*
X004180Y020430D01*
X004180Y020930D01*
X004430Y021180D01*
X004180Y021430D01*
X004180Y021930D01*
X004430Y022180D01*
X004180Y022430D01*
X004180Y022930D01*
X004430Y023180D01*
X004180Y023430D01*
X004180Y023930D01*
X004430Y024180D01*
X004180Y024430D01*
X004180Y024930D01*
X004430Y025180D01*
X004180Y025430D01*
X004180Y025930D01*
X004430Y026180D01*
X005930Y026180D01*
X006180Y025930D01*
X006180Y025430D01*
X005930Y025180D01*
X006180Y024930D01*
X006180Y024430D01*
X005930Y024180D01*
X006180Y023930D01*
X006180Y023430D01*
X005930Y023180D01*
X006180Y022930D01*
X006180Y022430D01*
X005930Y022180D01*
X006180Y021930D01*
X006180Y021430D01*
X005930Y021180D01*
X006180Y020930D01*
X006180Y020430D01*
X013330Y024180D02*
X013330Y024680D01*
X013332Y024706D01*
X013337Y024732D01*
X013345Y024757D01*
X013357Y024780D01*
X013371Y024802D01*
X013389Y024821D01*
X013408Y024839D01*
X013430Y024853D01*
X013453Y024865D01*
X013478Y024873D01*
X013504Y024878D01*
X013530Y024880D01*
X014830Y024880D01*
X014856Y024878D01*
X014882Y024873D01*
X014907Y024865D01*
X014930Y024853D01*
X014952Y024839D01*
X014971Y024821D01*
X014989Y024802D01*
X015003Y024780D01*
X015015Y024757D01*
X015023Y024732D01*
X015028Y024706D01*
X015030Y024680D01*
X015030Y024180D01*
X015028Y024154D01*
X015023Y024128D01*
X015015Y024103D01*
X015003Y024080D01*
X014989Y024058D01*
X014971Y024039D01*
X014952Y024021D01*
X014930Y024007D01*
X014907Y023995D01*
X014882Y023987D01*
X014856Y023982D01*
X014830Y023980D01*
X013530Y023980D01*
X013504Y023982D01*
X013478Y023987D01*
X013453Y023995D01*
X013430Y024007D01*
X013408Y024021D01*
X013389Y024039D01*
X013371Y024058D01*
X013357Y024080D01*
X013345Y024103D01*
X013337Y024128D01*
X013332Y024154D01*
X013330Y024180D01*
X013680Y024430D02*
X014050Y024430D01*
X014300Y024430D02*
X014680Y024430D01*
X026930Y010680D02*
X028430Y010680D01*
X028680Y010430D01*
X028680Y009930D01*
X028430Y009680D01*
X028680Y009430D01*
X028680Y008930D01*
X028430Y008680D01*
X028680Y008430D01*
X028680Y007930D01*
X028430Y007680D01*
X026930Y007680D01*
X026680Y007930D01*
X026680Y008430D01*
X026930Y008680D01*
X026680Y008930D01*
X026680Y009430D01*
X026930Y009680D01*
X026680Y009930D01*
X026680Y010430D01*
X026930Y010680D01*
D34*
X023380Y026680D02*
X023280Y026680D01*
X023280Y027630D01*
X023380Y027630D01*
X022680Y027680D02*
X022680Y026680D01*
X021680Y026680D01*
X021680Y027680D01*
X022680Y027680D01*
X021930Y027180D02*
X021932Y027211D01*
X021938Y027242D01*
X021948Y027272D01*
X021961Y027300D01*
X021978Y027327D01*
X021998Y027351D01*
X022021Y027373D01*
X022046Y027391D01*
X022074Y027406D01*
X022103Y027418D01*
X022133Y027426D01*
X022164Y027430D01*
X022196Y027430D01*
X022227Y027426D01*
X022257Y027418D01*
X022286Y027406D01*
X022314Y027391D01*
X022339Y027373D01*
X022362Y027351D01*
X022382Y027327D01*
X022399Y027300D01*
X022412Y027272D01*
X022422Y027242D01*
X022428Y027211D01*
X022430Y027180D01*
X022428Y027149D01*
X022422Y027118D01*
X022412Y027088D01*
X022399Y027060D01*
X022382Y027033D01*
X022362Y027009D01*
X022339Y026987D01*
X022314Y026969D01*
X022286Y026954D01*
X022257Y026942D01*
X022227Y026934D01*
X022196Y026930D01*
X022164Y026930D01*
X022133Y026934D01*
X022103Y026942D01*
X022074Y026954D01*
X022046Y026969D01*
X022021Y026987D01*
X021998Y027009D01*
X021978Y027033D01*
X021961Y027060D01*
X021948Y027088D01*
X021938Y027118D01*
X021932Y027149D01*
X021930Y027180D01*
X021080Y027680D02*
X020980Y027680D01*
X021080Y027680D02*
X021080Y026680D01*
X020980Y026680D01*
D35*
X021505Y025805D02*
X021505Y025505D01*
X021505Y025655D02*
X021055Y025655D01*
X021205Y025505D01*
X022805Y025480D02*
X022880Y025405D01*
X022805Y025480D02*
X022805Y025630D01*
X022880Y025705D01*
X022955Y025705D01*
X023030Y025630D01*
X023105Y025705D01*
X023180Y025705D01*
X023255Y025630D01*
X023255Y025480D01*
X023180Y025405D01*
X023030Y025555D02*
X023030Y025630D01*
X023030Y028605D02*
X022805Y028830D01*
X023255Y028830D01*
X023030Y028905D02*
X023030Y028605D01*
X021555Y028605D02*
X021255Y028905D01*
X021180Y028905D01*
X021105Y028830D01*
X021105Y028680D01*
X021180Y028605D01*
X021555Y028605D02*
X021555Y028905D01*
X026055Y020466D02*
X026130Y020316D01*
X026280Y020165D01*
X026280Y020391D01*
X026355Y020466D01*
X026430Y020466D01*
X026505Y020391D01*
X026505Y020240D01*
X026430Y020165D01*
X026280Y020165D01*
X026505Y020005D02*
X026505Y019705D01*
X026505Y019855D02*
X026055Y019855D01*
X026205Y019705D01*
X029305Y013305D02*
X029305Y013005D01*
X029305Y013155D02*
X028855Y013155D01*
X029005Y013005D01*
X027330Y011105D02*
X027255Y011105D01*
X027180Y011030D01*
X027180Y010805D01*
X027330Y010805D01*
X027405Y010880D01*
X027405Y011030D01*
X027330Y011105D01*
X027030Y010955D02*
X027180Y010805D01*
X027030Y010955D02*
X026955Y011105D01*
X025466Y008305D02*
X025316Y008230D01*
X025165Y008080D01*
X025391Y008080D01*
X025466Y008005D01*
X025466Y007930D01*
X025391Y007855D01*
X025240Y007855D01*
X025165Y007930D01*
X025165Y008080D01*
X025005Y007855D02*
X024705Y007855D01*
X024855Y007855D02*
X024855Y008305D01*
X024705Y008155D01*
X028855Y008105D02*
X029005Y007955D01*
X028855Y008105D02*
X029305Y008105D01*
X029305Y007955D02*
X029305Y008255D01*
X018305Y005055D02*
X018005Y005055D01*
X018155Y005055D02*
X018155Y005505D01*
X018005Y005355D01*
X015466Y007930D02*
X015466Y008005D01*
X015391Y008080D01*
X015165Y008080D01*
X015165Y007930D01*
X015240Y007855D01*
X015391Y007855D01*
X015466Y007930D01*
X015316Y008230D02*
X015165Y008080D01*
X015316Y008230D02*
X015466Y008305D01*
X014855Y008305D02*
X014855Y007855D01*
X014705Y007855D02*
X015005Y007855D01*
X014705Y008155D02*
X014855Y008305D01*
X008155Y005505D02*
X008155Y005055D01*
X008005Y005055D02*
X008305Y005055D01*
X008005Y005355D02*
X008155Y005505D01*
X006805Y018284D02*
X006805Y018584D01*
X006805Y018434D02*
X006355Y018434D01*
X006505Y018284D01*
X006580Y018745D02*
X006580Y018970D01*
X006655Y019045D01*
X006730Y019045D01*
X006805Y018970D01*
X006805Y018820D01*
X006730Y018745D01*
X006580Y018745D01*
X006430Y018895D01*
X006355Y019045D01*
X004005Y025445D02*
X004005Y025745D01*
X004005Y025595D02*
X003555Y025595D01*
X003705Y025445D01*
D36*
X015930Y018930D02*
X016180Y019180D01*
X016430Y018930D01*
X015930Y018930D01*
X016180Y019180D02*
X016180Y018430D01*
X020180Y025680D02*
X020180Y026030D01*
X020180Y028330D02*
X020180Y028680D01*
D37*
X020180Y028255D03*
X020180Y026105D03*
D38*
X019300Y024980D02*
X019300Y024680D01*
X019300Y024380D01*
X019050Y024380D02*
X019050Y024680D01*
X019050Y024980D01*
X014300Y024730D02*
X014300Y024430D01*
X014300Y024130D01*
X014050Y024130D02*
X014050Y024430D01*
X014050Y024730D01*
X008730Y020300D02*
X008430Y020300D01*
X008130Y020300D01*
X008130Y020050D02*
X008430Y020050D01*
X008730Y020050D01*
X008680Y013800D02*
X008380Y013800D01*
X008380Y013550D02*
X008680Y013550D01*
X008980Y013550D01*
X008980Y013800D02*
X008680Y013800D01*
X012050Y009230D02*
X012050Y008930D01*
X012050Y008630D01*
X012300Y008630D02*
X012300Y008930D01*
X012300Y009230D01*
X015050Y009230D02*
X015050Y008930D01*
X015050Y008630D01*
X015300Y008630D02*
X015300Y008930D01*
X015300Y009230D01*
X020050Y009230D02*
X020050Y008930D01*
X020050Y008630D01*
X020300Y008630D02*
X020300Y008930D01*
X020300Y009230D01*
X023630Y018560D02*
X023930Y018560D01*
X024230Y018560D01*
X024230Y018810D02*
X023930Y018810D01*
X023630Y018810D01*
X026560Y022130D02*
X026560Y022430D01*
X026560Y022730D01*
X026810Y022730D02*
X026810Y022430D01*
X026810Y022130D01*
D39*
X027605Y022430D03*
X025755Y022430D03*
X020105Y024680D03*
X018255Y024680D03*
X015105Y024430D03*
X013255Y024430D03*
X013105Y008930D03*
X014255Y008930D03*
X016105Y008930D03*
X019255Y008930D03*
X021105Y008930D03*
X011255Y008930D03*
D40*
X008680Y012755D03*
X008680Y014605D03*
X008430Y019255D03*
X008430Y021105D03*
X023930Y019605D03*
X023930Y017755D03*
D41*
X027180Y018180D03*
X027180Y017180D03*
X027180Y016180D03*
X027180Y015180D03*
X027180Y014180D03*
X027180Y013180D03*
X028180Y013180D03*
X028180Y014180D03*
X028180Y015180D03*
X028180Y016180D03*
X028180Y017180D03*
X028180Y018180D03*
X028180Y019180D03*
X028180Y020180D03*
X027180Y020180D03*
X027180Y019180D03*
X027180Y010180D03*
X027180Y009180D03*
X027180Y008180D03*
X028180Y008180D03*
X028180Y009180D03*
X028180Y010180D03*
X025180Y007180D03*
X025180Y006180D03*
X024180Y006180D03*
X024180Y007180D03*
X023180Y007180D03*
X023180Y006180D03*
X022180Y006180D03*
X022180Y007180D03*
X021180Y007180D03*
X021180Y006180D03*
X020180Y006180D03*
X020180Y007180D03*
X019180Y007180D03*
X019180Y006180D03*
X018180Y006180D03*
X018180Y007180D03*
X015180Y007180D03*
X015180Y006180D03*
X014180Y006180D03*
X014180Y007180D03*
X013180Y007180D03*
X013180Y006180D03*
X012180Y006180D03*
X012180Y007180D03*
X011180Y007180D03*
X011180Y006180D03*
X010180Y006180D03*
X010180Y007180D03*
X009180Y007180D03*
X009180Y006180D03*
X008180Y006180D03*
X008180Y007180D03*
X005680Y018680D03*
X005680Y019680D03*
X005680Y020680D03*
X005680Y021680D03*
X005680Y022680D03*
X005680Y023680D03*
X005680Y024680D03*
X005680Y025680D03*
X004680Y025680D03*
X004680Y024680D03*
X004680Y023680D03*
X004680Y022680D03*
X004680Y021680D03*
X004680Y020680D03*
X004680Y019680D03*
X004680Y018680D03*
M02*
