G75*
G70*
%OFA0B0*%
%FSLAX24Y24*%
%IPPOS*%
%LPD*%
%AMOC8*
5,1,8,0,0,1.08239X$1,22.5*
%
%ADD10C,0.0594*%
%ADD11C,0.0520*%
%ADD12C,0.0600*%
%ADD13OC8,0.0520*%
%ADD14R,0.0984X0.0787*%
%ADD15R,0.1299X0.0787*%
%ADD16R,0.1220X0.0197*%
%ADD17C,0.0600*%
%ADD18OC8,0.0600*%
%ADD19C,0.0160*%
%ADD20C,0.0396*%
%ADD21C,0.0400*%
%ADD22C,0.0200*%
D10*
X013180Y027180D03*
X013180Y028180D03*
X014180Y028180D03*
X014180Y027180D03*
X015180Y027180D03*
X015180Y028180D03*
X016180Y028180D03*
X016180Y027180D03*
X017180Y027180D03*
X017180Y028180D03*
D11*
X024920Y026680D02*
X025440Y026680D01*
X025440Y025680D02*
X024920Y025680D01*
X024920Y024680D02*
X025440Y024680D01*
X025440Y023680D02*
X024920Y023680D01*
X027920Y023680D02*
X028440Y023680D01*
X028440Y024680D02*
X027920Y024680D01*
X027920Y025680D02*
X028440Y025680D01*
X028440Y026680D02*
X027920Y026680D01*
D12*
X023070Y026200D02*
X023070Y025600D01*
X021290Y025600D02*
X021290Y026200D01*
X021290Y028160D02*
X021290Y028760D01*
X023070Y028760D02*
X023070Y028160D01*
D13*
X020180Y028680D03*
X020180Y025680D03*
X020180Y024680D03*
X020180Y022680D03*
X020180Y021680D03*
X019180Y021680D03*
X019180Y022680D03*
X018180Y022680D03*
X018180Y021680D03*
X017180Y021680D03*
X017180Y022680D03*
X016180Y022680D03*
X016180Y021680D03*
X015180Y021680D03*
X015180Y022680D03*
X014180Y022680D03*
X014180Y021680D03*
X013180Y021680D03*
X013180Y022680D03*
X012180Y022680D03*
X012180Y021680D03*
X011180Y021680D03*
X011180Y020680D03*
X011180Y019680D03*
X011180Y018680D03*
X011180Y017680D03*
X011180Y016680D03*
X011180Y015680D03*
X011180Y014680D03*
X011180Y013680D03*
X011180Y012680D03*
X011180Y011680D03*
X011180Y010680D03*
X012180Y010680D03*
X012180Y011680D03*
X013180Y011680D03*
X013180Y010680D03*
X014180Y010680D03*
X014180Y011680D03*
X015180Y011680D03*
X015180Y010680D03*
X016180Y010680D03*
X016180Y011680D03*
X017180Y011680D03*
X017180Y010680D03*
X018180Y010680D03*
X018180Y011680D03*
X019180Y011680D03*
X019180Y010680D03*
X020180Y010680D03*
X020180Y011680D03*
X021180Y011680D03*
X021180Y010680D03*
X022180Y011680D03*
X022180Y012680D03*
X022180Y013680D03*
X022180Y014680D03*
X022180Y015680D03*
X022180Y016680D03*
X022180Y017680D03*
X022180Y018680D03*
X022180Y019680D03*
X022180Y020680D03*
X022180Y021680D03*
X021180Y021680D03*
X021180Y020680D03*
X021180Y019680D03*
X021180Y018680D03*
X021180Y017680D03*
X021180Y016680D03*
X021180Y015680D03*
X021180Y014680D03*
X021180Y013680D03*
X021180Y012680D03*
X021180Y008930D03*
X019180Y008930D03*
X016180Y008930D03*
X014180Y008930D03*
X013180Y008930D03*
X011180Y008930D03*
X010180Y011680D03*
X010180Y012680D03*
X010180Y013680D03*
X010180Y014680D03*
X010180Y015680D03*
X010180Y016680D03*
X010180Y017680D03*
X010180Y018680D03*
X010180Y019680D03*
X010180Y020680D03*
X010180Y021680D03*
X011180Y022680D03*
X013180Y024430D03*
X015180Y024430D03*
X018180Y024680D03*
X021180Y022680D03*
X023930Y019680D03*
X023930Y017680D03*
X025680Y022430D03*
X027680Y022430D03*
X008680Y014680D03*
X008680Y012680D03*
X008430Y019180D03*
X008430Y021180D03*
D14*
X002999Y011432D03*
X002999Y007928D03*
D15*
X005322Y007928D03*
X005322Y011432D03*
D16*
X005361Y010310D03*
X005361Y009995D03*
X005361Y009680D03*
X005361Y009365D03*
X005361Y009050D03*
D17*
X028180Y008180D03*
D18*
X028180Y009180D03*
X028180Y010180D03*
X027180Y010180D03*
X027180Y009180D03*
X027180Y008180D03*
X025180Y007180D03*
X025180Y006180D03*
X024180Y006180D03*
X024180Y007180D03*
X023180Y007180D03*
X023180Y006180D03*
X022180Y006180D03*
X022180Y007180D03*
X021180Y007180D03*
X021180Y006180D03*
X020180Y006180D03*
X020180Y007180D03*
X019180Y007180D03*
X019180Y006180D03*
X018180Y006180D03*
X018180Y007180D03*
X015180Y007180D03*
X015180Y006180D03*
X014180Y006180D03*
X014180Y007180D03*
X013180Y007180D03*
X013180Y006180D03*
X012180Y006180D03*
X012180Y007180D03*
X011180Y007180D03*
X011180Y006180D03*
X010180Y006180D03*
X010180Y007180D03*
X009180Y007180D03*
X009180Y006180D03*
X008180Y006180D03*
X008180Y007180D03*
X005680Y018680D03*
X005680Y019680D03*
X005680Y020680D03*
X005680Y021680D03*
X005680Y022680D03*
X005680Y023680D03*
X005680Y024680D03*
X005680Y025680D03*
X004680Y025680D03*
X004680Y024680D03*
X004680Y023680D03*
X004680Y022680D03*
X004680Y021680D03*
X004680Y020680D03*
X004680Y019680D03*
X004680Y018680D03*
X027180Y018180D03*
X027180Y017180D03*
X027180Y016180D03*
X027180Y015180D03*
X027180Y014180D03*
X027180Y013180D03*
X028180Y013180D03*
X028180Y014180D03*
X028180Y015180D03*
X028180Y016180D03*
X028180Y017180D03*
X028180Y018180D03*
X028180Y019180D03*
X028180Y020180D03*
X027180Y020180D03*
X027180Y019180D03*
D19*
X002748Y003022D02*
X002445Y003197D01*
X002197Y003445D01*
X002022Y003748D01*
X001931Y004086D01*
X001920Y004261D01*
X001920Y029099D01*
X001931Y029274D01*
X002022Y029612D01*
X002197Y029915D01*
X002445Y030163D01*
X002748Y030338D01*
X003086Y030429D01*
X003261Y030440D01*
X030266Y030440D01*
X030419Y030430D01*
X030715Y030351D01*
X030981Y030197D01*
X031197Y029981D01*
X031351Y029715D01*
X031430Y029419D01*
X031440Y029266D01*
X031440Y004261D01*
X031429Y004086D01*
X031338Y003748D01*
X031163Y003445D01*
X030915Y003197D01*
X030612Y003022D01*
X030274Y002931D01*
X030099Y002920D01*
X003261Y002920D01*
X003086Y002931D01*
X002748Y003022D01*
X002748Y003022D01*
X002842Y002997D02*
X030518Y002997D01*
X030843Y003156D02*
X002517Y003156D01*
X002328Y003314D02*
X031032Y003314D01*
X031179Y003473D02*
X002181Y003473D01*
X002090Y003631D02*
X031270Y003631D01*
X031349Y003790D02*
X002011Y003790D01*
X001968Y003948D02*
X003277Y003948D01*
X003210Y003976D02*
X003515Y003849D01*
X003845Y003849D01*
X004150Y003976D01*
X004384Y004210D01*
X004511Y004515D01*
X004511Y004845D01*
X004384Y005150D01*
X004150Y005384D01*
X003845Y005511D01*
X003515Y005511D01*
X003210Y005384D01*
X002976Y005150D01*
X002849Y004845D01*
X002849Y004515D01*
X002976Y004210D01*
X003210Y003976D01*
X003079Y004107D02*
X001930Y004107D01*
X001920Y004265D02*
X002953Y004265D01*
X002887Y004424D02*
X001920Y004424D01*
X001920Y004582D02*
X002849Y004582D01*
X002849Y004741D02*
X001920Y004741D01*
X001920Y004899D02*
X002872Y004899D01*
X002937Y005058D02*
X001920Y005058D01*
X001920Y005216D02*
X003041Y005216D01*
X003200Y005375D02*
X001920Y005375D01*
X001920Y005533D02*
X031440Y005533D01*
X031440Y005375D02*
X030160Y005375D01*
X030150Y005384D02*
X029845Y005511D01*
X029515Y005511D01*
X029210Y005384D01*
X028976Y005150D01*
X028849Y004845D01*
X028849Y004515D01*
X028976Y004210D01*
X029210Y003976D01*
X029515Y003849D01*
X029845Y003849D01*
X030150Y003976D01*
X030384Y004210D01*
X030511Y004515D01*
X030511Y004845D01*
X030384Y005150D01*
X030150Y005384D01*
X030319Y005216D02*
X031440Y005216D01*
X031440Y005058D02*
X030423Y005058D01*
X030488Y004899D02*
X031440Y004899D01*
X031440Y004741D02*
X030511Y004741D01*
X030511Y004582D02*
X031440Y004582D01*
X031440Y004424D02*
X030473Y004424D01*
X030407Y004265D02*
X031440Y004265D01*
X031430Y004107D02*
X030281Y004107D01*
X030083Y003948D02*
X031392Y003948D01*
X031440Y005692D02*
X025455Y005692D01*
X025404Y005640D02*
X025720Y005956D01*
X025720Y006404D01*
X025444Y006680D01*
X025720Y006956D01*
X025720Y007404D01*
X025500Y007624D01*
X025500Y013744D01*
X025451Y013861D01*
X022680Y016633D01*
X022680Y016727D01*
X026499Y012909D01*
X026616Y012860D01*
X026736Y012860D01*
X026956Y012640D01*
X027404Y012640D01*
X027680Y012916D01*
X027956Y012640D01*
X028404Y012640D01*
X028720Y012956D01*
X028720Y013404D01*
X028444Y013680D01*
X028720Y013956D01*
X028720Y014404D01*
X028444Y014680D01*
X028720Y014956D01*
X028720Y015404D01*
X028444Y015680D01*
X028720Y015956D01*
X028720Y016404D01*
X028444Y016680D01*
X028720Y016956D01*
X028720Y017404D01*
X028444Y017680D01*
X028720Y017956D01*
X028720Y018404D01*
X028444Y018680D01*
X028720Y018956D01*
X028720Y019267D01*
X028951Y019499D01*
X029000Y019616D01*
X029000Y020744D01*
X028951Y020861D01*
X028861Y020951D01*
X027883Y021930D01*
X027887Y021930D01*
X028180Y022223D01*
X028180Y022637D01*
X027887Y022930D01*
X027473Y022930D01*
X027180Y022637D01*
X027180Y022223D01*
X027403Y022000D01*
X025872Y022000D01*
X026120Y022248D01*
X026120Y022430D01*
X026120Y022612D01*
X025862Y022870D01*
X025680Y022870D01*
X025680Y022430D01*
X025180Y022930D01*
X025180Y023680D01*
X024680Y023680D01*
X024180Y024180D01*
X020180Y024180D01*
X019680Y023680D01*
X019680Y022180D01*
X020180Y021680D01*
X020180Y020180D01*
X019680Y019680D01*
X019680Y018180D01*
X017180Y015680D01*
X013180Y015680D01*
X012680Y016180D01*
X012680Y019180D01*
X014180Y019180D01*
X015680Y020680D01*
X015680Y022180D01*
X015180Y022680D01*
X015180Y024430D01*
X015180Y024680D01*
X016180Y025680D01*
X016180Y027180D01*
X016198Y027162D02*
X016198Y026703D01*
X016218Y026703D01*
X016292Y026715D01*
X016363Y026738D01*
X016430Y026772D01*
X016491Y026816D01*
X016544Y026869D01*
X016588Y026930D01*
X016622Y026997D01*
X016645Y027068D01*
X016645Y027068D01*
X016725Y026876D01*
X016876Y026725D01*
X017073Y026643D01*
X017287Y026643D01*
X017484Y026725D01*
X017619Y026860D01*
X017907Y026860D01*
X015909Y024861D01*
X015860Y024744D01*
X015860Y023067D01*
X015680Y022887D01*
X015680Y022473D01*
X015973Y022180D01*
X015680Y021887D01*
X015680Y021473D01*
X015973Y021180D01*
X016360Y021180D01*
X016360Y020116D01*
X016378Y020072D01*
X016267Y020118D01*
X016093Y020118D01*
X015932Y020051D01*
X015809Y019928D01*
X015742Y019767D01*
X015742Y019694D01*
X014166Y018118D01*
X014093Y018118D01*
X013932Y018051D01*
X013809Y017928D01*
X013742Y017767D01*
X013742Y017593D01*
X013809Y017432D01*
X013932Y017309D01*
X014093Y017242D01*
X014267Y017242D01*
X014428Y017309D01*
X014551Y017432D01*
X014618Y017593D01*
X014618Y017666D01*
X016194Y019242D01*
X016267Y019242D01*
X016428Y019309D01*
X016551Y019432D01*
X016618Y019593D01*
X016618Y019767D01*
X016602Y019805D01*
X016742Y019666D01*
X016742Y019593D01*
X016809Y019432D01*
X016932Y019309D01*
X017093Y019242D01*
X017267Y019242D01*
X017428Y019309D01*
X017551Y019432D01*
X017618Y019593D01*
X017618Y019767D01*
X017551Y019928D01*
X017428Y020051D01*
X017267Y020118D01*
X017194Y020118D01*
X017000Y020313D01*
X017000Y021180D01*
X017387Y021180D01*
X017680Y021473D01*
X017860Y021293D01*
X017860Y020480D01*
X017809Y020428D01*
X017742Y020267D01*
X017742Y020093D01*
X017809Y019932D01*
X017932Y019809D01*
X018093Y019742D01*
X018267Y019742D01*
X018360Y019780D01*
X018360Y018480D01*
X018309Y018428D01*
X018242Y018267D01*
X018242Y018093D01*
X018309Y017932D01*
X018432Y017809D01*
X018593Y017742D01*
X018767Y017742D01*
X018928Y017809D01*
X019051Y017932D01*
X019118Y018093D01*
X019118Y018267D01*
X019051Y018428D01*
X019000Y018480D01*
X019000Y021180D01*
X019387Y021180D01*
X019680Y021473D01*
X019680Y021887D01*
X019387Y022180D01*
X019680Y022473D01*
X019680Y022887D01*
X019387Y023180D01*
X019000Y023180D01*
X019000Y023547D01*
X019451Y023999D01*
X019500Y024116D01*
X019500Y025380D01*
X019551Y025432D01*
X019618Y025593D01*
X019618Y025767D01*
X019551Y025928D01*
X019428Y026051D01*
X019267Y026118D01*
X019093Y026118D01*
X018932Y026051D01*
X018809Y025928D01*
X018742Y025767D01*
X018742Y025593D01*
X018809Y025432D01*
X018860Y025380D01*
X018860Y024313D01*
X018500Y023953D01*
X018500Y024293D01*
X018680Y024473D01*
X018680Y024887D01*
X018387Y025180D01*
X017973Y025180D01*
X017680Y024887D01*
X017680Y024473D01*
X017860Y024293D01*
X017860Y023813D01*
X017499Y023451D01*
X017409Y023361D01*
X017360Y023244D01*
X017360Y023180D01*
X017000Y023180D01*
X017000Y023880D01*
X017051Y023932D01*
X017118Y024093D01*
X017118Y024267D01*
X017051Y024428D01*
X016928Y024551D01*
X016767Y024618D01*
X016593Y024618D01*
X016555Y024602D01*
X018313Y026360D01*
X020377Y026360D01*
X020750Y025987D01*
X020750Y025493D01*
X020832Y025294D01*
X020984Y025142D01*
X021183Y025060D01*
X021397Y025060D01*
X021596Y025142D01*
X021748Y025294D01*
X021830Y025493D01*
X021830Y026307D01*
X021748Y026506D01*
X021610Y026644D01*
X021610Y027716D01*
X021748Y027854D01*
X021830Y028053D01*
X021830Y028867D01*
X021748Y029066D01*
X021596Y029218D01*
X021397Y029300D01*
X021183Y029300D01*
X020984Y029218D01*
X020832Y029066D01*
X020750Y028867D01*
X020750Y028780D01*
X020680Y028780D01*
X020680Y028887D01*
X020387Y029180D01*
X019973Y029180D01*
X019680Y028887D01*
X019680Y028473D01*
X019973Y028180D01*
X020240Y028180D01*
X020336Y028140D01*
X020750Y028140D01*
X020750Y028053D01*
X020832Y027854D01*
X020970Y027716D01*
X020970Y026673D01*
X020691Y026951D01*
X020579Y026998D01*
X020618Y027093D01*
X020618Y027267D01*
X020551Y027428D01*
X020428Y027551D01*
X020267Y027618D01*
X020093Y027618D01*
X019932Y027551D01*
X019880Y027500D01*
X017619Y027500D01*
X017484Y027635D01*
X017376Y027680D01*
X017484Y027725D01*
X017635Y027876D01*
X017717Y028073D01*
X017717Y028287D01*
X017635Y028484D01*
X017484Y028635D01*
X017287Y028717D01*
X017073Y028717D01*
X016876Y028635D01*
X016725Y028484D01*
X016680Y028376D01*
X016635Y028484D01*
X016484Y028635D01*
X016287Y028717D01*
X016073Y028717D01*
X015876Y028635D01*
X015725Y028484D01*
X015680Y028376D01*
X015635Y028484D01*
X015484Y028635D01*
X015287Y028717D01*
X015073Y028717D01*
X014876Y028635D01*
X014725Y028484D01*
X014680Y028376D01*
X014635Y028484D01*
X014484Y028635D01*
X014287Y028717D01*
X014073Y028717D01*
X013876Y028635D01*
X013725Y028484D01*
X013680Y028376D01*
X013635Y028484D01*
X013484Y028635D01*
X013287Y028717D01*
X013073Y028717D01*
X012876Y028635D01*
X012725Y028484D01*
X012643Y028287D01*
X012643Y028073D01*
X012725Y027876D01*
X012876Y027725D01*
X012984Y027680D01*
X012876Y027635D01*
X012725Y027484D01*
X012643Y027287D01*
X012643Y027073D01*
X012725Y026876D01*
X012876Y026725D01*
X013073Y026643D01*
X013287Y026643D01*
X013484Y026725D01*
X013635Y026876D01*
X013680Y026984D01*
X013725Y026876D01*
X013876Y026725D01*
X014073Y026643D01*
X014287Y026643D01*
X014484Y026725D01*
X014635Y026876D01*
X014680Y026984D01*
X014725Y026876D01*
X014876Y026725D01*
X015073Y026643D01*
X015287Y026643D01*
X015484Y026725D01*
X015635Y026876D01*
X015715Y027068D01*
X015738Y026997D01*
X015772Y026930D01*
X015816Y026869D01*
X015869Y026816D01*
X015930Y026772D01*
X015997Y026738D01*
X016068Y026715D01*
X016142Y026703D01*
X016162Y026703D01*
X016162Y027162D01*
X016198Y027162D01*
X016198Y027089D02*
X016162Y027089D01*
X016162Y026931D02*
X016198Y026931D01*
X016198Y026772D02*
X016162Y026772D01*
X015930Y026772D02*
X015531Y026772D01*
X015658Y026931D02*
X015772Y026931D01*
X015715Y027068D02*
X015715Y027068D01*
X016430Y026772D02*
X016829Y026772D01*
X016702Y026931D02*
X016588Y026931D01*
X017180Y027180D02*
X016680Y027680D01*
X013680Y027680D01*
X013180Y027180D01*
X012693Y027406D02*
X001920Y027406D01*
X001920Y027248D02*
X012643Y027248D01*
X012643Y027089D02*
X001920Y027089D01*
X001920Y026931D02*
X012702Y026931D01*
X012829Y026772D02*
X001920Y026772D01*
X001920Y026614D02*
X017661Y026614D01*
X017531Y026772D02*
X017819Y026772D01*
X018180Y026680D02*
X020510Y026680D01*
X021290Y025900D01*
X021290Y028460D01*
X020400Y028460D01*
X020180Y028680D01*
X019796Y028357D02*
X017688Y028357D01*
X017717Y028199D02*
X019954Y028199D01*
X019680Y028516D02*
X017604Y028516D01*
X017390Y028674D02*
X019680Y028674D01*
X019680Y028833D02*
X004511Y028833D01*
X004511Y028845D02*
X004384Y029150D01*
X004150Y029384D01*
X003845Y029511D01*
X003515Y029511D01*
X003210Y029384D01*
X002976Y029150D01*
X002849Y028845D01*
X002849Y028515D01*
X002976Y028210D01*
X003210Y027976D01*
X003515Y027849D01*
X003845Y027849D01*
X004150Y027976D01*
X004384Y028210D01*
X004511Y028515D01*
X004511Y028845D01*
X004450Y028991D02*
X019784Y028991D01*
X019942Y029150D02*
X004384Y029150D01*
X004227Y029308D02*
X029133Y029308D01*
X029210Y029384D02*
X028976Y029150D01*
X028849Y028845D01*
X028849Y028515D01*
X028976Y028210D01*
X029210Y027976D01*
X029515Y027849D01*
X029845Y027849D01*
X030150Y027976D01*
X030384Y028210D01*
X030511Y028515D01*
X030511Y028845D01*
X030384Y029150D01*
X030150Y029384D01*
X029845Y029511D01*
X029515Y029511D01*
X029210Y029384D01*
X029409Y029467D02*
X003951Y029467D01*
X003409Y029467D02*
X001983Y029467D01*
X001941Y029308D02*
X003133Y029308D01*
X002976Y029150D02*
X001923Y029150D01*
X001920Y028991D02*
X002910Y028991D01*
X002849Y028833D02*
X001920Y028833D01*
X001920Y028674D02*
X002849Y028674D01*
X002849Y028516D02*
X001920Y028516D01*
X001920Y028357D02*
X002915Y028357D01*
X002987Y028199D02*
X001920Y028199D01*
X001920Y028040D02*
X003145Y028040D01*
X003437Y027882D02*
X001920Y027882D01*
X001920Y027723D02*
X012880Y027723D01*
X012805Y027565D02*
X001920Y027565D01*
X001920Y026455D02*
X005008Y026455D01*
X004999Y026451D02*
X005116Y026500D01*
X013744Y026500D01*
X013861Y026451D01*
X013951Y026361D01*
X014194Y026118D01*
X014267Y026118D01*
X014428Y026051D01*
X014551Y025928D01*
X014618Y025767D01*
X014618Y025593D01*
X014551Y025432D01*
X014428Y025309D01*
X014267Y025242D01*
X014093Y025242D01*
X014055Y025258D01*
X014740Y024573D01*
X014740Y024612D01*
X014998Y024870D01*
X015180Y024870D01*
X015362Y024870D01*
X015620Y024612D01*
X015620Y024430D01*
X015180Y024430D01*
X015180Y024430D01*
X015180Y024430D01*
X015180Y024870D01*
X015180Y024430D01*
X015620Y024430D01*
X015620Y024248D01*
X015362Y023990D01*
X015180Y023990D01*
X015180Y024430D01*
X015180Y024430D01*
X015180Y023990D01*
X015000Y023990D01*
X015000Y023120D01*
X015180Y023120D01*
X015180Y022680D01*
X015180Y022680D01*
X015620Y022680D01*
X015620Y022862D01*
X015362Y023120D01*
X015180Y023120D01*
X015180Y022680D01*
X015180Y022680D01*
X015620Y022680D01*
X015620Y022498D01*
X015362Y022240D01*
X015180Y022240D01*
X015180Y022680D01*
X015180Y022680D01*
X015180Y022240D01*
X015073Y022240D01*
X015133Y022180D01*
X015387Y022180D01*
X015680Y021887D01*
X015680Y021473D01*
X015387Y021180D01*
X014973Y021180D01*
X014680Y021473D01*
X014680Y021727D01*
X014680Y021727D01*
X014680Y021473D01*
X014387Y021180D01*
X013973Y021180D01*
X013680Y021473D01*
X013680Y021727D01*
X013680Y021727D01*
X013680Y021473D01*
X013387Y021180D01*
X012973Y021180D01*
X012680Y021473D01*
X012680Y021727D01*
X012680Y021727D01*
X012680Y021473D01*
X012387Y021180D01*
X011973Y021180D01*
X011680Y021473D01*
X011680Y021727D01*
X011620Y021787D01*
X011620Y021680D01*
X011180Y021680D01*
X012180Y020680D01*
X012180Y019680D01*
X012680Y019180D01*
X011680Y018887D02*
X011680Y018473D01*
X011387Y018180D01*
X010973Y018180D01*
X010680Y018473D01*
X010387Y018180D01*
X009973Y018180D01*
X009793Y018000D01*
X007813Y018000D01*
X006220Y019593D01*
X006220Y019860D01*
X006547Y019860D01*
X006999Y019409D01*
X007116Y019360D01*
X007930Y019360D01*
X007930Y018973D01*
X008223Y018680D01*
X008637Y018680D01*
X008930Y018973D01*
X008930Y019360D01*
X009793Y019360D01*
X009973Y019180D01*
X010387Y019180D01*
X010680Y019473D01*
X010973Y019180D01*
X011387Y019180D01*
X011680Y019473D01*
X011680Y019887D01*
X011387Y020180D01*
X011680Y020473D01*
X011680Y020887D01*
X011387Y021180D01*
X010973Y021180D01*
X010680Y020887D01*
X010387Y021180D01*
X010680Y021473D01*
X010680Y021860D01*
X010740Y021860D01*
X010740Y021680D01*
X011180Y021680D01*
X010680Y021180D01*
X008430Y021180D01*
X008430Y021180D01*
X008430Y021620D01*
X008612Y021620D01*
X008870Y021362D01*
X008870Y021180D01*
X008430Y021180D01*
X008430Y021180D01*
X008430Y021180D01*
X007990Y021180D01*
X007990Y021362D01*
X008248Y021620D01*
X008430Y021620D01*
X008430Y021180D01*
X008870Y021180D01*
X008870Y020998D01*
X008612Y020740D01*
X008430Y020740D01*
X008430Y021180D01*
X008430Y021180D01*
X007990Y021180D01*
X007990Y020998D01*
X008248Y020740D01*
X008430Y020740D01*
X008430Y021180D01*
X008430Y021225D02*
X008430Y021225D01*
X008430Y021383D02*
X008430Y021383D01*
X008430Y021542D02*
X008430Y021542D01*
X008691Y021542D02*
X009680Y021542D01*
X009680Y021473D02*
X009973Y021180D01*
X010387Y021180D01*
X009973Y021180D01*
X009680Y020887D01*
X009680Y020500D01*
X008313Y020500D01*
X007861Y020951D01*
X007744Y021000D01*
X006124Y021000D01*
X005944Y021180D01*
X006220Y021456D01*
X006220Y021860D01*
X009680Y021860D01*
X009680Y021473D01*
X009770Y021383D02*
X008849Y021383D01*
X008870Y021225D02*
X009928Y021225D01*
X009859Y021066D02*
X008870Y021066D01*
X008780Y020908D02*
X009700Y020908D01*
X009680Y020749D02*
X008621Y020749D01*
X008430Y020749D02*
X008430Y020749D01*
X008430Y020908D02*
X008430Y020908D01*
X008430Y021066D02*
X008430Y021066D01*
X008239Y020749D02*
X008064Y020749D01*
X008080Y020908D02*
X007905Y020908D01*
X007990Y021066D02*
X006058Y021066D01*
X005988Y021225D02*
X007990Y021225D01*
X008011Y021383D02*
X006147Y021383D01*
X006220Y021542D02*
X008169Y021542D01*
X008222Y020591D02*
X009680Y020591D01*
X010501Y021066D02*
X010859Y021066D01*
X010998Y021240D02*
X011180Y021240D01*
X011362Y021240D01*
X011620Y021498D01*
X011620Y021680D01*
X011180Y021680D01*
X011180Y021680D01*
X011180Y021240D01*
X011180Y021680D01*
X011180Y021680D01*
X011180Y021680D01*
X010740Y021680D01*
X010740Y021498D01*
X010998Y021240D01*
X010855Y021383D02*
X010590Y021383D01*
X010680Y021542D02*
X010740Y021542D01*
X010740Y021700D02*
X010680Y021700D01*
X010680Y021859D02*
X010740Y021859D01*
X011180Y021542D02*
X011180Y021542D01*
X011180Y021383D02*
X011180Y021383D01*
X011505Y021383D02*
X011770Y021383D01*
X011680Y021542D02*
X011620Y021542D01*
X011620Y021700D02*
X011680Y021700D01*
X011680Y022180D02*
X005180Y022180D01*
X004680Y022680D01*
X004363Y023127D02*
X001920Y023127D01*
X001920Y023285D02*
X004311Y023285D01*
X004416Y023180D02*
X004140Y022904D01*
X004140Y022456D01*
X004416Y022180D01*
X004140Y021904D01*
X004140Y021456D01*
X004416Y021180D01*
X004140Y020904D01*
X004140Y020456D01*
X004416Y020180D01*
X004140Y019904D01*
X004140Y019456D01*
X004416Y019180D01*
X004140Y018904D01*
X004140Y018456D01*
X004456Y018140D01*
X004904Y018140D01*
X005180Y018416D01*
X005456Y018140D01*
X005767Y018140D01*
X007499Y016409D01*
X007616Y016360D01*
X009793Y016360D01*
X009973Y016180D01*
X010387Y016180D01*
X010680Y016473D01*
X010680Y016887D01*
X010387Y017180D01*
X010680Y017473D01*
X010680Y017887D01*
X010387Y018180D01*
X009973Y018180D01*
X009680Y018473D01*
X009680Y018887D01*
X009973Y019180D01*
X010387Y019180D01*
X010680Y018887D01*
X010680Y018473D01*
X010680Y018887D01*
X010973Y019180D01*
X011387Y019180D01*
X011680Y018887D01*
X011680Y018847D02*
X014894Y018847D01*
X014736Y018689D02*
X011680Y018689D01*
X011680Y018530D02*
X014577Y018530D01*
X014419Y018372D02*
X011579Y018372D01*
X011420Y018213D02*
X014260Y018213D01*
X013939Y018055D02*
X011513Y018055D01*
X011387Y018180D02*
X010973Y018180D01*
X010680Y017887D01*
X010680Y017473D01*
X010973Y017180D01*
X011387Y017180D01*
X011680Y017473D01*
X011680Y017887D01*
X011387Y018180D01*
X011671Y017896D02*
X013795Y017896D01*
X013742Y017738D02*
X011680Y017738D01*
X011680Y017579D02*
X013748Y017579D01*
X013820Y017421D02*
X011628Y017421D01*
X011469Y017262D02*
X014044Y017262D01*
X014316Y017262D02*
X020891Y017262D01*
X020973Y017180D02*
X021227Y017180D01*
X021227Y017180D01*
X020973Y017180D01*
X020680Y016887D01*
X020680Y016500D01*
X020480Y016500D01*
X020428Y016551D01*
X020267Y016618D01*
X020093Y016618D01*
X019932Y016551D01*
X019809Y016428D01*
X019742Y016267D01*
X019742Y016093D01*
X019809Y015932D01*
X019932Y015809D01*
X020093Y015742D01*
X020267Y015742D01*
X020428Y015809D01*
X020480Y015860D01*
X020680Y015860D01*
X020680Y015473D01*
X020973Y015180D01*
X020680Y014887D01*
X020680Y014473D01*
X020973Y014180D01*
X020680Y013887D01*
X020680Y013473D01*
X020973Y013180D01*
X020680Y012887D01*
X020680Y012473D01*
X020973Y012180D01*
X020680Y011887D01*
X020387Y012180D01*
X019973Y012180D01*
X019680Y011887D01*
X019387Y012180D01*
X018973Y012180D01*
X018680Y011887D01*
X018387Y012180D01*
X017973Y012180D01*
X017680Y011887D01*
X017387Y012180D01*
X016973Y012180D01*
X016680Y011887D01*
X016387Y012180D01*
X015973Y012180D01*
X015680Y011887D01*
X015680Y011473D01*
X015973Y011180D01*
X016387Y011180D01*
X016680Y011473D01*
X016680Y011887D01*
X016680Y011473D01*
X016973Y011180D01*
X016680Y010887D01*
X016680Y010473D01*
X016860Y010293D01*
X016860Y007116D01*
X016909Y006999D01*
X017640Y006267D01*
X017640Y005956D01*
X017956Y005640D01*
X018404Y005640D01*
X018680Y005916D01*
X018956Y005640D01*
X019404Y005640D01*
X019680Y005916D01*
X019956Y005640D01*
X020404Y005640D01*
X020680Y005916D01*
X020956Y005640D01*
X021404Y005640D01*
X021680Y005916D01*
X021956Y005640D01*
X022404Y005640D01*
X022680Y005916D01*
X022956Y005640D01*
X023404Y005640D01*
X023680Y005916D01*
X023956Y005640D01*
X024404Y005640D01*
X024680Y005916D01*
X024956Y005640D01*
X025404Y005640D01*
X025614Y005850D02*
X031440Y005850D01*
X031440Y006009D02*
X025720Y006009D01*
X025720Y006167D02*
X031440Y006167D01*
X031440Y006326D02*
X025720Y006326D01*
X025640Y006484D02*
X031440Y006484D01*
X031440Y006643D02*
X025481Y006643D01*
X025565Y006801D02*
X031440Y006801D01*
X031440Y006960D02*
X025720Y006960D01*
X025720Y007118D02*
X031440Y007118D01*
X031440Y007277D02*
X025720Y007277D01*
X025689Y007435D02*
X031440Y007435D01*
X031440Y007594D02*
X025530Y007594D01*
X025500Y007752D02*
X026844Y007752D01*
X026956Y007640D02*
X027404Y007640D01*
X027720Y007956D01*
X027720Y008042D01*
X027735Y007996D01*
X027769Y007928D01*
X027814Y007867D01*
X027867Y007814D01*
X027928Y007769D01*
X027996Y007735D01*
X028068Y007712D01*
X028142Y007700D01*
X028160Y007700D01*
X028160Y008160D01*
X028200Y008160D01*
X028200Y008200D01*
X028160Y008200D01*
X028160Y008660D01*
X028142Y008660D01*
X028068Y008648D01*
X027996Y008625D01*
X027928Y008591D01*
X027867Y008546D01*
X027814Y008493D01*
X027769Y008432D01*
X027735Y008364D01*
X027720Y008318D01*
X027720Y008404D01*
X027444Y008680D01*
X027720Y008956D01*
X027720Y008961D01*
X027981Y008700D01*
X028160Y008700D01*
X028160Y009160D01*
X028200Y009160D01*
X028200Y009200D01*
X028160Y009200D01*
X028160Y009660D01*
X027981Y009660D01*
X027720Y009399D01*
X027720Y009404D01*
X027444Y009680D01*
X027720Y009956D01*
X027720Y009961D01*
X027981Y009700D01*
X028160Y009700D01*
X028160Y010160D01*
X028200Y010160D01*
X028200Y010200D01*
X028160Y010200D01*
X028160Y010660D01*
X027981Y010660D01*
X027720Y010399D01*
X027720Y010404D01*
X027404Y010720D01*
X026956Y010720D01*
X026640Y010404D01*
X026640Y009956D01*
X026916Y009680D01*
X026640Y009404D01*
X026640Y008956D01*
X026916Y008680D01*
X026640Y008404D01*
X026640Y007956D01*
X026956Y007640D01*
X026686Y007911D02*
X025500Y007911D01*
X025500Y008069D02*
X026640Y008069D01*
X026640Y008228D02*
X025500Y008228D01*
X025500Y008386D02*
X026640Y008386D01*
X026781Y008545D02*
X025500Y008545D01*
X025500Y008703D02*
X026893Y008703D01*
X026735Y008862D02*
X025500Y008862D01*
X025500Y009020D02*
X026640Y009020D01*
X026640Y009179D02*
X025500Y009179D01*
X025500Y009337D02*
X026640Y009337D01*
X026732Y009496D02*
X025500Y009496D01*
X025500Y009654D02*
X026890Y009654D01*
X026784Y009813D02*
X025500Y009813D01*
X025500Y009971D02*
X026640Y009971D01*
X026640Y010130D02*
X025500Y010130D01*
X025500Y010288D02*
X026640Y010288D01*
X026683Y010447D02*
X025500Y010447D01*
X025500Y010605D02*
X026841Y010605D01*
X027519Y010605D02*
X027926Y010605D01*
X027768Y010447D02*
X027677Y010447D01*
X027576Y009813D02*
X027869Y009813D01*
X027975Y009654D02*
X027470Y009654D01*
X027628Y009496D02*
X027817Y009496D01*
X028160Y009496D02*
X028200Y009496D01*
X028200Y009654D02*
X028160Y009654D01*
X028200Y009660D02*
X028200Y009200D01*
X028660Y009200D01*
X028660Y009379D01*
X028379Y009660D01*
X028200Y009660D01*
X028200Y009700D02*
X028379Y009700D01*
X028660Y009981D01*
X028660Y010160D01*
X028200Y010160D01*
X028200Y009700D01*
X028200Y009813D02*
X028160Y009813D01*
X028160Y009971D02*
X028200Y009971D01*
X028200Y010130D02*
X028160Y010130D01*
X028200Y010200D02*
X028660Y010200D01*
X028660Y010379D01*
X028379Y010660D01*
X028200Y010660D01*
X028200Y010200D01*
X028200Y010288D02*
X028160Y010288D01*
X028160Y010447D02*
X028200Y010447D01*
X028200Y010605D02*
X028160Y010605D01*
X028434Y010605D02*
X031440Y010605D01*
X031440Y010447D02*
X028592Y010447D01*
X028660Y010288D02*
X031440Y010288D01*
X031440Y010130D02*
X028660Y010130D01*
X028650Y009971D02*
X031440Y009971D01*
X031440Y009813D02*
X028491Y009813D01*
X028385Y009654D02*
X031440Y009654D01*
X031440Y009496D02*
X028543Y009496D01*
X028660Y009337D02*
X031440Y009337D01*
X031440Y009179D02*
X028200Y009179D01*
X028200Y009160D02*
X028660Y009160D01*
X028660Y008981D01*
X028379Y008700D01*
X028200Y008700D01*
X028200Y009160D01*
X028200Y009020D02*
X028160Y009020D01*
X028160Y008862D02*
X028200Y008862D01*
X028200Y008703D02*
X028160Y008703D01*
X028200Y008660D02*
X028200Y008200D01*
X028660Y008200D01*
X028660Y008218D01*
X028648Y008292D01*
X028625Y008364D01*
X028591Y008432D01*
X028546Y008493D01*
X028493Y008546D01*
X028432Y008591D01*
X028364Y008625D01*
X028292Y008648D01*
X028218Y008660D01*
X028200Y008660D01*
X028200Y008545D02*
X028160Y008545D01*
X028160Y008386D02*
X028200Y008386D01*
X028200Y008228D02*
X028160Y008228D01*
X028200Y008160D02*
X028660Y008160D01*
X028660Y008142D01*
X028648Y008068D01*
X028625Y007996D01*
X028591Y007928D01*
X028546Y007867D01*
X028493Y007814D01*
X028432Y007769D01*
X028364Y007735D01*
X028292Y007712D01*
X028218Y007700D01*
X028200Y007700D01*
X028200Y008160D01*
X028200Y008069D02*
X028160Y008069D01*
X028160Y007911D02*
X028200Y007911D01*
X028200Y007752D02*
X028160Y007752D01*
X027963Y007752D02*
X027516Y007752D01*
X027674Y007911D02*
X027782Y007911D01*
X027746Y008386D02*
X027720Y008386D01*
X027579Y008545D02*
X027866Y008545D01*
X027978Y008703D02*
X027467Y008703D01*
X027625Y008862D02*
X027820Y008862D01*
X028160Y009337D02*
X028200Y009337D01*
X028660Y009020D02*
X031440Y009020D01*
X031440Y008862D02*
X028540Y008862D01*
X028382Y008703D02*
X031440Y008703D01*
X031440Y008545D02*
X028494Y008545D01*
X028614Y008386D02*
X031440Y008386D01*
X031440Y008228D02*
X028658Y008228D01*
X028648Y008069D02*
X031440Y008069D01*
X031440Y007911D02*
X028578Y007911D01*
X028397Y007752D02*
X031440Y007752D01*
X029200Y005375D02*
X004160Y005375D01*
X004319Y005216D02*
X029041Y005216D01*
X028937Y005058D02*
X004423Y005058D01*
X004488Y004899D02*
X028872Y004899D01*
X028849Y004741D02*
X004511Y004741D01*
X004511Y004582D02*
X028849Y004582D01*
X028887Y004424D02*
X004473Y004424D01*
X004407Y004265D02*
X028953Y004265D01*
X029079Y004107D02*
X004281Y004107D01*
X004083Y003948D02*
X029277Y003948D01*
X025180Y006180D02*
X024680Y006680D01*
X024680Y013180D01*
X022680Y015180D01*
X021680Y015180D01*
X021180Y015680D01*
X021227Y015180D02*
X020973Y015180D01*
X021227Y015180D01*
X021227Y015180D01*
X020951Y015202D02*
X011409Y015202D01*
X011387Y015180D02*
X011680Y015473D01*
X011680Y015887D01*
X011387Y016180D01*
X011680Y016473D01*
X011680Y016887D01*
X011387Y017180D01*
X010973Y017180D01*
X010680Y016887D01*
X010680Y016473D01*
X010973Y016180D01*
X011387Y016180D01*
X010973Y016180D01*
X010680Y015887D01*
X010387Y016180D01*
X009973Y016180D01*
X009680Y015887D01*
X009680Y015473D01*
X009973Y015180D01*
X010387Y015180D01*
X010680Y015473D01*
X010680Y015887D01*
X010680Y015473D01*
X010973Y015180D01*
X011387Y015180D01*
X010973Y015180D01*
X010680Y014887D01*
X010680Y014633D01*
X010620Y014573D01*
X010620Y014680D01*
X010620Y014862D01*
X010362Y015120D01*
X010180Y015120D01*
X010180Y014680D01*
X010430Y014680D01*
X010930Y015180D01*
X012680Y015180D01*
X013180Y015680D01*
X012680Y015180D02*
X014180Y013680D01*
X014680Y013680D01*
X015680Y012680D01*
X020180Y012680D01*
X020680Y012180D01*
X020680Y011180D01*
X021180Y010680D01*
X021180Y008930D01*
X021180Y008930D01*
X021180Y009370D01*
X021360Y009370D01*
X021360Y010240D01*
X021180Y010240D01*
X021180Y010680D01*
X021180Y010680D01*
X021180Y010680D01*
X020740Y010680D01*
X020740Y010862D01*
X020998Y011120D01*
X021037Y011120D01*
X020977Y011180D01*
X020973Y011180D01*
X020680Y011473D01*
X020680Y011887D01*
X020680Y011473D01*
X020387Y011180D01*
X020000Y011180D01*
X020000Y011180D01*
X020387Y011180D01*
X020680Y010887D01*
X020680Y010473D01*
X020500Y010293D01*
X020500Y007624D01*
X020680Y007444D01*
X020956Y007720D01*
X021360Y007720D01*
X021360Y008490D01*
X021180Y008490D01*
X021180Y008930D01*
X021180Y008930D01*
X021180Y008930D01*
X020740Y008930D01*
X020740Y009112D01*
X020998Y009370D01*
X021180Y009370D01*
X021180Y008930D01*
X021180Y008490D01*
X020998Y008490D01*
X020740Y008748D01*
X020740Y008930D01*
X021180Y008930D01*
X021180Y008862D02*
X021180Y008862D01*
X021180Y009020D02*
X021180Y009020D01*
X021180Y009179D02*
X021180Y009179D01*
X021180Y009337D02*
X021180Y009337D01*
X020965Y009337D02*
X020500Y009337D01*
X020500Y009179D02*
X020806Y009179D01*
X020740Y009020D02*
X020500Y009020D01*
X020500Y008862D02*
X020740Y008862D01*
X020785Y008703D02*
X020500Y008703D01*
X020500Y008545D02*
X020943Y008545D01*
X021180Y008545D02*
X021180Y008545D01*
X021180Y008703D02*
X021180Y008703D01*
X021360Y008386D02*
X020500Y008386D01*
X020500Y008228D02*
X021360Y008228D01*
X021360Y008069D02*
X020500Y008069D01*
X020500Y007911D02*
X021360Y007911D01*
X021360Y007752D02*
X020500Y007752D01*
X020530Y007594D02*
X020830Y007594D01*
X020180Y007180D02*
X020180Y010680D01*
X020487Y011081D02*
X020958Y011081D01*
X020914Y011239D02*
X020446Y011239D01*
X020605Y011398D02*
X020755Y011398D01*
X020680Y011556D02*
X020680Y011556D01*
X020680Y011715D02*
X020680Y011715D01*
X020680Y011873D02*
X020680Y011873D01*
X020536Y012032D02*
X020824Y012032D01*
X020973Y012180D02*
X021227Y012180D01*
X021227Y012180D01*
X020973Y012180D01*
X020963Y012190D02*
X011397Y012190D01*
X011387Y012180D02*
X011680Y012473D01*
X011680Y012887D01*
X011387Y013180D01*
X011680Y013473D01*
X011680Y013887D01*
X011387Y014180D01*
X011680Y014473D01*
X011680Y014887D01*
X011387Y015180D01*
X011524Y015043D02*
X020836Y015043D01*
X020680Y014885D02*
X011680Y014885D01*
X011680Y014726D02*
X020680Y014726D01*
X020680Y014568D02*
X011680Y014568D01*
X011616Y014409D02*
X020744Y014409D01*
X020902Y014251D02*
X011458Y014251D01*
X011387Y014180D02*
X011133Y014180D01*
X011133Y014180D01*
X011387Y014180D01*
X011475Y014092D02*
X020885Y014092D01*
X020973Y014180D02*
X021227Y014180D01*
X021227Y014180D01*
X020973Y014180D01*
X020726Y013934D02*
X011634Y013934D01*
X011680Y013775D02*
X020680Y013775D01*
X020680Y013617D02*
X011680Y013617D01*
X011665Y013458D02*
X020695Y013458D01*
X020853Y013300D02*
X011507Y013300D01*
X011387Y013180D02*
X011133Y013180D01*
X011133Y013180D01*
X011387Y013180D01*
X011426Y013141D02*
X020934Y013141D01*
X020973Y013180D02*
X021387Y013180D01*
X021680Y012887D01*
X021680Y012633D01*
X021680Y012633D01*
X021680Y012887D01*
X021973Y013180D01*
X022227Y013180D01*
X022227Y013180D01*
X021973Y013180D01*
X021680Y013473D01*
X021680Y013860D01*
X021680Y013860D01*
X021680Y013473D01*
X021387Y013180D01*
X020973Y013180D01*
X020775Y012983D02*
X011585Y012983D01*
X011680Y012824D02*
X020680Y012824D01*
X020680Y012666D02*
X011680Y012666D01*
X011680Y012507D02*
X020680Y012507D01*
X020804Y012349D02*
X011556Y012349D01*
X011387Y012180D02*
X011383Y012180D01*
X011383Y012180D01*
X011387Y012180D01*
X011680Y011887D01*
X011680Y011633D01*
X011680Y011633D01*
X011680Y011887D01*
X011973Y012180D01*
X012387Y012180D01*
X012680Y011887D01*
X012680Y011473D01*
X012387Y011180D01*
X012000Y011180D01*
X012000Y011180D01*
X012387Y011180D01*
X012680Y010887D01*
X012680Y010473D01*
X012973Y010180D01*
X013387Y010180D01*
X013680Y010473D01*
X013680Y010887D01*
X013387Y011180D01*
X012973Y011180D01*
X012680Y010887D01*
X012680Y010473D01*
X012500Y010293D01*
X012500Y007624D01*
X012680Y007444D01*
X012956Y007720D01*
X013360Y007720D01*
X013360Y008490D01*
X013180Y008490D01*
X013180Y008930D01*
X013180Y009680D01*
X013680Y010180D01*
X013680Y011180D01*
X013180Y011680D01*
X013180Y012680D01*
X014180Y013680D01*
X013973Y012180D02*
X013680Y011887D01*
X013680Y011473D01*
X013973Y011180D01*
X014387Y011180D01*
X014680Y011473D01*
X014680Y011887D01*
X014387Y012180D01*
X013973Y012180D01*
X013824Y012032D02*
X013451Y012032D01*
X013362Y012120D02*
X013180Y012120D01*
X013180Y011680D01*
X013620Y011680D01*
X013620Y011862D01*
X013362Y012120D01*
X013180Y012120D02*
X013180Y011680D01*
X013180Y011680D01*
X013180Y011680D01*
X013620Y011680D01*
X013620Y011498D01*
X013362Y011240D01*
X013180Y011240D01*
X013180Y011680D01*
X013180Y011680D01*
X013180Y011680D01*
X012740Y011680D01*
X012740Y011862D01*
X012998Y012120D01*
X013180Y012120D01*
X013180Y012032D02*
X013180Y012032D01*
X013180Y011873D02*
X013180Y011873D01*
X013180Y011715D02*
X013180Y011715D01*
X013180Y011680D02*
X012740Y011680D01*
X012740Y011498D01*
X012998Y011240D01*
X013180Y011240D01*
X013180Y011680D01*
X013180Y011556D02*
X013180Y011556D01*
X013180Y011398D02*
X013180Y011398D01*
X013520Y011398D02*
X013755Y011398D01*
X013680Y011556D02*
X013620Y011556D01*
X013620Y011715D02*
X013680Y011715D01*
X013680Y011873D02*
X013609Y011873D01*
X013914Y011239D02*
X012446Y011239D01*
X012487Y011081D02*
X012873Y011081D01*
X012715Y010922D02*
X012645Y010922D01*
X012680Y010764D02*
X012680Y010764D01*
X012680Y010605D02*
X012680Y010605D01*
X012654Y010447D02*
X012706Y010447D01*
X012865Y010288D02*
X012500Y010288D01*
X012500Y010130D02*
X013677Y010130D01*
X013835Y010288D02*
X013495Y010288D01*
X013654Y010447D02*
X013706Y010447D01*
X013680Y010473D02*
X013850Y010303D01*
X013409Y009861D01*
X013360Y009744D01*
X013360Y009370D01*
X013180Y009370D01*
X013180Y008930D01*
X013180Y008930D01*
X013180Y008930D01*
X013180Y008930D01*
X012740Y008930D01*
X012740Y009112D01*
X012998Y009370D01*
X013180Y009370D01*
X013180Y008930D01*
X013180Y008490D01*
X012998Y008490D01*
X012740Y008748D01*
X012740Y008930D01*
X013180Y008930D01*
X013180Y008862D02*
X013180Y008862D01*
X013180Y009020D02*
X013180Y009020D01*
X013180Y009179D02*
X013180Y009179D01*
X013180Y009337D02*
X013180Y009337D01*
X012965Y009337D02*
X012500Y009337D01*
X012500Y009179D02*
X012806Y009179D01*
X012740Y009020D02*
X012500Y009020D01*
X012500Y008862D02*
X012740Y008862D01*
X012785Y008703D02*
X012500Y008703D01*
X012500Y008545D02*
X012943Y008545D01*
X013180Y008545D02*
X013180Y008545D01*
X013180Y008703D02*
X013180Y008703D01*
X013360Y008386D02*
X012500Y008386D01*
X012500Y008228D02*
X013360Y008228D01*
X013360Y008069D02*
X012500Y008069D01*
X012500Y007911D02*
X013360Y007911D01*
X013360Y007752D02*
X012500Y007752D01*
X012530Y007594D02*
X012830Y007594D01*
X012180Y007180D02*
X012180Y010680D01*
X011680Y011180D02*
X011180Y011680D01*
X011536Y012032D02*
X011824Y012032D01*
X011680Y011873D02*
X011680Y011873D01*
X011680Y011715D02*
X011680Y011715D01*
X011680Y011180D02*
X011680Y006680D01*
X012180Y006180D01*
X012614Y005850D02*
X012746Y005850D01*
X012680Y005916D02*
X012956Y005640D01*
X013404Y005640D01*
X013680Y005916D01*
X013956Y005640D01*
X014404Y005640D01*
X014680Y005916D01*
X014956Y005640D01*
X015404Y005640D01*
X015720Y005956D01*
X015720Y006404D01*
X015444Y006680D01*
X015720Y006956D01*
X015720Y007404D01*
X015404Y007720D01*
X015000Y007720D01*
X015000Y008047D01*
X015451Y008499D01*
X015500Y008616D01*
X015500Y010293D01*
X015680Y010473D01*
X015680Y010887D01*
X015387Y011180D01*
X014973Y011180D01*
X014680Y010887D01*
X014680Y010473D01*
X014500Y010293D01*
X014500Y010116D01*
X014451Y009999D01*
X014000Y009547D01*
X014000Y009430D01*
X014387Y009430D01*
X014680Y009137D01*
X014680Y008723D01*
X014387Y008430D01*
X014000Y008430D01*
X014000Y007720D01*
X014360Y007720D01*
X014360Y008244D01*
X014409Y008361D01*
X014499Y008451D01*
X014860Y008813D01*
X014860Y010293D01*
X014680Y010473D01*
X014680Y010887D01*
X014387Y011180D01*
X013973Y011180D01*
X013680Y010887D01*
X013680Y010473D01*
X013680Y010605D02*
X013680Y010605D01*
X013680Y010764D02*
X013680Y010764D01*
X013645Y010922D02*
X013715Y010922D01*
X013873Y011081D02*
X013487Y011081D01*
X012840Y011398D02*
X012605Y011398D01*
X012680Y011556D02*
X012740Y011556D01*
X012740Y011715D02*
X012680Y011715D01*
X012680Y011873D02*
X012751Y011873D01*
X012909Y012032D02*
X012536Y012032D01*
X011180Y012430D02*
X010680Y011930D01*
X010680Y011180D01*
X010180Y010680D01*
X010180Y008305D01*
X010680Y007805D01*
X010680Y006680D01*
X011180Y006180D01*
X011614Y005850D02*
X011746Y005850D01*
X011680Y005916D02*
X011956Y005640D01*
X012404Y005640D01*
X012680Y005916D01*
X012455Y005692D02*
X012905Y005692D01*
X013455Y005692D02*
X013905Y005692D01*
X013746Y005850D02*
X013614Y005850D01*
X014180Y006180D02*
X013680Y006680D01*
X013680Y009680D01*
X014180Y010180D01*
X014180Y010680D01*
X014487Y011081D02*
X014873Y011081D01*
X014973Y011180D02*
X015387Y011180D01*
X015680Y011473D01*
X015680Y011887D01*
X015387Y012180D01*
X014973Y012180D01*
X014680Y011887D01*
X014680Y011473D01*
X014973Y011180D01*
X014914Y011239D02*
X014446Y011239D01*
X014605Y011398D02*
X014755Y011398D01*
X014680Y011556D02*
X014680Y011556D01*
X014680Y011715D02*
X014680Y011715D01*
X014680Y011873D02*
X014680Y011873D01*
X014536Y012032D02*
X014824Y012032D01*
X015536Y012032D02*
X015824Y012032D01*
X015680Y011873D02*
X015680Y011873D01*
X015680Y011715D02*
X015680Y011715D01*
X015680Y011556D02*
X015680Y011556D01*
X015605Y011398D02*
X015755Y011398D01*
X015914Y011239D02*
X015446Y011239D01*
X015487Y011081D02*
X015958Y011081D01*
X015998Y011120D02*
X015740Y010862D01*
X015740Y010680D01*
X016180Y010680D01*
X015680Y011180D01*
X015680Y012680D01*
X016536Y012032D02*
X016824Y012032D01*
X016680Y011873D02*
X016680Y011873D01*
X016680Y011715D02*
X016680Y011715D01*
X016680Y011556D02*
X016680Y011556D01*
X016605Y011398D02*
X016755Y011398D01*
X016914Y011239D02*
X016446Y011239D01*
X016362Y011120D02*
X016180Y011120D01*
X016180Y010680D01*
X016180Y008930D01*
X016620Y008930D01*
X016620Y009112D01*
X016362Y009370D01*
X016180Y009370D01*
X016180Y008930D01*
X016180Y008930D01*
X016180Y008930D01*
X016620Y008930D01*
X016620Y008748D01*
X016362Y008490D01*
X016180Y008490D01*
X016180Y008930D01*
X016180Y008930D01*
X016180Y008930D01*
X015740Y008930D01*
X015740Y009112D01*
X015998Y009370D01*
X016180Y009370D01*
X016180Y008930D01*
X016180Y008490D01*
X015998Y008490D01*
X015740Y008748D01*
X015740Y008930D01*
X016180Y008930D01*
X016180Y008862D02*
X016180Y008862D01*
X016180Y009020D02*
X016180Y009020D01*
X016180Y009179D02*
X016180Y009179D01*
X016180Y009337D02*
X016180Y009337D01*
X016395Y009337D02*
X016860Y009337D01*
X016860Y009179D02*
X016554Y009179D01*
X016620Y009020D02*
X016860Y009020D01*
X016860Y008862D02*
X016620Y008862D01*
X016575Y008703D02*
X016860Y008703D01*
X016860Y008545D02*
X016417Y008545D01*
X016180Y008545D02*
X016180Y008545D01*
X016180Y008703D02*
X016180Y008703D01*
X015943Y008545D02*
X015470Y008545D01*
X015500Y008703D02*
X015785Y008703D01*
X015740Y008862D02*
X015500Y008862D01*
X015500Y009020D02*
X015740Y009020D01*
X015806Y009179D02*
X015500Y009179D01*
X015500Y009337D02*
X015965Y009337D01*
X015500Y009496D02*
X016860Y009496D01*
X016860Y009654D02*
X015500Y009654D01*
X015500Y009813D02*
X016860Y009813D01*
X016860Y009971D02*
X015500Y009971D01*
X015500Y010130D02*
X016860Y010130D01*
X016860Y010288D02*
X016410Y010288D01*
X016362Y010240D02*
X016620Y010498D01*
X016620Y010680D01*
X016620Y010862D01*
X016362Y011120D01*
X016402Y011081D02*
X016873Y011081D01*
X016973Y011180D02*
X017227Y011180D01*
X017227Y011180D01*
X016973Y011180D01*
X016715Y010922D02*
X016560Y010922D01*
X016620Y010764D02*
X016680Y010764D01*
X016620Y010680D02*
X016180Y010680D01*
X016180Y010680D01*
X016180Y010680D01*
X016620Y010680D01*
X016620Y010605D02*
X016680Y010605D01*
X016706Y010447D02*
X016569Y010447D01*
X016362Y010240D02*
X016180Y010240D01*
X016180Y010680D01*
X016180Y010680D01*
X016180Y010680D01*
X016180Y011120D01*
X015998Y011120D01*
X016180Y011081D02*
X016180Y011081D01*
X016180Y010922D02*
X016180Y010922D01*
X016180Y010764D02*
X016180Y010764D01*
X016180Y010680D02*
X015740Y010680D01*
X015740Y010498D01*
X015998Y010240D01*
X016180Y010240D01*
X016180Y010680D01*
X016180Y010605D02*
X016180Y010605D01*
X016180Y010447D02*
X016180Y010447D01*
X016180Y010288D02*
X016180Y010288D01*
X015950Y010288D02*
X015500Y010288D01*
X015654Y010447D02*
X015791Y010447D01*
X015740Y010605D02*
X015680Y010605D01*
X015680Y010764D02*
X015740Y010764D01*
X015800Y010922D02*
X015645Y010922D01*
X015180Y010680D02*
X015180Y008680D01*
X014680Y008180D01*
X014680Y006680D01*
X015180Y006180D01*
X015614Y005850D02*
X017746Y005850D01*
X017640Y006009D02*
X015720Y006009D01*
X015720Y006167D02*
X017640Y006167D01*
X017582Y006326D02*
X015720Y006326D01*
X015640Y006484D02*
X017423Y006484D01*
X017265Y006643D02*
X015481Y006643D01*
X015565Y006801D02*
X017106Y006801D01*
X016948Y006960D02*
X015720Y006960D01*
X015720Y007118D02*
X016860Y007118D01*
X016860Y007277D02*
X015720Y007277D01*
X015689Y007435D02*
X016860Y007435D01*
X016860Y007594D02*
X015530Y007594D01*
X015000Y007752D02*
X016860Y007752D01*
X016860Y007911D02*
X015000Y007911D01*
X015022Y008069D02*
X016860Y008069D01*
X016860Y008228D02*
X015180Y008228D01*
X015339Y008386D02*
X016860Y008386D01*
X017680Y007680D02*
X018180Y007180D01*
X018680Y006680D02*
X019180Y006180D01*
X019614Y005850D02*
X019746Y005850D01*
X019905Y005692D02*
X019455Y005692D01*
X018905Y005692D02*
X018455Y005692D01*
X018614Y005850D02*
X018746Y005850D01*
X018180Y006180D02*
X017180Y007180D01*
X017180Y010680D01*
X017680Y011180D02*
X017680Y007680D01*
X018180Y008180D02*
X018680Y007680D01*
X018680Y006680D01*
X019180Y007180D02*
X019180Y007680D01*
X018680Y008180D01*
X018680Y009680D01*
X019180Y010180D01*
X019180Y010680D01*
X018680Y011180D02*
X018680Y010180D01*
X018180Y009680D01*
X018180Y008180D01*
X019680Y006680D02*
X020180Y006180D01*
X020614Y005850D02*
X020746Y005850D01*
X020905Y005692D02*
X020455Y005692D01*
X021455Y005692D02*
X021905Y005692D01*
X021746Y005850D02*
X021614Y005850D01*
X022180Y006180D02*
X021680Y006680D01*
X021680Y010930D01*
X021180Y011430D01*
X021180Y011680D01*
X021680Y011430D02*
X022680Y010430D01*
X022680Y006680D01*
X023180Y006180D01*
X023614Y005850D02*
X023746Y005850D01*
X023905Y005692D02*
X023455Y005692D01*
X022905Y005692D02*
X022455Y005692D01*
X022614Y005850D02*
X022746Y005850D01*
X023180Y007180D02*
X023180Y012680D01*
X022180Y013680D01*
X021853Y013300D02*
X021507Y013300D01*
X021426Y013141D02*
X021934Y013141D01*
X021775Y012983D02*
X021585Y012983D01*
X021680Y012824D02*
X021680Y012824D01*
X021680Y012666D02*
X021680Y012666D01*
X021680Y012180D02*
X021180Y012680D01*
X021680Y012180D02*
X021680Y011430D01*
X021180Y010680D02*
X020740Y010680D01*
X020740Y010498D01*
X020998Y010240D01*
X021180Y010240D01*
X021180Y010680D01*
X021180Y010605D02*
X021180Y010605D01*
X021180Y010447D02*
X021180Y010447D01*
X021180Y010288D02*
X021180Y010288D01*
X020950Y010288D02*
X020500Y010288D01*
X020500Y010130D02*
X021360Y010130D01*
X021360Y009971D02*
X020500Y009971D01*
X020500Y009813D02*
X021360Y009813D01*
X021360Y009654D02*
X020500Y009654D01*
X020500Y009496D02*
X021360Y009496D01*
X020791Y010447D02*
X020654Y010447D01*
X020680Y010605D02*
X020740Y010605D01*
X020740Y010764D02*
X020680Y010764D01*
X020645Y010922D02*
X020800Y010922D01*
X019824Y012032D02*
X019536Y012032D01*
X019680Y011887D02*
X019680Y011633D01*
X019680Y011633D01*
X019680Y011887D01*
X019680Y011873D02*
X019680Y011873D01*
X019680Y011715D02*
X019680Y011715D01*
X019180Y011680D02*
X019680Y011180D01*
X019680Y006680D01*
X017905Y005692D02*
X015455Y005692D01*
X014905Y005692D02*
X014455Y005692D01*
X014614Y005850D02*
X014746Y005850D01*
X014360Y007752D02*
X014000Y007752D01*
X014000Y007911D02*
X014360Y007911D01*
X014360Y008069D02*
X014000Y008069D01*
X014000Y008228D02*
X014360Y008228D01*
X014433Y008386D02*
X014000Y008386D01*
X014502Y008545D02*
X014592Y008545D01*
X014660Y008703D02*
X014750Y008703D01*
X014680Y008862D02*
X014860Y008862D01*
X014860Y009020D02*
X014680Y009020D01*
X014639Y009179D02*
X014860Y009179D01*
X014860Y009337D02*
X014480Y009337D01*
X014860Y009496D02*
X014000Y009496D01*
X014107Y009654D02*
X014860Y009654D01*
X014860Y009813D02*
X014265Y009813D01*
X014424Y009971D02*
X014860Y009971D01*
X014860Y010130D02*
X014500Y010130D01*
X014500Y010288D02*
X014860Y010288D01*
X014706Y010447D02*
X014654Y010447D01*
X014680Y010605D02*
X014680Y010605D01*
X014680Y010764D02*
X014680Y010764D01*
X014645Y010922D02*
X014715Y010922D01*
X013518Y009971D02*
X012500Y009971D01*
X012500Y009813D02*
X013389Y009813D01*
X013360Y009654D02*
X012500Y009654D01*
X012500Y009496D02*
X013360Y009496D01*
X011180Y010680D02*
X010555Y010055D01*
X010555Y008555D01*
X011180Y007930D01*
X011180Y007180D01*
X010180Y007180D02*
X010180Y007680D01*
X009680Y008180D01*
X009680Y009680D01*
X009180Y010180D01*
X009180Y011930D01*
X009930Y012680D01*
X010180Y012680D01*
X009930Y012180D02*
X009555Y011805D01*
X009555Y010805D01*
X009680Y010680D01*
X009180Y009680D02*
X008680Y010180D01*
X008680Y011930D01*
X009180Y012430D01*
X009180Y013180D01*
X009680Y013680D01*
X010180Y013680D01*
X009680Y014180D02*
X009180Y013680D01*
X008430Y013680D01*
X008055Y013305D01*
X008055Y010305D01*
X008680Y009680D01*
X008680Y006680D01*
X009180Y006180D01*
X009614Y005850D02*
X009746Y005850D01*
X009680Y005916D02*
X009956Y005640D01*
X010404Y005640D01*
X010680Y005916D01*
X010956Y005640D01*
X011404Y005640D01*
X011680Y005916D01*
X011455Y005692D02*
X011905Y005692D01*
X010905Y005692D02*
X010455Y005692D01*
X010614Y005850D02*
X010746Y005850D01*
X009905Y005692D02*
X009455Y005692D01*
X009404Y005640D02*
X009680Y005916D01*
X009404Y005640D02*
X008956Y005640D01*
X008680Y005916D01*
X008404Y005640D01*
X007956Y005640D01*
X007640Y005956D01*
X007640Y006404D01*
X007916Y006680D01*
X007640Y006956D01*
X007640Y007404D01*
X007956Y007720D01*
X008360Y007720D01*
X008360Y009547D01*
X007874Y010034D01*
X007874Y010034D01*
X007784Y010124D01*
X007735Y010241D01*
X007735Y013369D01*
X007784Y013486D01*
X007874Y013576D01*
X008249Y013951D01*
X008366Y014000D01*
X009047Y014000D01*
X009499Y014451D01*
X009616Y014500D01*
X009740Y014500D01*
X009740Y014680D01*
X010180Y014680D01*
X008680Y014680D01*
X008180Y014680D01*
X007180Y013680D01*
X007180Y011180D01*
X006310Y010310D01*
X006175Y010229D02*
X006151Y010253D01*
X006151Y010310D01*
X006151Y010432D01*
X006139Y010478D01*
X006115Y010519D01*
X006082Y010552D01*
X006041Y010576D01*
X005995Y010588D01*
X005361Y010588D01*
X004727Y010588D01*
X004681Y010576D01*
X004640Y010552D01*
X004607Y010519D01*
X004597Y010502D01*
X004597Y010629D01*
X004534Y010782D01*
X004416Y010900D01*
X004263Y010963D01*
X004097Y010963D01*
X003944Y010900D01*
X003826Y010782D01*
X003763Y010629D01*
X003763Y010463D01*
X003826Y010310D01*
X003944Y010192D01*
X004097Y010129D01*
X004263Y010129D01*
X004416Y010192D01*
X004534Y010310D01*
X004571Y010400D01*
X004571Y010310D01*
X004646Y010310D01*
X004571Y010310D01*
X004571Y010253D01*
X004547Y010229D01*
X004511Y010141D01*
X004511Y009849D01*
X004516Y009837D01*
X004511Y009826D01*
X004511Y009534D01*
X004516Y009523D01*
X004511Y009511D01*
X004511Y009219D01*
X004516Y009208D01*
X004511Y009196D01*
X004511Y009073D01*
X004416Y009168D01*
X004263Y009231D01*
X004097Y009231D01*
X003944Y009168D01*
X003826Y009050D01*
X003763Y008897D01*
X003763Y008731D01*
X003826Y008578D01*
X003944Y008460D01*
X004097Y008397D01*
X004263Y008397D01*
X004416Y008460D01*
X004534Y008578D01*
X004597Y008731D01*
X004597Y008766D01*
X004615Y008748D01*
X004703Y008712D01*
X005169Y008712D01*
X005182Y008681D01*
X005301Y008562D01*
X004624Y008562D01*
X004536Y008525D01*
X004469Y008458D01*
X004432Y008369D01*
X004432Y007487D01*
X004469Y007398D01*
X004536Y007331D01*
X004624Y007294D01*
X006019Y007294D01*
X006107Y007331D01*
X006175Y007398D01*
X006211Y007487D01*
X006211Y008365D01*
X006893Y008365D01*
X007054Y008432D01*
X007178Y008556D01*
X007245Y008717D01*
X007245Y008893D01*
X007178Y009054D01*
X007054Y009178D01*
X006893Y009245D01*
X006211Y009245D01*
X006211Y009511D01*
X006207Y009523D01*
X006211Y009534D01*
X006211Y009826D01*
X006207Y009837D01*
X006211Y009849D01*
X006211Y010141D01*
X006175Y010229D01*
X006151Y010288D02*
X007735Y010288D01*
X007735Y010447D02*
X006147Y010447D01*
X006151Y010310D02*
X006076Y010310D01*
X006076Y010310D01*
X006151Y010310D01*
X006211Y010130D02*
X007781Y010130D01*
X007936Y009971D02*
X006211Y009971D01*
X006211Y009813D02*
X008095Y009813D01*
X008253Y009654D02*
X006211Y009654D01*
X006211Y009496D02*
X008360Y009496D01*
X008360Y009337D02*
X006211Y009337D01*
X005555Y008930D02*
X005481Y008930D01*
X005361Y009050D01*
X005173Y008703D02*
X004586Y008703D01*
X004583Y008545D02*
X004501Y008545D01*
X004439Y008386D02*
X003724Y008386D01*
X003731Y008369D02*
X003694Y008458D01*
X003627Y008525D01*
X003539Y008562D01*
X002459Y008562D01*
X002371Y008525D01*
X002303Y008458D01*
X002267Y008369D01*
X002267Y007487D01*
X002303Y007398D01*
X002371Y007331D01*
X002459Y007294D01*
X003539Y007294D01*
X003627Y007331D01*
X003694Y007398D01*
X003731Y007487D01*
X003731Y008369D01*
X003731Y008228D02*
X004432Y008228D01*
X004432Y008069D02*
X003731Y008069D01*
X003731Y007911D02*
X004432Y007911D01*
X004432Y007752D02*
X003731Y007752D01*
X003731Y007594D02*
X004432Y007594D01*
X004453Y007435D02*
X003710Y007435D01*
X003580Y008545D02*
X003859Y008545D01*
X003774Y008703D02*
X001920Y008703D01*
X001920Y008545D02*
X002417Y008545D01*
X002274Y008386D02*
X001920Y008386D01*
X001920Y008228D02*
X002267Y008228D01*
X002267Y008069D02*
X001920Y008069D01*
X001920Y007911D02*
X002267Y007911D01*
X002267Y007752D02*
X001920Y007752D01*
X001920Y007594D02*
X002267Y007594D01*
X002288Y007435D02*
X001920Y007435D01*
X001920Y007277D02*
X007640Y007277D01*
X007640Y007118D02*
X001920Y007118D01*
X001920Y006960D02*
X007640Y006960D01*
X007795Y006801D02*
X001920Y006801D01*
X001920Y006643D02*
X007879Y006643D01*
X007720Y006484D02*
X001920Y006484D01*
X001920Y006326D02*
X007640Y006326D01*
X007640Y006167D02*
X001920Y006167D01*
X001920Y006009D02*
X007640Y006009D01*
X007746Y005850D02*
X001920Y005850D01*
X001920Y005692D02*
X007905Y005692D01*
X008455Y005692D02*
X008905Y005692D01*
X008746Y005850D02*
X008614Y005850D01*
X009180Y007180D02*
X009180Y009680D01*
X008360Y009179D02*
X007053Y009179D01*
X007192Y009020D02*
X008360Y009020D01*
X008360Y008862D02*
X007245Y008862D01*
X007239Y008703D02*
X008360Y008703D01*
X008360Y008545D02*
X007167Y008545D01*
X006943Y008386D02*
X008360Y008386D01*
X008360Y008228D02*
X006211Y008228D01*
X006211Y008069D02*
X008360Y008069D01*
X008360Y007911D02*
X006211Y007911D01*
X006211Y007752D02*
X008360Y007752D01*
X007830Y007594D02*
X006211Y007594D01*
X006190Y007435D02*
X007671Y007435D01*
X005361Y010333D02*
X005361Y010333D01*
X005361Y010588D01*
X005361Y010333D01*
X005361Y010447D02*
X005361Y010447D01*
X006019Y010798D02*
X006107Y010835D01*
X006175Y010902D01*
X006211Y010991D01*
X006211Y011873D01*
X007735Y011873D01*
X007735Y011715D02*
X006211Y011715D01*
X006211Y011873D02*
X006175Y011962D01*
X006107Y012029D01*
X006019Y012066D01*
X004624Y012066D01*
X004536Y012029D01*
X004469Y011962D01*
X004432Y011873D01*
X003731Y011873D01*
X003694Y011962D01*
X003627Y012029D01*
X003539Y012066D01*
X002459Y012066D01*
X002371Y012029D01*
X002303Y011962D01*
X002267Y011873D01*
X001920Y011873D01*
X001920Y011715D02*
X002267Y011715D01*
X002267Y011873D02*
X002267Y010991D01*
X002303Y010902D01*
X002371Y010835D01*
X002459Y010798D01*
X003539Y010798D01*
X003627Y010835D01*
X003694Y010902D01*
X003731Y010991D01*
X003731Y011873D01*
X003731Y011715D02*
X004432Y011715D01*
X004432Y011873D02*
X004432Y010991D01*
X004469Y010902D01*
X004536Y010835D01*
X004624Y010798D01*
X006019Y010798D01*
X006183Y010922D02*
X007735Y010922D01*
X007735Y010764D02*
X004541Y010764D01*
X004597Y010605D02*
X007735Y010605D01*
X007735Y011081D02*
X006211Y011081D01*
X006211Y011239D02*
X007735Y011239D01*
X007735Y011398D02*
X006211Y011398D01*
X006211Y011556D02*
X007735Y011556D01*
X007735Y012032D02*
X006102Y012032D01*
X004542Y012032D02*
X003621Y012032D01*
X003731Y011556D02*
X004432Y011556D01*
X004432Y011398D02*
X003731Y011398D01*
X003731Y011239D02*
X004432Y011239D01*
X004432Y011081D02*
X003731Y011081D01*
X003703Y010922D02*
X003997Y010922D01*
X003819Y010764D02*
X001920Y010764D01*
X001920Y010922D02*
X002295Y010922D01*
X002267Y011081D02*
X001920Y011081D01*
X001920Y011239D02*
X002267Y011239D01*
X002267Y011398D02*
X001920Y011398D01*
X001920Y011556D02*
X002267Y011556D01*
X002377Y012032D02*
X001920Y012032D01*
X001920Y012190D02*
X007735Y012190D01*
X007735Y012349D02*
X001920Y012349D01*
X001920Y012507D02*
X007735Y012507D01*
X007735Y012666D02*
X001920Y012666D01*
X001920Y012824D02*
X007735Y012824D01*
X007735Y012983D02*
X001920Y012983D01*
X001920Y013141D02*
X007735Y013141D01*
X007735Y013300D02*
X001920Y013300D01*
X001920Y013458D02*
X007772Y013458D01*
X007914Y013617D02*
X001920Y013617D01*
X001920Y013775D02*
X008072Y013775D01*
X008231Y013934D02*
X001920Y013934D01*
X001920Y014092D02*
X009139Y014092D01*
X009298Y014251D02*
X008873Y014251D01*
X008862Y014240D02*
X009120Y014498D01*
X009120Y014680D01*
X009120Y014862D01*
X008862Y015120D01*
X008680Y015120D01*
X008680Y014680D01*
X008680Y014680D01*
X009120Y014680D01*
X008680Y014680D01*
X008680Y014680D01*
X008680Y014680D01*
X008240Y014680D01*
X008240Y014862D01*
X008498Y015120D01*
X008680Y015120D01*
X008680Y014680D01*
X008680Y014240D01*
X008862Y014240D01*
X008680Y014240D02*
X008680Y014680D01*
X008680Y014680D01*
X008240Y014680D01*
X008240Y014498D01*
X008498Y014240D01*
X008680Y014240D01*
X008680Y014251D02*
X008680Y014251D01*
X008680Y014409D02*
X008680Y014409D01*
X008680Y014568D02*
X008680Y014568D01*
X008680Y014726D02*
X008680Y014726D01*
X008680Y014885D02*
X008680Y014885D01*
X008680Y015043D02*
X008680Y015043D01*
X008939Y015043D02*
X009921Y015043D01*
X009998Y015120D02*
X009740Y014862D01*
X009740Y014680D01*
X010180Y014680D01*
X010180Y014680D01*
X010620Y014680D01*
X010180Y014680D01*
X010180Y014680D01*
X010180Y014680D01*
X010180Y015120D01*
X009998Y015120D01*
X009951Y015202D02*
X001920Y015202D01*
X001920Y015360D02*
X009793Y015360D01*
X009680Y015519D02*
X001920Y015519D01*
X001920Y015677D02*
X009680Y015677D01*
X009680Y015836D02*
X001920Y015836D01*
X001920Y015994D02*
X009787Y015994D01*
X009945Y016153D02*
X001920Y016153D01*
X001920Y016311D02*
X009842Y016311D01*
X010180Y016680D02*
X007680Y016680D01*
X005680Y018680D01*
X006220Y018687D02*
X007409Y017499D01*
X007409Y017499D01*
X007499Y017409D01*
X007616Y017360D01*
X009793Y017360D01*
X009973Y017180D01*
X010387Y017180D01*
X009973Y017180D01*
X009793Y017000D01*
X007813Y017000D01*
X006220Y018593D01*
X006220Y018687D01*
X006283Y018530D02*
X006377Y018530D01*
X006441Y018372D02*
X006536Y018372D01*
X006600Y018213D02*
X006694Y018213D01*
X006758Y018055D02*
X006853Y018055D01*
X006917Y017896D02*
X007011Y017896D01*
X007075Y017738D02*
X007170Y017738D01*
X007234Y017579D02*
X007328Y017579D01*
X007392Y017421D02*
X007487Y017421D01*
X007551Y017262D02*
X009891Y017262D01*
X009896Y017104D02*
X007709Y017104D01*
X007680Y017680D02*
X005680Y019680D01*
X006220Y019640D02*
X006768Y019640D01*
X006609Y019798D02*
X006220Y019798D01*
X006332Y019481D02*
X006926Y019481D01*
X007180Y019680D02*
X006680Y020180D01*
X005180Y020180D01*
X004680Y020680D01*
X004372Y021225D02*
X001920Y021225D01*
X001920Y021383D02*
X004213Y021383D01*
X004140Y021542D02*
X001920Y021542D01*
X001920Y021700D02*
X004140Y021700D01*
X004140Y021859D02*
X001920Y021859D01*
X001920Y022017D02*
X004253Y022017D01*
X004412Y022176D02*
X001920Y022176D01*
X001920Y022334D02*
X004262Y022334D01*
X004140Y022493D02*
X001920Y022493D01*
X001920Y022651D02*
X004140Y022651D01*
X004140Y022810D02*
X001920Y022810D01*
X001920Y022968D02*
X004204Y022968D01*
X004416Y023180D02*
X004140Y023456D01*
X004140Y023904D01*
X004416Y024180D01*
X004140Y024456D01*
X004140Y024904D01*
X004416Y025180D01*
X004140Y025456D01*
X004140Y025904D01*
X004456Y026220D01*
X004767Y026220D01*
X004999Y026451D01*
X004844Y026297D02*
X001920Y026297D01*
X001920Y026138D02*
X004374Y026138D01*
X004216Y025980D02*
X001920Y025980D01*
X001920Y025821D02*
X004140Y025821D01*
X004140Y025663D02*
X001920Y025663D01*
X001920Y025504D02*
X004140Y025504D01*
X004251Y025346D02*
X001920Y025346D01*
X001920Y025187D02*
X004409Y025187D01*
X004265Y025029D02*
X001920Y025029D01*
X001920Y024870D02*
X004140Y024870D01*
X004140Y024712D02*
X001920Y024712D01*
X001920Y024553D02*
X004140Y024553D01*
X004202Y024395D02*
X001920Y024395D01*
X001920Y024236D02*
X004360Y024236D01*
X004314Y024078D02*
X001920Y024078D01*
X001920Y023919D02*
X004155Y023919D01*
X004140Y023761D02*
X001920Y023761D01*
X001920Y023602D02*
X004140Y023602D01*
X004153Y023444D02*
X001920Y023444D01*
X001920Y021066D02*
X004302Y021066D01*
X004144Y020908D02*
X001920Y020908D01*
X001920Y020749D02*
X004140Y020749D01*
X004140Y020591D02*
X001920Y020591D01*
X001920Y020432D02*
X004164Y020432D01*
X004323Y020274D02*
X001920Y020274D01*
X001920Y020115D02*
X004351Y020115D01*
X004193Y019957D02*
X001920Y019957D01*
X001920Y019798D02*
X004140Y019798D01*
X004140Y019640D02*
X001920Y019640D01*
X001920Y019481D02*
X004140Y019481D01*
X004274Y019323D02*
X001920Y019323D01*
X001920Y019164D02*
X004400Y019164D01*
X004242Y019006D02*
X001920Y019006D01*
X001920Y018847D02*
X004140Y018847D01*
X004140Y018689D02*
X001920Y018689D01*
X001920Y018530D02*
X004140Y018530D01*
X004225Y018372D02*
X001920Y018372D01*
X001920Y018213D02*
X004383Y018213D01*
X004977Y018213D02*
X005383Y018213D01*
X005225Y018372D02*
X005135Y018372D01*
X005853Y018055D02*
X001920Y018055D01*
X001920Y017896D02*
X006011Y017896D01*
X006170Y017738D02*
X001920Y017738D01*
X001920Y017579D02*
X006328Y017579D01*
X006487Y017421D02*
X001920Y017421D01*
X001920Y017262D02*
X006645Y017262D01*
X006804Y017104D02*
X001920Y017104D01*
X001920Y016945D02*
X006962Y016945D01*
X007121Y016787D02*
X001920Y016787D01*
X001920Y016628D02*
X007279Y016628D01*
X007438Y016470D02*
X001920Y016470D01*
X001920Y015043D02*
X008421Y015043D01*
X008262Y014885D02*
X001920Y014885D01*
X001920Y014726D02*
X008240Y014726D01*
X008240Y014568D02*
X001920Y014568D01*
X001920Y014409D02*
X008329Y014409D01*
X008487Y014251D02*
X001920Y014251D01*
X004363Y010922D02*
X004461Y010922D01*
X004512Y010288D02*
X004571Y010288D01*
X004646Y010310D02*
X004646Y010310D01*
X004511Y010130D02*
X004264Y010130D01*
X004096Y010130D02*
X001920Y010130D01*
X001920Y010288D02*
X003848Y010288D01*
X003770Y010447D02*
X001920Y010447D01*
X001920Y010605D02*
X003763Y010605D01*
X004511Y009971D02*
X001920Y009971D01*
X001920Y009813D02*
X004511Y009813D01*
X004511Y009654D02*
X001920Y009654D01*
X001920Y009496D02*
X004511Y009496D01*
X004511Y009337D02*
X001920Y009337D01*
X001920Y009179D02*
X003970Y009179D01*
X003814Y009020D02*
X001920Y009020D01*
X001920Y008862D02*
X003763Y008862D01*
X004390Y009179D02*
X004511Y009179D01*
X009031Y014409D02*
X009456Y014409D01*
X009680Y014180D02*
X010680Y014180D01*
X011180Y014680D01*
X010836Y015043D02*
X010439Y015043D01*
X010409Y015202D02*
X010951Y015202D01*
X010793Y015360D02*
X010567Y015360D01*
X010680Y015519D02*
X010680Y015519D01*
X010680Y015677D02*
X010680Y015677D01*
X010680Y015836D02*
X010680Y015836D01*
X010573Y015994D02*
X010787Y015994D01*
X010945Y016153D02*
X010415Y016153D01*
X010518Y016311D02*
X010842Y016311D01*
X010683Y016470D02*
X010677Y016470D01*
X010680Y016628D02*
X010680Y016628D01*
X010680Y016787D02*
X010680Y016787D01*
X010622Y016945D02*
X010738Y016945D01*
X010896Y017104D02*
X010464Y017104D01*
X010469Y017262D02*
X010891Y017262D01*
X010732Y017421D02*
X010628Y017421D01*
X010680Y017579D02*
X010680Y017579D01*
X010680Y017738D02*
X010680Y017738D01*
X010671Y017896D02*
X010689Y017896D01*
X010847Y018055D02*
X010513Y018055D01*
X010420Y018213D02*
X010940Y018213D01*
X010781Y018372D02*
X010579Y018372D01*
X010680Y018530D02*
X010680Y018530D01*
X010680Y018689D02*
X010680Y018689D01*
X010680Y018847D02*
X010680Y018847D01*
X010562Y019006D02*
X010798Y019006D01*
X010957Y019164D02*
X010403Y019164D01*
X010530Y019323D02*
X010830Y019323D01*
X010680Y019473D02*
X010680Y019727D01*
X010680Y019727D01*
X010680Y019473D01*
X010680Y019481D02*
X010680Y019481D01*
X010680Y019640D02*
X010680Y019640D01*
X011180Y019680D02*
X010680Y020180D01*
X008180Y020180D01*
X007680Y020680D01*
X005680Y020680D01*
X006220Y021700D02*
X009680Y021700D01*
X009680Y021859D02*
X006220Y021859D01*
X005680Y022680D02*
X011180Y022680D01*
X011680Y022180D02*
X012180Y021680D01*
X012590Y021383D02*
X012770Y021383D01*
X012680Y021542D02*
X012680Y021542D01*
X012680Y021700D02*
X012680Y021700D01*
X012680Y022180D02*
X012680Y023180D01*
X012180Y023680D01*
X006680Y023680D01*
X006180Y024180D01*
X005180Y024180D01*
X004680Y023680D01*
X004680Y024680D02*
X005180Y025180D01*
X013180Y025180D01*
X014180Y024180D01*
X014180Y022680D01*
X013680Y023180D02*
X013180Y023680D01*
X012680Y023680D01*
X012180Y024180D01*
X007180Y024180D01*
X006680Y024680D01*
X005680Y024680D01*
X005680Y023680D02*
X006180Y023180D01*
X011680Y023180D01*
X012180Y022680D01*
X012680Y022180D02*
X013180Y021680D01*
X013590Y021383D02*
X013770Y021383D01*
X013680Y021542D02*
X013680Y021542D01*
X013680Y021700D02*
X013680Y021700D01*
X013680Y022180D02*
X013680Y023180D01*
X013680Y022180D02*
X014180Y021680D01*
X014590Y021383D02*
X014770Y021383D01*
X014680Y021542D02*
X014680Y021542D01*
X014680Y021700D02*
X014680Y021700D01*
X014680Y022180D02*
X014680Y024180D01*
X013180Y025680D01*
X005680Y025680D01*
X005180Y026180D02*
X004680Y025680D01*
X005180Y026180D02*
X013680Y026180D01*
X014180Y025680D01*
X014581Y025504D02*
X016551Y025504D01*
X016393Y025346D02*
X014465Y025346D01*
X014618Y025663D02*
X016710Y025663D01*
X016868Y025821D02*
X014596Y025821D01*
X014500Y025980D02*
X017027Y025980D01*
X017185Y026138D02*
X014175Y026138D01*
X014016Y026297D02*
X017344Y026297D01*
X017502Y026455D02*
X013852Y026455D01*
X013829Y026772D02*
X013531Y026772D01*
X013658Y026931D02*
X013702Y026931D01*
X014531Y026772D02*
X014829Y026772D01*
X014702Y026931D02*
X014658Y026931D01*
X014604Y028516D02*
X014756Y028516D01*
X014970Y028674D02*
X014390Y028674D01*
X013970Y028674D02*
X013390Y028674D01*
X013604Y028516D02*
X013756Y028516D01*
X012970Y028674D02*
X004511Y028674D01*
X004511Y028516D02*
X012756Y028516D01*
X012672Y028357D02*
X004445Y028357D01*
X004373Y028199D02*
X012643Y028199D01*
X012657Y028040D02*
X004215Y028040D01*
X003923Y027882D02*
X012723Y027882D01*
X014126Y025187D02*
X016234Y025187D01*
X016076Y025029D02*
X014284Y025029D01*
X014443Y024870D02*
X015917Y024870D01*
X015860Y024712D02*
X015521Y024712D01*
X015620Y024553D02*
X015860Y024553D01*
X015860Y024395D02*
X015620Y024395D01*
X015608Y024236D02*
X015860Y024236D01*
X015860Y024078D02*
X015450Y024078D01*
X015180Y024078D02*
X015180Y024078D01*
X015180Y024236D02*
X015180Y024236D01*
X015180Y024395D02*
X015180Y024395D01*
X015180Y024553D02*
X015180Y024553D01*
X015180Y024712D02*
X015180Y024712D01*
X014839Y024712D02*
X014601Y024712D01*
X015000Y023919D02*
X015860Y023919D01*
X015860Y023761D02*
X015000Y023761D01*
X015000Y023602D02*
X015860Y023602D01*
X015860Y023444D02*
X015000Y023444D01*
X015000Y023285D02*
X015860Y023285D01*
X015860Y023127D02*
X015000Y023127D01*
X015180Y022968D02*
X015180Y022968D01*
X015180Y022810D02*
X015180Y022810D01*
X015180Y022651D02*
X015180Y022651D01*
X015180Y022493D02*
X015180Y022493D01*
X015180Y022334D02*
X015180Y022334D01*
X015392Y022176D02*
X015968Y022176D01*
X015973Y022180D02*
X016360Y022180D01*
X016360Y022180D01*
X015973Y022180D01*
X015819Y022334D02*
X015456Y022334D01*
X015615Y022493D02*
X015680Y022493D01*
X015680Y022651D02*
X015620Y022651D01*
X015620Y022810D02*
X015680Y022810D01*
X015761Y022968D02*
X015514Y022968D01*
X016180Y022680D02*
X016180Y024680D01*
X018180Y026680D01*
X018249Y026297D02*
X020441Y026297D01*
X020362Y026120D02*
X020180Y026120D01*
X020180Y025680D01*
X020180Y024680D01*
X020180Y024180D01*
X020180Y024240D02*
X020362Y024240D01*
X020620Y024498D01*
X020620Y024680D01*
X020620Y024862D01*
X020362Y025120D01*
X020180Y025120D01*
X020180Y024680D01*
X020620Y024680D01*
X020180Y024680D01*
X020180Y024680D01*
X020180Y024680D01*
X020180Y024240D01*
X020180Y024680D01*
X020180Y024680D01*
X020180Y024680D01*
X019740Y024680D01*
X019740Y024862D01*
X019998Y025120D01*
X020180Y025120D01*
X020180Y024680D01*
X019740Y024680D01*
X019740Y024498D01*
X019998Y024240D01*
X020180Y024240D01*
X020180Y024395D02*
X020180Y024395D01*
X020180Y024553D02*
X020180Y024553D01*
X020180Y024712D02*
X020180Y024712D01*
X020180Y024870D02*
X020180Y024870D01*
X020180Y025029D02*
X020180Y025029D01*
X020180Y025240D02*
X019998Y025240D01*
X019740Y025498D01*
X019740Y025680D01*
X020180Y025680D01*
X020180Y025680D01*
X020620Y025680D01*
X020620Y025862D01*
X020362Y026120D01*
X020180Y026120D02*
X020180Y025680D01*
X020180Y025680D01*
X020180Y025680D01*
X020620Y025680D01*
X020620Y025498D01*
X020362Y025240D01*
X020180Y025240D01*
X020180Y025680D01*
X020180Y025680D01*
X019740Y025680D01*
X019740Y025862D01*
X019998Y026120D01*
X020180Y026120D01*
X020180Y025980D02*
X020180Y025980D01*
X020180Y025821D02*
X020180Y025821D01*
X020180Y025680D02*
X020180Y025240D01*
X020180Y025346D02*
X020180Y025346D01*
X020180Y025504D02*
X020180Y025504D01*
X020180Y025663D02*
X020180Y025663D01*
X020468Y025346D02*
X020811Y025346D01*
X020750Y025504D02*
X020620Y025504D01*
X020620Y025663D02*
X020750Y025663D01*
X020750Y025821D02*
X020620Y025821D01*
X020503Y025980D02*
X020750Y025980D01*
X020599Y026138D02*
X018091Y026138D01*
X017932Y025980D02*
X018860Y025980D01*
X018764Y025821D02*
X017774Y025821D01*
X017615Y025663D02*
X018742Y025663D01*
X018779Y025504D02*
X017457Y025504D01*
X017298Y025346D02*
X018860Y025346D01*
X018860Y025187D02*
X017140Y025187D01*
X016981Y025029D02*
X017821Y025029D01*
X017680Y024870D02*
X016823Y024870D01*
X016664Y024712D02*
X017680Y024712D01*
X017680Y024553D02*
X016924Y024553D01*
X017065Y024395D02*
X017758Y024395D01*
X017860Y024236D02*
X017118Y024236D01*
X017112Y024078D02*
X017860Y024078D01*
X017860Y023919D02*
X017039Y023919D01*
X017000Y023761D02*
X017808Y023761D01*
X017649Y023602D02*
X017000Y023602D01*
X017000Y023444D02*
X017491Y023444D01*
X017377Y023285D02*
X017000Y023285D01*
X017680Y023180D02*
X017680Y022180D01*
X018180Y021680D01*
X018180Y020180D01*
X017957Y019798D02*
X017605Y019798D01*
X017618Y019640D02*
X018360Y019640D01*
X018360Y019481D02*
X017572Y019481D01*
X017442Y019323D02*
X018360Y019323D01*
X018360Y019164D02*
X016117Y019164D01*
X015958Y019006D02*
X018360Y019006D01*
X018360Y018847D02*
X015800Y018847D01*
X015641Y018689D02*
X018360Y018689D01*
X018360Y018530D02*
X015483Y018530D01*
X015324Y018372D02*
X018285Y018372D01*
X018242Y018213D02*
X015166Y018213D01*
X015007Y018055D02*
X018258Y018055D01*
X018344Y017896D02*
X014849Y017896D01*
X014690Y017738D02*
X020680Y017738D01*
X020680Y017887D02*
X020680Y017473D01*
X020973Y017180D01*
X020896Y017104D02*
X011464Y017104D01*
X011622Y016945D02*
X020738Y016945D01*
X020680Y016787D02*
X011680Y016787D01*
X011680Y016628D02*
X020680Y016628D01*
X020180Y016180D02*
X021680Y016180D01*
X022180Y015680D01*
X023002Y016311D02*
X023096Y016311D01*
X023160Y016153D02*
X023255Y016153D01*
X023319Y015994D02*
X023413Y015994D01*
X023477Y015836D02*
X023572Y015836D01*
X023636Y015677D02*
X023730Y015677D01*
X023794Y015519D02*
X023889Y015519D01*
X023953Y015360D02*
X024047Y015360D01*
X024111Y015202D02*
X024206Y015202D01*
X024270Y015043D02*
X024364Y015043D01*
X024428Y014885D02*
X024523Y014885D01*
X024587Y014726D02*
X024681Y014726D01*
X024745Y014568D02*
X024840Y014568D01*
X024904Y014409D02*
X024998Y014409D01*
X025062Y014251D02*
X025157Y014251D01*
X025221Y014092D02*
X025315Y014092D01*
X025379Y013934D02*
X025474Y013934D01*
X025487Y013775D02*
X025632Y013775D01*
X025500Y013617D02*
X025791Y013617D01*
X025949Y013458D02*
X025500Y013458D01*
X025500Y013300D02*
X026108Y013300D01*
X026266Y013141D02*
X025500Y013141D01*
X025500Y012983D02*
X026425Y012983D01*
X026680Y013180D02*
X022680Y017180D01*
X021680Y017180D01*
X021180Y017680D01*
X021513Y018055D02*
X021932Y018055D01*
X021998Y018120D02*
X021740Y017862D01*
X021740Y017680D01*
X022180Y017680D01*
X021680Y018180D01*
X019680Y018180D01*
X019118Y018213D02*
X020940Y018213D01*
X020973Y018180D02*
X020680Y017887D01*
X020689Y017896D02*
X019016Y017896D01*
X019102Y018055D02*
X020847Y018055D01*
X020973Y018180D02*
X021387Y018180D01*
X021680Y017887D01*
X021680Y017633D01*
X021740Y017573D01*
X021740Y017680D01*
X022180Y017680D01*
X023930Y017680D01*
X023930Y017240D01*
X024112Y017240D01*
X024360Y017488D01*
X024360Y016116D01*
X024409Y015999D01*
X024499Y015909D01*
X025909Y014499D01*
X025909Y014499D01*
X025999Y014409D01*
X026116Y014360D01*
X026640Y014360D01*
X026640Y013956D01*
X026916Y013680D01*
X026774Y013538D01*
X022951Y017361D01*
X022861Y017451D01*
X022744Y017500D01*
X022620Y017500D01*
X022620Y017680D01*
X022620Y017860D01*
X023490Y017860D01*
X023490Y017680D01*
X023930Y017680D01*
X023930Y017680D01*
X023930Y017680D01*
X023930Y017240D01*
X023748Y017240D01*
X023490Y017498D01*
X023490Y017680D01*
X023930Y017680D01*
X023930Y017579D02*
X023930Y017579D01*
X023930Y017421D02*
X023930Y017421D01*
X023930Y017262D02*
X023930Y017262D01*
X024134Y017262D02*
X024360Y017262D01*
X024360Y017104D02*
X023209Y017104D01*
X023051Y017262D02*
X023726Y017262D01*
X023567Y017421D02*
X022892Y017421D01*
X022620Y017579D02*
X023490Y017579D01*
X023490Y017738D02*
X022620Y017738D01*
X022620Y017680D02*
X022180Y017680D01*
X022180Y017680D01*
X022180Y018120D01*
X022287Y018120D01*
X022227Y018180D01*
X021973Y018180D01*
X021680Y018473D01*
X021680Y018860D01*
X021680Y018860D01*
X021680Y018473D01*
X021387Y018180D01*
X020973Y018180D01*
X020680Y018473D01*
X020680Y018887D01*
X020725Y018932D01*
X020659Y018999D01*
X020409Y019249D01*
X020360Y019366D01*
X020360Y021240D01*
X020180Y021240D01*
X020180Y021680D01*
X020180Y021680D01*
X020180Y022120D01*
X020360Y022120D01*
X020360Y022180D01*
X019973Y022180D01*
X019680Y022473D01*
X019680Y022887D01*
X019973Y023180D01*
X020227Y023180D01*
X020409Y023361D01*
X020499Y023451D01*
X020616Y023500D01*
X021280Y023500D01*
X021242Y023593D01*
X021242Y023767D01*
X021309Y023928D01*
X021432Y024051D01*
X021593Y024118D01*
X021767Y024118D01*
X021928Y024051D01*
X021980Y024000D01*
X023244Y024000D01*
X023361Y023951D01*
X025313Y022000D01*
X025488Y022000D01*
X025240Y022248D01*
X025240Y022430D01*
X025680Y022430D01*
X025680Y022430D01*
X026120Y022430D01*
X025680Y022430D01*
X025680Y022430D01*
X025680Y022430D01*
X025680Y022870D01*
X025498Y022870D01*
X025240Y022612D01*
X025240Y022430D01*
X025680Y022430D01*
X025680Y022493D02*
X025680Y022493D01*
X025680Y022651D02*
X025680Y022651D01*
X025680Y022810D02*
X025680Y022810D01*
X025923Y022810D02*
X027352Y022810D01*
X027194Y022651D02*
X026081Y022651D01*
X026120Y022493D02*
X027180Y022493D01*
X027180Y022334D02*
X026120Y022334D01*
X026048Y022176D02*
X027227Y022176D01*
X027386Y022017D02*
X025889Y022017D01*
X025471Y022017D02*
X025296Y022017D01*
X025312Y022176D02*
X025137Y022176D01*
X025240Y022334D02*
X024979Y022334D01*
X024820Y022493D02*
X025240Y022493D01*
X025279Y022651D02*
X024662Y022651D01*
X024503Y022810D02*
X025437Y022810D01*
X025475Y023240D02*
X025180Y023240D01*
X025180Y023680D01*
X028180Y023680D01*
X028180Y023680D01*
X028180Y024120D01*
X028475Y024120D01*
X028543Y024109D01*
X028609Y024088D01*
X028671Y024056D01*
X028727Y024016D01*
X028776Y023967D01*
X028816Y023911D01*
X028848Y023849D01*
X028869Y023783D01*
X028880Y023715D01*
X028880Y023680D01*
X028180Y023680D01*
X028180Y023680D01*
X028180Y024120D01*
X027885Y024120D01*
X027817Y024109D01*
X027751Y024088D01*
X027689Y024056D01*
X027633Y024016D01*
X027584Y023967D01*
X027544Y023911D01*
X027512Y023849D01*
X027491Y023783D01*
X027480Y023715D01*
X027480Y023680D01*
X028180Y023680D01*
X028880Y023680D01*
X028880Y023645D01*
X028869Y023577D01*
X028848Y023511D01*
X028816Y023449D01*
X028776Y023393D01*
X028727Y023344D01*
X028671Y023304D01*
X028609Y023272D01*
X028543Y023251D01*
X028475Y023240D01*
X028180Y023240D01*
X028180Y023680D01*
X028180Y023680D01*
X028180Y023680D01*
X028180Y023240D01*
X027885Y023240D01*
X027817Y023251D01*
X027751Y023272D01*
X027689Y023304D01*
X027633Y023344D01*
X027584Y023393D01*
X027544Y023449D01*
X027512Y023511D01*
X027491Y023577D01*
X027480Y023645D01*
X027480Y023680D01*
X028180Y023680D01*
X028180Y023602D02*
X028180Y023602D01*
X028180Y023444D02*
X028180Y023444D01*
X028180Y023285D02*
X028180Y023285D01*
X028634Y023285D02*
X031440Y023285D01*
X031440Y023127D02*
X024186Y023127D01*
X024028Y023285D02*
X024726Y023285D01*
X024751Y023272D02*
X024817Y023251D01*
X024885Y023240D01*
X025180Y023240D01*
X025180Y023680D01*
X025180Y023680D01*
X025180Y024120D01*
X025475Y024120D01*
X025543Y024109D01*
X025609Y024088D01*
X025671Y024056D01*
X025727Y024016D01*
X025776Y023967D01*
X025816Y023911D01*
X025848Y023849D01*
X025869Y023783D01*
X025880Y023715D01*
X025880Y023680D01*
X025180Y023680D01*
X025180Y023680D01*
X025180Y024120D01*
X024885Y024120D01*
X024817Y024109D01*
X024751Y024088D01*
X024689Y024056D01*
X024633Y024016D01*
X024584Y023967D01*
X024544Y023911D01*
X024512Y023849D01*
X024491Y023783D01*
X024480Y023715D01*
X024480Y023680D01*
X025180Y023680D01*
X025880Y023680D01*
X025880Y023645D01*
X025869Y023577D01*
X025848Y023511D01*
X025816Y023449D01*
X025776Y023393D01*
X025727Y023344D01*
X025671Y023304D01*
X025609Y023272D01*
X025543Y023251D01*
X025475Y023240D01*
X025634Y023285D02*
X027726Y023285D01*
X027548Y023444D02*
X025812Y023444D01*
X025873Y023602D02*
X027487Y023602D01*
X027487Y023761D02*
X025873Y023761D01*
X025810Y023919D02*
X027550Y023919D01*
X027731Y024078D02*
X025629Y024078D01*
X025539Y024180D02*
X025723Y024256D01*
X025864Y024397D01*
X025940Y024581D01*
X025940Y024779D01*
X025864Y024963D01*
X025723Y025104D01*
X025539Y025180D01*
X024821Y025180D01*
X024637Y025104D01*
X024496Y024963D01*
X024420Y024779D01*
X024420Y024581D01*
X024496Y024397D01*
X024637Y024256D01*
X024821Y024180D01*
X025539Y024180D01*
X025675Y024236D02*
X027685Y024236D01*
X027637Y024256D02*
X027821Y024180D01*
X028539Y024180D01*
X028723Y024256D01*
X028864Y024397D01*
X028940Y024581D01*
X028940Y024779D01*
X028864Y024963D01*
X028723Y025104D01*
X028539Y025180D01*
X028723Y025256D01*
X028864Y025397D01*
X028940Y025581D01*
X028940Y025779D01*
X028864Y025963D01*
X028723Y026104D01*
X028539Y026180D01*
X028723Y026256D01*
X028864Y026397D01*
X028940Y026581D01*
X028940Y026779D01*
X028864Y026963D01*
X028723Y027104D01*
X028539Y027180D01*
X027821Y027180D01*
X027637Y027104D01*
X027496Y026963D01*
X027420Y026779D01*
X027420Y026581D01*
X027496Y026397D01*
X027637Y026256D01*
X027821Y026180D01*
X028539Y026180D01*
X027821Y026180D01*
X027637Y026104D01*
X027496Y025963D01*
X027420Y025779D01*
X027420Y025581D01*
X027496Y025397D01*
X027637Y025256D01*
X027821Y025180D01*
X028539Y025180D01*
X027821Y025180D01*
X027637Y025104D01*
X027496Y024963D01*
X027420Y024779D01*
X027420Y024581D01*
X027496Y024397D01*
X027637Y024256D01*
X027498Y024395D02*
X025862Y024395D01*
X025929Y024553D02*
X027431Y024553D01*
X027420Y024712D02*
X025940Y024712D01*
X025902Y024870D02*
X027458Y024870D01*
X027561Y025029D02*
X025799Y025029D01*
X025723Y025256D02*
X025539Y025180D01*
X024821Y025180D01*
X024637Y025256D01*
X024496Y025397D01*
X024420Y025581D01*
X024420Y025779D01*
X024496Y025963D01*
X024637Y026104D01*
X024821Y026180D01*
X025539Y026180D01*
X025723Y026104D01*
X025864Y025963D01*
X025940Y025779D01*
X025940Y025581D01*
X025864Y025397D01*
X025723Y025256D01*
X025813Y025346D02*
X027547Y025346D01*
X027452Y025504D02*
X025908Y025504D01*
X025940Y025663D02*
X027420Y025663D01*
X027437Y025821D02*
X025923Y025821D01*
X025848Y025980D02*
X027512Y025980D01*
X027719Y026138D02*
X025641Y026138D01*
X025539Y026180D02*
X025723Y026256D01*
X025864Y026397D01*
X025940Y026581D01*
X025940Y026779D01*
X025864Y026963D01*
X025723Y027104D01*
X025539Y027180D01*
X024821Y027180D01*
X024637Y027104D01*
X024496Y026963D01*
X024420Y026779D01*
X024420Y026581D01*
X024496Y026397D01*
X024637Y026256D01*
X024821Y026180D01*
X025539Y026180D01*
X025764Y026297D02*
X027596Y026297D01*
X027472Y026455D02*
X025888Y026455D01*
X025940Y026614D02*
X027420Y026614D01*
X027420Y026772D02*
X025940Y026772D01*
X025877Y026931D02*
X027483Y026931D01*
X027622Y027089D02*
X025738Y027089D01*
X024719Y026138D02*
X023610Y026138D01*
X023610Y025980D02*
X024512Y025980D01*
X024437Y025821D02*
X023610Y025821D01*
X023610Y025663D02*
X024420Y025663D01*
X024452Y025504D02*
X023610Y025504D01*
X023610Y025493D02*
X023610Y026307D01*
X023528Y026506D01*
X023376Y026658D01*
X023177Y026740D01*
X022963Y026740D01*
X022764Y026658D01*
X022612Y026506D01*
X022530Y026307D01*
X022530Y025493D01*
X022612Y025294D01*
X022764Y025142D01*
X022963Y025060D01*
X023177Y025060D01*
X023376Y025142D01*
X023528Y025294D01*
X023610Y025493D01*
X023549Y025346D02*
X024547Y025346D01*
X024804Y025187D02*
X023421Y025187D01*
X022719Y025187D02*
X021641Y025187D01*
X021769Y025346D02*
X022591Y025346D01*
X022530Y025504D02*
X021830Y025504D01*
X021830Y025663D02*
X022530Y025663D01*
X022530Y025821D02*
X021830Y025821D01*
X021830Y025980D02*
X022530Y025980D01*
X022530Y026138D02*
X021830Y026138D01*
X021830Y026297D02*
X022530Y026297D01*
X022591Y026455D02*
X021769Y026455D01*
X021640Y026614D02*
X022720Y026614D01*
X023420Y026614D02*
X024420Y026614D01*
X024420Y026772D02*
X021610Y026772D01*
X021610Y026931D02*
X024483Y026931D01*
X024622Y027089D02*
X021610Y027089D01*
X021610Y027248D02*
X031440Y027248D01*
X031440Y027406D02*
X021610Y027406D01*
X021610Y027565D02*
X031440Y027565D01*
X031440Y027723D02*
X023397Y027723D01*
X023376Y027702D02*
X023528Y027854D01*
X023610Y028053D01*
X023610Y028867D01*
X023528Y029066D01*
X023376Y029218D01*
X023177Y029300D01*
X022963Y029300D01*
X022764Y029218D01*
X022612Y029066D01*
X022530Y028867D01*
X022530Y028053D01*
X022612Y027854D01*
X022764Y027702D01*
X022963Y027620D01*
X023177Y027620D01*
X023376Y027702D01*
X023539Y027882D02*
X029437Y027882D01*
X029145Y028040D02*
X023605Y028040D01*
X023610Y028199D02*
X028987Y028199D01*
X028915Y028357D02*
X023610Y028357D01*
X023610Y028516D02*
X028849Y028516D01*
X028849Y028674D02*
X023610Y028674D01*
X023610Y028833D02*
X028849Y028833D01*
X028910Y028991D02*
X023559Y028991D01*
X023444Y029150D02*
X028976Y029150D01*
X029951Y029467D02*
X031417Y029467D01*
X031437Y029308D02*
X030227Y029308D01*
X030384Y029150D02*
X031440Y029150D01*
X031440Y028991D02*
X030450Y028991D01*
X030511Y028833D02*
X031440Y028833D01*
X031440Y028674D02*
X030511Y028674D01*
X030511Y028516D02*
X031440Y028516D01*
X031440Y028357D02*
X030445Y028357D01*
X030373Y028199D02*
X031440Y028199D01*
X031440Y028040D02*
X030215Y028040D01*
X029923Y027882D02*
X031440Y027882D01*
X031440Y027089D02*
X028738Y027089D01*
X028877Y026931D02*
X031440Y026931D01*
X031440Y026772D02*
X028940Y026772D01*
X028940Y026614D02*
X031440Y026614D01*
X031440Y026455D02*
X028888Y026455D01*
X028764Y026297D02*
X031440Y026297D01*
X031440Y026138D02*
X028641Y026138D01*
X028848Y025980D02*
X031440Y025980D01*
X031440Y025821D02*
X028923Y025821D01*
X028940Y025663D02*
X031440Y025663D01*
X031440Y025504D02*
X028908Y025504D01*
X028813Y025346D02*
X031440Y025346D01*
X031440Y025187D02*
X028556Y025187D01*
X028799Y025029D02*
X031440Y025029D01*
X031440Y024870D02*
X028902Y024870D01*
X028940Y024712D02*
X031440Y024712D01*
X031440Y024553D02*
X028929Y024553D01*
X028862Y024395D02*
X031440Y024395D01*
X031440Y024236D02*
X028675Y024236D01*
X028629Y024078D02*
X031440Y024078D01*
X031440Y023919D02*
X028810Y023919D01*
X028873Y023761D02*
X031440Y023761D01*
X031440Y023602D02*
X028873Y023602D01*
X028812Y023444D02*
X031440Y023444D01*
X031440Y022968D02*
X024345Y022968D01*
X024633Y023344D02*
X024689Y023304D01*
X024751Y023272D01*
X024633Y023344D02*
X024584Y023393D01*
X024544Y023449D01*
X024512Y023511D01*
X024491Y023577D01*
X024480Y023645D01*
X024480Y023680D01*
X025180Y023680D01*
X025180Y023680D01*
X025180Y023680D01*
X025180Y023602D02*
X025180Y023602D01*
X025180Y023444D02*
X025180Y023444D01*
X025180Y023285D02*
X025180Y023285D01*
X025180Y023761D02*
X025180Y023761D01*
X025180Y023919D02*
X025180Y023919D01*
X025180Y024078D02*
X025180Y024078D01*
X024731Y024078D02*
X021865Y024078D01*
X021495Y024078D02*
X019484Y024078D01*
X019500Y024236D02*
X024685Y024236D01*
X024498Y024395D02*
X020517Y024395D01*
X020620Y024553D02*
X024431Y024553D01*
X024420Y024712D02*
X020620Y024712D01*
X020612Y024870D02*
X024458Y024870D01*
X024561Y025029D02*
X020454Y025029D01*
X020939Y025187D02*
X019500Y025187D01*
X019500Y025029D02*
X019906Y025029D01*
X019748Y024870D02*
X019500Y024870D01*
X019500Y024712D02*
X019740Y024712D01*
X019740Y024553D02*
X019500Y024553D01*
X019500Y024395D02*
X019843Y024395D01*
X019372Y023919D02*
X021305Y023919D01*
X021242Y023761D02*
X019213Y023761D01*
X019055Y023602D02*
X021242Y023602D01*
X021680Y023680D02*
X023180Y023680D01*
X025180Y021680D01*
X027680Y021680D01*
X028680Y020680D01*
X028680Y019680D01*
X028180Y019180D01*
X028611Y018847D02*
X031440Y018847D01*
X031440Y018689D02*
X028452Y018689D01*
X028594Y018530D02*
X031440Y018530D01*
X031440Y018372D02*
X028720Y018372D01*
X028720Y018213D02*
X031440Y018213D01*
X031440Y018055D02*
X028720Y018055D01*
X028660Y017896D02*
X031440Y017896D01*
X031440Y017738D02*
X028501Y017738D01*
X028545Y017579D02*
X031440Y017579D01*
X031440Y017421D02*
X028703Y017421D01*
X028720Y017262D02*
X031440Y017262D01*
X031440Y017104D02*
X028720Y017104D01*
X028709Y016945D02*
X031440Y016945D01*
X031440Y016787D02*
X028550Y016787D01*
X028496Y016628D02*
X031440Y016628D01*
X031440Y016470D02*
X028654Y016470D01*
X028720Y016311D02*
X031440Y016311D01*
X031440Y016153D02*
X028720Y016153D01*
X028720Y015994D02*
X031440Y015994D01*
X031440Y015836D02*
X028599Y015836D01*
X028447Y015677D02*
X031440Y015677D01*
X031440Y015519D02*
X028605Y015519D01*
X028720Y015360D02*
X031440Y015360D01*
X031440Y015202D02*
X028720Y015202D01*
X028720Y015043D02*
X031440Y015043D01*
X031440Y014885D02*
X028648Y014885D01*
X028490Y014726D02*
X031440Y014726D01*
X031440Y014568D02*
X028556Y014568D01*
X028715Y014409D02*
X031440Y014409D01*
X031440Y014251D02*
X028720Y014251D01*
X028720Y014092D02*
X031440Y014092D01*
X031440Y013934D02*
X028697Y013934D01*
X028539Y013775D02*
X031440Y013775D01*
X031440Y013617D02*
X028507Y013617D01*
X028666Y013458D02*
X031440Y013458D01*
X031440Y013300D02*
X028720Y013300D01*
X028720Y013141D02*
X031440Y013141D01*
X031440Y012983D02*
X028720Y012983D01*
X028588Y012824D02*
X031440Y012824D01*
X031440Y012666D02*
X028429Y012666D01*
X027931Y012666D02*
X027429Y012666D01*
X027588Y012824D02*
X027772Y012824D01*
X027180Y013180D02*
X026680Y013180D01*
X026772Y012824D02*
X025500Y012824D01*
X025500Y012666D02*
X026931Y012666D01*
X026853Y013617D02*
X026696Y013617D01*
X026821Y013775D02*
X026538Y013775D01*
X026663Y013934D02*
X026379Y013934D01*
X026221Y014092D02*
X026640Y014092D01*
X026640Y014251D02*
X026062Y014251D01*
X025998Y014409D02*
X025904Y014409D01*
X025840Y014568D02*
X025745Y014568D01*
X025681Y014726D02*
X025587Y014726D01*
X025523Y014885D02*
X025428Y014885D01*
X025364Y015043D02*
X025270Y015043D01*
X025206Y015202D02*
X025111Y015202D01*
X025047Y015360D02*
X024953Y015360D01*
X024889Y015519D02*
X024794Y015519D01*
X024730Y015677D02*
X024636Y015677D01*
X024572Y015836D02*
X024477Y015836D01*
X024499Y015909D02*
X024499Y015909D01*
X024413Y015994D02*
X024319Y015994D01*
X024360Y016153D02*
X024160Y016153D01*
X024002Y016311D02*
X024360Y016311D01*
X024360Y016470D02*
X023843Y016470D01*
X023685Y016628D02*
X024360Y016628D01*
X024360Y016787D02*
X023526Y016787D01*
X023368Y016945D02*
X024360Y016945D01*
X024360Y017421D02*
X024293Y017421D01*
X024680Y017805D02*
X024305Y018180D01*
X022680Y018180D01*
X022180Y018680D01*
X021781Y018372D02*
X021579Y018372D01*
X021680Y018530D02*
X021680Y018530D01*
X021680Y018689D02*
X021680Y018689D01*
X021680Y018847D02*
X021680Y018847D01*
X021420Y018213D02*
X021940Y018213D01*
X021998Y018120D02*
X022180Y018120D01*
X022180Y017680D01*
X022180Y017680D01*
X022180Y017680D01*
X022620Y017680D01*
X022180Y017738D02*
X022180Y017738D01*
X022180Y017896D02*
X022180Y017896D01*
X022180Y018055D02*
X022180Y018055D01*
X021774Y017896D02*
X021671Y017896D01*
X021680Y017738D02*
X021740Y017738D01*
X021734Y017579D02*
X021740Y017579D01*
X022180Y016680D02*
X025180Y013680D01*
X025180Y007180D01*
X024180Y007180D02*
X023680Y007680D01*
X023680Y013180D01*
X022680Y014180D01*
X021680Y014180D01*
X021180Y014680D01*
X020793Y015360D02*
X011567Y015360D01*
X011680Y015519D02*
X020680Y015519D01*
X020680Y015677D02*
X011680Y015677D01*
X011680Y015836D02*
X019905Y015836D01*
X019783Y015994D02*
X011573Y015994D01*
X011415Y016153D02*
X019742Y016153D01*
X019760Y016311D02*
X011518Y016311D01*
X011677Y016470D02*
X019850Y016470D01*
X020455Y015836D02*
X020680Y015836D01*
X020732Y017421D02*
X014540Y017421D01*
X014612Y017579D02*
X020680Y017579D01*
X020781Y018372D02*
X019075Y018372D01*
X019000Y018530D02*
X020680Y018530D01*
X020680Y018689D02*
X019000Y018689D01*
X019000Y018847D02*
X020680Y018847D01*
X020652Y019006D02*
X019000Y019006D01*
X019000Y019164D02*
X020493Y019164D01*
X020378Y019323D02*
X019000Y019323D01*
X019000Y019481D02*
X020360Y019481D01*
X020360Y019640D02*
X019000Y019640D01*
X019000Y019798D02*
X020360Y019798D01*
X020360Y019957D02*
X019000Y019957D01*
X019000Y020115D02*
X020360Y020115D01*
X020360Y020274D02*
X019000Y020274D01*
X019000Y020432D02*
X020360Y020432D01*
X020360Y020591D02*
X019000Y020591D01*
X019000Y020749D02*
X020360Y020749D01*
X020360Y020908D02*
X019000Y020908D01*
X019000Y021066D02*
X020360Y021066D01*
X020360Y021225D02*
X019432Y021225D01*
X019590Y021383D02*
X019855Y021383D01*
X019740Y021498D02*
X019998Y021240D01*
X020180Y021240D01*
X020180Y021680D01*
X020180Y021680D01*
X020180Y021680D01*
X019740Y021680D01*
X019740Y021862D01*
X019998Y022120D01*
X020180Y022120D01*
X020180Y021680D01*
X019740Y021680D01*
X019740Y021498D01*
X019740Y021542D02*
X019680Y021542D01*
X019680Y021700D02*
X019740Y021700D01*
X019740Y021859D02*
X019680Y021859D01*
X019550Y022017D02*
X019895Y022017D01*
X020180Y022017D02*
X020180Y022017D01*
X020180Y021859D02*
X020180Y021859D01*
X020180Y021700D02*
X020180Y021700D01*
X020180Y021542D02*
X020180Y021542D01*
X020180Y021383D02*
X020180Y021383D01*
X020360Y022176D02*
X019392Y022176D01*
X019387Y022180D02*
X019000Y022180D01*
X019387Y022180D01*
X019541Y022334D02*
X019819Y022334D01*
X019680Y022493D02*
X019680Y022493D01*
X019680Y022651D02*
X019680Y022651D01*
X019680Y022810D02*
X019680Y022810D01*
X019599Y022968D02*
X019761Y022968D01*
X019919Y023127D02*
X019441Y023127D01*
X019000Y023285D02*
X020332Y023285D01*
X020491Y023444D02*
X019000Y023444D01*
X018680Y023680D02*
X018680Y018180D01*
X017180Y019680D02*
X016680Y020180D01*
X016680Y024180D01*
X017680Y023180D02*
X018180Y023680D01*
X018180Y024680D01*
X018539Y025029D02*
X018860Y025029D01*
X018860Y024870D02*
X018680Y024870D01*
X018680Y024712D02*
X018860Y024712D01*
X018860Y024553D02*
X018680Y024553D01*
X018602Y024395D02*
X018860Y024395D01*
X018783Y024236D02*
X018500Y024236D01*
X018500Y024078D02*
X018625Y024078D01*
X018680Y023680D02*
X019180Y024180D01*
X019180Y025680D01*
X019581Y025504D02*
X019740Y025504D01*
X019740Y025663D02*
X019618Y025663D01*
X019596Y025821D02*
X019740Y025821D01*
X019857Y025980D02*
X019500Y025980D01*
X019500Y025346D02*
X019892Y025346D01*
X020871Y026772D02*
X020970Y026772D01*
X020970Y026931D02*
X020712Y026931D01*
X020617Y027089D02*
X020970Y027089D01*
X020970Y027248D02*
X020618Y027248D01*
X020561Y027406D02*
X020970Y027406D01*
X020970Y027565D02*
X020396Y027565D01*
X020821Y027882D02*
X017637Y027882D01*
X017703Y028040D02*
X020755Y028040D01*
X020963Y027723D02*
X017480Y027723D01*
X017555Y027565D02*
X019964Y027565D01*
X020180Y027180D02*
X017180Y027180D01*
X016756Y028516D02*
X016604Y028516D01*
X016390Y028674D02*
X016970Y028674D01*
X015970Y028674D02*
X015390Y028674D01*
X015604Y028516D02*
X015756Y028516D01*
X020418Y029150D02*
X020916Y029150D01*
X020801Y028991D02*
X020576Y028991D01*
X020680Y028833D02*
X020750Y028833D01*
X021664Y029150D02*
X022696Y029150D01*
X022581Y028991D02*
X021779Y028991D01*
X021830Y028833D02*
X022530Y028833D01*
X022530Y028674D02*
X021830Y028674D01*
X021830Y028516D02*
X022530Y028516D01*
X022530Y028357D02*
X021830Y028357D01*
X021830Y028199D02*
X022530Y028199D01*
X022535Y028040D02*
X021825Y028040D01*
X021759Y027882D02*
X022601Y027882D01*
X022743Y027723D02*
X021617Y027723D01*
X023549Y026455D02*
X024472Y026455D01*
X024596Y026297D02*
X023610Y026297D01*
X025556Y025187D02*
X027804Y025187D01*
X028180Y024078D02*
X028180Y024078D01*
X028180Y023919D02*
X028180Y023919D01*
X028180Y023761D02*
X028180Y023761D01*
X028008Y022810D02*
X031440Y022810D01*
X031440Y022651D02*
X028166Y022651D01*
X028180Y022493D02*
X031440Y022493D01*
X031440Y022334D02*
X028180Y022334D01*
X028133Y022176D02*
X031440Y022176D01*
X031440Y022017D02*
X027974Y022017D01*
X027954Y021859D02*
X031440Y021859D01*
X031440Y021700D02*
X028113Y021700D01*
X028271Y021542D02*
X031440Y021542D01*
X031440Y021383D02*
X028430Y021383D01*
X028588Y021225D02*
X031440Y021225D01*
X031440Y021066D02*
X028747Y021066D01*
X028905Y020908D02*
X031440Y020908D01*
X031440Y020749D02*
X028998Y020749D01*
X029000Y020591D02*
X031440Y020591D01*
X031440Y020432D02*
X029000Y020432D01*
X029000Y020274D02*
X031440Y020274D01*
X031440Y020115D02*
X029000Y020115D01*
X029000Y019957D02*
X031440Y019957D01*
X031440Y019798D02*
X029000Y019798D01*
X029000Y019640D02*
X031440Y019640D01*
X031440Y019481D02*
X028934Y019481D01*
X028775Y019323D02*
X031440Y019323D01*
X031440Y019164D02*
X028720Y019164D01*
X028720Y019006D02*
X031440Y019006D01*
X028180Y016180D02*
X027680Y016680D01*
X026680Y016680D01*
X026180Y017180D01*
X026180Y019180D01*
X023680Y021680D01*
X022180Y021680D01*
X021680Y021180D02*
X021180Y021680D01*
X021680Y021180D02*
X023680Y021180D01*
X025680Y019180D01*
X025680Y018180D01*
X025180Y018305D02*
X024555Y018930D01*
X023430Y018930D01*
X023180Y019180D01*
X023180Y019680D01*
X022680Y020180D01*
X021680Y020180D01*
X021180Y020680D01*
X020680Y019430D02*
X020930Y019180D01*
X022555Y019180D01*
X022930Y018805D01*
X024680Y017805D02*
X024680Y016180D01*
X026180Y014680D01*
X027680Y014680D01*
X028180Y014180D01*
X027180Y015180D02*
X026680Y015180D01*
X025180Y016680D01*
X025180Y018305D01*
X026555Y018805D02*
X026555Y019305D01*
X023180Y022680D01*
X022180Y022680D01*
X021180Y022680D02*
X020680Y022180D01*
X020680Y019430D01*
X017798Y019957D02*
X017523Y019957D01*
X017742Y020115D02*
X017275Y020115D01*
X017039Y020274D02*
X017745Y020274D01*
X017812Y020432D02*
X017000Y020432D01*
X017000Y020591D02*
X017860Y020591D01*
X017860Y020749D02*
X017000Y020749D01*
X017000Y020908D02*
X017860Y020908D01*
X017860Y021066D02*
X017000Y021066D01*
X016360Y021066D02*
X011501Y021066D01*
X011660Y020908D02*
X016360Y020908D01*
X016360Y020749D02*
X011680Y020749D01*
X011680Y020591D02*
X016360Y020591D01*
X016360Y020432D02*
X011639Y020432D01*
X011481Y020274D02*
X016360Y020274D01*
X016361Y020115D02*
X016275Y020115D01*
X016085Y020115D02*
X011452Y020115D01*
X011387Y020180D02*
X011133Y020180D01*
X011133Y020180D01*
X011387Y020180D01*
X011611Y019957D02*
X015837Y019957D01*
X015755Y019798D02*
X011680Y019798D01*
X011680Y019640D02*
X015687Y019640D01*
X015528Y019481D02*
X011680Y019481D01*
X011530Y019323D02*
X015370Y019323D01*
X015211Y019164D02*
X011403Y019164D01*
X011562Y019006D02*
X015053Y019006D01*
X016180Y019680D02*
X014180Y017680D01*
X016442Y019323D02*
X016918Y019323D01*
X016788Y019481D02*
X016572Y019481D01*
X016618Y019640D02*
X016742Y019640D01*
X016609Y019798D02*
X016605Y019798D01*
X015928Y021225D02*
X015432Y021225D01*
X015590Y021383D02*
X015770Y021383D01*
X015680Y021542D02*
X015680Y021542D01*
X015680Y021700D02*
X015680Y021700D01*
X015680Y021859D02*
X015680Y021859D01*
X015550Y022017D02*
X015810Y022017D01*
X015180Y021680D02*
X014680Y022180D01*
X014432Y021225D02*
X014928Y021225D01*
X013928Y021225D02*
X013432Y021225D01*
X012928Y021225D02*
X012432Y021225D01*
X011928Y021225D02*
X010432Y021225D01*
X010660Y020908D02*
X010700Y020908D01*
X010680Y020887D02*
X010680Y020500D01*
X010680Y020500D01*
X010680Y020887D01*
X010680Y020749D02*
X010680Y020749D01*
X010680Y020591D02*
X010680Y020591D01*
X010180Y019680D02*
X007180Y019680D01*
X006649Y019164D02*
X007930Y019164D01*
X007930Y019006D02*
X006807Y019006D01*
X006966Y018847D02*
X008056Y018847D01*
X008214Y018689D02*
X007124Y018689D01*
X007283Y018530D02*
X009680Y018530D01*
X009680Y018689D02*
X008646Y018689D01*
X008804Y018847D02*
X009680Y018847D01*
X009798Y019006D02*
X008930Y019006D01*
X008930Y019164D02*
X009957Y019164D01*
X009830Y019323D02*
X008930Y019323D01*
X007930Y019323D02*
X006490Y019323D01*
X007441Y018372D02*
X009781Y018372D01*
X009940Y018213D02*
X007600Y018213D01*
X007758Y018055D02*
X009847Y018055D01*
X010180Y017680D02*
X007680Y017680D01*
X010180Y015043D02*
X010180Y015043D01*
X010180Y014885D02*
X010180Y014885D01*
X010180Y014726D02*
X010180Y014726D01*
X010620Y014726D02*
X010680Y014726D01*
X010680Y014885D02*
X010598Y014885D01*
X009762Y014885D02*
X009098Y014885D01*
X009120Y014726D02*
X009740Y014726D01*
X009740Y014568D02*
X009120Y014568D01*
X010680Y013180D02*
X010680Y012430D01*
X010430Y012180D01*
X009930Y012180D01*
X010680Y013180D02*
X011180Y013680D01*
X011180Y012680D02*
X011180Y012430D01*
X017180Y011680D02*
X017680Y011180D01*
X017680Y011633D02*
X017680Y011633D01*
X017680Y011887D01*
X017680Y011633D01*
X017680Y011715D02*
X017680Y011715D01*
X017680Y011873D02*
X017680Y011873D01*
X017536Y012032D02*
X017824Y012032D01*
X018180Y011680D02*
X018680Y011180D01*
X018680Y011633D02*
X018680Y011633D01*
X018680Y011887D01*
X018680Y011633D01*
X018680Y011715D02*
X018680Y011715D01*
X018680Y011873D02*
X018680Y011873D01*
X018536Y012032D02*
X018824Y012032D01*
X021665Y013458D02*
X021695Y013458D01*
X021680Y013617D02*
X021680Y013617D01*
X021680Y013775D02*
X021680Y013775D01*
X022843Y016470D02*
X022938Y016470D01*
X022779Y016628D02*
X022685Y016628D01*
X026555Y018805D02*
X027180Y018180D01*
X027680Y017680D02*
X027180Y017180D01*
X027680Y017680D02*
X027680Y020680D01*
X027180Y021180D01*
X025180Y021180D01*
X023180Y023180D01*
X020680Y023180D01*
X020180Y022680D01*
X019000Y022180D02*
X019000Y022180D01*
X017770Y021383D02*
X017590Y021383D01*
X017680Y021473D02*
X017680Y021727D01*
X017680Y021727D01*
X017680Y021473D01*
X017680Y021542D02*
X017680Y021542D01*
X017680Y021700D02*
X017680Y021700D01*
X017860Y021225D02*
X017432Y021225D01*
X023394Y023919D02*
X024550Y023919D01*
X024487Y023761D02*
X023552Y023761D01*
X023711Y023602D02*
X024487Y023602D01*
X024548Y023444D02*
X023869Y023444D01*
X030465Y030418D02*
X003045Y030418D01*
X002611Y030259D02*
X030874Y030259D01*
X031077Y030101D02*
X002382Y030101D01*
X002224Y029942D02*
X031220Y029942D01*
X031311Y029784D02*
X002121Y029784D01*
X002030Y029625D02*
X031375Y029625D01*
X031440Y012507D02*
X025500Y012507D01*
X025500Y012349D02*
X031440Y012349D01*
X031440Y012190D02*
X025500Y012190D01*
X025500Y012032D02*
X031440Y012032D01*
X031440Y011873D02*
X025500Y011873D01*
X025500Y011715D02*
X031440Y011715D01*
X031440Y011556D02*
X025500Y011556D01*
X025500Y011398D02*
X031440Y011398D01*
X031440Y011239D02*
X025500Y011239D01*
X025500Y011081D02*
X031440Y011081D01*
X031440Y010922D02*
X025500Y010922D01*
X025500Y010764D02*
X031440Y010764D01*
X024905Y005692D02*
X024455Y005692D01*
X024614Y005850D02*
X024746Y005850D01*
D20*
X020180Y016180D03*
X018680Y018180D03*
X017180Y019680D03*
X016180Y019680D03*
X018180Y020180D03*
X021680Y023680D03*
X022180Y022680D03*
X019180Y025680D03*
X020180Y027180D03*
X016680Y024180D03*
X014180Y025680D03*
X014180Y017680D03*
X009680Y010680D03*
X006805Y008805D03*
X006305Y008805D03*
X022930Y018805D03*
X025680Y018180D03*
D21*
X006805Y008805D02*
X005680Y008805D01*
X005555Y008930D01*
X005930Y010430D02*
X006430Y010430D01*
D22*
X006310Y010310D02*
X005361Y010310D01*
M02*
