G75*
G70*
%OFA0B0*%
%FSLAX24Y24*%
%IPPOS*%
%LPD*%
%AMOC8*
5,1,8,0,0,1.08239X$1,22.5*
%
%ADD10C,0.1261*%
%ADD11C,0.0674*%
%ADD12C,0.0600*%
%ADD13C,0.0680*%
%ADD14OC8,0.0600*%
%ADD15R,0.1064X0.0867*%
%ADD16R,0.1379X0.0867*%
%ADD17R,0.1300X0.0277*%
%ADD18C,0.0434*%
%ADD19C,0.0680*%
%ADD20OC8,0.0680*%
D10*
X003680Y004680D03*
X003680Y028680D03*
X029680Y028680D03*
X029680Y004680D03*
D11*
X017180Y027180D03*
X017180Y028180D03*
X016180Y028180D03*
X016180Y027180D03*
X015180Y027180D03*
X015180Y028180D03*
X014180Y028180D03*
X014180Y027180D03*
X013180Y027180D03*
X013180Y028180D03*
D12*
X024920Y026680D02*
X025440Y026680D01*
X025440Y025680D02*
X024920Y025680D01*
X024920Y024680D02*
X025440Y024680D01*
X025440Y023680D02*
X024920Y023680D01*
X027920Y023680D02*
X028440Y023680D01*
X028440Y024680D02*
X027920Y024680D01*
X027920Y025680D02*
X028440Y025680D01*
X028440Y026680D02*
X027920Y026680D01*
D13*
X023070Y026200D02*
X023070Y025600D01*
X021290Y025600D02*
X021290Y026200D01*
X021290Y028160D02*
X021290Y028760D01*
X023070Y028760D02*
X023070Y028160D01*
D14*
X020180Y028680D03*
X020180Y025680D03*
X020180Y024680D03*
X020180Y022680D03*
X020180Y021680D03*
X019180Y021680D03*
X019180Y022680D03*
X018180Y022680D03*
X018180Y021680D03*
X017180Y021680D03*
X017180Y022680D03*
X016180Y022680D03*
X016180Y021680D03*
X015180Y021680D03*
X015180Y022680D03*
X014180Y022680D03*
X014180Y021680D03*
X013180Y021680D03*
X013180Y022680D03*
X012180Y022680D03*
X012180Y021680D03*
X011180Y021680D03*
X011180Y020680D03*
X011180Y019680D03*
X011180Y018680D03*
X011180Y017680D03*
X011180Y016680D03*
X011180Y015680D03*
X011180Y014680D03*
X011180Y013680D03*
X011180Y012680D03*
X011180Y011680D03*
X011180Y010680D03*
X012180Y010680D03*
X012180Y011680D03*
X013180Y011680D03*
X013180Y010680D03*
X014180Y010680D03*
X014180Y011680D03*
X015180Y011680D03*
X015180Y010680D03*
X016180Y010680D03*
X016180Y011680D03*
X017180Y011680D03*
X017180Y010680D03*
X018180Y010680D03*
X018180Y011680D03*
X019180Y011680D03*
X019180Y010680D03*
X020180Y010680D03*
X020180Y011680D03*
X021180Y011680D03*
X021180Y010680D03*
X022180Y011680D03*
X022180Y012680D03*
X022180Y013680D03*
X022180Y014680D03*
X022180Y015680D03*
X022180Y016680D03*
X022180Y017680D03*
X022180Y018680D03*
X022180Y019680D03*
X022180Y020680D03*
X022180Y021680D03*
X021180Y021680D03*
X021180Y020680D03*
X021180Y019680D03*
X021180Y018680D03*
X021180Y017680D03*
X021180Y016680D03*
X021180Y015680D03*
X021180Y014680D03*
X021180Y013680D03*
X021180Y012680D03*
X021180Y008930D03*
X019180Y008930D03*
X016180Y008930D03*
X014180Y008930D03*
X013180Y008930D03*
X011180Y008930D03*
X010180Y011680D03*
X010180Y012680D03*
X010180Y013680D03*
X010180Y014680D03*
X010180Y015680D03*
X010180Y016680D03*
X010180Y017680D03*
X010180Y018680D03*
X010180Y019680D03*
X010180Y020680D03*
X010180Y021680D03*
X011180Y022680D03*
X013180Y024430D03*
X015180Y024430D03*
X018180Y024680D03*
X021180Y022680D03*
X023930Y019680D03*
X023930Y017680D03*
X025680Y022430D03*
X027680Y022430D03*
X008680Y014680D03*
X008680Y012680D03*
X008430Y019180D03*
X008430Y021180D03*
D15*
X002999Y011432D03*
X002999Y007928D03*
D16*
X005322Y007928D03*
X005322Y011432D03*
D17*
X005361Y010310D03*
X005361Y009995D03*
X005361Y009680D03*
X005361Y009365D03*
X005361Y009050D03*
D18*
X004180Y008814D03*
X004180Y010546D03*
D19*
X028180Y008180D03*
D20*
X028180Y009180D03*
X028180Y010180D03*
X027180Y010180D03*
X027180Y009180D03*
X027180Y008180D03*
X025180Y007180D03*
X025180Y006180D03*
X024180Y006180D03*
X024180Y007180D03*
X023180Y007180D03*
X023180Y006180D03*
X022180Y006180D03*
X022180Y007180D03*
X021180Y007180D03*
X021180Y006180D03*
X020180Y006180D03*
X020180Y007180D03*
X019180Y007180D03*
X019180Y006180D03*
X018180Y006180D03*
X018180Y007180D03*
X015180Y007180D03*
X015180Y006180D03*
X014180Y006180D03*
X014180Y007180D03*
X013180Y007180D03*
X013180Y006180D03*
X012180Y006180D03*
X012180Y007180D03*
X011180Y007180D03*
X011180Y006180D03*
X010180Y006180D03*
X010180Y007180D03*
X009180Y007180D03*
X009180Y006180D03*
X008180Y006180D03*
X008180Y007180D03*
X005680Y018680D03*
X005680Y019680D03*
X005680Y020680D03*
X005680Y021680D03*
X005680Y022680D03*
X005680Y023680D03*
X005680Y024680D03*
X005680Y025680D03*
X004680Y025680D03*
X004680Y024680D03*
X004680Y023680D03*
X004680Y022680D03*
X004680Y021680D03*
X004680Y020680D03*
X004680Y019680D03*
X004680Y018680D03*
X027180Y018180D03*
X027180Y017180D03*
X027180Y016180D03*
X027180Y015180D03*
X027180Y014180D03*
X027180Y013180D03*
X028180Y013180D03*
X028180Y014180D03*
X028180Y015180D03*
X028180Y016180D03*
X028180Y017180D03*
X028180Y018180D03*
X028180Y019180D03*
X028180Y020180D03*
X027180Y020180D03*
X027180Y019180D03*
M02*
