G75*
G70*
%OFA0B0*%
%FSLAX24Y24*%
%IPPOS*%
%LPD*%
%AMOC8*
5,1,8,0,0,1.08239X$1,22.5*
%
%ADD10C,0.0594*%
%ADD11C,0.0520*%
%ADD12C,0.0600*%
%ADD13OC8,0.0520*%
%ADD14C,0.0600*%
%ADD15OC8,0.0600*%
%ADD16C,0.0160*%
%ADD17C,0.0396*%
D10*
X013180Y027180D03*
X013180Y028180D03*
X014180Y028180D03*
X014180Y027180D03*
X015180Y027180D03*
X015180Y028180D03*
X016180Y028180D03*
X016180Y027180D03*
X017180Y027180D03*
X017180Y028180D03*
D11*
X024920Y026680D02*
X025440Y026680D01*
X025440Y025680D02*
X024920Y025680D01*
X024920Y024680D02*
X025440Y024680D01*
X025440Y023680D02*
X024920Y023680D01*
X027920Y023680D02*
X028440Y023680D01*
X028440Y024680D02*
X027920Y024680D01*
X027920Y025680D02*
X028440Y025680D01*
X028440Y026680D02*
X027920Y026680D01*
D12*
X023070Y026200D02*
X023070Y025600D01*
X021290Y025600D02*
X021290Y026200D01*
X021290Y028160D02*
X021290Y028760D01*
X023070Y028760D02*
X023070Y028160D01*
D13*
X020180Y028680D03*
X020180Y025680D03*
X020180Y024680D03*
X020180Y022680D03*
X020180Y021680D03*
X019180Y021680D03*
X019180Y022680D03*
X018180Y022680D03*
X018180Y021680D03*
X017180Y021680D03*
X017180Y022680D03*
X016180Y022680D03*
X016180Y021680D03*
X015180Y021680D03*
X015180Y022680D03*
X014180Y022680D03*
X014180Y021680D03*
X013180Y021680D03*
X013180Y022680D03*
X012180Y022680D03*
X012180Y021680D03*
X011180Y021680D03*
X011180Y020680D03*
X011180Y019680D03*
X011180Y018680D03*
X011180Y017680D03*
X011180Y016680D03*
X011180Y015680D03*
X011180Y014680D03*
X011180Y013680D03*
X011180Y012680D03*
X011180Y011680D03*
X011180Y010680D03*
X012180Y010680D03*
X012180Y011680D03*
X013180Y011680D03*
X013180Y010680D03*
X014180Y010680D03*
X014180Y011680D03*
X015180Y011680D03*
X015180Y010680D03*
X016180Y010680D03*
X016180Y011680D03*
X017180Y011680D03*
X017180Y010680D03*
X018180Y010680D03*
X018180Y011680D03*
X019180Y011680D03*
X019180Y010680D03*
X020180Y010680D03*
X020180Y011680D03*
X021180Y011680D03*
X021180Y010680D03*
X022180Y011680D03*
X022180Y012680D03*
X022180Y013680D03*
X022180Y014680D03*
X022180Y015680D03*
X022180Y016680D03*
X022180Y017680D03*
X022180Y018680D03*
X022180Y019680D03*
X022180Y020680D03*
X022180Y021680D03*
X021180Y021680D03*
X021180Y020680D03*
X021180Y019680D03*
X021180Y018680D03*
X021180Y017680D03*
X021180Y016680D03*
X021180Y015680D03*
X021180Y014680D03*
X021180Y013680D03*
X021180Y012680D03*
X021180Y008930D03*
X019180Y008930D03*
X016180Y008930D03*
X014180Y008930D03*
X013180Y008930D03*
X011180Y008930D03*
X010180Y011680D03*
X010180Y012680D03*
X010180Y013680D03*
X010180Y014680D03*
X010180Y015680D03*
X010180Y016680D03*
X010180Y017680D03*
X010180Y018680D03*
X010180Y019680D03*
X010180Y020680D03*
X010180Y021680D03*
X011180Y022680D03*
X013180Y024430D03*
X015180Y024430D03*
X018180Y024680D03*
X021180Y022680D03*
X023930Y019680D03*
X023930Y017680D03*
X025680Y022430D03*
X027680Y022430D03*
X008680Y014680D03*
X008680Y012680D03*
X008430Y019180D03*
X008430Y021180D03*
D14*
X028180Y008180D03*
D15*
X028180Y009180D03*
X028180Y010180D03*
X027180Y010180D03*
X027180Y009180D03*
X027180Y008180D03*
X025180Y007180D03*
X025180Y006180D03*
X024180Y006180D03*
X024180Y007180D03*
X023180Y007180D03*
X023180Y006180D03*
X022180Y006180D03*
X022180Y007180D03*
X021180Y007180D03*
X021180Y006180D03*
X020180Y006180D03*
X020180Y007180D03*
X019180Y007180D03*
X019180Y006180D03*
X018180Y006180D03*
X018180Y007180D03*
X015180Y007180D03*
X015180Y006180D03*
X014180Y006180D03*
X014180Y007180D03*
X013180Y007180D03*
X013180Y006180D03*
X012180Y006180D03*
X012180Y007180D03*
X011180Y007180D03*
X011180Y006180D03*
X010180Y006180D03*
X010180Y007180D03*
X009180Y007180D03*
X009180Y006180D03*
X008180Y006180D03*
X008180Y007180D03*
X005680Y018680D03*
X005680Y019680D03*
X005680Y020680D03*
X005680Y021680D03*
X005680Y022680D03*
X005680Y023680D03*
X005680Y024680D03*
X005680Y025680D03*
X004680Y025680D03*
X004680Y024680D03*
X004680Y023680D03*
X004680Y022680D03*
X004680Y021680D03*
X004680Y020680D03*
X004680Y019680D03*
X004680Y018680D03*
X027180Y018180D03*
X027180Y017180D03*
X027180Y016180D03*
X027180Y015180D03*
X027180Y014180D03*
X027180Y013180D03*
X028180Y013180D03*
X028180Y014180D03*
X028180Y015180D03*
X028180Y016180D03*
X028180Y017180D03*
X028180Y018180D03*
X028180Y019180D03*
X028180Y020180D03*
X027180Y020180D03*
X027180Y019180D03*
D16*
X002748Y003022D02*
X002445Y003197D01*
X002197Y003445D01*
X002022Y003748D01*
X001931Y004086D01*
X001920Y004261D01*
X001920Y029099D01*
X001931Y029274D01*
X002022Y029612D01*
X002197Y029915D01*
X002445Y030163D01*
X002748Y030338D01*
X003086Y030429D01*
X003261Y030440D01*
X030266Y030440D01*
X030419Y030430D01*
X030715Y030351D01*
X030981Y030197D01*
X031197Y029981D01*
X031351Y029715D01*
X031430Y029419D01*
X031440Y029266D01*
X031440Y004261D01*
X031429Y004086D01*
X031338Y003748D01*
X031163Y003445D01*
X030915Y003197D01*
X030612Y003022D01*
X030274Y002931D01*
X030099Y002920D01*
X003261Y002920D01*
X003086Y002931D01*
X002748Y003022D01*
X002748Y003022D01*
X002842Y002997D02*
X030518Y002997D01*
X030843Y003156D02*
X002517Y003156D01*
X002328Y003314D02*
X031032Y003314D01*
X031179Y003473D02*
X002181Y003473D01*
X002090Y003631D02*
X031270Y003631D01*
X031349Y003790D02*
X002011Y003790D01*
X001968Y003948D02*
X003277Y003948D01*
X003210Y003976D02*
X003515Y003849D01*
X003845Y003849D01*
X004150Y003976D01*
X004384Y004210D01*
X004511Y004515D01*
X004511Y004845D01*
X004384Y005150D01*
X004150Y005384D01*
X003845Y005511D01*
X003515Y005511D01*
X003210Y005384D01*
X002976Y005150D01*
X002849Y004845D01*
X002849Y004515D01*
X002976Y004210D01*
X003210Y003976D01*
X003079Y004107D02*
X001930Y004107D01*
X001920Y004265D02*
X002953Y004265D01*
X002887Y004424D02*
X001920Y004424D01*
X001920Y004582D02*
X002849Y004582D01*
X002849Y004741D02*
X001920Y004741D01*
X001920Y004899D02*
X002872Y004899D01*
X002937Y005058D02*
X001920Y005058D01*
X001920Y005216D02*
X003041Y005216D01*
X003200Y005375D02*
X001920Y005375D01*
X001920Y005533D02*
X031440Y005533D01*
X031440Y005375D02*
X030160Y005375D01*
X030150Y005384D02*
X029845Y005511D01*
X029515Y005511D01*
X029210Y005384D01*
X028976Y005150D01*
X028849Y004845D01*
X028849Y004515D01*
X028976Y004210D01*
X029210Y003976D01*
X029515Y003849D01*
X029845Y003849D01*
X030150Y003976D01*
X030384Y004210D01*
X030511Y004515D01*
X030511Y004845D01*
X030384Y005150D01*
X030150Y005384D01*
X030319Y005216D02*
X031440Y005216D01*
X031440Y005058D02*
X030423Y005058D01*
X030488Y004899D02*
X031440Y004899D01*
X031440Y004741D02*
X030511Y004741D01*
X030511Y004582D02*
X031440Y004582D01*
X031440Y004424D02*
X030473Y004424D01*
X030407Y004265D02*
X031440Y004265D01*
X031430Y004107D02*
X030281Y004107D01*
X030083Y003948D02*
X031392Y003948D01*
X031440Y005692D02*
X025455Y005692D01*
X025404Y005640D02*
X025720Y005956D01*
X025720Y006404D01*
X025444Y006680D01*
X025720Y006956D01*
X025720Y007404D01*
X025404Y007720D01*
X024956Y007720D01*
X024680Y007444D01*
X024404Y007720D01*
X024000Y007720D01*
X024000Y013244D01*
X023951Y013361D01*
X022680Y014633D01*
X022680Y014887D01*
X022387Y015180D01*
X021973Y015180D01*
X021680Y014887D01*
X021680Y014473D01*
X021973Y014180D01*
X021680Y013887D01*
X021680Y013473D01*
X021973Y013180D01*
X021680Y012887D01*
X021680Y012473D01*
X021973Y012180D01*
X021680Y011887D01*
X021680Y011633D01*
X021680Y011633D01*
X021680Y011887D01*
X021387Y012180D01*
X020973Y012180D01*
X020680Y011887D01*
X020387Y012180D01*
X019973Y012180D01*
X019680Y011887D01*
X019680Y011473D01*
X019973Y011180D01*
X019680Y010887D01*
X019680Y010473D01*
X019973Y010180D01*
X020360Y010180D01*
X020360Y007720D01*
X019956Y007720D01*
X019680Y007444D01*
X019404Y007720D01*
X018956Y007720D01*
X018680Y007444D01*
X018404Y007720D01*
X017956Y007720D01*
X017640Y007404D01*
X017640Y006956D01*
X017916Y006680D01*
X017640Y006404D01*
X017640Y005956D01*
X017956Y005640D01*
X018404Y005640D01*
X018680Y005916D01*
X018956Y005640D01*
X019404Y005640D01*
X019680Y005916D01*
X019956Y005640D01*
X020404Y005640D01*
X020680Y005916D01*
X020956Y005640D01*
X021404Y005640D01*
X021680Y005916D01*
X021956Y005640D01*
X022404Y005640D01*
X022680Y005916D01*
X022956Y005640D01*
X023404Y005640D01*
X023680Y005916D01*
X023956Y005640D01*
X024404Y005640D01*
X024680Y005916D01*
X024956Y005640D01*
X025404Y005640D01*
X025614Y005850D02*
X031440Y005850D01*
X031440Y006009D02*
X025720Y006009D01*
X025720Y006167D02*
X031440Y006167D01*
X031440Y006326D02*
X025720Y006326D01*
X025640Y006484D02*
X031440Y006484D01*
X031440Y006643D02*
X025481Y006643D01*
X025565Y006801D02*
X031440Y006801D01*
X031440Y006960D02*
X025720Y006960D01*
X025720Y007118D02*
X031440Y007118D01*
X031440Y007277D02*
X025720Y007277D01*
X025689Y007435D02*
X031440Y007435D01*
X031440Y007594D02*
X025530Y007594D01*
X024830Y007594D02*
X024530Y007594D01*
X024000Y007752D02*
X026929Y007752D01*
X026981Y007700D02*
X027160Y007700D01*
X027160Y008160D01*
X027200Y008160D01*
X027200Y007700D01*
X027379Y007700D01*
X027660Y007981D01*
X027660Y008024D01*
X027722Y007874D01*
X027874Y007722D01*
X028073Y007640D01*
X028287Y007640D01*
X028486Y007722D01*
X028638Y007874D01*
X028720Y008073D01*
X028720Y008287D01*
X028638Y008486D01*
X028486Y008638D01*
X028426Y008663D01*
X028720Y008956D01*
X028720Y009404D01*
X028444Y009680D01*
X028720Y009956D01*
X028720Y010404D01*
X028404Y010720D01*
X027956Y010720D01*
X027640Y010404D01*
X027640Y010399D01*
X027379Y010660D01*
X027200Y010660D01*
X027200Y010200D01*
X027160Y010200D01*
X027160Y010660D01*
X026981Y010660D01*
X026700Y010379D01*
X026700Y010200D01*
X027160Y010200D01*
X027160Y010160D01*
X026700Y010160D01*
X026700Y009981D01*
X026981Y009700D01*
X027160Y009700D01*
X027160Y010160D01*
X027200Y010160D01*
X027200Y009700D01*
X027379Y009700D01*
X027640Y009961D01*
X027640Y009956D01*
X027916Y009680D01*
X027640Y009404D01*
X027640Y009399D01*
X027379Y009660D01*
X027200Y009660D01*
X027200Y009200D01*
X027160Y009200D01*
X027160Y009660D01*
X026981Y009660D01*
X026700Y009379D01*
X026700Y009200D01*
X027160Y009200D01*
X027160Y009160D01*
X027200Y009160D01*
X027200Y008700D01*
X027379Y008700D01*
X027640Y008961D01*
X027640Y008956D01*
X027934Y008663D01*
X027874Y008638D01*
X027722Y008486D01*
X027660Y008336D01*
X027660Y008379D01*
X027379Y008660D01*
X027200Y008660D01*
X027200Y008200D01*
X027160Y008200D01*
X027160Y008660D01*
X026981Y008660D01*
X026700Y008379D01*
X026700Y008200D01*
X027160Y008200D01*
X027160Y008160D01*
X026700Y008160D01*
X026700Y007981D01*
X026981Y007700D01*
X027160Y007752D02*
X027200Y007752D01*
X027200Y007911D02*
X027160Y007911D01*
X027160Y008069D02*
X027200Y008069D01*
X027200Y008228D02*
X027160Y008228D01*
X027160Y008386D02*
X027200Y008386D01*
X027200Y008545D02*
X027160Y008545D01*
X027160Y008700D02*
X027160Y009160D01*
X026700Y009160D01*
X026700Y008981D01*
X026981Y008700D01*
X027160Y008700D01*
X027160Y008703D02*
X027200Y008703D01*
X027200Y008862D02*
X027160Y008862D01*
X027160Y009020D02*
X027200Y009020D01*
X027160Y009179D02*
X024000Y009179D01*
X024000Y009337D02*
X026700Y009337D01*
X026817Y009496D02*
X024000Y009496D01*
X024000Y009654D02*
X026975Y009654D01*
X027160Y009654D02*
X027200Y009654D01*
X027200Y009496D02*
X027160Y009496D01*
X027160Y009337D02*
X027200Y009337D01*
X027385Y009654D02*
X027890Y009654D01*
X027784Y009813D02*
X027491Y009813D01*
X027200Y009813D02*
X027160Y009813D01*
X027160Y009971D02*
X027200Y009971D01*
X027200Y010130D02*
X027160Y010130D01*
X027160Y010288D02*
X027200Y010288D01*
X027200Y010447D02*
X027160Y010447D01*
X027160Y010605D02*
X027200Y010605D01*
X027434Y010605D02*
X027841Y010605D01*
X027683Y010447D02*
X027592Y010447D01*
X026926Y010605D02*
X024000Y010605D01*
X024000Y010447D02*
X026768Y010447D01*
X026700Y010288D02*
X024000Y010288D01*
X024000Y010130D02*
X026700Y010130D01*
X026710Y009971D02*
X024000Y009971D01*
X024000Y009813D02*
X026869Y009813D01*
X027543Y009496D02*
X027732Y009496D01*
X027735Y008862D02*
X027540Y008862D01*
X027382Y008703D02*
X027893Y008703D01*
X027781Y008545D02*
X027494Y008545D01*
X027653Y008386D02*
X027681Y008386D01*
X027707Y007911D02*
X027589Y007911D01*
X027431Y007752D02*
X027844Y007752D01*
X028516Y007752D02*
X031440Y007752D01*
X031440Y007911D02*
X028653Y007911D01*
X028719Y008069D02*
X031440Y008069D01*
X031440Y008228D02*
X028720Y008228D01*
X028679Y008386D02*
X031440Y008386D01*
X031440Y008545D02*
X028579Y008545D01*
X028467Y008703D02*
X031440Y008703D01*
X031440Y008862D02*
X028625Y008862D01*
X028720Y009020D02*
X031440Y009020D01*
X031440Y009179D02*
X028720Y009179D01*
X028720Y009337D02*
X031440Y009337D01*
X031440Y009496D02*
X028628Y009496D01*
X028470Y009654D02*
X031440Y009654D01*
X031440Y009813D02*
X028576Y009813D01*
X028720Y009971D02*
X031440Y009971D01*
X031440Y010130D02*
X028720Y010130D01*
X028720Y010288D02*
X031440Y010288D01*
X031440Y010447D02*
X028677Y010447D01*
X028519Y010605D02*
X031440Y010605D01*
X031440Y010764D02*
X024000Y010764D01*
X024000Y010922D02*
X031440Y010922D01*
X031440Y011081D02*
X024000Y011081D01*
X024000Y011239D02*
X031440Y011239D01*
X031440Y011398D02*
X024000Y011398D01*
X024000Y011556D02*
X031440Y011556D01*
X031440Y011715D02*
X024000Y011715D01*
X024000Y011873D02*
X031440Y011873D01*
X031440Y012032D02*
X024000Y012032D01*
X024000Y012190D02*
X031440Y012190D01*
X031440Y012349D02*
X024000Y012349D01*
X024000Y012507D02*
X025900Y012507D01*
X025909Y012499D02*
X025999Y012409D01*
X026116Y012360D01*
X027744Y012360D01*
X027861Y012409D01*
X028093Y012640D01*
X028404Y012640D01*
X028720Y012956D01*
X028720Y013404D01*
X028444Y013680D01*
X028720Y013956D01*
X028720Y014404D01*
X028444Y014680D01*
X028720Y014956D01*
X028720Y015404D01*
X028444Y015680D01*
X028720Y015956D01*
X028720Y016404D01*
X028444Y016680D01*
X028720Y016956D01*
X028720Y017404D01*
X028444Y017680D01*
X028720Y017956D01*
X028720Y018404D01*
X028444Y018680D01*
X028720Y018956D01*
X028720Y019404D01*
X028444Y019680D01*
X028720Y019956D01*
X028720Y020404D01*
X028404Y020720D01*
X028000Y020720D01*
X028000Y020744D01*
X027951Y020861D01*
X026951Y021861D01*
X026861Y021951D01*
X026744Y022000D01*
X025957Y022000D01*
X026180Y022223D01*
X026180Y022637D01*
X025887Y022930D01*
X025473Y022930D01*
X025180Y022637D01*
X025180Y022223D01*
X025403Y022000D01*
X025313Y022000D01*
X023951Y023361D01*
X023861Y023451D01*
X023744Y023500D01*
X022080Y023500D01*
X022118Y023593D01*
X022118Y023767D01*
X022051Y023928D01*
X021928Y024051D01*
X021767Y024118D01*
X021593Y024118D01*
X021555Y024102D01*
X021813Y024360D01*
X023244Y024360D01*
X023361Y024409D01*
X023451Y024499D01*
X024451Y025499D01*
X024453Y025502D01*
X024496Y025397D01*
X024637Y025256D01*
X024821Y025180D01*
X025539Y025180D01*
X025723Y025256D01*
X025864Y025397D01*
X025940Y025581D01*
X025940Y025779D01*
X025864Y025963D01*
X025723Y026104D01*
X025539Y026180D01*
X025723Y026256D01*
X025864Y026397D01*
X025940Y026581D01*
X025940Y026779D01*
X025864Y026963D01*
X025723Y027104D01*
X025539Y027180D01*
X024821Y027180D01*
X024637Y027104D01*
X024496Y026963D01*
X024486Y026938D01*
X023999Y026451D01*
X023909Y026361D01*
X023860Y026244D01*
X023860Y025813D01*
X023539Y025491D01*
X023550Y025562D01*
X023550Y025880D01*
X023090Y025880D01*
X023090Y025920D01*
X023050Y025920D01*
X023050Y026680D01*
X023032Y026680D01*
X022958Y026668D01*
X022886Y026645D01*
X022818Y026611D01*
X022757Y026566D01*
X022704Y026513D01*
X022659Y026452D01*
X022625Y026384D01*
X022602Y026312D01*
X022590Y026238D01*
X022590Y025920D01*
X023050Y025920D01*
X023050Y025880D01*
X023090Y025880D01*
X023090Y025120D01*
X023108Y025120D01*
X023179Y025131D01*
X023047Y025000D01*
X021616Y025000D01*
X021499Y024951D01*
X020922Y024375D01*
X020582Y024375D01*
X020680Y024473D01*
X020680Y024887D01*
X020387Y025180D01*
X019973Y025180D01*
X019680Y024887D01*
X019680Y024473D01*
X019778Y024375D01*
X018497Y024375D01*
X018620Y024498D01*
X018620Y024680D01*
X018620Y024862D01*
X018362Y025120D01*
X018180Y025120D01*
X018180Y024680D01*
X018180Y026180D01*
X017180Y027180D01*
X017198Y027162D02*
X017198Y027198D01*
X017657Y027198D01*
X017657Y027218D01*
X017651Y027257D01*
X018860Y026047D01*
X018860Y025980D01*
X018809Y025928D01*
X018742Y025767D01*
X018742Y025593D01*
X018809Y025432D01*
X018932Y025309D01*
X019093Y025242D01*
X019267Y025242D01*
X019428Y025309D01*
X019551Y025432D01*
X019618Y025593D01*
X019618Y025767D01*
X019551Y025928D01*
X019500Y025980D01*
X019500Y026244D01*
X019451Y026361D01*
X019361Y026451D01*
X017717Y028096D01*
X017717Y028287D01*
X017635Y028484D01*
X017484Y028635D01*
X017287Y028717D01*
X017073Y028717D01*
X016876Y028635D01*
X016725Y028484D01*
X016680Y028376D01*
X016635Y028484D01*
X016484Y028635D01*
X016287Y028717D01*
X016073Y028717D01*
X015876Y028635D01*
X015725Y028484D01*
X015680Y028376D01*
X015635Y028484D01*
X015484Y028635D01*
X015287Y028717D01*
X015073Y028717D01*
X014876Y028635D01*
X014725Y028484D01*
X014680Y028376D01*
X014635Y028484D01*
X014484Y028635D01*
X014287Y028717D01*
X014073Y028717D01*
X013876Y028635D01*
X013725Y028484D01*
X013680Y028376D01*
X013635Y028484D01*
X013484Y028635D01*
X013287Y028717D01*
X013073Y028717D01*
X012876Y028635D01*
X012725Y028484D01*
X012643Y028287D01*
X012643Y028096D01*
X010409Y025861D01*
X010360Y025744D01*
X010360Y022180D01*
X009973Y022180D01*
X009793Y022000D01*
X006813Y022000D01*
X006451Y022361D01*
X006361Y022451D01*
X006244Y022500D01*
X006220Y022500D01*
X006220Y022904D01*
X005944Y023180D01*
X006220Y023456D01*
X006220Y023904D01*
X005944Y024180D01*
X006220Y024456D01*
X006220Y024904D01*
X005944Y025180D01*
X006220Y025456D01*
X006220Y025904D01*
X005904Y026220D01*
X005456Y026220D01*
X005180Y025944D01*
X004904Y026220D01*
X004456Y026220D01*
X004140Y025904D01*
X004140Y025456D01*
X004416Y025180D01*
X004140Y024904D01*
X004140Y024456D01*
X004416Y024180D01*
X004140Y023904D01*
X004140Y023456D01*
X004416Y023180D01*
X004140Y022904D01*
X004140Y022456D01*
X004416Y022180D01*
X004140Y021904D01*
X004140Y021456D01*
X004416Y021180D01*
X004140Y020904D01*
X004140Y020456D01*
X004416Y020180D01*
X004140Y019904D01*
X004140Y019456D01*
X004416Y019180D01*
X004140Y018904D01*
X004140Y018456D01*
X004456Y018140D01*
X004767Y018140D01*
X005999Y016909D01*
X006116Y016860D01*
X009680Y016860D01*
X009680Y016473D01*
X009973Y016180D01*
X010387Y016180D01*
X010680Y016473D01*
X010973Y016180D01*
X011387Y016180D01*
X011567Y016360D01*
X013244Y016360D01*
X013361Y016409D01*
X014194Y017242D01*
X014267Y017242D01*
X014428Y017309D01*
X014551Y017432D01*
X014618Y017593D01*
X014618Y017767D01*
X014551Y017928D01*
X014428Y018051D01*
X014267Y018118D01*
X014093Y018118D01*
X013932Y018051D01*
X013809Y017928D01*
X013742Y017767D01*
X013742Y017694D01*
X013047Y017000D01*
X011567Y017000D01*
X011387Y017180D01*
X011680Y017473D01*
X011680Y017887D01*
X011387Y018180D01*
X010973Y018180D01*
X010680Y017887D01*
X010387Y018180D01*
X010680Y018473D01*
X010680Y018887D01*
X010387Y019180D01*
X010680Y019473D01*
X010973Y019180D01*
X011387Y019180D01*
X011680Y019473D01*
X011680Y019887D01*
X011387Y020180D01*
X011680Y020473D01*
X011680Y020887D01*
X011387Y021180D01*
X011680Y021473D01*
X011680Y021887D01*
X011387Y022180D01*
X011680Y022473D01*
X011680Y022887D01*
X011387Y023180D01*
X011000Y023180D01*
X011000Y025547D01*
X012709Y027257D01*
X012703Y027218D01*
X012703Y027198D01*
X013162Y027198D01*
X013162Y027162D01*
X013198Y027162D01*
X013198Y026703D01*
X013218Y026703D01*
X013292Y026715D01*
X013363Y026738D01*
X013430Y026772D01*
X013491Y026816D01*
X013544Y026869D01*
X013588Y026930D01*
X013622Y026997D01*
X013645Y027068D01*
X013645Y027068D01*
X013725Y026876D01*
X013876Y026725D01*
X014073Y026643D01*
X014287Y026643D01*
X014484Y026725D01*
X014635Y026876D01*
X014680Y026984D01*
X014725Y026876D01*
X014876Y026725D01*
X015073Y026643D01*
X015287Y026643D01*
X015360Y026673D01*
X015360Y024930D01*
X014973Y024930D01*
X014680Y024637D01*
X014680Y024223D01*
X014903Y024000D01*
X014813Y024000D01*
X014500Y024313D01*
X014500Y025380D01*
X014551Y025432D01*
X014618Y025593D01*
X014618Y025767D01*
X014551Y025928D01*
X014428Y026051D01*
X014267Y026118D01*
X014093Y026118D01*
X013932Y026051D01*
X013809Y025928D01*
X013742Y025767D01*
X013742Y025593D01*
X013809Y025432D01*
X013860Y025380D01*
X013860Y024116D01*
X013909Y023999D01*
X013999Y023909D01*
X014499Y023409D01*
X014616Y023360D01*
X015047Y023360D01*
X015227Y023180D01*
X014973Y023180D01*
X014680Y022887D01*
X014680Y022473D01*
X014973Y022180D01*
X014680Y021887D01*
X014680Y021473D01*
X014973Y021180D01*
X015387Y021180D01*
X015680Y021473D01*
X015973Y021180D01*
X016360Y021180D01*
X016360Y020313D01*
X016166Y020118D01*
X016093Y020118D01*
X015932Y020051D01*
X015809Y019928D01*
X015742Y019767D01*
X015742Y019593D01*
X015809Y019432D01*
X015932Y019309D01*
X016093Y019242D01*
X016267Y019242D01*
X016428Y019309D01*
X016551Y019432D01*
X016618Y019593D01*
X016618Y019666D01*
X016758Y019805D01*
X016742Y019767D01*
X016742Y019593D01*
X016809Y019432D01*
X016932Y019309D01*
X017093Y019242D01*
X017267Y019242D01*
X017428Y019309D01*
X017480Y019360D01*
X020793Y019360D01*
X020973Y019180D01*
X020680Y018887D01*
X020680Y018473D01*
X020973Y018180D01*
X020680Y017887D01*
X020680Y017473D01*
X020973Y017180D01*
X020680Y016887D01*
X020680Y016473D01*
X020973Y016180D01*
X020680Y015887D01*
X020680Y015473D01*
X020973Y015180D01*
X021387Y015180D01*
X021680Y015473D01*
X021973Y015180D01*
X022387Y015180D01*
X022680Y015473D01*
X022680Y015727D01*
X025909Y012499D01*
X025742Y012666D02*
X024000Y012666D01*
X024000Y012824D02*
X025583Y012824D01*
X025425Y012983D02*
X024000Y012983D01*
X024000Y013141D02*
X025266Y013141D01*
X025108Y013300D02*
X023977Y013300D01*
X023855Y013458D02*
X024949Y013458D01*
X024791Y013617D02*
X023696Y013617D01*
X023538Y013775D02*
X024632Y013775D01*
X024474Y013934D02*
X023379Y013934D01*
X023221Y014092D02*
X024315Y014092D01*
X024157Y014251D02*
X023062Y014251D01*
X022904Y014409D02*
X023998Y014409D01*
X023840Y014568D02*
X022745Y014568D01*
X022680Y014726D02*
X023681Y014726D01*
X023523Y014885D02*
X022680Y014885D01*
X022524Y015043D02*
X023364Y015043D01*
X023206Y015202D02*
X022409Y015202D01*
X022567Y015360D02*
X023047Y015360D01*
X022889Y015519D02*
X022680Y015519D01*
X022680Y015677D02*
X022730Y015677D01*
X023319Y015994D02*
X023413Y015994D01*
X023477Y015836D02*
X023572Y015836D01*
X023636Y015677D02*
X023730Y015677D01*
X023794Y015519D02*
X023889Y015519D01*
X023953Y015360D02*
X024047Y015360D01*
X024111Y015202D02*
X024206Y015202D01*
X024270Y015043D02*
X024364Y015043D01*
X024428Y014885D02*
X024523Y014885D01*
X024587Y014726D02*
X024681Y014726D01*
X024745Y014568D02*
X024840Y014568D01*
X024904Y014409D02*
X024998Y014409D01*
X025062Y014251D02*
X025157Y014251D01*
X025221Y014092D02*
X025315Y014092D01*
X025409Y013999D02*
X025499Y013909D01*
X025616Y013860D01*
X026736Y013860D01*
X026916Y013680D01*
X026640Y013404D01*
X026640Y013000D01*
X026313Y013000D01*
X022861Y016451D01*
X022744Y016500D01*
X022680Y016500D01*
X022680Y016887D01*
X022387Y017180D01*
X021973Y017180D01*
X021680Y016887D01*
X021387Y017180D01*
X020973Y017180D01*
X021387Y017180D01*
X021680Y017473D01*
X021973Y017180D01*
X022387Y017180D01*
X022680Y017473D01*
X022680Y017727D01*
X022860Y017547D01*
X022860Y016616D01*
X022909Y016499D01*
X025409Y013999D01*
X025379Y013934D02*
X025474Y013934D01*
X025538Y013775D02*
X026821Y013775D01*
X026853Y013617D02*
X025696Y013617D01*
X025855Y013458D02*
X026694Y013458D01*
X026640Y013300D02*
X026013Y013300D01*
X026172Y013141D02*
X026640Y013141D01*
X026180Y012680D02*
X027680Y012680D01*
X028180Y013180D01*
X028588Y012824D02*
X031440Y012824D01*
X031440Y012666D02*
X028429Y012666D01*
X028720Y012983D02*
X031440Y012983D01*
X031440Y013141D02*
X028720Y013141D01*
X028720Y013300D02*
X031440Y013300D01*
X031440Y013458D02*
X028666Y013458D01*
X028507Y013617D02*
X031440Y013617D01*
X031440Y013775D02*
X028539Y013775D01*
X028697Y013934D02*
X031440Y013934D01*
X031440Y014092D02*
X028720Y014092D01*
X028720Y014251D02*
X031440Y014251D01*
X031440Y014409D02*
X028715Y014409D01*
X028556Y014568D02*
X031440Y014568D01*
X031440Y014726D02*
X028490Y014726D01*
X028648Y014885D02*
X031440Y014885D01*
X031440Y015043D02*
X028720Y015043D01*
X028720Y015202D02*
X031440Y015202D01*
X031440Y015360D02*
X028720Y015360D01*
X028605Y015519D02*
X031440Y015519D01*
X031440Y015677D02*
X028447Y015677D01*
X028599Y015836D02*
X031440Y015836D01*
X031440Y015994D02*
X028720Y015994D01*
X028720Y016153D02*
X031440Y016153D01*
X031440Y016311D02*
X028720Y016311D01*
X028654Y016470D02*
X031440Y016470D01*
X031440Y016628D02*
X028496Y016628D01*
X028550Y016787D02*
X031440Y016787D01*
X031440Y016945D02*
X028709Y016945D01*
X028720Y017104D02*
X031440Y017104D01*
X031440Y017262D02*
X028720Y017262D01*
X028703Y017421D02*
X031440Y017421D01*
X031440Y017579D02*
X028545Y017579D01*
X028501Y017738D02*
X031440Y017738D01*
X031440Y017896D02*
X028660Y017896D01*
X028720Y018055D02*
X031440Y018055D01*
X031440Y018213D02*
X028720Y018213D01*
X028720Y018372D02*
X031440Y018372D01*
X031440Y018530D02*
X028594Y018530D01*
X028452Y018689D02*
X031440Y018689D01*
X031440Y018847D02*
X028611Y018847D01*
X028720Y019006D02*
X031440Y019006D01*
X031440Y019164D02*
X028720Y019164D01*
X028720Y019323D02*
X031440Y019323D01*
X031440Y019481D02*
X028643Y019481D01*
X028484Y019640D02*
X031440Y019640D01*
X031440Y019798D02*
X028562Y019798D01*
X028720Y019957D02*
X031440Y019957D01*
X031440Y020115D02*
X028720Y020115D01*
X028720Y020274D02*
X031440Y020274D01*
X031440Y020432D02*
X028692Y020432D01*
X028533Y020591D02*
X031440Y020591D01*
X031440Y020749D02*
X027998Y020749D01*
X027905Y020908D02*
X031440Y020908D01*
X031440Y021066D02*
X027747Y021066D01*
X027588Y021225D02*
X031440Y021225D01*
X031440Y021383D02*
X027430Y021383D01*
X027271Y021542D02*
X031440Y021542D01*
X031440Y021700D02*
X027113Y021700D01*
X026954Y021859D02*
X031440Y021859D01*
X031440Y022017D02*
X027889Y022017D01*
X027862Y021990D02*
X028120Y022248D01*
X028120Y022430D01*
X028120Y022612D01*
X027862Y022870D01*
X027680Y022870D01*
X027680Y022430D01*
X027430Y022430D01*
X026680Y023180D01*
X026680Y026180D01*
X026680Y026680D01*
X025680Y027680D01*
X023850Y027680D01*
X023070Y028460D01*
X023070Y025900D01*
X022960Y025900D01*
X021680Y027180D01*
X020180Y027180D01*
X020832Y027854D02*
X020984Y027702D01*
X021183Y027620D01*
X021397Y027620D01*
X021596Y027702D01*
X021748Y027854D01*
X021830Y028053D01*
X021830Y028867D01*
X021748Y029066D01*
X021596Y029218D01*
X021397Y029300D01*
X021183Y029300D01*
X020984Y029218D01*
X020832Y029066D01*
X020750Y028867D01*
X020750Y028053D01*
X020832Y027854D01*
X020821Y027882D02*
X017931Y027882D01*
X017773Y028040D02*
X020755Y028040D01*
X020750Y028199D02*
X020406Y028199D01*
X020387Y028180D02*
X020680Y028473D01*
X020680Y028887D01*
X020387Y029180D01*
X019973Y029180D01*
X019680Y028887D01*
X019680Y028473D01*
X019973Y028180D01*
X020387Y028180D01*
X020564Y028357D02*
X020750Y028357D01*
X020750Y028516D02*
X020680Y028516D01*
X020680Y028674D02*
X020750Y028674D01*
X020750Y028833D02*
X020680Y028833D01*
X020576Y028991D02*
X020801Y028991D01*
X020916Y029150D02*
X020418Y029150D01*
X019942Y029150D02*
X004384Y029150D01*
X004150Y029384D01*
X003845Y029511D01*
X003515Y029511D01*
X003210Y029384D01*
X002976Y029150D01*
X002849Y028845D01*
X002849Y028515D01*
X002976Y028210D01*
X003210Y027976D01*
X003515Y027849D01*
X003845Y027849D01*
X004150Y027976D01*
X004384Y028210D01*
X004511Y028515D01*
X004511Y028845D01*
X004384Y029150D01*
X004450Y028991D02*
X019784Y028991D01*
X019680Y028833D02*
X004511Y028833D01*
X004511Y028674D02*
X012970Y028674D01*
X012756Y028516D02*
X004511Y028516D01*
X004445Y028357D02*
X012672Y028357D01*
X012643Y028199D02*
X004373Y028199D01*
X004215Y028040D02*
X012587Y028040D01*
X012429Y027882D02*
X003923Y027882D01*
X003437Y027882D02*
X001920Y027882D01*
X001920Y028040D02*
X003145Y028040D01*
X002987Y028199D02*
X001920Y028199D01*
X001920Y028357D02*
X002915Y028357D01*
X002849Y028516D02*
X001920Y028516D01*
X001920Y028674D02*
X002849Y028674D01*
X002849Y028833D02*
X001920Y028833D01*
X001920Y028991D02*
X002910Y028991D01*
X002976Y029150D02*
X001923Y029150D01*
X001941Y029308D02*
X003133Y029308D01*
X003409Y029467D02*
X001983Y029467D01*
X002030Y029625D02*
X031375Y029625D01*
X031417Y029467D02*
X029951Y029467D01*
X029845Y029511D02*
X029515Y029511D01*
X029210Y029384D01*
X028976Y029150D01*
X028849Y028845D01*
X028849Y028515D01*
X028976Y028210D01*
X029210Y027976D01*
X029515Y027849D01*
X029845Y027849D01*
X030150Y027976D01*
X030384Y028210D01*
X030511Y028515D01*
X030511Y028845D01*
X030384Y029150D01*
X030150Y029384D01*
X029845Y029511D01*
X030227Y029308D02*
X031437Y029308D01*
X031440Y029150D02*
X030384Y029150D01*
X030450Y028991D02*
X031440Y028991D01*
X031440Y028833D02*
X030511Y028833D01*
X030511Y028674D02*
X031440Y028674D01*
X031440Y028516D02*
X030511Y028516D01*
X030445Y028357D02*
X031440Y028357D01*
X031440Y028199D02*
X030373Y028199D01*
X030215Y028040D02*
X031440Y028040D01*
X031440Y027882D02*
X029923Y027882D01*
X029437Y027882D02*
X023461Y027882D01*
X023481Y027908D02*
X023436Y027847D01*
X023383Y027794D01*
X023322Y027749D01*
X023254Y027715D01*
X023182Y027692D01*
X023108Y027680D01*
X023090Y027680D01*
X023090Y028440D01*
X023090Y028480D01*
X023550Y028480D01*
X023550Y028798D01*
X023538Y028872D01*
X023515Y028944D01*
X023481Y029012D01*
X023436Y029073D01*
X023383Y029126D01*
X023322Y029171D01*
X023254Y029205D01*
X023182Y029228D01*
X023108Y029240D01*
X023090Y029240D01*
X023090Y028480D01*
X023050Y028480D01*
X023050Y029240D01*
X023032Y029240D01*
X022958Y029228D01*
X022886Y029205D01*
X022818Y029171D01*
X022757Y029126D01*
X022704Y029073D01*
X022659Y029012D01*
X022625Y028944D01*
X022602Y028872D01*
X022590Y028798D01*
X022590Y028480D01*
X023050Y028480D01*
X023050Y028440D01*
X023090Y028440D01*
X023550Y028440D01*
X023550Y028122D01*
X023538Y028048D01*
X023515Y027976D01*
X023481Y027908D01*
X023536Y028040D02*
X029145Y028040D01*
X028987Y028199D02*
X023550Y028199D01*
X023550Y028357D02*
X028915Y028357D01*
X028849Y028516D02*
X023550Y028516D01*
X023550Y028674D02*
X028849Y028674D01*
X028849Y028833D02*
X023544Y028833D01*
X023491Y028991D02*
X028910Y028991D01*
X028976Y029150D02*
X023350Y029150D01*
X023090Y029150D02*
X023050Y029150D01*
X023050Y028991D02*
X023090Y028991D01*
X023090Y028833D02*
X023050Y028833D01*
X023050Y028674D02*
X023090Y028674D01*
X023090Y028516D02*
X023050Y028516D01*
X023050Y028440D02*
X022590Y028440D01*
X022590Y028122D01*
X022602Y028048D01*
X022625Y027976D01*
X022659Y027908D01*
X022704Y027847D01*
X022757Y027794D01*
X022818Y027749D01*
X022886Y027715D01*
X022958Y027692D01*
X023032Y027680D01*
X023050Y027680D01*
X023050Y028440D01*
X023050Y028357D02*
X023090Y028357D01*
X023090Y028199D02*
X023050Y028199D01*
X023050Y028040D02*
X023090Y028040D01*
X023090Y027882D02*
X023050Y027882D01*
X023050Y027723D02*
X023090Y027723D01*
X023270Y027723D02*
X031440Y027723D01*
X031440Y027565D02*
X018248Y027565D01*
X018090Y027723D02*
X020963Y027723D01*
X021617Y027723D02*
X022870Y027723D01*
X022679Y027882D02*
X021759Y027882D01*
X021825Y028040D02*
X022604Y028040D01*
X022590Y028199D02*
X021830Y028199D01*
X021830Y028357D02*
X022590Y028357D01*
X022590Y028516D02*
X021830Y028516D01*
X021830Y028674D02*
X022590Y028674D01*
X022596Y028833D02*
X021830Y028833D01*
X021779Y028991D02*
X022649Y028991D01*
X022790Y029150D02*
X021664Y029150D01*
X019954Y028199D02*
X017717Y028199D01*
X017688Y028357D02*
X019796Y028357D01*
X019680Y028516D02*
X017604Y028516D01*
X017390Y028674D02*
X019680Y028674D01*
X018407Y027406D02*
X031440Y027406D01*
X031440Y027248D02*
X018565Y027248D01*
X018724Y027089D02*
X024622Y027089D01*
X024478Y026931D02*
X018882Y026931D01*
X019041Y026772D02*
X024319Y026772D01*
X024161Y026614D02*
X023316Y026614D01*
X023322Y026611D02*
X023254Y026645D01*
X023182Y026668D01*
X023108Y026680D01*
X023090Y026680D01*
X023090Y025920D01*
X023550Y025920D01*
X023550Y026238D01*
X023538Y026312D01*
X023515Y026384D01*
X023481Y026452D01*
X023436Y026513D01*
X023383Y026566D01*
X023322Y026611D01*
X023478Y026455D02*
X024002Y026455D01*
X023882Y026297D02*
X023541Y026297D01*
X023550Y026138D02*
X023860Y026138D01*
X023860Y025980D02*
X023550Y025980D01*
X023550Y025821D02*
X023860Y025821D01*
X023710Y025663D02*
X023550Y025663D01*
X023541Y025504D02*
X023551Y025504D01*
X023090Y025504D02*
X023050Y025504D01*
X023050Y025346D02*
X023090Y025346D01*
X023090Y025187D02*
X023050Y025187D01*
X023050Y025120D02*
X023050Y025880D01*
X022590Y025880D01*
X022590Y025562D01*
X022602Y025488D01*
X022625Y025416D01*
X022659Y025348D01*
X022704Y025287D01*
X022757Y025234D01*
X022818Y025189D01*
X022886Y025155D01*
X022958Y025132D01*
X023032Y025120D01*
X023050Y025120D01*
X023076Y025029D02*
X020539Y025029D01*
X020680Y024870D02*
X021417Y024870D01*
X021397Y025060D02*
X021596Y025142D01*
X021748Y025294D01*
X021830Y025493D01*
X021830Y026307D01*
X021748Y026506D01*
X021596Y026658D01*
X021397Y026740D01*
X021183Y026740D01*
X020984Y026658D01*
X020832Y026506D01*
X020750Y026307D01*
X020750Y025493D01*
X020832Y025294D01*
X020984Y025142D01*
X021183Y025060D01*
X021397Y025060D01*
X021641Y025187D02*
X022823Y025187D01*
X022662Y025346D02*
X021769Y025346D01*
X021830Y025504D02*
X022599Y025504D01*
X022590Y025663D02*
X021830Y025663D01*
X021830Y025821D02*
X022590Y025821D01*
X022590Y025980D02*
X021830Y025980D01*
X021830Y026138D02*
X022590Y026138D01*
X022599Y026297D02*
X021830Y026297D01*
X021769Y026455D02*
X022662Y026455D01*
X022824Y026614D02*
X021640Y026614D01*
X020940Y026614D02*
X019199Y026614D01*
X019358Y026455D02*
X020811Y026455D01*
X020750Y026297D02*
X019478Y026297D01*
X019500Y026138D02*
X019931Y026138D01*
X019973Y026180D02*
X019680Y025887D01*
X019680Y025473D01*
X019973Y025180D01*
X020387Y025180D01*
X020680Y025473D01*
X020680Y025887D01*
X020387Y026180D01*
X019973Y026180D01*
X019772Y025980D02*
X019500Y025980D01*
X019596Y025821D02*
X019680Y025821D01*
X019680Y025663D02*
X019618Y025663D01*
X019581Y025504D02*
X019680Y025504D01*
X019807Y025346D02*
X019465Y025346D01*
X019180Y025680D02*
X019180Y026180D01*
X017180Y028180D01*
X016756Y028516D02*
X016604Y028516D01*
X016390Y028674D02*
X016970Y028674D01*
X016180Y028180D02*
X016680Y027680D01*
X016680Y024180D01*
X017000Y024480D02*
X017000Y026737D01*
X017068Y026715D01*
X017142Y026703D01*
X017162Y026703D01*
X017162Y027162D01*
X017198Y027162D01*
X017657Y027162D01*
X017657Y027142D01*
X017645Y027068D01*
X017622Y026997D01*
X017588Y026930D01*
X017544Y026869D01*
X017491Y026816D01*
X017430Y026772D01*
X017363Y026738D01*
X017292Y026715D01*
X017218Y026703D01*
X017198Y026703D01*
X017198Y027162D01*
X017198Y027089D02*
X017162Y027089D01*
X017162Y026931D02*
X017198Y026931D01*
X017198Y026772D02*
X017162Y026772D01*
X017000Y026614D02*
X018294Y026614D01*
X018135Y026772D02*
X017430Y026772D01*
X017588Y026931D02*
X017977Y026931D01*
X017818Y027089D02*
X017648Y027089D01*
X017652Y027248D02*
X017660Y027248D01*
X017000Y026455D02*
X018452Y026455D01*
X018611Y026297D02*
X017000Y026297D01*
X017000Y026138D02*
X018769Y026138D01*
X018860Y025980D02*
X017000Y025980D01*
X017000Y025821D02*
X018764Y025821D01*
X018742Y025663D02*
X017000Y025663D01*
X017000Y025504D02*
X018779Y025504D01*
X018895Y025346D02*
X017000Y025346D01*
X017000Y025187D02*
X019966Y025187D01*
X019821Y025029D02*
X018454Y025029D01*
X018612Y024870D02*
X019680Y024870D01*
X019680Y024712D02*
X018620Y024712D01*
X018620Y024680D02*
X018180Y024680D01*
X018180Y024680D01*
X018180Y024680D01*
X018180Y024680D01*
X017740Y024680D01*
X017740Y024862D01*
X017998Y025120D01*
X018180Y025120D01*
X018180Y024680D01*
X018620Y024680D01*
X018620Y024553D02*
X019680Y024553D01*
X019758Y024395D02*
X018517Y024395D01*
X018180Y024680D02*
X017740Y024680D01*
X017740Y024498D01*
X017900Y024337D01*
X017874Y024326D01*
X016999Y023451D01*
X016930Y023383D01*
X016861Y023451D01*
X016555Y023758D01*
X016593Y023742D01*
X016767Y023742D01*
X016928Y023809D01*
X017051Y023932D01*
X017118Y024093D01*
X017118Y024267D01*
X017051Y024428D01*
X017000Y024480D01*
X017000Y024553D02*
X017740Y024553D01*
X017740Y024712D02*
X017000Y024712D01*
X017000Y024870D02*
X017748Y024870D01*
X017906Y025029D02*
X017000Y025029D01*
X017065Y024395D02*
X017843Y024395D01*
X017783Y024236D02*
X017118Y024236D01*
X017112Y024078D02*
X017625Y024078D01*
X017466Y023919D02*
X017039Y023919D01*
X016812Y023761D02*
X017308Y023761D01*
X017149Y023602D02*
X016711Y023602D01*
X016861Y023451D02*
X016861Y023451D01*
X016869Y023444D02*
X016991Y023444D01*
X017180Y023180D02*
X017180Y022680D01*
X017180Y023180D02*
X018055Y024055D01*
X021055Y024055D01*
X021680Y024680D01*
X023180Y024680D01*
X024180Y025680D01*
X024180Y026180D01*
X024680Y026680D01*
X025180Y026680D01*
X024821Y026180D02*
X025539Y026180D01*
X024821Y026180D01*
X024688Y026235D01*
X024500Y026047D01*
X024500Y025967D01*
X024637Y026104D01*
X024821Y026180D01*
X024719Y026138D02*
X024591Y026138D01*
X024512Y025980D02*
X024500Y025980D01*
X024547Y025346D02*
X024298Y025346D01*
X024140Y025187D02*
X024804Y025187D01*
X024821Y025180D02*
X024637Y025104D01*
X024496Y024963D01*
X024420Y024779D01*
X024420Y024581D01*
X024496Y024397D01*
X024637Y024256D01*
X024821Y024180D01*
X025539Y024180D01*
X025723Y024256D01*
X025864Y024397D01*
X025940Y024581D01*
X025940Y024779D01*
X025864Y024963D01*
X025723Y025104D01*
X025539Y025180D01*
X024821Y025180D01*
X024561Y025029D02*
X023981Y025029D01*
X023823Y024870D02*
X024458Y024870D01*
X024420Y024712D02*
X023664Y024712D01*
X023506Y024553D02*
X024431Y024553D01*
X024498Y024395D02*
X023327Y024395D01*
X023869Y023444D02*
X024477Y023444D01*
X024496Y023397D02*
X024637Y023256D01*
X024821Y023180D01*
X025539Y023180D01*
X025723Y023256D01*
X025864Y023397D01*
X025940Y023581D01*
X025940Y023779D01*
X025864Y023963D01*
X025723Y024104D01*
X025539Y024180D01*
X024821Y024180D01*
X024637Y024104D01*
X024496Y023963D01*
X024420Y023779D01*
X024420Y023581D01*
X024496Y023397D01*
X024608Y023285D02*
X024028Y023285D01*
X024186Y023127D02*
X031440Y023127D01*
X031440Y023285D02*
X028752Y023285D01*
X028723Y023256D02*
X028864Y023397D01*
X028940Y023581D01*
X028940Y023779D01*
X028864Y023963D01*
X028723Y024104D01*
X028539Y024180D01*
X028723Y024256D01*
X028864Y024397D01*
X028940Y024581D01*
X028940Y024779D01*
X028864Y024963D01*
X028723Y025104D01*
X028539Y025180D01*
X028723Y025256D01*
X028864Y025397D01*
X028940Y025581D01*
X028940Y025779D01*
X028864Y025963D01*
X028723Y026104D01*
X028539Y026180D01*
X027821Y026180D01*
X027637Y026104D01*
X027496Y025963D01*
X027420Y025779D01*
X027420Y025581D01*
X027496Y025397D01*
X027637Y025256D01*
X027821Y025180D01*
X028539Y025180D01*
X027821Y025180D01*
X027637Y025104D01*
X027496Y024963D01*
X027420Y024779D01*
X027420Y024581D01*
X027496Y024397D01*
X027637Y024256D01*
X027821Y024180D01*
X028539Y024180D01*
X027821Y024180D01*
X027637Y024104D01*
X027496Y023963D01*
X027420Y023779D01*
X027420Y023581D01*
X027496Y023397D01*
X027637Y023256D01*
X027821Y023180D01*
X028539Y023180D01*
X028723Y023256D01*
X028883Y023444D02*
X031440Y023444D01*
X031440Y023602D02*
X028940Y023602D01*
X028940Y023761D02*
X031440Y023761D01*
X031440Y023919D02*
X028882Y023919D01*
X028750Y024078D02*
X031440Y024078D01*
X031440Y024236D02*
X028675Y024236D01*
X028862Y024395D02*
X031440Y024395D01*
X031440Y024553D02*
X028929Y024553D01*
X028940Y024712D02*
X031440Y024712D01*
X031440Y024870D02*
X028902Y024870D01*
X028799Y025029D02*
X031440Y025029D01*
X031440Y025187D02*
X028556Y025187D01*
X028813Y025346D02*
X031440Y025346D01*
X031440Y025504D02*
X028908Y025504D01*
X028940Y025663D02*
X031440Y025663D01*
X031440Y025821D02*
X028923Y025821D01*
X028848Y025980D02*
X031440Y025980D01*
X031440Y026138D02*
X028641Y026138D01*
X028609Y026272D02*
X028671Y026304D01*
X028727Y026344D01*
X028776Y026393D01*
X028816Y026449D01*
X028848Y026511D01*
X028869Y026577D01*
X028880Y026645D01*
X028880Y026680D01*
X028880Y026715D01*
X028869Y026783D01*
X028848Y026849D01*
X028816Y026911D01*
X028776Y026967D01*
X028727Y027016D01*
X028671Y027056D01*
X028609Y027088D01*
X028543Y027109D01*
X028475Y027120D01*
X028180Y027120D01*
X028180Y026680D01*
X027180Y026680D01*
X026680Y026180D01*
X025923Y025821D02*
X027437Y025821D01*
X027420Y025663D02*
X025940Y025663D01*
X025908Y025504D02*
X027452Y025504D01*
X027547Y025346D02*
X025813Y025346D01*
X025556Y025187D02*
X027804Y025187D01*
X027561Y025029D02*
X025799Y025029D01*
X025902Y024870D02*
X027458Y024870D01*
X027420Y024712D02*
X025940Y024712D01*
X025929Y024553D02*
X027431Y024553D01*
X027498Y024395D02*
X025862Y024395D01*
X025675Y024236D02*
X027685Y024236D01*
X027610Y024078D02*
X025750Y024078D01*
X025882Y023919D02*
X027478Y023919D01*
X027420Y023761D02*
X025940Y023761D01*
X025940Y023602D02*
X027420Y023602D01*
X027477Y023444D02*
X025883Y023444D01*
X025752Y023285D02*
X027608Y023285D01*
X027680Y022870D02*
X027498Y022870D01*
X027240Y022612D01*
X027240Y022430D01*
X027680Y022430D01*
X028120Y022430D01*
X027680Y022430D01*
X027680Y022430D01*
X027680Y022430D01*
X027680Y021990D01*
X027862Y021990D01*
X027680Y021990D02*
X027680Y022430D01*
X027680Y022430D01*
X027680Y022430D01*
X027680Y022870D01*
X027680Y022810D02*
X027680Y022810D01*
X027680Y022651D02*
X027680Y022651D01*
X027680Y022493D02*
X027680Y022493D01*
X027680Y022430D02*
X027240Y022430D01*
X027240Y022248D01*
X027498Y021990D01*
X027680Y021990D01*
X027680Y022017D02*
X027680Y022017D01*
X027680Y022176D02*
X027680Y022176D01*
X027680Y022334D02*
X027680Y022334D01*
X027471Y022017D02*
X025974Y022017D01*
X026133Y022176D02*
X027312Y022176D01*
X027240Y022334D02*
X026180Y022334D01*
X026180Y022493D02*
X027240Y022493D01*
X027279Y022651D02*
X026166Y022651D01*
X026008Y022810D02*
X027437Y022810D01*
X027923Y022810D02*
X031440Y022810D01*
X031440Y022968D02*
X024345Y022968D01*
X024503Y022810D02*
X025352Y022810D01*
X025194Y022651D02*
X024662Y022651D01*
X024820Y022493D02*
X025180Y022493D01*
X025180Y022334D02*
X024979Y022334D01*
X025137Y022176D02*
X025227Y022176D01*
X025296Y022017D02*
X025386Y022017D01*
X025180Y021680D02*
X023680Y023180D01*
X019680Y023180D01*
X019180Y022680D01*
X018819Y022334D02*
X018541Y022334D01*
X018680Y022473D02*
X018387Y022180D01*
X017973Y022180D01*
X017680Y022473D01*
X017680Y022887D01*
X017860Y023067D01*
X017860Y023244D01*
X017909Y023361D01*
X018282Y023735D01*
X018188Y023735D01*
X017510Y023057D01*
X017680Y022887D01*
X017680Y022473D01*
X017387Y022180D01*
X017000Y022180D01*
X017000Y022180D01*
X017387Y022180D01*
X017680Y021887D01*
X017680Y021633D01*
X017740Y021573D01*
X017740Y021680D01*
X018180Y021680D01*
X018180Y021680D01*
X018180Y022120D01*
X018362Y022120D01*
X018620Y021862D01*
X018620Y021680D01*
X018180Y021680D01*
X018180Y021680D01*
X018180Y021680D01*
X018180Y022120D01*
X017998Y022120D01*
X017740Y021862D01*
X017740Y021680D01*
X018180Y021680D01*
X018620Y021680D01*
X018620Y021498D01*
X018362Y021240D01*
X018180Y021240D01*
X018180Y021680D01*
X018180Y021680D01*
X018180Y021240D01*
X018073Y021240D01*
X018313Y021000D01*
X020047Y021000D01*
X020227Y021180D01*
X019973Y021180D01*
X019680Y021473D01*
X019680Y021727D01*
X019680Y021727D01*
X019680Y021473D01*
X019387Y021180D01*
X018973Y021180D01*
X018680Y021473D01*
X018680Y021887D01*
X018973Y022180D01*
X019227Y022180D01*
X019227Y022180D01*
X018973Y022180D01*
X018680Y022473D01*
X018680Y022887D01*
X018973Y023180D01*
X019227Y023180D01*
X019407Y023360D01*
X018813Y023360D01*
X018510Y023057D01*
X018680Y022887D01*
X018680Y022473D01*
X018680Y022493D02*
X018680Y022493D01*
X018680Y022651D02*
X018680Y022651D01*
X018680Y022810D02*
X018680Y022810D01*
X018599Y022968D02*
X018761Y022968D01*
X018919Y023127D02*
X018579Y023127D01*
X018738Y023285D02*
X019332Y023285D01*
X018680Y023680D02*
X021680Y023680D01*
X021865Y024078D02*
X024610Y024078D01*
X024685Y024236D02*
X021689Y024236D01*
X022055Y023919D02*
X024478Y023919D01*
X024420Y023761D02*
X022118Y023761D01*
X022118Y023602D02*
X024420Y023602D01*
X025180Y021680D02*
X026680Y021680D01*
X027680Y020680D01*
X027680Y018680D01*
X028180Y018180D01*
X027680Y017680D02*
X026180Y017680D01*
X025680Y018180D01*
X025409Y018529D02*
X024826Y019111D01*
X024736Y019201D01*
X024619Y019250D01*
X024122Y019250D01*
X024370Y019498D01*
X024370Y019680D01*
X024370Y019862D01*
X024112Y020120D01*
X023930Y020120D01*
X023930Y019680D01*
X022930Y020680D01*
X022180Y020680D01*
X021680Y020180D01*
X018180Y020180D01*
X018116Y020360D02*
X017999Y020409D01*
X017227Y021180D01*
X017000Y021180D01*
X017000Y020116D01*
X016982Y020072D01*
X017093Y020118D01*
X017267Y020118D01*
X017428Y020051D01*
X017480Y020000D01*
X020793Y020000D01*
X020973Y020180D01*
X021387Y020180D01*
X021680Y020473D01*
X021680Y020860D01*
X021740Y020860D01*
X021740Y020680D01*
X022180Y020680D01*
X022620Y020680D01*
X022620Y020860D01*
X024047Y020860D01*
X025999Y018909D01*
X026116Y018860D01*
X026736Y018860D01*
X026916Y018680D01*
X026640Y018404D01*
X026640Y018000D01*
X026313Y018000D01*
X026118Y018194D01*
X026118Y018267D01*
X026051Y018428D01*
X025928Y018551D01*
X025767Y018618D01*
X025593Y018618D01*
X025432Y018551D01*
X025409Y018529D01*
X025408Y018530D02*
X025410Y018530D01*
X025249Y018689D02*
X026908Y018689D01*
X026766Y018530D02*
X025950Y018530D01*
X026075Y018372D02*
X026640Y018372D01*
X026640Y018213D02*
X026118Y018213D01*
X026258Y018055D02*
X026640Y018055D01*
X026749Y018847D02*
X025091Y018847D01*
X024932Y019006D02*
X025902Y019006D01*
X025743Y019164D02*
X024774Y019164D01*
X024555Y018930D02*
X023430Y018930D01*
X022680Y019680D01*
X022180Y019680D01*
X021830Y019323D02*
X021530Y019323D01*
X021387Y019180D02*
X021680Y019473D01*
X021973Y019180D01*
X021680Y018887D01*
X021387Y019180D01*
X020973Y019180D01*
X021387Y019180D01*
X021403Y019164D02*
X021957Y019164D01*
X021973Y019180D02*
X022387Y019180D01*
X022546Y019022D01*
X022559Y019053D01*
X022682Y019176D01*
X022717Y019191D01*
X022557Y019350D01*
X022387Y019180D01*
X021973Y019180D01*
X021798Y019006D02*
X021562Y019006D01*
X021680Y018887D02*
X021680Y018633D01*
X021680Y018633D01*
X021680Y018887D01*
X021680Y018847D02*
X021680Y018847D01*
X021680Y018689D02*
X021680Y018689D01*
X021180Y018680D02*
X021680Y018180D01*
X022680Y018180D01*
X023180Y017680D01*
X023180Y016680D01*
X025680Y014180D01*
X027180Y014180D01*
X028180Y015180D02*
X027680Y015680D01*
X027680Y016430D01*
X027430Y016680D01*
X026180Y016680D01*
X025180Y017680D01*
X025180Y018305D01*
X024555Y018930D01*
X024305Y018555D02*
X023180Y018555D01*
X022930Y018805D01*
X022669Y019164D02*
X022403Y019164D01*
X022530Y019323D02*
X022585Y019323D01*
X023015Y019798D02*
X023490Y019798D01*
X023490Y019862D02*
X023490Y019680D01*
X023930Y019680D01*
X023930Y019680D01*
X024370Y019680D01*
X023930Y019680D01*
X023930Y019680D01*
X023930Y019680D01*
X023930Y020120D01*
X023748Y020120D01*
X023490Y019862D01*
X023584Y019957D02*
X022849Y019957D01*
X022861Y019951D02*
X022744Y020000D01*
X022567Y020000D01*
X022387Y020180D01*
X021973Y020180D01*
X021680Y019887D01*
X021680Y019473D01*
X021680Y019887D01*
X021387Y020180D01*
X020973Y020180D01*
X020680Y020473D01*
X020680Y020727D01*
X020451Y020499D01*
X020361Y020409D01*
X020244Y020360D01*
X018116Y020360D01*
X017975Y020432D02*
X017000Y020432D01*
X017000Y020274D02*
X020879Y020274D01*
X020908Y020115D02*
X017275Y020115D01*
X017085Y020115D02*
X016999Y020115D01*
X016680Y020180D02*
X016180Y019680D01*
X016572Y019481D02*
X016788Y019481D01*
X016742Y019640D02*
X016618Y019640D01*
X016751Y019798D02*
X016755Y019798D01*
X016680Y020180D02*
X016680Y023180D01*
X015680Y024180D01*
X015680Y027680D01*
X015180Y028180D01*
X015604Y028516D02*
X015756Y028516D01*
X015970Y028674D02*
X015390Y028674D01*
X014970Y028674D02*
X014390Y028674D01*
X014604Y028516D02*
X014756Y028516D01*
X013970Y028674D02*
X013390Y028674D01*
X013604Y028516D02*
X013756Y028516D01*
X013180Y028180D02*
X010680Y025680D01*
X010680Y021180D01*
X010180Y020680D01*
X010680Y020180D02*
X007180Y020180D01*
X005680Y021680D01*
X006180Y022180D02*
X005180Y022180D01*
X004680Y021680D01*
X004412Y022176D02*
X001920Y022176D01*
X001920Y022334D02*
X004262Y022334D01*
X004140Y022493D02*
X001920Y022493D01*
X001920Y022651D02*
X004140Y022651D01*
X004140Y022810D02*
X001920Y022810D01*
X001920Y022968D02*
X004204Y022968D01*
X004363Y023127D02*
X001920Y023127D01*
X001920Y023285D02*
X004311Y023285D01*
X004153Y023444D02*
X001920Y023444D01*
X001920Y023602D02*
X004140Y023602D01*
X004140Y023761D02*
X001920Y023761D01*
X001920Y023919D02*
X004155Y023919D01*
X004314Y024078D02*
X001920Y024078D01*
X001920Y024236D02*
X004360Y024236D01*
X004202Y024395D02*
X001920Y024395D01*
X001920Y024553D02*
X004140Y024553D01*
X004140Y024712D02*
X001920Y024712D01*
X001920Y024870D02*
X004140Y024870D01*
X004265Y025029D02*
X001920Y025029D01*
X001920Y025187D02*
X004409Y025187D01*
X004251Y025346D02*
X001920Y025346D01*
X001920Y025504D02*
X004140Y025504D01*
X004140Y025663D02*
X001920Y025663D01*
X001920Y025821D02*
X004140Y025821D01*
X004216Y025980D02*
X001920Y025980D01*
X001920Y026138D02*
X004374Y026138D01*
X004986Y026138D02*
X005374Y026138D01*
X005216Y025980D02*
X005144Y025980D01*
X005986Y026138D02*
X010685Y026138D01*
X010527Y025980D02*
X006144Y025980D01*
X006220Y025821D02*
X010392Y025821D01*
X010360Y025663D02*
X006220Y025663D01*
X006220Y025504D02*
X010360Y025504D01*
X010360Y025346D02*
X006109Y025346D01*
X005951Y025187D02*
X010360Y025187D01*
X010360Y025029D02*
X006095Y025029D01*
X006220Y024870D02*
X010360Y024870D01*
X010360Y024712D02*
X006220Y024712D01*
X006220Y024553D02*
X010360Y024553D01*
X010360Y024395D02*
X006158Y024395D01*
X006000Y024236D02*
X010360Y024236D01*
X010360Y024078D02*
X006046Y024078D01*
X006205Y023919D02*
X010360Y023919D01*
X010360Y023761D02*
X006220Y023761D01*
X006220Y023602D02*
X010360Y023602D01*
X010360Y023444D02*
X006207Y023444D01*
X006049Y023285D02*
X010360Y023285D01*
X010360Y023127D02*
X005997Y023127D01*
X006156Y022968D02*
X010360Y022968D01*
X010360Y022810D02*
X006220Y022810D01*
X006220Y022651D02*
X010360Y022651D01*
X010360Y022493D02*
X006262Y022493D01*
X006479Y022334D02*
X010360Y022334D01*
X011000Y022180D02*
X011387Y022180D01*
X011000Y022180D01*
X011000Y022180D01*
X011392Y022176D02*
X011968Y022176D01*
X011973Y022180D02*
X011680Y021887D01*
X011680Y021473D01*
X011973Y021180D01*
X012387Y021180D01*
X012680Y021473D01*
X012973Y021180D01*
X013387Y021180D01*
X013680Y021473D01*
X013973Y021180D01*
X014387Y021180D01*
X014680Y021473D01*
X014680Y021887D01*
X014387Y022180D01*
X013973Y022180D01*
X013680Y021887D01*
X013680Y021473D01*
X013680Y021887D01*
X013387Y022180D01*
X012973Y022180D01*
X012680Y021887D01*
X012680Y021473D01*
X012680Y021887D01*
X012387Y022180D01*
X012680Y022473D01*
X012680Y022887D01*
X012387Y023180D01*
X011973Y023180D01*
X011680Y022887D01*
X011680Y022473D01*
X011973Y022180D01*
X012387Y022180D01*
X011973Y022180D01*
X011819Y022334D02*
X011541Y022334D01*
X011680Y022493D02*
X011680Y022493D01*
X011680Y022651D02*
X011680Y022651D01*
X011680Y022810D02*
X011680Y022810D01*
X011599Y022968D02*
X011761Y022968D01*
X011919Y023127D02*
X011441Y023127D01*
X011000Y023285D02*
X015122Y023285D01*
X014919Y023127D02*
X014441Y023127D01*
X014387Y023180D02*
X013973Y023180D01*
X013680Y022887D01*
X013680Y022473D01*
X013973Y022180D01*
X014387Y022180D01*
X014680Y022473D01*
X014680Y022887D01*
X014387Y023180D01*
X014464Y023444D02*
X011000Y023444D01*
X011000Y023602D02*
X014305Y023602D01*
X014147Y023761D02*
X011000Y023761D01*
X011000Y023919D02*
X013988Y023919D01*
X013876Y024078D02*
X013450Y024078D01*
X013362Y023990D02*
X013620Y024248D01*
X013620Y024430D01*
X013620Y024612D01*
X013362Y024870D01*
X013180Y024870D01*
X013180Y024430D01*
X013180Y027180D01*
X013162Y027162D02*
X013162Y026703D01*
X013142Y026703D01*
X013068Y026715D01*
X012997Y026738D01*
X012930Y026772D01*
X012869Y026816D01*
X012816Y026869D01*
X012772Y026930D01*
X012738Y026997D01*
X012715Y027068D01*
X012703Y027142D01*
X012703Y027162D01*
X013162Y027162D01*
X013162Y027089D02*
X013198Y027089D01*
X013198Y026931D02*
X013162Y026931D01*
X013162Y026772D02*
X013198Y026772D01*
X013430Y026772D02*
X013829Y026772D01*
X013702Y026931D02*
X013588Y026931D01*
X012930Y026772D02*
X012225Y026772D01*
X012383Y026931D02*
X012772Y026931D01*
X012712Y027089D02*
X012542Y027089D01*
X012700Y027248D02*
X012708Y027248D01*
X012270Y027723D02*
X001920Y027723D01*
X001920Y027565D02*
X012112Y027565D01*
X011953Y027406D02*
X001920Y027406D01*
X001920Y027248D02*
X011795Y027248D01*
X011636Y027089D02*
X001920Y027089D01*
X001920Y026931D02*
X011478Y026931D01*
X011319Y026772D02*
X001920Y026772D01*
X001920Y026614D02*
X011161Y026614D01*
X011002Y026455D02*
X001920Y026455D01*
X001920Y026297D02*
X010844Y026297D01*
X011274Y025821D02*
X013764Y025821D01*
X013742Y025663D02*
X011115Y025663D01*
X011000Y025504D02*
X013779Y025504D01*
X013860Y025346D02*
X011000Y025346D01*
X011000Y025187D02*
X013860Y025187D01*
X013860Y025029D02*
X011000Y025029D01*
X011000Y024870D02*
X013860Y024870D01*
X013860Y024712D02*
X013521Y024712D01*
X013620Y024553D02*
X013860Y024553D01*
X013860Y024395D02*
X013620Y024395D01*
X013620Y024430D02*
X013180Y024430D01*
X013180Y022680D01*
X013680Y022180D01*
X013680Y019680D01*
X014180Y019180D01*
X014180Y018680D01*
X015180Y017680D01*
X015180Y014680D01*
X016180Y013680D01*
X016680Y013680D01*
X017680Y012680D01*
X018680Y013680D01*
X021180Y013680D01*
X021620Y013680D01*
X021620Y013862D01*
X021362Y014120D01*
X021180Y014120D01*
X021180Y013680D01*
X021180Y013680D01*
X021180Y013680D01*
X021620Y013680D01*
X021620Y013498D01*
X021362Y013240D01*
X021180Y013240D01*
X021180Y013680D01*
X021180Y013680D01*
X021180Y013680D01*
X020740Y013680D01*
X020740Y013862D01*
X020998Y014120D01*
X021180Y014120D01*
X021180Y013680D01*
X021180Y013240D01*
X020998Y013240D01*
X020740Y013498D01*
X020740Y013680D01*
X021180Y013680D01*
X021180Y013617D02*
X021180Y013617D01*
X021180Y013775D02*
X021180Y013775D01*
X021180Y013934D02*
X021180Y013934D01*
X021180Y014092D02*
X021180Y014092D01*
X021390Y014092D02*
X021885Y014092D01*
X021973Y014180D02*
X022227Y014180D01*
X022227Y014180D01*
X021973Y014180D01*
X021902Y014251D02*
X021458Y014251D01*
X021387Y014180D02*
X021680Y014473D01*
X021680Y014887D01*
X021387Y015180D01*
X020973Y015180D01*
X020680Y014887D01*
X020680Y014473D01*
X020973Y014180D01*
X021387Y014180D01*
X021549Y013934D02*
X021726Y013934D01*
X021680Y013775D02*
X021620Y013775D01*
X021620Y013617D02*
X021680Y013617D01*
X021695Y013458D02*
X021580Y013458D01*
X021422Y013300D02*
X021853Y013300D01*
X021973Y013180D02*
X022387Y013180D01*
X021973Y013180D01*
X021934Y013141D02*
X021426Y013141D01*
X021387Y013180D02*
X020973Y013180D01*
X020680Y012887D01*
X020680Y012473D01*
X020973Y012180D01*
X021387Y012180D01*
X021680Y012473D01*
X021680Y012887D01*
X021387Y013180D01*
X021180Y013300D02*
X021180Y013300D01*
X021180Y013458D02*
X021180Y013458D01*
X020938Y013300D02*
X011507Y013300D01*
X011387Y013180D02*
X011680Y013473D01*
X011680Y013887D01*
X011387Y014180D01*
X010973Y014180D01*
X010680Y013887D01*
X010680Y013473D01*
X010973Y013180D01*
X011387Y013180D01*
X010973Y013180D01*
X010680Y012887D01*
X010387Y013180D01*
X009973Y013180D01*
X009680Y012887D01*
X009680Y012473D01*
X009973Y012180D01*
X010387Y012180D01*
X010680Y012473D01*
X010680Y012887D01*
X010680Y012473D01*
X010973Y012180D01*
X011387Y012180D01*
X011680Y012473D01*
X011680Y012887D01*
X011387Y013180D01*
X011426Y013141D02*
X020934Y013141D01*
X020775Y012983D02*
X011585Y012983D01*
X011680Y012824D02*
X020680Y012824D01*
X020680Y012666D02*
X011680Y012666D01*
X011680Y012507D02*
X020680Y012507D01*
X020804Y012349D02*
X011556Y012349D01*
X011680Y012180D02*
X010680Y012180D01*
X010180Y011680D01*
X009680Y011680D01*
X008680Y012680D01*
X008680Y012680D01*
X008680Y013120D01*
X008862Y013120D01*
X009120Y012862D01*
X009120Y012680D01*
X008680Y012680D01*
X008680Y012680D01*
X008680Y012680D01*
X008240Y012680D01*
X008240Y012862D01*
X008498Y013120D01*
X008680Y013120D01*
X008680Y012680D01*
X009120Y012680D01*
X009120Y012498D01*
X008862Y012240D01*
X008680Y012240D01*
X008680Y012680D01*
X008680Y012680D01*
X008240Y012680D01*
X008240Y012498D01*
X008498Y012240D01*
X008680Y012240D01*
X008680Y012680D01*
X008680Y012666D02*
X008680Y012666D01*
X008680Y012824D02*
X008680Y012824D01*
X008680Y012983D02*
X008680Y012983D01*
X009000Y012983D02*
X009775Y012983D01*
X009680Y012824D02*
X009120Y012824D01*
X009120Y012666D02*
X009680Y012666D01*
X009680Y012507D02*
X009120Y012507D01*
X008971Y012349D02*
X009804Y012349D01*
X009963Y012190D02*
X008000Y012190D01*
X008000Y012032D02*
X009909Y012032D01*
X009998Y012120D02*
X009740Y011862D01*
X009740Y011680D01*
X010180Y011680D01*
X010180Y009930D01*
X011180Y008930D01*
X010680Y008430D01*
X010680Y005180D01*
X007180Y005180D01*
X006680Y005680D01*
X006805Y008805D01*
X007229Y009179D02*
X004390Y009179D01*
X004416Y009168D02*
X004263Y009231D01*
X004097Y009231D01*
X003944Y009168D01*
X003826Y009050D01*
X003763Y008897D01*
X003763Y008731D01*
X003826Y008578D01*
X003944Y008460D01*
X004097Y008397D01*
X004263Y008397D01*
X004416Y008460D01*
X004534Y008578D01*
X004597Y008731D01*
X004597Y008897D01*
X004534Y009050D01*
X004416Y009168D01*
X004546Y009020D02*
X007360Y009020D01*
X007360Y009047D02*
X007360Y006616D01*
X007409Y006499D01*
X007499Y006409D01*
X007640Y006267D01*
X007640Y005956D01*
X007956Y005640D01*
X008404Y005640D01*
X008680Y005916D01*
X008956Y005640D01*
X009404Y005640D01*
X009680Y005916D01*
X009956Y005640D01*
X010404Y005640D01*
X010680Y005916D01*
X010956Y005640D01*
X011404Y005640D01*
X011680Y005916D01*
X011956Y005640D01*
X012404Y005640D01*
X012680Y005916D01*
X012956Y005640D01*
X013404Y005640D01*
X013680Y005916D01*
X013956Y005640D01*
X014404Y005640D01*
X014680Y005916D01*
X014956Y005640D01*
X015404Y005640D01*
X015720Y005956D01*
X015720Y006404D01*
X015444Y006680D01*
X015720Y006956D01*
X015720Y007267D01*
X015951Y007499D01*
X016000Y007616D01*
X016000Y008430D01*
X016387Y008430D01*
X016680Y008723D01*
X016680Y009137D01*
X016387Y009430D01*
X016000Y009430D01*
X016000Y010180D01*
X016387Y010180D01*
X016680Y010473D01*
X016973Y010180D01*
X017387Y010180D01*
X017680Y010473D01*
X017680Y010887D01*
X017387Y011180D01*
X017680Y011473D01*
X017680Y011887D01*
X017387Y012180D01*
X016973Y012180D01*
X016680Y011887D01*
X016680Y011473D01*
X016973Y011180D01*
X017387Y011180D01*
X016973Y011180D01*
X016680Y010887D01*
X016680Y010473D01*
X016680Y010887D01*
X016387Y011180D01*
X016680Y011473D01*
X016680Y011887D01*
X016387Y012180D01*
X015973Y012180D01*
X015680Y011887D01*
X015680Y011633D01*
X015620Y011573D01*
X015620Y011680D01*
X015620Y011862D01*
X015362Y012120D01*
X015180Y012120D01*
X015180Y011680D01*
X015180Y012680D01*
X012180Y012680D01*
X011680Y012180D01*
X011536Y012032D02*
X011824Y012032D01*
X011680Y011887D02*
X011680Y011633D01*
X011680Y011633D01*
X011680Y011887D01*
X011387Y012180D01*
X010973Y012180D01*
X010680Y011887D01*
X010680Y011473D01*
X010973Y011180D01*
X010680Y010887D01*
X010680Y010473D01*
X010973Y010180D01*
X011360Y010180D01*
X011360Y009370D01*
X011180Y009370D01*
X011180Y008930D01*
X011180Y008930D01*
X011180Y008490D01*
X011360Y008490D01*
X011360Y007720D01*
X010956Y007720D01*
X010680Y007444D01*
X010404Y007720D01*
X010000Y007720D01*
X010000Y010380D01*
X010051Y010432D01*
X010118Y010593D01*
X010118Y010767D01*
X010051Y010928D01*
X009928Y011051D01*
X009767Y011118D01*
X009593Y011118D01*
X009432Y011051D01*
X009309Y010928D01*
X009242Y010767D01*
X009242Y010593D01*
X009309Y010432D01*
X009360Y010380D01*
X009360Y007720D01*
X008956Y007720D01*
X008680Y007444D01*
X008500Y007624D01*
X008500Y009244D01*
X008451Y009361D01*
X008000Y009813D01*
X008000Y014547D01*
X008180Y014727D01*
X008180Y014473D01*
X008473Y014180D01*
X008887Y014180D01*
X009180Y014473D01*
X009180Y014860D01*
X009680Y014860D01*
X009680Y014473D01*
X009973Y014180D01*
X009680Y013887D01*
X009680Y013473D01*
X009973Y013180D01*
X010387Y013180D01*
X010680Y013473D01*
X010680Y013887D01*
X010387Y014180D01*
X009973Y014180D01*
X010387Y014180D01*
X010680Y014473D01*
X010973Y014180D01*
X011387Y014180D01*
X011680Y014473D01*
X011680Y014887D01*
X011387Y015180D01*
X011680Y015473D01*
X011680Y015887D01*
X011387Y016180D01*
X010973Y016180D01*
X010680Y015887D01*
X010387Y016180D01*
X009973Y016180D01*
X009793Y016000D01*
X008116Y016000D01*
X007999Y015951D01*
X006999Y014951D01*
X006909Y014861D01*
X006860Y014744D01*
X006860Y009616D01*
X006909Y009499D01*
X006999Y009409D01*
X007360Y009047D01*
X007360Y008862D02*
X004597Y008862D01*
X004586Y008703D02*
X007360Y008703D01*
X007360Y008545D02*
X004501Y008545D01*
X003859Y008545D02*
X001920Y008545D01*
X001920Y008703D02*
X003774Y008703D01*
X003763Y008862D02*
X001920Y008862D01*
X001920Y009020D02*
X003814Y009020D01*
X003970Y009179D02*
X001920Y009179D01*
X001920Y009337D02*
X007070Y009337D01*
X006912Y009496D02*
X001920Y009496D01*
X001920Y009654D02*
X006860Y009654D01*
X006860Y009813D02*
X001920Y009813D01*
X001920Y009971D02*
X006860Y009971D01*
X006860Y010130D02*
X004264Y010130D01*
X004263Y010129D02*
X004416Y010192D01*
X004534Y010310D01*
X004597Y010463D01*
X004597Y010629D01*
X004534Y010782D01*
X004416Y010900D01*
X004263Y010963D01*
X004097Y010963D01*
X003944Y010900D01*
X003826Y010782D01*
X003763Y010629D01*
X003763Y010463D01*
X003826Y010310D01*
X003944Y010192D01*
X004097Y010129D01*
X004263Y010129D01*
X004096Y010130D02*
X001920Y010130D01*
X001920Y010288D02*
X003848Y010288D01*
X003770Y010447D02*
X001920Y010447D01*
X001920Y010605D02*
X003763Y010605D01*
X003819Y010764D02*
X001920Y010764D01*
X001920Y010922D02*
X003997Y010922D01*
X004363Y010922D02*
X006860Y010922D01*
X006860Y010764D02*
X004541Y010764D01*
X004597Y010605D02*
X006860Y010605D01*
X006860Y010447D02*
X004590Y010447D01*
X004512Y010288D02*
X006860Y010288D01*
X007180Y009680D02*
X007180Y014680D01*
X008180Y015680D01*
X010180Y015680D01*
X010573Y015994D02*
X010787Y015994D01*
X010680Y015887D02*
X010680Y015633D01*
X010680Y015633D01*
X010680Y015887D01*
X010680Y015836D02*
X010680Y015836D01*
X010680Y015677D02*
X010680Y015677D01*
X010680Y015180D02*
X011180Y015680D01*
X011133Y015180D02*
X011387Y015180D01*
X011133Y015180D01*
X011133Y015180D01*
X011409Y015202D02*
X020951Y015202D01*
X020836Y015043D02*
X011524Y015043D01*
X011680Y014885D02*
X020680Y014885D01*
X020680Y014726D02*
X011680Y014726D01*
X011680Y014568D02*
X020680Y014568D01*
X020744Y014409D02*
X011616Y014409D01*
X011458Y014251D02*
X020902Y014251D01*
X020970Y014092D02*
X011475Y014092D01*
X011634Y013934D02*
X020811Y013934D01*
X020740Y013775D02*
X011680Y013775D01*
X011680Y013617D02*
X020740Y013617D01*
X020780Y013458D02*
X011665Y013458D01*
X010934Y013141D02*
X010426Y013141D01*
X010507Y013300D02*
X010853Y013300D01*
X010695Y013458D02*
X010665Y013458D01*
X010680Y013617D02*
X010680Y013617D01*
X010680Y013775D02*
X010680Y013775D01*
X010634Y013934D02*
X010726Y013934D01*
X010885Y014092D02*
X010475Y014092D01*
X010458Y014251D02*
X010902Y014251D01*
X010744Y014409D02*
X010616Y014409D01*
X010680Y014473D02*
X010680Y014860D01*
X010680Y014473D01*
X010680Y014568D02*
X010680Y014568D01*
X010680Y014726D02*
X010680Y014726D01*
X010680Y014860D02*
X010680Y014860D01*
X010680Y015180D02*
X008180Y015180D01*
X007680Y014680D01*
X007680Y009680D01*
X008180Y009180D01*
X008180Y007180D01*
X008530Y007594D02*
X008830Y007594D01*
X008500Y007752D02*
X009360Y007752D01*
X009360Y007911D02*
X008500Y007911D01*
X008500Y008069D02*
X009360Y008069D01*
X009360Y008228D02*
X008500Y008228D01*
X008500Y008386D02*
X009360Y008386D01*
X009360Y008545D02*
X008500Y008545D01*
X008500Y008703D02*
X009360Y008703D01*
X009360Y008862D02*
X008500Y008862D01*
X008500Y009020D02*
X009360Y009020D01*
X009360Y009179D02*
X008500Y009179D01*
X008461Y009337D02*
X009360Y009337D01*
X009360Y009496D02*
X008317Y009496D01*
X008159Y009654D02*
X009360Y009654D01*
X009360Y009813D02*
X008000Y009813D01*
X008000Y009971D02*
X009360Y009971D01*
X009360Y010130D02*
X008000Y010130D01*
X008000Y010288D02*
X009360Y010288D01*
X009303Y010447D02*
X008000Y010447D01*
X008000Y010605D02*
X009242Y010605D01*
X009242Y010764D02*
X008000Y010764D01*
X008000Y010922D02*
X009306Y010922D01*
X009502Y011081D02*
X008000Y011081D01*
X008000Y011239D02*
X010914Y011239D01*
X010973Y011180D02*
X011360Y011180D01*
X011360Y011180D01*
X010973Y011180D01*
X010873Y011081D02*
X009858Y011081D01*
X009998Y011240D02*
X010180Y011240D01*
X010362Y011240D01*
X010620Y011498D01*
X010620Y011680D01*
X010620Y011862D01*
X010362Y012120D01*
X010180Y012120D01*
X010180Y011680D01*
X010620Y011680D01*
X010180Y011680D01*
X010180Y011680D01*
X010180Y011680D01*
X010180Y011240D01*
X010180Y011680D01*
X010180Y011680D01*
X010180Y011680D01*
X010180Y012120D01*
X009998Y012120D01*
X010180Y012032D02*
X010180Y012032D01*
X010180Y011873D02*
X010180Y011873D01*
X010180Y011715D02*
X010180Y011715D01*
X010180Y011680D02*
X009740Y011680D01*
X009740Y011498D01*
X009998Y011240D01*
X009840Y011398D02*
X008000Y011398D01*
X008000Y011556D02*
X009740Y011556D01*
X009740Y011715D02*
X008000Y011715D01*
X008000Y011873D02*
X009751Y011873D01*
X010180Y011556D02*
X010180Y011556D01*
X010180Y011398D02*
X010180Y011398D01*
X010520Y011398D02*
X010755Y011398D01*
X010680Y011556D02*
X010620Y011556D01*
X010620Y011715D02*
X010680Y011715D01*
X010680Y011873D02*
X010609Y011873D01*
X010451Y012032D02*
X010824Y012032D01*
X010963Y012190D02*
X010397Y012190D01*
X010556Y012349D02*
X010804Y012349D01*
X010680Y012507D02*
X010680Y012507D01*
X010680Y012666D02*
X010680Y012666D01*
X010680Y012824D02*
X010680Y012824D01*
X010585Y012983D02*
X010775Y012983D01*
X009934Y013141D02*
X008000Y013141D01*
X008000Y012983D02*
X008360Y012983D01*
X008240Y012824D02*
X008000Y012824D01*
X008000Y012666D02*
X008240Y012666D01*
X008240Y012507D02*
X008000Y012507D01*
X008000Y012349D02*
X008389Y012349D01*
X008680Y012349D02*
X008680Y012349D01*
X008680Y012507D02*
X008680Y012507D01*
X008000Y013300D02*
X009853Y013300D01*
X009695Y013458D02*
X008000Y013458D01*
X008000Y013617D02*
X009680Y013617D01*
X009680Y013775D02*
X008000Y013775D01*
X008000Y013934D02*
X009726Y013934D01*
X009885Y014092D02*
X008000Y014092D01*
X008000Y014251D02*
X008402Y014251D01*
X008244Y014409D02*
X008000Y014409D01*
X008020Y014568D02*
X008180Y014568D01*
X008179Y014726D02*
X008180Y014726D01*
X008958Y014251D02*
X009902Y014251D01*
X009744Y014409D02*
X009116Y014409D01*
X009180Y014568D02*
X009680Y014568D01*
X009680Y014726D02*
X009180Y014726D01*
X008102Y015994D02*
X001920Y015994D01*
X001920Y015836D02*
X007883Y015836D01*
X007724Y015677D02*
X001920Y015677D01*
X001920Y015519D02*
X007566Y015519D01*
X007407Y015360D02*
X001920Y015360D01*
X001920Y015202D02*
X007249Y015202D01*
X007090Y015043D02*
X001920Y015043D01*
X001920Y014885D02*
X006932Y014885D01*
X006999Y014951D02*
X006999Y014951D01*
X006860Y014726D02*
X001920Y014726D01*
X001920Y014568D02*
X006860Y014568D01*
X006860Y014409D02*
X001920Y014409D01*
X001920Y014251D02*
X006860Y014251D01*
X006860Y014092D02*
X001920Y014092D01*
X001920Y013934D02*
X006860Y013934D01*
X006860Y013775D02*
X001920Y013775D01*
X001920Y013617D02*
X006860Y013617D01*
X006860Y013458D02*
X001920Y013458D01*
X001920Y013300D02*
X006860Y013300D01*
X006860Y013141D02*
X001920Y013141D01*
X001920Y012983D02*
X006860Y012983D01*
X006860Y012824D02*
X001920Y012824D01*
X001920Y012666D02*
X006860Y012666D01*
X006860Y012507D02*
X001920Y012507D01*
X001920Y012349D02*
X006860Y012349D01*
X006860Y012190D02*
X001920Y012190D01*
X001920Y012032D02*
X006860Y012032D01*
X006860Y011873D02*
X001920Y011873D01*
X001920Y011715D02*
X006860Y011715D01*
X006860Y011556D02*
X001920Y011556D01*
X001920Y011398D02*
X006860Y011398D01*
X006860Y011239D02*
X001920Y011239D01*
X001920Y011081D02*
X006860Y011081D01*
X007180Y009680D02*
X007680Y009180D01*
X007680Y006680D01*
X008180Y006180D01*
X008614Y005850D02*
X008746Y005850D01*
X008905Y005692D02*
X008455Y005692D01*
X007905Y005692D02*
X001920Y005692D01*
X001920Y005850D02*
X007746Y005850D01*
X007640Y006009D02*
X001920Y006009D01*
X001920Y006167D02*
X007640Y006167D01*
X007582Y006326D02*
X001920Y006326D01*
X001920Y006484D02*
X007423Y006484D01*
X007360Y006643D02*
X001920Y006643D01*
X001920Y006801D02*
X007360Y006801D01*
X007360Y006960D02*
X001920Y006960D01*
X001920Y007118D02*
X007360Y007118D01*
X007360Y007277D02*
X001920Y007277D01*
X001920Y007435D02*
X007360Y007435D01*
X007360Y007594D02*
X001920Y007594D01*
X001920Y007752D02*
X007360Y007752D01*
X007360Y007911D02*
X001920Y007911D01*
X001920Y008069D02*
X007360Y008069D01*
X007360Y008228D02*
X001920Y008228D01*
X001920Y008386D02*
X007360Y008386D01*
X010000Y008386D02*
X011360Y008386D01*
X011360Y008228D02*
X010000Y008228D01*
X010000Y008069D02*
X011360Y008069D01*
X011360Y007911D02*
X010000Y007911D01*
X010000Y007752D02*
X011360Y007752D01*
X010830Y007594D02*
X010530Y007594D01*
X009680Y006680D02*
X010180Y006180D01*
X010614Y005850D02*
X010746Y005850D01*
X010905Y005692D02*
X010455Y005692D01*
X009905Y005692D02*
X009455Y005692D01*
X009614Y005850D02*
X009746Y005850D01*
X009680Y006680D02*
X009680Y010680D01*
X010057Y010447D02*
X010706Y010447D01*
X010680Y010605D02*
X010118Y010605D01*
X010118Y010764D02*
X010680Y010764D01*
X010715Y010922D02*
X010054Y010922D01*
X010000Y010288D02*
X010865Y010288D01*
X011360Y010130D02*
X010000Y010130D01*
X010000Y009971D02*
X011360Y009971D01*
X011360Y009813D02*
X010000Y009813D01*
X010000Y009654D02*
X011360Y009654D01*
X011360Y009496D02*
X010000Y009496D01*
X010000Y009337D02*
X010965Y009337D01*
X010998Y009370D02*
X010740Y009112D01*
X010740Y008930D01*
X011180Y008930D01*
X011180Y008930D01*
X011180Y008930D01*
X011180Y009370D01*
X010998Y009370D01*
X011180Y009337D02*
X011180Y009337D01*
X011180Y009179D02*
X011180Y009179D01*
X011180Y009020D02*
X011180Y009020D01*
X011180Y008930D02*
X010740Y008930D01*
X010740Y008748D01*
X010998Y008490D01*
X011180Y008490D01*
X011180Y008930D01*
X011180Y008862D02*
X011180Y008862D01*
X011180Y008703D02*
X011180Y008703D01*
X011180Y008545D02*
X011180Y008545D01*
X010943Y008545D02*
X010000Y008545D01*
X010000Y008703D02*
X010785Y008703D01*
X010740Y008862D02*
X010000Y008862D01*
X010000Y009020D02*
X010740Y009020D01*
X010806Y009179D02*
X010000Y009179D01*
X011680Y011180D02*
X011680Y006930D01*
X011930Y006680D01*
X012680Y006680D01*
X013180Y006180D01*
X013614Y005850D02*
X013746Y005850D01*
X013905Y005692D02*
X013455Y005692D01*
X012905Y005692D02*
X012455Y005692D01*
X012614Y005850D02*
X012746Y005850D01*
X011905Y005692D02*
X011455Y005692D01*
X011614Y005850D02*
X011746Y005850D01*
X013180Y007180D02*
X012680Y007680D01*
X012680Y010180D01*
X013180Y010680D01*
X012680Y010633D02*
X012680Y010887D01*
X012387Y011180D01*
X012680Y011473D01*
X012680Y011887D01*
X012387Y012180D01*
X011973Y012180D01*
X011680Y011887D01*
X011680Y011873D02*
X011680Y011873D01*
X011680Y011715D02*
X011680Y011715D01*
X012180Y011680D02*
X011680Y011180D01*
X012133Y011180D02*
X012133Y011180D01*
X012387Y011180D01*
X012133Y011180D01*
X012446Y011239D02*
X012914Y011239D01*
X012973Y011180D02*
X013360Y011180D01*
X013360Y011180D01*
X012973Y011180D01*
X012680Y010887D01*
X012680Y010633D01*
X012680Y010633D01*
X012680Y010764D02*
X012680Y010764D01*
X012645Y010922D02*
X012715Y010922D01*
X012873Y011081D02*
X012487Y011081D01*
X012605Y011398D02*
X012755Y011398D01*
X012680Y011473D02*
X012973Y011180D01*
X012680Y011473D02*
X012680Y011887D01*
X012973Y012180D01*
X013387Y012180D01*
X013680Y011887D01*
X013680Y011633D01*
X013680Y011633D01*
X013680Y011887D01*
X013973Y012180D01*
X014387Y012180D01*
X014680Y011887D01*
X014680Y011473D01*
X014387Y011180D01*
X014133Y011180D01*
X014133Y011180D01*
X014387Y011180D01*
X014680Y010887D01*
X014680Y010473D01*
X014387Y010180D01*
X014000Y010180D01*
X014000Y009370D01*
X014180Y009370D01*
X014180Y008930D01*
X014680Y009430D01*
X014680Y011180D01*
X015180Y011680D01*
X015180Y011680D01*
X015620Y011680D01*
X015180Y011680D01*
X015180Y011680D01*
X015180Y011240D01*
X015360Y011240D01*
X015360Y011180D01*
X014973Y011180D01*
X014680Y010887D01*
X014680Y010473D01*
X014973Y010180D01*
X015360Y010180D01*
X015360Y007813D01*
X015267Y007720D01*
X014956Y007720D01*
X014680Y007444D01*
X014404Y007720D01*
X014093Y007720D01*
X014000Y007813D01*
X014000Y008490D01*
X014180Y008490D01*
X014362Y008490D01*
X014620Y008748D01*
X014620Y008930D01*
X014620Y009112D01*
X014362Y009370D01*
X014180Y009370D01*
X014180Y008930D01*
X014180Y008930D01*
X014620Y008930D01*
X014180Y008930D01*
X014180Y008930D01*
X014180Y008490D01*
X014180Y008930D01*
X014180Y008930D01*
X014180Y008862D02*
X014180Y008862D01*
X014180Y009020D02*
X014180Y009020D01*
X014180Y009179D02*
X014180Y009179D01*
X014180Y009337D02*
X014180Y009337D01*
X014395Y009337D02*
X015360Y009337D01*
X015360Y009179D02*
X014554Y009179D01*
X014620Y009020D02*
X015360Y009020D01*
X015360Y008862D02*
X014620Y008862D01*
X014575Y008703D02*
X015360Y008703D01*
X015360Y008545D02*
X014417Y008545D01*
X014180Y008545D02*
X014180Y008545D01*
X014180Y008703D02*
X014180Y008703D01*
X014000Y008386D02*
X015360Y008386D01*
X015360Y008228D02*
X014000Y008228D01*
X014000Y008069D02*
X015360Y008069D01*
X015360Y007911D02*
X014000Y007911D01*
X014061Y007752D02*
X015299Y007752D01*
X014830Y007594D02*
X014530Y007594D01*
X014180Y007180D02*
X013680Y007680D01*
X013680Y011180D01*
X014180Y011680D01*
X013824Y012032D02*
X013536Y012032D01*
X013680Y011873D02*
X013680Y011873D01*
X013680Y011715D02*
X013680Y011715D01*
X014446Y011239D02*
X015360Y011239D01*
X015180Y011240D02*
X015180Y011680D01*
X015180Y011680D01*
X015180Y011680D01*
X014740Y011680D01*
X014740Y011862D01*
X014998Y012120D01*
X015180Y012120D01*
X015180Y011680D01*
X014740Y011680D01*
X014740Y011498D01*
X014998Y011240D01*
X015180Y011240D01*
X015180Y011398D02*
X015180Y011398D01*
X015180Y011556D02*
X015180Y011556D01*
X015180Y011715D02*
X015180Y011715D01*
X015180Y011873D02*
X015180Y011873D01*
X015180Y012032D02*
X015180Y012032D01*
X015451Y012032D02*
X015824Y012032D01*
X015680Y011873D02*
X015609Y011873D01*
X015620Y011715D02*
X015680Y011715D01*
X016180Y011680D02*
X015680Y011180D01*
X015680Y007680D01*
X015180Y007180D01*
X015565Y006801D02*
X017795Y006801D01*
X017879Y006643D02*
X015481Y006643D01*
X015640Y006484D02*
X017720Y006484D01*
X017640Y006326D02*
X015720Y006326D01*
X015720Y006167D02*
X017640Y006167D01*
X017640Y006009D02*
X015720Y006009D01*
X015614Y005850D02*
X017746Y005850D01*
X017905Y005692D02*
X015455Y005692D01*
X014905Y005692D02*
X014455Y005692D01*
X014614Y005850D02*
X014746Y005850D01*
X015720Y006960D02*
X017640Y006960D01*
X017640Y007118D02*
X015720Y007118D01*
X015729Y007277D02*
X017640Y007277D01*
X017671Y007435D02*
X015888Y007435D01*
X015991Y007594D02*
X017830Y007594D01*
X018530Y007594D02*
X018830Y007594D01*
X019530Y007594D02*
X019830Y007594D01*
X020360Y007752D02*
X016000Y007752D01*
X016000Y007911D02*
X020360Y007911D01*
X020360Y008069D02*
X016000Y008069D01*
X016000Y008228D02*
X020360Y008228D01*
X020360Y008386D02*
X016000Y008386D01*
X016502Y008545D02*
X018943Y008545D01*
X018998Y008490D02*
X019180Y008490D01*
X019362Y008490D01*
X019620Y008748D01*
X019620Y008930D01*
X019620Y009112D01*
X019362Y009370D01*
X019180Y009370D01*
X019180Y008930D01*
X019180Y009180D01*
X018180Y010180D01*
X018180Y010680D01*
X017680Y011180D01*
X017680Y012680D01*
X017973Y012180D02*
X017680Y011887D01*
X017680Y011473D01*
X017973Y011180D01*
X018387Y011180D01*
X018680Y011473D01*
X018680Y011887D01*
X018387Y012180D01*
X017973Y012180D01*
X017824Y012032D02*
X017536Y012032D01*
X017680Y011873D02*
X017680Y011873D01*
X017680Y011715D02*
X017680Y011715D01*
X017680Y011556D02*
X017680Y011556D01*
X017605Y011398D02*
X017755Y011398D01*
X017914Y011239D02*
X017446Y011239D01*
X017487Y011081D02*
X017958Y011081D01*
X017998Y011120D02*
X017740Y010862D01*
X017740Y010680D01*
X018180Y010680D01*
X018620Y010680D01*
X018620Y010862D01*
X018362Y011120D01*
X018180Y011120D01*
X018180Y010680D01*
X018180Y010680D01*
X018180Y010680D01*
X018620Y010680D01*
X018620Y010498D01*
X018362Y010240D01*
X018180Y010240D01*
X018180Y010680D01*
X018180Y010680D01*
X018180Y010680D01*
X018180Y011120D01*
X017998Y011120D01*
X018180Y011081D02*
X018180Y011081D01*
X018180Y010922D02*
X018180Y010922D01*
X018180Y010764D02*
X018180Y010764D01*
X018180Y010680D02*
X017740Y010680D01*
X017740Y010498D01*
X017998Y010240D01*
X018180Y010240D01*
X018180Y010680D01*
X018180Y010605D02*
X018180Y010605D01*
X018180Y010447D02*
X018180Y010447D01*
X018180Y010288D02*
X018180Y010288D01*
X018410Y010288D02*
X018865Y010288D01*
X018973Y010180D02*
X019387Y010180D01*
X019680Y010473D01*
X019680Y010887D01*
X019387Y011180D01*
X019680Y011473D01*
X019680Y011887D01*
X019387Y012180D01*
X018973Y012180D01*
X018680Y011887D01*
X018680Y011473D01*
X018973Y011180D01*
X019387Y011180D01*
X018973Y011180D01*
X018680Y010887D01*
X018680Y010473D01*
X018973Y010180D01*
X018706Y010447D02*
X018569Y010447D01*
X018620Y010605D02*
X018680Y010605D01*
X018680Y010764D02*
X018620Y010764D01*
X018560Y010922D02*
X018715Y010922D01*
X018873Y011081D02*
X018402Y011081D01*
X018446Y011239D02*
X018914Y011239D01*
X018755Y011398D02*
X018605Y011398D01*
X018680Y011556D02*
X018680Y011556D01*
X018680Y011715D02*
X018680Y011715D01*
X018680Y011873D02*
X018680Y011873D01*
X018536Y012032D02*
X018824Y012032D01*
X019536Y012032D02*
X019824Y012032D01*
X019680Y011873D02*
X019680Y011873D01*
X019680Y011715D02*
X019680Y011715D01*
X019680Y011556D02*
X019680Y011556D01*
X019605Y011398D02*
X019755Y011398D01*
X019914Y011239D02*
X019446Y011239D01*
X019487Y011081D02*
X019873Y011081D01*
X019973Y011180D02*
X020227Y011180D01*
X020227Y011180D01*
X019973Y011180D01*
X019715Y010922D02*
X019645Y010922D01*
X019680Y010764D02*
X019680Y010764D01*
X019680Y010605D02*
X019680Y010605D01*
X019654Y010447D02*
X019706Y010447D01*
X019865Y010288D02*
X019495Y010288D01*
X020360Y010130D02*
X016000Y010130D01*
X016000Y009971D02*
X020360Y009971D01*
X020360Y009813D02*
X016000Y009813D01*
X016000Y009654D02*
X020360Y009654D01*
X020360Y009496D02*
X016000Y009496D01*
X015360Y009496D02*
X014000Y009496D01*
X014000Y009654D02*
X015360Y009654D01*
X015360Y009813D02*
X014000Y009813D01*
X014000Y009971D02*
X015360Y009971D01*
X015360Y010130D02*
X014000Y010130D01*
X014495Y010288D02*
X014865Y010288D01*
X014706Y010447D02*
X014654Y010447D01*
X014680Y010605D02*
X014680Y010605D01*
X014680Y010764D02*
X014680Y010764D01*
X014645Y010922D02*
X014715Y010922D01*
X014873Y011081D02*
X014487Y011081D01*
X014605Y011398D02*
X014840Y011398D01*
X014740Y011556D02*
X014680Y011556D01*
X014680Y011715D02*
X014740Y011715D01*
X014751Y011873D02*
X014680Y011873D01*
X014536Y012032D02*
X014909Y012032D01*
X015180Y012680D02*
X016180Y013680D01*
X016536Y012032D02*
X016824Y012032D01*
X016680Y011873D02*
X016680Y011873D01*
X016680Y011715D02*
X016680Y011715D01*
X016680Y011556D02*
X016680Y011556D01*
X016605Y011398D02*
X016755Y011398D01*
X016914Y011239D02*
X016446Y011239D01*
X016387Y011180D02*
X016133Y011180D01*
X016133Y011180D01*
X016387Y011180D01*
X016487Y011081D02*
X016873Y011081D01*
X016715Y010922D02*
X016645Y010922D01*
X016680Y010764D02*
X016680Y010764D01*
X016680Y010605D02*
X016680Y010605D01*
X016654Y010447D02*
X016706Y010447D01*
X016865Y010288D02*
X016495Y010288D01*
X016480Y009337D02*
X018965Y009337D01*
X018998Y009370D02*
X018740Y009112D01*
X018740Y008930D01*
X019180Y008930D01*
X019620Y008930D01*
X019180Y008930D01*
X019180Y008930D01*
X019180Y008930D01*
X019180Y008490D01*
X019180Y008930D01*
X019180Y008930D01*
X019180Y008930D01*
X019180Y009370D01*
X018998Y009370D01*
X019180Y009337D02*
X019180Y009337D01*
X019180Y009179D02*
X019180Y009179D01*
X019180Y009020D02*
X019180Y009020D01*
X019180Y008930D02*
X018740Y008930D01*
X018740Y008748D01*
X018998Y008490D01*
X019180Y008545D02*
X019180Y008545D01*
X019180Y008703D02*
X019180Y008703D01*
X019180Y008862D02*
X019180Y008862D01*
X019417Y008545D02*
X020360Y008545D01*
X020360Y008703D02*
X019575Y008703D01*
X019620Y008862D02*
X020360Y008862D01*
X020360Y009020D02*
X019620Y009020D01*
X019554Y009179D02*
X020360Y009179D01*
X020360Y009337D02*
X019395Y009337D01*
X018806Y009179D02*
X016639Y009179D01*
X016680Y009020D02*
X018740Y009020D01*
X018740Y008862D02*
X016680Y008862D01*
X016660Y008703D02*
X018785Y008703D01*
X017950Y010288D02*
X017495Y010288D01*
X017654Y010447D02*
X017791Y010447D01*
X017740Y010605D02*
X017680Y010605D01*
X017680Y010764D02*
X017740Y010764D01*
X017800Y010922D02*
X017645Y010922D01*
X020180Y011680D02*
X020680Y011180D01*
X020680Y006680D01*
X021180Y006180D01*
X021614Y005850D02*
X021746Y005850D01*
X021905Y005692D02*
X021455Y005692D01*
X020905Y005692D02*
X020455Y005692D01*
X020614Y005850D02*
X020746Y005850D01*
X019905Y005692D02*
X019455Y005692D01*
X019614Y005850D02*
X019746Y005850D01*
X018905Y005692D02*
X018455Y005692D01*
X018614Y005850D02*
X018746Y005850D01*
X021180Y007180D02*
X021180Y007680D01*
X021680Y008180D01*
X021680Y011180D01*
X022180Y011680D01*
X021824Y012032D02*
X021536Y012032D01*
X021397Y012190D02*
X021963Y012190D01*
X021973Y012180D02*
X022227Y012180D01*
X022227Y012180D01*
X021973Y012180D01*
X021804Y012349D02*
X021556Y012349D01*
X021680Y012507D02*
X021680Y012507D01*
X021680Y012666D02*
X021680Y012666D01*
X021680Y012824D02*
X021680Y012824D01*
X021585Y012983D02*
X021775Y012983D01*
X022180Y012680D02*
X022680Y012180D01*
X022680Y010180D01*
X022180Y009680D01*
X022180Y007180D01*
X022530Y007594D02*
X022830Y007594D01*
X022956Y007720D02*
X022680Y007444D01*
X022500Y007624D01*
X022500Y009547D01*
X022951Y009999D01*
X023000Y010116D01*
X023000Y012244D01*
X022951Y012361D01*
X022861Y012451D01*
X022680Y012633D01*
X022680Y012887D01*
X022387Y013180D01*
X022680Y013473D01*
X022680Y013727D01*
X023360Y013047D01*
X023360Y007720D01*
X022956Y007720D01*
X023360Y007752D02*
X022500Y007752D01*
X022500Y007911D02*
X023360Y007911D01*
X023360Y008069D02*
X022500Y008069D01*
X022500Y008228D02*
X023360Y008228D01*
X023360Y008386D02*
X022500Y008386D01*
X022500Y008545D02*
X023360Y008545D01*
X023360Y008703D02*
X022500Y008703D01*
X022500Y008862D02*
X023360Y008862D01*
X023360Y009020D02*
X022500Y009020D01*
X022500Y009179D02*
X023360Y009179D01*
X023360Y009337D02*
X022500Y009337D01*
X022500Y009496D02*
X023360Y009496D01*
X023360Y009654D02*
X022607Y009654D01*
X022765Y009813D02*
X023360Y009813D01*
X023360Y009971D02*
X022924Y009971D01*
X023000Y010130D02*
X023360Y010130D01*
X023360Y010288D02*
X023000Y010288D01*
X023000Y010447D02*
X023360Y010447D01*
X023360Y010605D02*
X023000Y010605D01*
X023000Y010764D02*
X023360Y010764D01*
X023360Y010922D02*
X023000Y010922D01*
X023000Y011081D02*
X023360Y011081D01*
X023360Y011239D02*
X023000Y011239D01*
X023000Y011398D02*
X023360Y011398D01*
X023360Y011556D02*
X023000Y011556D01*
X023000Y011715D02*
X023360Y011715D01*
X023360Y011873D02*
X023000Y011873D01*
X023000Y012032D02*
X023360Y012032D01*
X023360Y012190D02*
X023000Y012190D01*
X022957Y012349D02*
X023360Y012349D01*
X023360Y012507D02*
X022806Y012507D01*
X022680Y012666D02*
X023360Y012666D01*
X023360Y012824D02*
X022680Y012824D01*
X022585Y012983D02*
X023360Y012983D01*
X023266Y013141D02*
X022426Y013141D01*
X022507Y013300D02*
X023108Y013300D01*
X022949Y013458D02*
X022665Y013458D01*
X022680Y013617D02*
X022791Y013617D01*
X023680Y013180D02*
X022180Y014680D01*
X021836Y015043D02*
X021524Y015043D01*
X021409Y015202D02*
X021951Y015202D01*
X021793Y015360D02*
X021567Y015360D01*
X021680Y015473D02*
X021680Y015860D01*
X021680Y015473D01*
X021680Y015519D02*
X021680Y015519D01*
X021680Y015677D02*
X021680Y015677D01*
X021680Y015836D02*
X021680Y015836D01*
X021680Y015860D02*
X021680Y015860D01*
X021680Y016180D02*
X022680Y016180D01*
X026180Y012680D01*
X027960Y012507D02*
X031440Y012507D01*
X027180Y016180D02*
X025680Y016180D01*
X024680Y017180D01*
X024680Y018180D01*
X024305Y018555D01*
X024195Y019323D02*
X025585Y019323D01*
X025426Y019481D02*
X024353Y019481D01*
X024370Y019640D02*
X025268Y019640D01*
X025109Y019798D02*
X024370Y019798D01*
X024276Y019957D02*
X024951Y019957D01*
X024792Y020115D02*
X024117Y020115D01*
X023930Y020115D02*
X023930Y020115D01*
X023930Y019957D02*
X023930Y019957D01*
X023930Y019798D02*
X023930Y019798D01*
X023930Y019680D02*
X023490Y019680D01*
X023490Y019498D01*
X023738Y019250D01*
X023563Y019250D01*
X022861Y019951D01*
X022452Y020115D02*
X023743Y020115D01*
X023490Y019640D02*
X023173Y019640D01*
X023332Y019481D02*
X023507Y019481D01*
X023490Y019323D02*
X023665Y019323D01*
X024634Y020274D02*
X022396Y020274D01*
X022362Y020240D02*
X022620Y020498D01*
X022620Y020680D01*
X022180Y020680D01*
X022180Y020680D01*
X022180Y020860D01*
X022180Y020860D01*
X022180Y020680D01*
X022180Y020680D01*
X022180Y020240D01*
X022362Y020240D01*
X022180Y020240D02*
X022180Y020680D01*
X022180Y020680D01*
X022180Y020680D01*
X021740Y020680D01*
X021740Y020498D01*
X021998Y020240D01*
X022180Y020240D01*
X022180Y020274D02*
X022180Y020274D01*
X022180Y020432D02*
X022180Y020432D01*
X022180Y020591D02*
X022180Y020591D01*
X022180Y020749D02*
X022180Y020749D01*
X022620Y020749D02*
X024158Y020749D01*
X024317Y020591D02*
X022620Y020591D01*
X022554Y020432D02*
X024475Y020432D01*
X024180Y021180D02*
X020680Y021180D01*
X020180Y020680D01*
X018180Y020680D01*
X017180Y021680D01*
X017680Y021700D02*
X017740Y021700D01*
X017740Y021859D02*
X017680Y021859D01*
X017550Y022017D02*
X017895Y022017D01*
X018180Y022017D02*
X018180Y022017D01*
X018180Y021859D02*
X018180Y021859D01*
X018180Y021700D02*
X018180Y021700D01*
X018180Y021542D02*
X018180Y021542D01*
X018180Y021383D02*
X018180Y021383D01*
X018088Y021225D02*
X018928Y021225D01*
X018770Y021383D02*
X018505Y021383D01*
X018620Y021542D02*
X018680Y021542D01*
X018680Y021700D02*
X018620Y021700D01*
X018620Y021859D02*
X018680Y021859D01*
X018810Y022017D02*
X018465Y022017D01*
X018968Y022176D02*
X017392Y022176D01*
X017541Y022334D02*
X017819Y022334D01*
X017680Y022493D02*
X017680Y022493D01*
X017680Y022651D02*
X017680Y022651D01*
X017680Y022810D02*
X017680Y022810D01*
X017599Y022968D02*
X017761Y022968D01*
X017860Y023127D02*
X017579Y023127D01*
X017738Y023285D02*
X017877Y023285D01*
X017896Y023444D02*
X017991Y023444D01*
X018055Y023602D02*
X018149Y023602D01*
X018180Y023180D02*
X018680Y023680D01*
X018180Y023180D02*
X018180Y022680D01*
X019180Y021680D02*
X019680Y022180D01*
X021680Y022180D01*
X022180Y022680D01*
X020942Y024395D02*
X020602Y024395D01*
X020680Y024553D02*
X021100Y024553D01*
X021259Y024712D02*
X020680Y024712D01*
X020939Y025187D02*
X020394Y025187D01*
X020553Y025346D02*
X020811Y025346D01*
X020750Y025504D02*
X020680Y025504D01*
X020680Y025663D02*
X020750Y025663D01*
X020750Y025821D02*
X020680Y025821D01*
X020750Y025980D02*
X020588Y025980D01*
X020429Y026138D02*
X020750Y026138D01*
X023050Y026138D02*
X023090Y026138D01*
X023090Y025980D02*
X023050Y025980D01*
X023050Y025821D02*
X023090Y025821D01*
X023090Y025663D02*
X023050Y025663D01*
X023050Y026297D02*
X023090Y026297D01*
X023090Y026455D02*
X023050Y026455D01*
X023050Y026614D02*
X023090Y026614D01*
X025641Y026138D02*
X027719Y026138D01*
X027751Y026272D02*
X027817Y026251D01*
X027885Y026240D01*
X028180Y026240D01*
X028475Y026240D01*
X028543Y026251D01*
X028609Y026272D01*
X028657Y026297D02*
X031440Y026297D01*
X031440Y026455D02*
X028819Y026455D01*
X028875Y026614D02*
X031440Y026614D01*
X031440Y026772D02*
X028871Y026772D01*
X028880Y026680D02*
X028180Y026680D01*
X028180Y026680D01*
X028180Y026680D01*
X028180Y027120D01*
X027885Y027120D01*
X027817Y027109D01*
X027751Y027088D01*
X027689Y027056D01*
X027633Y027016D01*
X027584Y026967D01*
X027544Y026911D01*
X027512Y026849D01*
X027491Y026783D01*
X027480Y026715D01*
X027480Y026680D01*
X028180Y026680D01*
X028880Y026680D01*
X028802Y026931D02*
X031440Y026931D01*
X031440Y027089D02*
X028605Y027089D01*
X028180Y027089D02*
X028180Y027089D01*
X028180Y026931D02*
X028180Y026931D01*
X028180Y026772D02*
X028180Y026772D01*
X028180Y026680D02*
X028180Y026680D01*
X028180Y026240D01*
X028180Y026680D01*
X028180Y026680D01*
X027480Y026680D01*
X027480Y026645D01*
X027491Y026577D01*
X027512Y026511D01*
X027544Y026449D01*
X027584Y026393D01*
X027633Y026344D01*
X027689Y026304D01*
X027751Y026272D01*
X027703Y026297D02*
X025764Y026297D01*
X025888Y026455D02*
X027541Y026455D01*
X027485Y026614D02*
X025940Y026614D01*
X025940Y026772D02*
X027489Y026772D01*
X027558Y026931D02*
X025877Y026931D01*
X025738Y027089D02*
X027755Y027089D01*
X028180Y026614D02*
X028180Y026614D01*
X028180Y026455D02*
X028180Y026455D01*
X028180Y026297D02*
X028180Y026297D01*
X027512Y025980D02*
X025848Y025980D01*
X028081Y022651D02*
X031440Y022651D01*
X031440Y022493D02*
X028120Y022493D01*
X028120Y022334D02*
X031440Y022334D01*
X031440Y022176D02*
X028048Y022176D01*
X027180Y019180D02*
X026180Y019180D01*
X024180Y021180D01*
X021964Y020274D02*
X021481Y020274D01*
X021452Y020115D02*
X021908Y020115D01*
X021749Y019957D02*
X021611Y019957D01*
X021680Y019798D02*
X021680Y019798D01*
X021680Y019640D02*
X021680Y019640D01*
X021680Y019481D02*
X021680Y019481D01*
X021180Y019680D02*
X017180Y019680D01*
X017442Y019323D02*
X020830Y019323D01*
X020957Y019164D02*
X010403Y019164D01*
X010387Y019180D02*
X009973Y019180D01*
X010387Y019180D01*
X010530Y019323D02*
X010830Y019323D01*
X010680Y019180D02*
X011180Y018680D01*
X014180Y018680D01*
X013939Y018055D02*
X011513Y018055D01*
X011671Y017896D02*
X013795Y017896D01*
X013742Y017738D02*
X011680Y017738D01*
X011680Y017579D02*
X013626Y017579D01*
X013468Y017421D02*
X011628Y017421D01*
X011469Y017262D02*
X013309Y017262D01*
X013151Y017104D02*
X011464Y017104D01*
X011387Y017180D02*
X011133Y017180D01*
X011133Y017180D01*
X011387Y017180D01*
X011180Y017680D02*
X010680Y017180D01*
X006180Y017180D01*
X004680Y018680D01*
X004383Y018213D02*
X001920Y018213D01*
X001920Y018055D02*
X004853Y018055D01*
X005011Y017896D02*
X001920Y017896D01*
X001920Y017738D02*
X005170Y017738D01*
X005328Y017579D02*
X001920Y017579D01*
X001920Y017421D02*
X005487Y017421D01*
X005645Y017262D02*
X001920Y017262D01*
X001920Y017104D02*
X005804Y017104D01*
X005962Y016945D02*
X001920Y016945D01*
X001920Y016787D02*
X009680Y016787D01*
X009680Y016628D02*
X001920Y016628D01*
X001920Y016470D02*
X009683Y016470D01*
X009842Y016311D02*
X001920Y016311D01*
X001920Y016153D02*
X009945Y016153D01*
X010415Y016153D02*
X010945Y016153D01*
X010842Y016311D02*
X010518Y016311D01*
X010677Y016470D02*
X010683Y016470D01*
X010680Y016473D02*
X010680Y016860D01*
X010680Y016860D01*
X010680Y016473D01*
X010680Y016628D02*
X010680Y016628D01*
X010680Y016787D02*
X010680Y016787D01*
X011180Y016680D02*
X013180Y016680D01*
X014180Y017680D01*
X014316Y017262D02*
X018968Y017262D01*
X018850Y017421D02*
X014540Y017421D01*
X014612Y017579D02*
X018731Y017579D01*
X018612Y017738D02*
X014618Y017738D01*
X014565Y017896D02*
X018344Y017896D01*
X018309Y017932D02*
X018432Y017809D01*
X018593Y017742D01*
X018609Y017742D01*
X019742Y016231D01*
X019742Y016093D01*
X019809Y015932D01*
X019932Y015809D01*
X020093Y015742D01*
X020267Y015742D01*
X020428Y015809D01*
X020551Y015932D01*
X020618Y016093D01*
X020618Y016267D01*
X020551Y016428D01*
X020428Y016551D01*
X020267Y016618D01*
X020251Y016618D01*
X019118Y018129D01*
X019118Y018267D01*
X019051Y018428D01*
X018928Y018551D01*
X018767Y018618D01*
X018593Y018618D01*
X018432Y018551D01*
X018309Y018428D01*
X018242Y018267D01*
X018242Y018093D01*
X018309Y017932D01*
X018258Y018055D02*
X014421Y018055D01*
X014056Y017104D02*
X019087Y017104D01*
X019206Y016945D02*
X013898Y016945D01*
X013739Y016787D02*
X019325Y016787D01*
X019444Y016628D02*
X013581Y016628D01*
X013422Y016470D02*
X019563Y016470D01*
X019682Y016311D02*
X011518Y016311D01*
X011415Y016153D02*
X019742Y016153D01*
X019783Y015994D02*
X011573Y015994D01*
X011680Y015836D02*
X019905Y015836D01*
X020180Y016180D02*
X018680Y018180D01*
X018285Y018372D02*
X011494Y018372D01*
X011620Y018498D02*
X011362Y018240D01*
X011180Y018240D01*
X011180Y018680D01*
X011620Y018680D01*
X011620Y018862D01*
X011362Y019120D01*
X011180Y019120D01*
X011180Y018680D01*
X011180Y018680D01*
X011180Y018680D01*
X011620Y018680D01*
X011620Y018498D01*
X011620Y018530D02*
X018410Y018530D01*
X018242Y018213D02*
X010420Y018213D01*
X010387Y018180D02*
X009973Y018180D01*
X009793Y018360D01*
X006616Y018360D01*
X006499Y018409D01*
X006220Y018687D01*
X006220Y018456D01*
X005904Y018140D01*
X005673Y018140D01*
X006313Y017500D01*
X009680Y017500D01*
X009680Y017887D01*
X009973Y018180D01*
X010387Y018180D01*
X010513Y018055D02*
X010847Y018055D01*
X010689Y017896D02*
X010671Y017896D01*
X010680Y017887D02*
X010680Y017633D01*
X010680Y017633D01*
X010680Y017887D01*
X010680Y017738D02*
X010680Y017738D01*
X010998Y018240D02*
X011180Y018240D01*
X011180Y018680D01*
X011180Y018680D01*
X011180Y018680D01*
X010740Y018680D01*
X010740Y018862D01*
X010998Y019120D01*
X011180Y019120D01*
X011180Y018680D01*
X010740Y018680D01*
X010740Y018498D01*
X010998Y018240D01*
X010866Y018372D02*
X010579Y018372D01*
X010680Y018530D02*
X010740Y018530D01*
X010740Y018689D02*
X010680Y018689D01*
X010680Y018847D02*
X010740Y018847D01*
X010883Y019006D02*
X010562Y019006D01*
X010680Y019180D02*
X008430Y019180D01*
X008430Y019180D01*
X008430Y019620D01*
X008612Y019620D01*
X008870Y019362D01*
X008870Y019180D01*
X008430Y019180D01*
X008430Y019180D01*
X008430Y019180D01*
X007990Y019180D01*
X007990Y019362D01*
X008248Y019620D01*
X008430Y019620D01*
X008430Y019180D01*
X008870Y019180D01*
X008870Y019000D01*
X009793Y019000D01*
X009973Y019180D01*
X009680Y019473D01*
X009680Y019860D01*
X007116Y019860D01*
X006999Y019909D01*
X006220Y020687D01*
X006220Y020456D01*
X005944Y020180D01*
X006220Y019904D01*
X006220Y019500D01*
X006244Y019500D01*
X006361Y019451D01*
X006451Y019361D01*
X006813Y019000D01*
X007990Y019000D01*
X007990Y019180D01*
X008430Y019180D01*
X008430Y019323D02*
X008430Y019323D01*
X008430Y019481D02*
X008430Y019481D01*
X008751Y019481D02*
X009680Y019481D01*
X009680Y019640D02*
X006220Y019640D01*
X006220Y019798D02*
X009680Y019798D01*
X009830Y019323D02*
X008870Y019323D01*
X008870Y019164D02*
X009957Y019164D01*
X009798Y019006D02*
X008870Y019006D01*
X008109Y019481D02*
X006289Y019481D01*
X006490Y019323D02*
X007990Y019323D01*
X007990Y019164D02*
X006649Y019164D01*
X006807Y019006D02*
X007990Y019006D01*
X006680Y018680D02*
X006180Y019180D01*
X005180Y019180D01*
X004680Y019680D01*
X004351Y020115D02*
X001920Y020115D01*
X001920Y019957D02*
X004193Y019957D01*
X004140Y019798D02*
X001920Y019798D01*
X001920Y019640D02*
X004140Y019640D01*
X004140Y019481D02*
X001920Y019481D01*
X001920Y019323D02*
X004274Y019323D01*
X004400Y019164D02*
X001920Y019164D01*
X001920Y019006D02*
X004242Y019006D01*
X004140Y018847D02*
X001920Y018847D01*
X001920Y018689D02*
X004140Y018689D01*
X004140Y018530D02*
X001920Y018530D01*
X001920Y018372D02*
X004225Y018372D01*
X005758Y018055D02*
X009847Y018055D01*
X009940Y018213D02*
X005977Y018213D01*
X006135Y018372D02*
X006589Y018372D01*
X006377Y018530D02*
X006220Y018530D01*
X006680Y018680D02*
X010180Y018680D01*
X009689Y017896D02*
X005917Y017896D01*
X006075Y017738D02*
X009680Y017738D01*
X009680Y017579D02*
X006234Y017579D01*
X006167Y019957D02*
X006951Y019957D01*
X006792Y020115D02*
X006009Y020115D01*
X006037Y020274D02*
X006634Y020274D01*
X006475Y020432D02*
X006196Y020432D01*
X006220Y020591D02*
X006317Y020591D01*
X006680Y021680D02*
X006180Y022180D01*
X006637Y022176D02*
X009968Y022176D01*
X009810Y022017D02*
X006796Y022017D01*
X006680Y021680D02*
X010180Y021680D01*
X011000Y021180D02*
X011387Y021180D01*
X011000Y021180D01*
X011000Y021180D01*
X011180Y020680D02*
X010680Y020180D01*
X010680Y019860D02*
X010680Y019473D01*
X010680Y019860D01*
X010680Y019860D01*
X010680Y019798D02*
X010680Y019798D01*
X010680Y019640D02*
X010680Y019640D01*
X010680Y019481D02*
X010680Y019481D01*
X011180Y019006D02*
X011180Y019006D01*
X011180Y018847D02*
X011180Y018847D01*
X011180Y018689D02*
X011180Y018689D01*
X011180Y018530D02*
X011180Y018530D01*
X011180Y018372D02*
X011180Y018372D01*
X011620Y018689D02*
X020680Y018689D01*
X020680Y018847D02*
X011620Y018847D01*
X011477Y019006D02*
X020798Y019006D01*
X020680Y018530D02*
X018950Y018530D01*
X019075Y018372D02*
X020781Y018372D01*
X020940Y018213D02*
X019118Y018213D01*
X019174Y018055D02*
X020847Y018055D01*
X020973Y018180D02*
X021227Y018180D01*
X021227Y018180D01*
X020973Y018180D01*
X020689Y017896D02*
X019293Y017896D01*
X019412Y017738D02*
X020680Y017738D01*
X020680Y017579D02*
X019531Y017579D01*
X019650Y017421D02*
X020732Y017421D01*
X020891Y017262D02*
X019768Y017262D01*
X019887Y017104D02*
X020896Y017104D01*
X020738Y016945D02*
X020006Y016945D01*
X020125Y016787D02*
X020680Y016787D01*
X020680Y016628D02*
X020244Y016628D01*
X020510Y016470D02*
X020683Y016470D01*
X020600Y016311D02*
X020842Y016311D01*
X020973Y016180D02*
X021227Y016180D01*
X021227Y016180D01*
X020973Y016180D01*
X020945Y016153D02*
X020618Y016153D01*
X020577Y015994D02*
X020787Y015994D01*
X020680Y015836D02*
X020455Y015836D01*
X020680Y015677D02*
X011680Y015677D01*
X011680Y015519D02*
X020680Y015519D01*
X020793Y015360D02*
X011567Y015360D01*
X011397Y012190D02*
X020963Y012190D01*
X020824Y012032D02*
X020536Y012032D01*
X020680Y011887D02*
X020680Y011633D01*
X020680Y011633D01*
X020680Y011887D01*
X020680Y011873D02*
X020680Y011873D01*
X020680Y011715D02*
X020680Y011715D01*
X021680Y011715D02*
X021680Y011715D01*
X021680Y011873D02*
X021680Y011873D01*
X023680Y013180D02*
X023680Y006680D01*
X024180Y006180D01*
X024614Y005850D02*
X024746Y005850D01*
X024905Y005692D02*
X024455Y005692D01*
X023905Y005692D02*
X023455Y005692D01*
X023614Y005850D02*
X023746Y005850D01*
X022905Y005692D02*
X022455Y005692D01*
X022614Y005850D02*
X022746Y005850D01*
X024000Y007911D02*
X026771Y007911D01*
X026700Y008069D02*
X024000Y008069D01*
X024000Y008228D02*
X026700Y008228D01*
X026707Y008386D02*
X024000Y008386D01*
X024000Y008545D02*
X026866Y008545D01*
X026978Y008703D02*
X024000Y008703D01*
X024000Y008862D02*
X026820Y008862D01*
X026700Y009020D02*
X024000Y009020D01*
X028937Y005058D02*
X004423Y005058D01*
X004488Y004899D02*
X028872Y004899D01*
X028849Y004741D02*
X004511Y004741D01*
X004511Y004582D02*
X028849Y004582D01*
X028887Y004424D02*
X004473Y004424D01*
X004407Y004265D02*
X028953Y004265D01*
X029079Y004107D02*
X004281Y004107D01*
X004083Y003948D02*
X029277Y003948D01*
X029041Y005216D02*
X004319Y005216D01*
X004160Y005375D02*
X029200Y005375D01*
X021744Y014409D02*
X021616Y014409D01*
X021680Y014568D02*
X021680Y014568D01*
X021680Y014726D02*
X021680Y014726D01*
X021680Y014885D02*
X021680Y014885D01*
X021680Y016180D02*
X021180Y016680D01*
X021680Y016633D02*
X021680Y016887D01*
X021680Y016633D01*
X021680Y016633D01*
X021680Y016787D02*
X021680Y016787D01*
X021622Y016945D02*
X021738Y016945D01*
X021896Y017104D02*
X021464Y017104D01*
X021469Y017262D02*
X021891Y017262D01*
X021732Y017421D02*
X021628Y017421D01*
X021680Y017473D02*
X021680Y017860D01*
X021680Y017473D01*
X021680Y017579D02*
X021680Y017579D01*
X021680Y017738D02*
X021680Y017738D01*
X021680Y017860D02*
X021680Y017860D01*
X022469Y017262D02*
X022860Y017262D01*
X022860Y017104D02*
X022464Y017104D01*
X022622Y016945D02*
X022860Y016945D01*
X022860Y016787D02*
X022680Y016787D01*
X022680Y016628D02*
X022860Y016628D01*
X022817Y016470D02*
X022938Y016470D01*
X023002Y016311D02*
X023096Y016311D01*
X023160Y016153D02*
X023255Y016153D01*
X022860Y017421D02*
X022628Y017421D01*
X022680Y017579D02*
X022828Y017579D01*
X021806Y020432D02*
X021639Y020432D01*
X021680Y020591D02*
X021740Y020591D01*
X021740Y020749D02*
X021680Y020749D01*
X020721Y020432D02*
X020385Y020432D01*
X020543Y020591D02*
X020680Y020591D01*
X020113Y021066D02*
X018247Y021066D01*
X017817Y020591D02*
X017000Y020591D01*
X017000Y020749D02*
X017658Y020749D01*
X017500Y020908D02*
X017000Y020908D01*
X017000Y021066D02*
X017341Y021066D01*
X016360Y021066D02*
X011501Y021066D01*
X011432Y021225D02*
X011928Y021225D01*
X011770Y021383D02*
X011590Y021383D01*
X011680Y021542D02*
X011680Y021542D01*
X011680Y021700D02*
X011680Y021700D01*
X011680Y021859D02*
X011680Y021859D01*
X011550Y022017D02*
X011810Y022017D01*
X012392Y022176D02*
X012968Y022176D01*
X012998Y022240D02*
X013180Y022240D01*
X013362Y022240D01*
X013620Y022498D01*
X013620Y022680D01*
X013620Y022862D01*
X013362Y023120D01*
X013180Y023120D01*
X013180Y022680D01*
X013620Y022680D01*
X013180Y022680D01*
X013180Y022680D01*
X013180Y022680D01*
X013180Y022240D01*
X013180Y022680D01*
X013180Y022680D01*
X013180Y022680D01*
X012740Y022680D01*
X012740Y022862D01*
X012998Y023120D01*
X013180Y023120D01*
X013180Y022680D01*
X012740Y022680D01*
X012740Y022498D01*
X012998Y022240D01*
X012904Y022334D02*
X012541Y022334D01*
X012680Y022493D02*
X012745Y022493D01*
X012740Y022651D02*
X012680Y022651D01*
X012680Y022810D02*
X012740Y022810D01*
X012846Y022968D02*
X012599Y022968D01*
X012441Y023127D02*
X013919Y023127D01*
X013761Y022968D02*
X013514Y022968D01*
X013620Y022810D02*
X013680Y022810D01*
X013680Y022651D02*
X013620Y022651D01*
X013615Y022493D02*
X013680Y022493D01*
X013819Y022334D02*
X013456Y022334D01*
X013392Y022176D02*
X013968Y022176D01*
X013810Y022017D02*
X013550Y022017D01*
X013680Y021859D02*
X013680Y021859D01*
X013680Y021700D02*
X013680Y021700D01*
X013680Y021542D02*
X013680Y021542D01*
X013590Y021383D02*
X013770Y021383D01*
X013928Y021225D02*
X013432Y021225D01*
X012928Y021225D02*
X012432Y021225D01*
X012590Y021383D02*
X012770Y021383D01*
X012680Y021542D02*
X012680Y021542D01*
X012680Y021700D02*
X012680Y021700D01*
X012680Y021859D02*
X012680Y021859D01*
X012550Y022017D02*
X012810Y022017D01*
X013180Y022334D02*
X013180Y022334D01*
X013180Y022493D02*
X013180Y022493D01*
X013180Y022651D02*
X013180Y022651D01*
X013180Y022810D02*
X013180Y022810D01*
X013180Y022968D02*
X013180Y022968D01*
X013180Y023990D02*
X012998Y023990D01*
X012740Y024248D01*
X012740Y024430D01*
X013180Y024430D01*
X013620Y024430D01*
X013608Y024236D02*
X013860Y024236D01*
X014180Y024180D02*
X014180Y025680D01*
X014581Y025504D02*
X015360Y025504D01*
X015360Y025346D02*
X014500Y025346D01*
X014500Y025187D02*
X015360Y025187D01*
X015360Y025029D02*
X014500Y025029D01*
X014500Y024870D02*
X014913Y024870D01*
X014754Y024712D02*
X014500Y024712D01*
X014500Y024553D02*
X014680Y024553D01*
X014680Y024395D02*
X014500Y024395D01*
X014577Y024236D02*
X014680Y024236D01*
X014735Y024078D02*
X014825Y024078D01*
X014680Y023680D02*
X014180Y024180D01*
X014680Y023680D02*
X015180Y023680D01*
X015680Y023180D01*
X015680Y022180D01*
X016180Y021680D01*
X015680Y021700D02*
X015680Y021700D01*
X015680Y021727D02*
X015680Y021473D01*
X015680Y021727D01*
X015680Y021727D01*
X015680Y021542D02*
X015680Y021542D01*
X015590Y021383D02*
X015770Y021383D01*
X015928Y021225D02*
X015432Y021225D01*
X014928Y021225D02*
X014432Y021225D01*
X014590Y021383D02*
X014770Y021383D01*
X014680Y021542D02*
X014680Y021542D01*
X014680Y021700D02*
X014680Y021700D01*
X014680Y021859D02*
X014680Y021859D01*
X014550Y022017D02*
X014810Y022017D01*
X014968Y022176D02*
X014392Y022176D01*
X014541Y022334D02*
X014819Y022334D01*
X014680Y022493D02*
X014680Y022493D01*
X014680Y022651D02*
X014680Y022651D01*
X014680Y022810D02*
X014680Y022810D01*
X014599Y022968D02*
X014761Y022968D01*
X014973Y022180D02*
X015360Y022180D01*
X015360Y022180D01*
X014973Y022180D01*
X016360Y020908D02*
X011660Y020908D01*
X011680Y020749D02*
X016360Y020749D01*
X016360Y020591D02*
X011680Y020591D01*
X011639Y020432D02*
X016360Y020432D01*
X016321Y020274D02*
X011481Y020274D01*
X011387Y020180D02*
X011133Y020180D01*
X011133Y020180D01*
X011387Y020180D01*
X011452Y020115D02*
X016085Y020115D01*
X015837Y019957D02*
X011611Y019957D01*
X011680Y019798D02*
X015755Y019798D01*
X015742Y019640D02*
X011680Y019640D01*
X011680Y019481D02*
X015788Y019481D01*
X015918Y019323D02*
X011530Y019323D01*
X013180Y023990D02*
X013180Y024430D01*
X013180Y024430D01*
X013180Y024430D01*
X013180Y023990D01*
X013362Y023990D01*
X013180Y024078D02*
X013180Y024078D01*
X013180Y024236D02*
X013180Y024236D01*
X013180Y024395D02*
X013180Y024395D01*
X013180Y024430D02*
X013180Y024430D01*
X013180Y024430D01*
X013180Y024870D01*
X012998Y024870D01*
X012740Y024612D01*
X012740Y024430D01*
X013180Y024430D01*
X013180Y024553D02*
X013180Y024553D01*
X013180Y024712D02*
X013180Y024712D01*
X012839Y024712D02*
X011000Y024712D01*
X011000Y024553D02*
X012740Y024553D01*
X012740Y024395D02*
X011000Y024395D01*
X011000Y024236D02*
X012752Y024236D01*
X012910Y024078D02*
X011000Y024078D01*
X011432Y025980D02*
X013860Y025980D01*
X014500Y025980D02*
X015360Y025980D01*
X015360Y026138D02*
X011591Y026138D01*
X011749Y026297D02*
X015360Y026297D01*
X015360Y026455D02*
X011908Y026455D01*
X012066Y026614D02*
X015360Y026614D01*
X014829Y026772D02*
X014531Y026772D01*
X014658Y026931D02*
X014702Y026931D01*
X014596Y025821D02*
X015360Y025821D01*
X015360Y025663D02*
X014618Y025663D01*
X018180Y025029D02*
X018180Y025029D01*
X018180Y024870D02*
X018180Y024870D01*
X018180Y024712D02*
X018180Y024712D01*
X019680Y021700D02*
X019680Y021700D01*
X019680Y021542D02*
X019680Y021542D01*
X019590Y021383D02*
X019770Y021383D01*
X019928Y021225D02*
X019432Y021225D01*
X016918Y019323D02*
X016442Y019323D01*
X012824Y012032D02*
X012536Y012032D01*
X012680Y011873D02*
X012680Y011873D01*
X012680Y011715D02*
X012680Y011715D01*
X012680Y011556D02*
X012680Y011556D01*
X004323Y020274D02*
X001920Y020274D01*
X001920Y020432D02*
X004164Y020432D01*
X004140Y020591D02*
X001920Y020591D01*
X001920Y020749D02*
X004140Y020749D01*
X004144Y020908D02*
X001920Y020908D01*
X001920Y021066D02*
X004302Y021066D01*
X004372Y021225D02*
X001920Y021225D01*
X001920Y021383D02*
X004213Y021383D01*
X004140Y021542D02*
X001920Y021542D01*
X001920Y021700D02*
X004140Y021700D01*
X004140Y021859D02*
X001920Y021859D01*
X001920Y022017D02*
X004253Y022017D01*
X004227Y029308D02*
X029133Y029308D01*
X029409Y029467D02*
X003951Y029467D01*
X003045Y030418D02*
X030465Y030418D01*
X030874Y030259D02*
X002611Y030259D01*
X002382Y030101D02*
X031077Y030101D01*
X031220Y029942D02*
X002224Y029942D01*
X002121Y029784D02*
X031311Y029784D01*
X027680Y017680D02*
X028180Y017180D01*
D17*
X025680Y018180D03*
X022930Y018805D03*
X020180Y016180D03*
X018680Y018180D03*
X017180Y019680D03*
X016180Y019680D03*
X018180Y020180D03*
X021680Y023680D03*
X022180Y022680D03*
X019180Y025680D03*
X020180Y027180D03*
X016680Y024180D03*
X014180Y025680D03*
X014180Y017680D03*
X009680Y010680D03*
X006805Y008805D03*
X006305Y008805D03*
M02*
